<?xml version="1.0" encoding="utf-8"?>
<!-- Generator: Adobe Illustrator 22.0.1, SVG Export Plug-In . SVG Version: 6.00 Build 0)  -->
<svg version="1.1" id="圖層_1" xmlns="http://www.w3.org/2000/svg" xmlns:xlink="http://www.w3.org/1999/xlink" x="0px" y="0px"
	 viewBox="0 0 439.5 38.8" style="enable-background:new 0 0 439.5 38.8;" xml:space="preserve">
<style type="text/css">
	.st0{fill:#FFFFFF;}
	.st1{fill:#C60000;}
</style>
<title>footer_fixed_font</title>
<g>
	<g>
		<g>
			<g>
				<circle class="st0" cx="153.5" cy="19.4" r="17.5"/>
			</g>
			<path d="M155.8,9.5h6.5c0,0,1.8,6.4,1.3,7.7c-1,2.2-4.2,2.1-4.2,3.3c0,0.8,0,4.1,0,7c0,1.6,0.6,2.2,1.6,2.3c1.1,0.1,2,0.8,2,0.8
				h-8.5c0,0,0.9-0.8,2-0.8c1.4-0.1,2-0.7,2-2.3s0-6.4,0-6.9c0-1.1-3.8-1.7-4.1-4C154.1,14.6,155.3,10.8,155.8,9.5z"/>
			<g>
				<path d="M145.8,27.3c-0.5,0-0.9,0.4-0.9,0.9c0,0.5,0.4,0.9,0.9,0.9c0.5,0,0.9-0.4,0.9-0.9C146.7,27.7,146.3,27.3,145.8,27.3z
					 M145.8,28.6c-0.2,0-0.4-0.2-0.4-0.4c0-0.2,0.2-0.4,0.4-0.4c0.2,0,0.4,0.2,0.4,0.4C146.2,28.4,146.1,28.6,145.8,28.6z"/>
				<path d="M153,27.3c-0.5,0-0.9,0.4-0.9,0.9c0,0.5,0.4,0.9,0.9,0.9c0.5,0,0.9-0.4,0.9-0.9C153.9,27.7,153.5,27.3,153,27.3z
					 M153,28.6c-0.2,0-0.4-0.2-0.4-0.4c0-0.2,0.2-0.4,0.4-0.4c0.2,0,0.4,0.2,0.4,0.4C153.4,28.4,153.2,28.6,153,28.6z"/>
				<path d="M155.4,26.6l-2.5-1.1l-1.3-0.8c-0.5-0.3-1-0.5-1.6-0.5l-1.9-0.1c-0.7,0-1.3,0.2-1.9,0.6l-1.2,0.9l-0.8,0.1
					c-0.6,0.1-1,0.5-1,1.1V28c0,0.2,0.1,0.3,0.3,0.3h1.2c0-0.1,0-0.1,0-0.2c0-0.6,0.5-1.1,1.1-1.1s1.1,0.5,1.1,1.1
					c0,0.1,0,0.1,0,0.2h5c0-0.1,0-0.1,0-0.2c0-0.6,0.5-1.1,1.1-1.1s1.1,0.5,1.1,1.1c0,0.1,0,0.1,0,0.2h1.7c0.2,0,0.3-0.1,0.3-0.3
					v-0.5C156.1,27.1,155.8,26.8,155.4,26.6z M149.2,25.7h-3.3c-0.1,0-0.1,0-0.1-0.1s0-0.1,0-0.1l0.6-0.4c0.5-0.3,1-0.5,1.6-0.5
					c0,0,0,0,0.1,0l1,0L149.2,25.7L149.2,25.7z M152.3,25.7c0,0.1-0.1,0.1-0.1,0.1h-2.6v-1.2l0.5,0c0.5,0,1,0.2,1.4,0.4l0.8,0.5
					C152.3,25.5,152.3,25.6,152.3,25.7z M155.6,27.4C155.6,27.5,155.6,27.5,155.6,27.4l-0.7,0.1c0,0,0,0-0.1,0l-0.2-0.3
					c0,0,0-0.1,0-0.1c0,0,0.1-0.1,0.1-0.1h0.6c0,0,0,0,0,0l0.2,0.3c0,0,0,0,0,0V27.4z"/>
			</g>
			<g>
				<polygon points="145.4,18.3 144.9,18.4 145.2,19.7 145.6,19.6 				"/>
				<path d="M140.8,21.2H140c0,0.1,0,0.1,0,0.2c0,0.6,0.5,1.1,1.1,1.1c0.6,0,1.1-0.5,1.1-1.1c0-0.1,0-0.1,0-0.2c-0.1,0-0.1,0-0.2,0
					h-0.6c0,0.1,0.1,0.1,0.1,0.2c0,0.3-0.2,0.5-0.5,0.5c-0.3,0-0.5-0.2-0.5-0.5C140.7,21.3,140.7,21.2,140.8,21.2L140.8,21.2z"/>
				<path d="M146.1,21.6L146.1,21.6c0.1,0.6,0.6,1,1.1,1c0.6,0,1.1-0.5,1.1-1.1c0-0.1,0-0.1,0-0.2h-0.7c0,0.1,0.1,0.1,0.1,0.2
					c0,0.3-0.2,0.5-0.5,0.5c-0.3,0-0.5-0.2-0.5-0.5c0-0.1,0-0.2,0.1-0.2h0C146.6,21.2,146.1,21.2,146.1,21.6z"/>
				<path d="M142.1,21c0.3,0,0.6,0.2,0.7,0.5l0,0.1h3c0-0.4,0.5-0.6,0.9-0.6c0.4,0,1.8,0,1.8,0c0-1.5-1.7-1.9-1.7-1.9l-0.7-1.5
					l0-0.2h0.6v-1.1c-1.2,0-1.5,0.5-1.5,0.5h-0.9c-0.1,0-0.2,0.1-0.2,0.2v0.2c0,0.1,0.1,0.2,0.2,0.2h1l0.6,2.9l-0.4,0.4h-2.3
					c-0.6-0.2-0.4-1-0.1-1.2c0.1-0.1,0.1-0.1,0.1-0.2h-2.4c-1.2,0-1.2,1.8-1.2,1.8H142.1z"/>
				<path d="M143.3,19c0.1-0.3,0.1-0.6-0.2-0.6h-1.9c-0.2,0-0.4,0.2-0.4,0.4V19H143.3z"/>
			</g>
		</g>
		<path class="st1" d="M153.5,0c-10.7,0-19.4,8.7-19.4,19.4c0,10.7,8.7,19.4,19.4,19.4c10.7,0,19.4-8.7,19.4-19.4
			C172.9,8.7,164.2,0,153.5,0z M138,19.4c0-3.9,1.4-7.4,3.8-10.2l21.9,21.9c-2.7,2.4-6.3,3.8-10.2,3.8C144.9,34.9,138,28,138,19.4z
			 M165.3,29.5L143.4,7.6c2.7-2.3,6.2-3.7,10-3.7c8.6,0,15.5,7,15.5,15.5C169,23.3,167.6,26.8,165.3,29.5z"/>
	</g>
	<g>
		<path class="st0" d="M8.5,8.3v-3h1.7v3h5.1v1.6h-5.1v0.7c1.6,1,3.2,2.2,4.8,3.5l-1,1.4c-1.5-1.6-2.8-2.8-3.9-3.6v6H8.5v-6.5
			c-1.5,2.4-3.3,4.4-5.4,6l-1-1.5c2.5-1.7,4.6-3.8,6.1-6.1H2.7V8.3H8.5z M10.3,28.8c-1.8,2.2-4,4.1-6.6,5.8l-1.1-1.4
			c2.6-1.6,4.7-3.4,6.5-5.5L10.3,28.8z M29.7,24.1v1.6H17.1v9h-1.7v-9H2.7v-1.6H29.7z M27.1,19.4V21H5.3v-1.6H27.1z M21.9,8.3v-3
			h1.7v3h6v1.6h-6V11c2.6,1.5,4.8,3.2,6.6,5.1l-1.1,1.4c-1.5-1.8-3.3-3.4-5.5-5v5.4h-1.7v-6.8c-1.5,2.6-3.3,4.7-5.4,6.5l-1-1.5
			c2.5-1.7,4.4-3.9,5.9-6.3H17V8.3H21.9z M29.9,33.2l-1,1.5c-2.3-2.4-4.6-4.3-6.9-5.7l0.9-1.3C25.4,29.2,27.7,31,29.9,33.2z"/>
		<path class="st0" d="M51,5.3v10.8h10.2v1.7H51v13.7h12v1.7H34.4v-1.7h5.6V11h1.8v20.5h7.4V5.3H51z"/>
		<path class="st0" d="M73.4,18.2l-1.3,1.3c-1.4-1.5-3.2-3-5.5-4.6l1.2-1.2C70.1,15.2,71.9,16.7,73.4,18.2z M73.6,22.7
			c-1.5,4.1-3.1,8-4.9,11.6l-1.7-0.7c1.9-3.8,3.6-7.6,5-11.6L73.6,22.7z M74.3,10.4L73,11.7c-1.4-1.5-3.2-3-5.5-4.7l1.2-1.2
			C70.9,7.3,72.8,8.9,74.3,10.4z M95.7,6.8v1.7H89v4.2h5.6v22H93v-1.4H78v1.5h-1.7V12.7h5.4V8.4h-6.5V6.8H95.7z M78,14.3v17.3h15v-9
			h-3.3c-1.6,0-2.3-0.8-2.3-2.3v-6h-3.9v2.2c-0.1,3.3-1.3,5.7-3.7,7.2l-1.2-1c2.2-1.3,3.3-3.4,3.3-6.2v-2.2H78z M91.3,26.2v1.6H79.7
			v-1.6H91.3z M87.3,8.4h-3.9v4.2h3.9V8.4z M93,14.3h-4.1V20c0,0.7,0.4,1.1,1.1,1.1h3V14.3z"/>
		<path class="st0" d="M106.9,5.5v1.5c0,0.1,0,0.3,0,0.4h6.6c-0.1,3.4-0.4,5.4-0.9,6.1s-1.6,1-3,1c-0.5,0-1.2,0-1.9-0.1l-0.4-1.5
			c0.8,0.1,1.5,0.1,2,0.1c1.1,0,1.8-0.3,2.1-0.7c0.3-0.4,0.4-1.6,0.5-3.4h-5c-0.6,3.1-2.7,5.4-6.2,6.9l-1.2-1.1
			c3.2-1.4,5.1-3.3,5.8-5.8h-4.8V7.3h5c0-0.2,0-0.3,0-0.4V5.5H106.9z M104.7,29c-0.8,2.1-1.8,4-3.2,5.5l-1.5-0.9
			c1.4-1.5,2.4-3.1,3.1-5L104.7,29z M126.3,26c0,4.3-0.4,6.8-1,7.5c-0.7,0.7-2,1.1-4,1.1c-1.1,0-2.2,0-3.4,0l-0.4-1.5
			c1.2,0,2.4,0.1,3.5,0.1c1.8,0,2.8-0.4,3.1-1.1c0.3-0.8,0.5-2.3,0.5-4.6h-20.7V16H125v1.4h-9.5v2h8.5v1.3h-8.5v2h8.4V24h-8.4v2
			H126.3z M105.6,17.4v2h8.3v-2H105.6z M105.6,22.7h8.3v-2h-8.3V22.7z M105.6,26h8.3v-2h-8.3V26z M110.2,33.9l-1.6,0.2
			c-0.2-2.1-0.6-3.7-1.4-4.9l1.4-0.2C109.4,30.3,109.9,31.9,110.2,33.9z M115.6,33.4l-1.6,0.2c-0.2-2.1-0.7-3.7-1.4-4.8l1.4-0.2
			C114.8,29.9,115.3,31.4,115.6,33.4z M125.7,6.8v6.9H116V6.8H125.7z M120.9,31.6l-1.5,0.4c-0.5-1.1-1.1-2.2-1.8-3.3l1.4-0.5
			C119.6,29.2,120.3,30.3,120.9,31.6z M124.1,8.3h-6.5v3.9h6.5V8.3z"/>
	</g>
	<g>
		<path class="st0" d="M188.7,5.6c2.1,1.8,4.2,3.7,6.2,5.8l-1.2,1.2c-2.1-2.2-3.9-3.9-5.6-5.3c-2,2.7-4.3,5.1-6.8,7.2l-1-1.3
			c2.6-2.1,5-4.7,7.1-7.5H188.7z M182.4,32.7c0.5-0.2,0.7-0.4,0.7-0.8V15.1h9.9v10.7h-8.3v6.3c2.5-0.6,4.7-1.4,6.5-2.1
			c-0.5-0.9-1-1.8-1.5-2.6l1.4-0.5c1.1,1.8,2.1,3.7,2.9,5.6c2.7-2,4.4-4.5,5.3-7.4c0.8-2.8,1.2-6.2,1.2-10.4h1.6
			c0,1.9-0.1,3.7-0.3,5.3c1.6,5.6,4.3,10,8.2,13.2l-1.1,1.3c-3.4-3-6-6.8-7.6-11.3c-0.1,0.7-0.3,1.4-0.4,2c-1,3.8-3.3,6.9-6.9,9.3
			l-1.1-1.3c0.2-0.2,0.5-0.4,0.6-0.5l-1,0.5c-0.3-0.7-0.6-1.4-0.9-2c-2.6,1-5.6,1.9-9,2.7L182.4,32.7z M191.4,16.7h-6.7v3.1h6.7
			V16.7z M184.7,24.3h6.7v-3.1h-6.7V24.3z M191.5,11.3v1.4h-6.3v-1.4H191.5z M199.9,5.3c-0.2,1.9-0.5,3.6-0.9,5.2h10v1.1
			c-0.5,2.8-1.2,5.5-2,8.2l-1.7-0.5c0.8-2.1,1.4-4.5,1.9-7.2h-8.6c-0.8,2.7-1.8,5-3.1,6.8l-1.4-1c2.1-3.1,3.5-7.4,4.1-12.9
			L199.9,5.3z"/>
		<path class="st0" d="M220.2,18.2l-1.3,1.3c-1.4-1.5-3.2-3-5.5-4.6l1.2-1.2C216.9,15.2,218.7,16.7,220.2,18.2z M220.4,22.7
			c-1.5,4.1-3.1,8-4.9,11.6l-1.7-0.7c1.9-3.8,3.6-7.6,5-11.6L220.4,22.7z M221.1,10.4l-1.3,1.3c-1.4-1.5-3.2-3-5.5-4.7l1.2-1.2
			C217.7,7.3,219.6,8.9,221.1,10.4z M242.5,6.8v1.7h-6.7v4.2h5.6v22h-1.7v-1.4h-15v1.5h-1.7V12.7h5.4V8.4H222V6.8H242.5z
			 M224.8,14.3v17.3h15v-9h-3.3c-1.6,0-2.3-0.8-2.3-2.3v-6h-3.9v2.2c-0.1,3.3-1.3,5.7-3.7,7.2l-1.2-1c2.2-1.3,3.3-3.4,3.3-6.2v-2.2
			H224.8z M238.1,26.2v1.6h-11.7v-1.6H238.1z M234.1,8.4h-3.9v4.2h3.9V8.4z M239.8,14.3h-4.1V20c0,0.7,0.4,1.1,1.1,1.1h3V14.3z"/>
		<path class="st0" d="M253.6,13.5v1.4c-1.3,2.1-2.8,4.1-4.5,6h4.7v1.2c-0.5,2.7-1.2,5-2,6.9c0.3,0.2,0.6,0.4,0.9,0.6
			c1,1,2,1.7,3.2,2.2c1.1,0.4,2.6,0.6,4.5,0.7c1.7,0,3.8,0,6.1,0c2.3,0,5.3-0.1,9-0.1l-0.4,1.7h-8.3c-2.6,0-4.7,0-6.4-0.1
			c-2.2-0.1-3.9-0.4-5.1-0.9c-1.4-0.6-2.6-1.4-3.6-2.5c-0.3-0.2-0.6-0.3-0.8-0.3c-0.9,0-2.1,1.4-3.7,4.3l-1.3-1.1
			c1.5-2.9,3-4.5,4.4-4.9c0.8-1.8,1.4-3.9,1.9-6.3H247V21c1.8-2,3.4-4,4.6-6h-5.3v-1.6H253.6z M253.6,10.2l-1.2,1.2
			c-1.3-1.4-3-2.9-5.1-4.5l1.2-1.1C250.5,7.2,252.2,8.7,253.6,10.2z M274,16v12.1c0,1.5-0.8,2.2-2.5,2.2h-3l-0.4-1.6l2.9,0.1
			c0.8,0,1.3-0.4,1.3-1.1V17.5h-14.9v12.6h-1.7V16h2.3V6.4h13.6V16H274z M270,8h-10.3v8h4.1v-4.8h6.2V8z M269,19.8v6.7h-8.2v-6.7
			H269z M267.4,21.2h-5.2V25h5.2V21.2z M270,16v-3.4h-4.7V16H270z"/>
		<path class="st0" d="M307.5,15.5v1.4h-28.9v-1.4H307.5z M304.1,18.7v8.1h-10.2V29h11.2v1.3h-11.2v2.2h13.6v1.4h-28.9v-1.4h13.5
			v-2.2h-11.1V29h11.1v-2.1h-10.1v-8.1H304.1z M303.5,5.8v7.8h-20.7V5.8H303.5z M292.2,22.3v-2.4h-8.4v2.4H292.2z M292.2,23.4h-8.4
			v2.3h8.4V23.4z M301.8,9.1V7h-17.3v2.2H301.8z M301.8,10.3h-17.3v2.2h17.3V10.3z M293.9,22.3h8.6v-2.4h-8.6V22.3z M302.5,23.4
			h-8.6v2.3h8.6V23.4z"/>
		<path class="st0" d="M317,34.8l-1.3-1.2c1.9-2.1,2.9-4.8,3-8.1v-8.4c-1.9,2.5-4.2,4.8-6.8,6.9l-1.1-1.5c4.3-3.4,7.6-7.3,9.8-11.8
			h-9V9h9.8c0.6-1.3,1.1-2.6,1.5-4l1.8,0.2c-0.4,1.3-0.8,2.6-1.3,3.8h16.4v1.7h-17.2c-0.7,1.5-1.5,2.9-2.4,4.3h15.3v17.2
			c0,1.6-0.8,2.4-2.5,2.4h-3.5l-0.4-1.6c1.2,0.1,2.3,0.1,3.4,0.1c0.9,0,1.3-0.5,1.3-1.5v-4h-13.6C319.9,30.5,318.8,32.9,317,34.8z
			 M320.4,25.4c0,0.3,0,0.5,0,0.7h13.5v-3.9h-13.5V25.4z M333.9,16.6h-13.5v4h13.5V16.6z"/>
		<path class="st0" d="M357.2,17.2v-3c-2.6,0.1-5.4,0.2-8.4,0.3l-0.5-1.5c3.3-0.1,6.2-0.2,8.9-0.3v-1.9h1.7v1.8
			c3.6-0.2,6.5-0.5,8.7-0.8l0.5,1.5c-2.4,0.3-5.4,0.5-9.2,0.7v3.1h9.7v1.5h-9.7v2.8H372v1.6h-27.8v-1.6h13v-2.8h-9.5v-1.5H357.2z
			 M371.3,13h-1.7V9.5h-22.7v4.1H345V7.9h12.6c-0.4-1-0.8-1.9-1.3-2.7l1.8-0.3c0.5,0.9,0.8,1.9,1.2,3h11.8V13z M368.5,34.7h-1.7
			v-1.5h-17.4v1.5h-1.7v-9.1h20.8V34.7z M366.8,31.7v-4.6h-17.4v4.6H366.8z"/>
		<path class="st0" d="M376.3,20.2l-0.6-1.8c2.7-3.9,4.6-8.3,5.8-13.1l1.6,0.7c-0.6,2.4-1.4,4.6-2.3,6.6v22.2h-1.7V15.9
			C378.2,17.4,377.3,18.8,376.3,20.2z M389.6,8.5V10c-1.4,3-2.8,5.5-4,7.4h4.2v1c-0.1,4-0.8,7.4-2,10.2c1.1,1.3,2.3,2.2,3.7,2.8
			c1.7,0.8,4.5,1.2,8.3,1.3c2.8,0,4.7,0,5.8-0.1l-0.4,1.7h-4.3c-5.5,0-9.2-0.6-11.1-1.8c-1.1-0.6-2-1.4-2.8-2.3
			c-1.1,1.8-2.5,3.3-4.1,4.5l-0.9-1.5c1.6-1.1,2.9-2.6,3.9-4.3c-1.4-1.9-2.4-4.3-3.2-7.2l1.5-0.5c0.6,2.4,1.4,4.5,2.5,6.1
			c0.9-2.3,1.5-5,1.6-8.2h-4.7v-1.3c1.6-2.3,3-4.8,4.2-7.5h-4.3V8.5H389.6z M397.8,18.5v2.9h6.1v1.4h-6.1v2.8h7.2v1.5h-7.2v3.6h-1.7
			v-3.6h-5.7v-1.5h5.7v-2.8h-4.7v-1.4h4.7v-2.9h-4.4v-1.5h4.4v-3h-5.7v-1.5h5.7v-3h-4.4V8.1h4.4V5.4h1.7v2.6h5.3v4.5h2.3V14h-2.3
			v4.5H397.8z M397.8,12.6h3.8v-3h-3.8V12.6z M397.8,17.1h3.8v-3h-3.8V17.1z"/>
		<path class="st0" d="M425.9,22.6v9.7c0,1.5-0.8,2.2-2.3,2.2h-3.4L420,33c1.1,0.1,2.1,0.1,3.1,0.1c0.7,0,1.1-0.4,1.1-1.1v-9.4h-8.5
			v-1.5h8.5v-3h-10.9v-1.6h10.9v-3.1h-8.4V12h8.4V9.2h-11.2v8.6c-0.1,7-1.3,12.6-3.5,16.8l-1.3-1.2c2-3.8,3-9,3.1-15.7V7.6h12.5
			c-0.4-0.8-0.8-1.6-1.3-2.3l1.8-0.3c0.5,0.8,0.9,1.7,1.3,2.7h11.4v1.6h-11V12h8.1v4.6h3.3v1.6H434v4.5H425.9z M422,30
			c-2.2,1.4-4.8,2.7-8,3.8l-0.7-1.6c3.2-1,6-2.2,8.3-3.7L422,30z M421.1,26.6l-0.8,1.3c-1.8-1.1-3.6-1.9-5.5-2.5l0.9-1.3
			C417.6,24.7,419.4,25.6,421.1,26.6z M425.9,16.6h6.4v-3.1h-6.4V16.6z M425.9,18.1v3h6.4v-3H425.9z M437.4,32.6l-1,1.5
			c-2.8-1.7-5.8-3.1-8.8-4.1l0.8-1.3C431.7,29.7,434.7,31,437.4,32.6z M435.1,24.7c-1.4,1.3-2.9,2.4-4.5,3.3l-1.1-1
			c1.7-1,3.2-2.1,4.4-3.2L435.1,24.7z"/>
	</g>
</g>
</svg>
