<?xml version="1.0" encoding="utf-8"?>
<!-- Generator: Adobe Illustrator 22.0.1, SVG Export Plug-In . SVG Version: 6.00 Build 0)  -->
<svg version="1.1" id="圖層_1" xmlns="http://www.w3.org/2000/svg" xmlns:xlink="http://www.w3.org/1999/xlink" x="0px" y="0px"
	 viewBox="0 0 427 30.8" style="enable-background:new 0 0 427 30.8;" xml:space="preserve">
<style type="text/css">
	.st0{fill:#FFFFFF;}
	.st1{fill:#C60000;}
</style>
<title>footer_fixed_font</title>
<g>
	<g>
		<g>
			<g>
				<circle class="st0" cx="147.7" cy="15.4" r="13.9"/>
			</g>
			<path d="M149.6,7.5h5.2c0,0,1.4,5.1,1,6.1c-0.8,1.7-3.3,1.7-3.3,2.6c0,0.6,0,3.3,0,5.6c0,1.3,0.5,1.7,1.3,1.8
				c0.9,0.1,1.6,0.6,1.6,0.6h-6.7c0,0,0.7-0.6,1.6-0.6c1.1-0.1,1.6-0.6,1.6-1.8s0-5.1,0-5.5c0-0.9-3-1.3-3.3-3.2
				C148.2,11.6,149.2,8.6,149.6,7.5z"/>
			<g>
				<path d="M141.6,21.7c-0.4,0-0.7,0.3-0.7,0.7c0,0.4,0.3,0.7,0.7,0.7s0.7-0.3,0.7-0.7S142,21.7,141.6,21.7z M141.6,22.7
					c-0.2,0-0.3-0.2-0.3-0.3c0-0.2,0.2-0.3,0.3-0.3c0.2,0,0.3,0.2,0.3,0.3S141.9,22.7,141.6,22.7z"/>
				<path d="M147.3,21.7c-0.4,0-0.7,0.3-0.7,0.7c0,0.4,0.3,0.7,0.7,0.7c0.4,0,0.7-0.3,0.7-0.7S147.7,21.7,147.3,21.7z M147.3,22.7
					c-0.2,0-0.3-0.2-0.3-0.3c0-0.2,0.2-0.3,0.3-0.3c0.2,0,0.3,0.2,0.3,0.3S147.5,22.7,147.3,22.7z"/>
				<path d="M149.3,21.1l-2-0.9l-1-0.6c-0.4-0.2-0.8-0.4-1.3-0.4l-1.5-0.1c-0.6,0-1,0.2-1.5,0.5l-1,0.7l-0.6,0.1
					c-0.5,0.1-0.8,0.4-0.8,0.9v1c0,0.2,0.1,0.2,0.2,0.2h1c0-0.1,0-0.1,0-0.2c0-0.5,0.4-0.9,0.9-0.9c0.5,0,0.9,0.4,0.9,0.9
					c0,0.1,0,0.1,0,0.2h4c0-0.1,0-0.1,0-0.2c0-0.5,0.4-0.9,0.9-0.9s0.9,0.4,0.9,0.9c0,0.1,0,0.1,0,0.2h1.3c0.2,0,0.2-0.1,0.2-0.2
					v-0.4C149.8,21.5,149.6,21.3,149.3,21.1z M144.3,20.4h-2.6c-0.1,0-0.1,0-0.1-0.1s0-0.1,0-0.1l0.5-0.3c0.4-0.2,0.8-0.4,1.3-0.4
					c0,0,0,0,0.1,0h0.8L144.3,20.4L144.3,20.4z M146.8,20.4C146.8,20.5,146.7,20.5,146.8,20.4l-2.1,0.1v-1h0.4
					c0.4,0,0.8,0.2,1.1,0.3l0.6,0.4C146.8,20.2,146.8,20.3,146.8,20.4z M149.4,21.8C149.4,21.8,149.4,21.8,149.4,21.8l-0.6,0.1
					c0,0,0,0-0.1,0l-0.2-0.2v-0.1l0.1-0.1h0.5l0,0L149.4,21.8L149.4,21.8L149.4,21.8L149.4,21.8z"/>
			</g>
			<g>
				<polygon points="141.3,14.5 140.9,14.6 141.2,15.6 141.5,15.6 				"/>
				<path d="M137.7,16.8H137c0,0.1,0,0.1,0,0.2c0,0.5,0.4,0.9,0.9,0.9s0.9-0.4,0.9-0.9c0-0.1,0-0.1,0-0.2c-0.1,0-0.1,0-0.2,0h-0.5
					c0,0.1,0.1,0.1,0.1,0.2c0,0.2-0.2,0.4-0.4,0.4s-0.4-0.2-0.4-0.4C137.6,16.9,137.6,16.8,137.7,16.8L137.7,16.8z"/>
				<path d="M141.9,17.1L141.9,17.1c0.1,0.5,0.5,0.8,0.9,0.8c0.5,0,0.9-0.4,0.9-0.9c0-0.1,0-0.1,0-0.2h-0.6c0,0.1,0.1,0.1,0.1,0.2
					c0,0.2-0.2,0.4-0.4,0.4s-0.4-0.2-0.4-0.4c0-0.1,0-0.2,0.1-0.2l0,0C142.3,16.8,141.9,16.8,141.9,17.1z"/>
				<path d="M138.7,16.7c0.2,0,0.5,0.2,0.6,0.4v0.1h2.4c0-0.3,0.4-0.5,0.7-0.5s1.4,0,1.4,0c0-1.2-1.3-1.5-1.3-1.5l-0.6-1.2v-0.2h0.5
					v-0.9c-1,0-1.2,0.4-1.2,0.4h-0.7c-0.1,0-0.2,0.1-0.2,0.2v0.2c0,0.1,0.1,0.2,0.2,0.2h0.8l0.5,2.3l-0.3,0.3h-1.8
					c-0.5-0.2-0.3-0.8-0.1-1c0.1-0.1,0.1-0.1,0.1-0.2h-1.9c-1,0-1,1.4-1,1.4L138.7,16.7L138.7,16.7z"/>
				<path d="M139.6,15.1c0.1-0.2,0.1-0.5-0.2-0.5H138c-0.2,0-0.3,0.2-0.3,0.3v0.2H139.6z"/>
			</g>
		</g>
		<path class="st1" d="M147.7,0c-8.5,0-15.4,6.9-15.4,15.4s6.9,15.4,15.4,15.4s15.4-6.9,15.4-15.4S156.2,0,147.7,0z M135.4,15.4
			c0-3.1,1.1-5.9,3-8.1l17.4,17.4c-2.1,1.9-5,3-8.1,3C140.9,27.7,135.4,22.2,135.4,15.4z M157.1,23.4L139.7,6
			c2.1-1.8,4.9-2.9,7.9-2.9c6.8,0,12.3,5.6,12.3,12.3C160,18.5,158.9,21.3,157.1,23.4z"/>
	</g>
	<g>
		<path class="st0" d="M21.3,22.8l-0.2-0.1l-1.2,1.7l0.2,0.1c2.3,1.4,4.6,3.3,6.8,5.7l0.2,0.2l1.3-1.9l-0.1-0.1
			C26.1,26.2,23.8,24.4,21.3,22.8z"/>
		<path class="st0" d="M22.1,6.2V5.5h6V3.4h-6v-3h-2.2v3H15v2h4.2c-1.6,2.5-3.4,4.4-5.6,5.8l-0.2,0.1l1.3,1.9l0.2-0.2
			c2-1.7,3.6-3.6,5-5.8v6.1h2.2V8.3c2.1,1.6,3.7,3.1,5.1,4.7l0.2,0.2l1.4-1.8l-0.1-0.2C26.8,9.4,24.6,7.7,22.1,6.2z"/>
		<path class="st0" d="M1.5,12.9c1.9-1.4,3.6-3.2,5-5.4v5.9h2.1V7.8c1,0.8,2.2,1.9,3.5,3.3l0.2,0.2l1.3-1.8l-0.2-0.1
			c-1.8-1.4-3.3-2.6-4.7-3.4V5.5h5.1V3.4H8.7v-3H6.5v3H0.7v2H6C4.5,7.5,2.5,9.5,0.2,11L0,11.2l1.3,1.9L1.5,12.9z"/>
		<polygon class="st0" points="28.2,19.2 0.7,19.2 0.7,21.3 13.4,21.3 13.4,30.3 15.6,30.3 15.6,21.3 28.2,21.3 		"/>
		<rect x="3.3" y="14.5" class="st0" width="22.3" height="2.1"/>
		<path class="st0" d="M7.2,22.9c-1.8,2.1-3.9,3.9-6.4,5.4l-0.2,0.1l1.4,1.8l0.2-0.1c2.7-1.8,4.9-3.7,6.7-5.9l0.1-0.2l-1.6-1.4
			L7.2,22.9z"/>
		<polygon class="st0" points="49.5,13.4 59.7,13.4 59.7,11.2 49.5,11.2 49.5,0.4 47.2,0.4 47.2,26.6 40.3,26.6 40.3,6.1 38,6.1 
			38,26.6 32.4,26.6 32.4,28.8 61.5,28.8 61.5,26.6 49.5,26.6 		"/>
		<path class="st0" d="M73.2,4h6.5v3.8h-5.4v22.6h2.2v-1.5H91v1.4h2.1V7.8h-5.6V4.1h6.7V1.9h-21V4z M79.9,11.8c0,2.7-1.1,4.7-3.2,6
			L76.5,18V9.9h3.4V11.8z M78,19.4l0.2-0.1c2.5-1.5,3.7-4,3.8-7.4V9.9h3.4v5.8c0,1.7,0.9,2.5,2.6,2.5h3v8.5H76.5v-8.6L78,19.4z
			 M87.4,15.3V9.9H91v6.3h-2.8C87.7,16.2,87.4,15.9,87.4,15.3z M81.9,7.7V4h3.4v3.7H81.9z"/>
		<rect x="77.7" y="21.3" class="st0" width="12.1" height="2.1"/>
		<path class="st0" d="M70.3,15.2l1.7-1.7l-0.2-0.2c-1.7-1.7-3.5-3.1-5.6-4.5L66,8.7l-1.6,1.6l0.2,0.2c2.3,1.6,4.1,3.1,5.5,4.6
			L70.3,15.2z"/>
		<path class="st0" d="M70,17.3c-1.3,3.6-2.9,7.3-5,11.6l-0.1,0.2l2.2,0.9l0.1-0.2c1.7-3.3,3.3-7.1,4.9-11.6l0.1-0.2L70.1,17
			L70,17.3z"/>
		<path class="st0" d="M67.1,0.9l-0.2-0.1l-1.6,1.6l0.2,0.2c2.5,1.8,4.2,3.3,5.5,4.7l0.2,0.2l1.7-1.7l-0.2-0.2
			C71.1,4,69.2,2.4,67.1,0.9z"/>
		<path class="st0" d="M124.2,1.9H114v7.4h10.2V1.9z M116.1,7.3V3.9h6v3.4H116.1z"/>
		<path class="st0" d="M112.5,23.8l-0.1-0.1l-1.9,0.3l0.2,0.3c0.7,1.1,1.2,2.7,1.4,4.7l0,0.3l2.1-0.3l0-0.3
			C113.8,26.7,113.3,25.2,112.5,23.8z"/>
		<path class="st0" d="M114,19.6h8.4v-1.8H114v-1.5h8.5v-1.8H114V13h9.5v-1.9h-21.6v12h20.7c0,2.5-0.3,3.7-0.5,4.3
			c-0.3,0.6-1.3,0.9-2.9,0.9c-0.5,0-1.1,0-1.7,0c-0.6,0-1.2-0.1-1.8-0.1h-0.3l0.5,2h3.6c2,0,3.4-0.4,4.2-1.2
			c0.9-1.1,1.1-5.3,1.1-7.7v-0.2H114V19.6z M111.9,19.6v1.5h-7.8v-1.5H111.9z M111.9,16.3v1.5h-7.8v-1.5H111.9z M111.9,13v1.5h-7.8
			V13H111.9z"/>
		<path class="st0" d="M117.5,27.6l2-0.5l-0.1-0.3c-0.5-1.1-1.1-2.1-1.6-3l-0.4-0.6l-1.9,0.7l0.2,0.3c0.7,1.1,1.3,2.2,1.8,3.3
			L117.5,27.6z"/>
		<path class="st0" d="M99,11.4c3.5-1.5,5.6-3.8,6.3-6.9h4.5c-0.1,1.4-0.2,2.7-0.4,3c-0.3,0.4-1,0.6-1.9,0.6c-0.5,0-1.2,0-2-0.1
			l-0.4,0l0.5,2l0.2,0c0.7,0.1,1.4,0.1,1.9,0.1c1.6,0,2.7-0.4,3.2-1.1c0.5-0.7,0.8-2.8,0.9-6.2l0-0.3h-6.6V0.6h-1.9v1.8h-5v2.1h4.7
			c-0.7,2.3-2.6,4-5.6,5.3L97.3,10l1.6,1.5L99,11.4z"/>
		<path class="st0" d="M101.1,23.9c-0.7,1.9-1.7,3.4-3,4.9L97.9,29l1.9,1.2l0.1-0.1c1.3-1.4,2.3-3.2,3.3-5.6l0.1-0.3l-2.1-0.5
			L101.1,23.9z"/>
		<path class="st0" d="M107.1,24.2l-0.1-0.1l-2,0.3l0.2,0.3c0.7,1.1,1.1,2.6,1.4,4.8l0,0.3l2.1-0.3l0-0.3
			C108.4,27.1,107.9,25.5,107.1,24.2z"/>
		<path class="st0" d="M174.2,8.5h6.8V6.6h-6.4c1-1.1,2-2.2,2.8-3.4c1.7,1.4,3.4,3,5.4,5.1l0.2,0.2l1.6-1.6l-0.2-0.2
			c-1.7-1.8-3.7-3.7-6.2-5.8l-0.4-0.4V1h-1.2l-0.1,0.1c-2.2,3-4.6,5.5-7.1,7.5l-0.2,0.2l1.3,1.7l0.2-0.2c1.2-1,2.4-2.1,3.5-3.3V8.5z
			"/>
		<path class="st0" d="M183,13.5l1.8,1.3l0.1-0.2c1.2-1.7,2.2-3.9,3.1-6.7h8.1c-0.5,2.7-1.1,5-1.8,6.9l-0.1,0.3l2.2,0.6l0.1-0.2
			c0.9-3.1,1.6-5.7,2-8.3V5.8h-9.9c0.4-1.6,0.6-3.2,0.8-4.9l0-0.2l-2.2-0.4l0,0.3c-0.6,5.4-2,9.7-4.1,12.8L183,13.5z"/>
		<path class="st0" d="M191.3,15.5c0.2-1.6,0.3-3.4,0.3-5.3V10h-2.1v0.2c0,4.1-0.4,7.5-1.2,10.3c-0.9,2.8-2.5,5.2-5,7.1
			c-0.8-1.7-1.7-3.5-2.8-5.3l-0.1-0.2l-1.9,0.7l0.2,0.3c0.4,0.7,0.9,1.5,1.4,2.3c-1.6,0.6-3.6,1.3-5.9,1.9v-5.7h8.3V10.4h-10.4v17
			c0,0.2-0.1,0.4-0.5,0.6l-0.2,0.1l0.3,1.7l0.3-0.1c3.3-0.8,6.3-1.7,8.8-2.6c0.3,0.6,0.5,1.2,0.8,1.8l0.1,0.2l0.3-0.2l1.2,1.5
			l0.2-0.1c3.6-2.4,6-5.6,7-9.5c0-0.3,0.1-0.5,0.2-0.8c0-0.1,0-0.2,0.1-0.3c1.6,4.1,4.1,7.7,7.4,10.6l0.2,0.2l1.4-1.7l-0.2-0.2
			C195.6,25.4,192.9,21.1,191.3,15.5z M174.2,15.1v-2.6h6.2v2.6H174.2z M174.2,19.6V17h6.2v2.6H174.2z"/>
		<path class="st0" d="M211,4.2h6.4V8H212v22.6h2.2v-1.5h14.5v1.4h2.2V8h-5.6V4.3h6.7V2.1h-21V4.2z M217.7,12.1c0,2.7-1.1,4.7-3.2,6
			l-0.2,0.1v-8.1h3.4V12.1z M215.8,19.6l0.2-0.1c2.4-1.5,3.7-4,3.8-7.4v-2h3.4v5.8c0,1.7,0.9,2.6,2.5,2.6h3v8.5h-14.5v-8.6
			L215.8,19.6z M225.2,15.6v-5.5h3.6v6.3H226C225.5,16.4,225.2,16.1,225.2,15.6z M219.7,7.9V4.2h3.4v3.7H219.7z"/>
		<rect x="215.4" y="21.5" class="st0" width="12.2" height="2.1"/>
		<path class="st0" d="M208.1,15.4l1.7-1.7l-0.2-0.2c-1.7-1.7-3.5-3.1-5.6-4.5l-0.2-0.1l-1.6,1.6l0.2,0.2c2.3,1.6,4.1,3.1,5.5,4.6
			L208.1,15.4z"/>
		<path class="st0" d="M204.9,1.1L204.7,1l-1.6,1.6l0.2,0.2c2.5,1.8,4.2,3.3,5.5,4.7l0.2,0.2l1.7-1.7l-0.2-0.2
			C208.9,4.2,207,2.6,204.9,1.1z"/>
		<path class="st0" d="M207.8,17.5c-1.3,3.6-2.9,7.3-5,11.6l-0.1,0.2l2.2,0.9L205,30c1.6-3.3,3.3-7.1,4.9-11.6l0.1-0.2l-2.1-0.9
			L207.8,17.5z"/>
		<path class="st0" d="M241.5,7.1l0.2,0.2l1.6-1.6L243,5.6c-1.5-1.6-3.2-3.1-5.1-4.4L237.7,1l-1.6,1.4l0.2,0.2
			C238.5,4.2,240.2,5.7,241.5,7.1z"/>
		<path class="st0" d="M246.9,13.3h14.4v10c0,0.7-0.7,0.8-1,0.8L257,24l0.5,2.1h3.2c1.9,0,2.8-0.8,2.8-2.4V11.3h-2.4V1.7H247v9.6
			h-2.3v14.6h2.2V13.3z M259,8.4v2.9h-4.2V8.4H259z M259,3.8v2.7h-6.2v4.8h-3.6V3.8H259z"/>
		<path class="st0" d="M249.8,15.1v7.2h8.7v-7.2H249.8z M251.7,20.3V17h4.7v3.3H251.7z"/>
		<path class="st0" d="M259.2,27.8c-1.3,0-2.4,0-3.4,0l-6.1,0c-2-0.1-3.4-0.3-4.4-0.7c-1.2-0.5-2.1-1.1-3.2-2.2l-0.7-0.5
			c0.8-2,1.5-4.3,1.9-6.8v-1.5h-4.4c1.6-1.8,3-3.7,4.2-5.6l0-0.1V8.7h-7.8v2.1h5.1c-1,1.7-2.5,3.5-4.3,5.6l-0.1,0.1v1.6h5.1
			c-0.5,2.4-1.1,4.3-1.8,5.8c-1.5,0.5-3,2.2-4.4,5l-0.1,0.2l1.7,1.4l0.1-0.3c1.5-2.8,2.7-4.2,3.5-4.2c0.1,0,0.4,0.1,0.6,0.2
			c1,1.1,2.2,1.9,3.7,2.6c1.2,0.5,3,0.8,5.2,0.9c1.7,0.1,3.8,0.1,6.4,0.1h8.5l0.5-2.2h-0.3C262.7,27.7,260.8,27.7,259.2,27.8z"/>
		<path class="st0" d="M293,1.1h-21.2v8.3H293V1.1z M274,4.5V2.8h16.8v1.7H274z M274,7.8V6.1h16.8v1.7H274z"/>
		<path class="st0" d="M283.4,26.1h11.2v-1.8h-11.2v-1.7h10.2v-8.3h-0.2v-0.2H271v8.6h10.1v1.6H270v1.8h11.1v1.7h-13.5v1.9H297v-1.9
			h-13.6V26.1z M283.4,17.6v-1.9h8.1v1.9H283.4z M283.4,21v-1.8h8.1V21H283.4z M281.2,19.2V21h-7.9v-1.8H281.2z M281.2,15.7v1.9
			h-7.9v-1.9H281.2z"/>
		<rect x="267.6" y="10.8" class="st0" width="29.4" height="1.9"/>
		<path class="st0" d="M314.2,0.8l0.1-0.3L312,0.3l-0.1,0.2c-0.4,1.3-0.8,2.5-1.4,3.8h-9.9v2.2h8.8c-2.1,4.2-5.3,8-9.6,11.4
			l-0.2,0.1l1.4,1.9l0.2-0.2c2.5-2,4.6-4.1,6.4-6.4V21c-0.1,3.2-1.1,5.9-2.9,7.9l-0.2,0.2l1.7,1.5l0.2-0.2c1.8-1.9,2.9-4.3,3.2-7.1
			h13.1v3.8c0,0.9-0.3,1.2-1,1.2c-1.1,0-2.2,0-3.4-0.1l-0.3,0l0.5,2.1h3.7c1.8,0,2.8-0.9,2.8-2.6V10.3h-15.1
			c0.8-1.3,1.5-2.6,2.1-3.8h17.3V4.3H313C313.5,3.2,313.8,2,314.2,0.8z M309.9,15.9v-3.5h13v3.5H309.9z M322.9,18v3.4h-13V18H322.9z
			"/>
		<path class="st0" d="M336.4,5.3h22.2v3.5h2V8.6h0V3.2h-11.9c-0.1-0.2-0.1-0.4-0.2-0.5c-0.3-0.8-0.6-1.6-1-2.3l-0.1-0.2l-2.3,0.4
			l0.2,0.3c0.5,0.7,0.8,1.6,1.1,2.3H334v6.2h2.4V5.3z"/>
		<path class="st0" d="M336.7,30.5h2.2V29h16.9v1.5h2.2v-9.6h-21.3V30.5z M355.8,22.9V27h-16.9v-4.1H355.8z"/>
		<path class="st0" d="M348.4,14.4h9.7v-2h-9.7V9.8c3.2-0.2,6.4-0.4,9-0.7l0.3,0l-0.7-2l-0.2,0c-2.5,0.3-5.3,0.6-8.4,0.8V6.1h-2.2V8
			c-2.6,0.1-5.5,0.2-8.7,0.3l-0.3,0l0.7,2l0.2,0c2.9-0.1,5.6-0.2,8.1-0.3v2.4h-9.5v2h9.5v2.3h-13v2.1h28.3v-2.1h-13.1V14.4z"/>
		<path class="st0" d="M372.6,1.4l-2.1-0.9l-0.1,0.3c-1.2,4.9-3.2,9.3-5.8,13l-0.1,0.1l0.8,2.4l0.3-0.4c0.8-1.1,1.5-2.3,2.3-3.6
			v18.3h2.2V8.2c1-2.2,1.7-4.4,2.3-6.6L372.6,1.4z"/>
		<path class="st0" d="M385.1,26.5h2.2v-3.6h7.2v-2h-7.2v-2.3h6.1v-1.9h-6.1v-2.4h5.3V9.8h2.3v-2h-2.3V3.3h-5.3V0.7h-2.2v2.7h-4.4
			v1.9h4.4v2.5h-5.7v2h5.7v2.5h-4.4v2h4.4v2.4h-4.7v1.9h4.7v2.3h-5.7v2h5.7V26.5z M387.3,7.9V5.4h3.3v2.5H387.3z M387.3,12.4V9.9
			h3.3v2.5H387.3z"/>
		<path class="st0" d="M389.1,28c-3.9-0.1-6.6-0.5-8.2-1.3c-1.3-0.6-2.5-1.4-3.5-2.6c1.2-2.9,1.9-6.3,2-10.2v-1.2h-4
			c1-1.5,2.3-3.9,3.8-7l0-1.9h-6.6v2.3h4.2c-1.2,2.5-2.5,4.9-4,7.1l0,0.1v1.6h4.7c-0.1,2.7-0.6,5.1-1.4,7.4
			c-0.9-1.4-1.6-3.3-2.2-5.6l-0.1-0.3l-2,0.7l0.1,0.2c0.8,3.1,1.8,5.3,3.1,7.1c-1,1.7-2.3,3.1-3.7,4.1l-0.2,0.1l1.2,1.9l0.2-0.2
			c1.6-1.2,2.9-2.6,4-4.3c0.8,0.9,1.7,1.6,2.6,2.1c2,1.2,5.6,1.8,11.2,1.8h4.5l0.5-2.2l-0.3,0C393.7,28,391.9,28,389.1,28z"/>
		<path class="st0" d="M426.8,27.9c-2.7-1.6-5.8-2.9-9.1-3.9l-0.2-0.1l-1.1,1.7l0.3,0.1c3,1,5.9,2.4,8.8,4.1l0.2,0.1l1.3-1.9
			L426.8,27.9z"/>
		<path class="st0" d="M423,19.2c-1.2,1.1-2.7,2.2-4.4,3.2l-0.3,0.2l1.5,1.3l0.2-0.1c1.6-0.9,3.1-2,4.5-3.3l0.2-0.2l-1.6-1.2
			L423,19.2z"/>
		<path class="st0" d="M409.6,23.8l1.1-1.7l-0.2-0.1c-2-1.2-3.8-2-5.5-2.5l-0.2-0.1l-1.2,1.7l0.3,0.1c1.9,0.6,3.7,1.4,5.4,2.5
			L409.6,23.8z"/>
		<path class="st0" d="M411.5,25.7l-0.5-2l-0.3,0.2c-2.2,1.4-4.9,2.6-8.2,3.7l-0.3,0.1l0.9,2.1l0.2-0.1c3-1,5.6-2.3,8.1-3.8
			L411.5,25.7z"/>
		<path class="st0" d="M423.5,14h3.4v-2.1h-3.3V7.3h-8.1V5.1h11V3H415c-0.3-0.8-0.7-1.8-1.3-2.6l-0.1-0.1l-2.4,0.4l0.2,0.3
			c0.4,0.6,0.8,1.2,1.1,1.9h-12.3v10.3c-0.1,6.8-1.1,11.9-3.1,15.6l-0.1,0.2l1.7,1.6l0.2-0.3c2.2-4.2,3.4-9.7,3.5-16.4h10.7v2.5
			h-8.5v2h8.5v9.1c0,0.6-0.3,0.9-0.9,0.9c-1,0-2,0-3.1-0.1l-0.3,0l0.3,2h3.6c1.7,0,2.6-0.8,2.6-2.5v-9.3h8.1V14z M415.4,11.9V9.3
			h5.9v2.6H415.4z M421.3,13.9v2.5h-5.9v-2.5H421.3z M402.5,5h10.7v2.3h-8.4v1.9h8.4v2.6h-10.7V5z"/>
	</g>
</g>
</svg>
