<svg xmlns="http://www.w3.org/2000/svg" viewBox="0 0 282.22 21.18"><defs><style>.cls-1{fill:#fff;}.cls-2{fill:#c60000;}</style></defs><title>footer_fixed_font</title><g id="圖層_2" data-name="圖層 2"><g id="圖層_1-2" data-name="圖層 1"><circle class="cls-1" cx="97.97" cy="10.59" r="9.52"/><path d="M99.23,5.16h3.56s1,3.47.69,4.2c-.52,1.23-2.29,1.16-2.29,1.8V15c0,.89.35,1.21.89,1.24a2.16,2.16,0,0,1,1.08.46H98.53a2.17,2.17,0,0,1,1.09-.46c.77,0,1.06-.35,1.06-1.24V11.17c0-.62-2.08-.91-2.25-2.18A10.25,10.25,0,0,1,99.23,5.16Z"/><path d="M93.81,14.89a.48.48,0,1,0,.47.48A.47.47,0,0,0,93.81,14.89Zm0,.69a.22.22,0,1,1,.21-.21A.22.22,0,0,1,93.81,15.58Z"/><path d="M97.72,14.89a.48.48,0,1,0,.47.48A.47.47,0,0,0,97.72,14.89Zm0,.69a.22.22,0,1,1,.21-.21A.22.22,0,0,1,97.72,15.58Z"/><path d="M99,14.52l-1.38-.6-.71-.43a1.7,1.7,0,0,0-.85-.26l-1,0a1.71,1.71,0,0,0-1,.31l-.66.47L93,14a.63.63,0,0,0-.55.62v.63a.17.17,0,0,0,.17.17h.64a.28.28,0,0,1,0-.09.59.59,0,1,1,1.17,0,.28.28,0,0,1,0,.09h2.76a.28.28,0,0,1,0-.09.59.59,0,1,1,1.17,0,.28.28,0,0,1,0,.09h.92a.17.17,0,0,0,.17-.17V15A.51.51,0,0,0,99,14.52ZM95.62,14H93.84a.08.08,0,0,1-.07,0,.07.07,0,0,1,0-.08l.34-.24a1.57,1.57,0,0,1,.89-.28h.59V14Zm1.7,0a.08.08,0,0,1-.07,0H95.83v-.63h.25a1.5,1.5,0,0,1,.77.22l.44.27A.07.07,0,0,1,97.32,14Zm1.8,1s0,0,0,0h-.35s0,0,0,0l-.1-.17a.06.06,0,0,1,0-.06.07.07,0,0,1,.06,0H99l0,0,.11.13V15Z"/><polygon points="93.54 9.98 93.27 10.04 93.42 10.76 93.69 10.7 93.54 9.98"/><path d="M91,11.55h-.39a.49.49,0,0,0,0,.12.62.62,0,0,0,.62.62.62.62,0,0,0,.62-.62.41.41,0,0,0,0-.11h-.39a.21.21,0,0,1,0,.12.25.25,0,0,1-.25.25.25.25,0,0,1-.25-.25.21.21,0,0,1,0-.12Z"/><path d="M93.94,11.75v0a.63.63,0,0,0,1.24-.12.5.5,0,0,0,0-.12h-.39a.21.21,0,0,1,0,.12.25.25,0,1,1-.49,0,.21.21,0,0,1,0-.12h0C94.22,11.55,93.94,11.56,93.94,11.75Z"/><path d="M91.77,11.44a.42.42,0,0,1,.4.28v0h1.66c0-.24.25-.31.47-.31h1c0-.84-.93-1-.93-1L94,9.55V9.46h.3v-.6c-.65,0-.8.28-.8.28H93a.09.09,0,0,0-.09.09v.1a.09.09,0,0,0,.09.09h.55l.34,1.6-.23.24H92.38c-.31-.09-.2-.55,0-.67a.41.41,0,0,0,.07-.11H91.07c-.64,0-.64,1-.64,1Z"/><path d="M92.4,10.35c.06-.14,0-.33-.09-.33h-1a.22.22,0,0,0-.22.22v.11Z"/><path class="cls-2" d="M98,0a10.59,10.59,0,1,0,10.59,10.59A10.6,10.6,0,0,0,98,0ZM89.51,10.59a8.43,8.43,0,0,1,2.08-5.54L103.51,17a8.45,8.45,0,0,1-14-6.38Zm14.9,5.48L92.5,4.15a8.45,8.45,0,0,1,11.91,11.92Z"/><path class="cls-1" d="M3.49,3.41V1.75h1V3.41H7.23v.88H4.45v.39A32.22,32.22,0,0,1,7.07,6.6l-.53.76a24.39,24.39,0,0,0-2.09-2V8.65h-1V5.12A12.24,12.24,0,0,1,.55,8.4L0,7.61A11.58,11.58,0,0,0,3.3,4.29h-3V3.41Zm1,11.18a15,15,0,0,1-3.6,3.16L.26,17a14.11,14.11,0,0,0,3.53-3Zm10.59-2.54v.89H8.15v4.88h-1V12.94H.3v-.89ZM13.6,9.5v.84H1.76V9.5ZM10.81,3.41V1.75h1V3.41H15v.88H11.77v.64A18,18,0,0,1,15.38,7.7l-.62.74a16.17,16.17,0,0,0-3-2.72v3h-1V5A12.73,12.73,0,0,1,7.87,8.53l-.55-.82a11.46,11.46,0,0,0,3.21-3.42H8.11V3.41ZM15.13,17l-.54.83a17.19,17.19,0,0,0-3.78-3.1l.5-.73A18.77,18.77,0,0,1,15.13,17Z"/><path class="cls-1" d="M30.1,1.81V7.68h5.54v1H30.1v7.45h6.52V17H21.07v-.93h3.07V4.91h1V16.08h4V1.81Z"/><path class="cls-1" d="M45.75,8.84l-.69.69a18.72,18.72,0,0,0-3-2.5l.67-.66A21.89,21.89,0,0,1,45.75,8.84Zm.1,2.44a56.48,56.48,0,0,1-2.64,6.33l-.9-.37a52.14,52.14,0,0,0,2.7-6.3Zm.38-6.69-.69.69a19.39,19.39,0,0,0-3-2.56l.67-.65A22.83,22.83,0,0,1,46.23,4.59Zm11.69-2v.92H54.25V5.81h3.07v12h-.9V17H48.24v.83h-.92v-12h3V3.52H46.74V2.6ZM48.24,6.69v9.44h8.18v-4.9H54.6A1.13,1.13,0,0,1,53.33,10V6.69H51.18V7.91a4.46,4.46,0,0,1-2,3.95l-.65-.56a3.75,3.75,0,0,0,1.81-3.39V6.69Zm7.28,6.53v.86H49.17v-.86Zm-2.19-9.7H51.2V5.81h2.13Zm3.09,3.17H54.18V9.8a.54.54,0,0,0,.62.61h1.62Z"/><path class="cls-1" d="M67.47,1.89v.8c0,.07,0,.14,0,.21H71c0,1.85-.19,3-.51,3.32a2.14,2.14,0,0,1-1.64.54l-1.06,0-.23-.83,1.1.07c.59,0,1-.14,1.12-.39a4.92,4.92,0,0,0,.27-1.87H67.34A5.26,5.26,0,0,1,64,7.47l-.67-.58a4.91,4.91,0,0,0,3.14-3.18H63.82V2.9h2.73c0-.09,0-.16,0-.21v-.8Zm-1.2,12.85a9.11,9.11,0,0,1-1.77,3l-.79-.49a7.73,7.73,0,0,0,1.68-2.72ZM78,13.1c0,2.32-.19,3.68-.54,4.07a3.07,3.07,0,0,1-2.17.58l-1.84,0-.19-.81c.67,0,1.3,0,1.89,0,1,0,1.53-.21,1.67-.6a8.26,8.26,0,0,0,.25-2.49H65.79V7.64H77.35V8.4H72.14V9.51h4.64v.71H72.14V11.3h4.61V12H72.14V13.1ZM66.73,8.4V9.51h4.51V8.4Zm0,2.9h4.51V10.22H66.73Zm0,1.8h4.51V12H66.73Zm2.5,4.3-.86.1a6.44,6.44,0,0,0-.74-2.66l.77-.09A6.57,6.57,0,0,1,69.23,17.4Zm3-.27-.85.11a5.92,5.92,0,0,0-.78-2.59l.78-.09A6.11,6.11,0,0,1,72.2,17.13ZM77.72,2.6V6.37H72.39V2.6ZM75.07,16.11l-.81.2a11.72,11.72,0,0,0-1-1.79l.74-.24A9.5,9.5,0,0,1,75.07,16.11ZM76.82,3.45H73.29v2.1h3.53Z"/><path class="cls-1" d="M122.57,2c1.16,1,2.29,2,3.4,3.16l-.63.65c-1.13-1.18-2.15-2.15-3-2.91a22.58,22.58,0,0,1-3.7,3.92l-.53-.72A23.6,23.6,0,0,0,121.93,2Zm-3.46,14.79c.25-.09.37-.23.37-.43V7.17h5.4V13h-4.52v3.44a31.54,31.54,0,0,0,3.57-1.14,14.18,14.18,0,0,0-.82-1.41l.78-.25a20.81,20.81,0,0,1,1.61,3.07,8,8,0,0,0,2.91-4A22.15,22.15,0,0,0,129.08,7h.86a28.67,28.67,0,0,1-.14,2.91,14,14,0,0,0,4.48,7.19l-.6.73a14.6,14.6,0,0,1-4.13-6.16c-.07.39-.16.74-.23,1.08a8.72,8.72,0,0,1-3.75,5l-.59-.7a3.36,3.36,0,0,1,.36-.27l-.57.27c-.16-.39-.31-.74-.47-1.08a34.56,34.56,0,0,1-4.92,1.46ZM124,8h-3.65V9.69H124Zm-3.65,4.16H124V10.5h-3.65Zm3.71-7.13v.78h-3.44V5.05Zm4.57-3.23a25.58,25.58,0,0,1-.5,2.84h5.45v.62a37.19,37.19,0,0,1-1.09,4.46l-.94-.26a23.22,23.22,0,0,0,1-3.92h-4.69a11.91,11.91,0,0,1-1.69,3.71l-.74-.55a15.5,15.5,0,0,0,2.26-7Z"/><path class="cls-1" d="M143.16,8.84l-.69.69a18.72,18.72,0,0,0-3-2.5l.67-.66A21.89,21.89,0,0,1,143.16,8.84Zm.1,2.44a56.48,56.48,0,0,1-2.64,6.33l-.9-.37a52.14,52.14,0,0,0,2.7-6.3Zm.37-6.69-.68.69a19.39,19.39,0,0,0-3-2.56l.67-.65A22.06,22.06,0,0,1,143.63,4.59Zm11.7-2v.92h-3.67V5.81h3.07v12h-.9V17h-8.18v.83h-.92v-12h3V3.52h-3.54V2.6Zm-9.68,4.09v9.44h8.18v-4.9H152A1.13,1.13,0,0,1,150.74,10V6.69h-2.15V7.91a4.46,4.46,0,0,1-2,3.95L146,11.3a3.75,3.75,0,0,0,1.81-3.39V6.69Zm7.28,6.53v.86h-6.35v-.86Zm-2.19-9.7h-2.13V5.81h2.13Zm3.09,3.17h-2.24V9.8a.54.54,0,0,0,.62.61h1.62Z"/><path class="cls-1" d="M164.81,6.25V7a26.53,26.53,0,0,1-2.44,3.28H165v.65a17.9,17.9,0,0,1-1.08,3.74,2.38,2.38,0,0,1,.51.36,5.85,5.85,0,0,0,1.75,1.21,7.47,7.47,0,0,0,2.47.37l3.3,0c1.25,0,2.87,0,4.88-.07l-.21.92H172c-1.39,0-2.56,0-3.51,0a7.87,7.87,0,0,1-2.79-.47,5.72,5.72,0,0,1-2-1.36.65.65,0,0,0-.44-.18c-.5,0-1.17.78-2,2.36l-.68-.61c.83-1.59,1.62-2.47,2.4-2.65a18.26,18.26,0,0,0,1-3.42h-2.84v-.74a25.08,25.08,0,0,0,2.52-3.25h-2.91V6.25Zm0-1.8-.64.64a16.61,16.61,0,0,0-2.8-2.44L162,2A18.72,18.72,0,0,1,164.79,4.45Zm11.15,3.18v6.58c0,.79-.46,1.2-1.34,1.2H173l-.22-.85,1.57,0c.46,0,.71-.19.71-.58V8.47h-8.1v6.88H166V7.63h1.23V2.42h7.41V7.63Zm-2.19-4.36h-5.59V7.63h2.22V5h3.37Zm-.56,6.42v3.63h-4.48V9.69Zm-.83.78h-2.84v2.1h2.84Zm1.39-2.84V5.79h-2.56V7.63Z"/><path class="cls-1" d="M197.64,7.38v.74H181.9V7.38ZM195.8,9.13v4.42h-5.57V14.7h6.1v.69h-6.1v1.2h7.41v.77H181.9v-.77h7.38v-1.2h-6V14.7h6V13.55h-5.51V9.13Zm-.37-7.06V6.34H184.16V2.07Zm-6.15,9V9.76h-4.61v1.31Zm0,.6h-4.61v1.25h4.61Zm5.24-7.78V2.71h-9.44V3.89Zm0,.61h-9.44V5.7h9.44Zm-4.29,6.57h4.67V9.76h-4.67Zm4.67.6h-4.67v1.25h4.67Z"/><path class="cls-1" d="M206.29,17.87l-.69-.63a6.45,6.45,0,0,0,1.62-4.41V8.23a22.22,22.22,0,0,1-3.7,3.75l-.6-.79a19.36,19.36,0,0,0,5.36-6.44h-4.9V3.82h5.34a18.88,18.88,0,0,0,.81-2.17l1,.12c-.21.71-.46,1.39-.72,2.05h8.93v.93h-9.35A18.45,18.45,0,0,1,208,7.08h8.35v9.4A1.19,1.19,0,0,1,215,17.8h-1.91l-.23-.88c.66,0,1.27.06,1.86.06s.72-.29.72-.82V14H208A7,7,0,0,1,206.29,17.87Zm1.83-5.11c0,.14,0,.26,0,.37h7.36V11h-7.34Zm7.34-4.82h-7.34v2.19h7.34Z"/><path class="cls-1" d="M231.6,8.28V6.66c-1.39.07-2.92.12-4.58.16l-.25-.8c1.8,0,3.41-.09,4.83-.16v-1h1v1c2-.11,3.52-.25,4.72-.43l.29.8c-1.29.16-3,.3-5,.4V8.28h5.27v.83h-5.27v1.55h7.12v.85H224.53v-.85h7.07V9.11h-5.16V8.28ZM239.28,6h-.95V4.12H225.94V6.34H225V3.22h6.86a10.74,10.74,0,0,0-.69-1.48l1-.18a12.45,12.45,0,0,1,.67,1.66h6.46ZM237.8,17.84h-.94v-.79h-9.47v.79h-.94v-5H237.8Zm-.94-1.62V13.71h-9.47v2.51Z"/><path class="cls-1" d="M245.46,9.92l-.32-1a21.16,21.16,0,0,0,3.16-7.14l.86.41a25.63,25.63,0,0,1-1.25,3.59V17.86H247V7.59A21.25,21.25,0,0,1,245.46,9.92Zm7.25-6.39v.82A29.54,29.54,0,0,1,250.5,8.4h2.29v.53a14.39,14.39,0,0,1-1.09,5.54,5.58,5.58,0,0,0,2,1.52,12.61,12.61,0,0,0,4.52.69c1.52,0,2.58,0,3.18,0l-.2.92h-2.36q-4.47,0-6-1a5.87,5.87,0,0,1-1.53-1.23A8.06,8.06,0,0,1,249,17.77l-.47-.83a7.1,7.1,0,0,0,2.13-2.36,12.68,12.68,0,0,1-1.75-3.94l.8-.3a10.33,10.33,0,0,0,1.37,3.34A13.14,13.14,0,0,0,252,9.21h-2.58V8.53a28.49,28.49,0,0,0,2.31-4.08h-2.35V3.53ZM257.19,9v1.61h3.35v.77h-3.35v1.56h3.9v.81h-3.9v2h-.92v-2h-3.12v-.81h3.12V11.38h-2.56v-.77h2.56V9h-2.38V8.21h2.38V6.55h-3.12V5.76h3.12V4.1h-2.38V3.31h2.38V1.88h.92V3.31h2.91V5.76h1.23v.79H260.1V9Zm0-3.24h2V4.1h-2Zm0,2.45h2V6.55h-2Z"/><path class="cls-1" d="M276,11.24v5.31a1.1,1.1,0,0,1-1.24,1.22h-1.83l-.2-.88c.6,0,1.17.07,1.72.07a.55.55,0,0,0,.61-.62v-5.1h-4.62v-.83H275V8.79H269.1V7.94H275V6.27h-4.6V5.46H275V3.94H269V8.63a20.71,20.71,0,0,1-1.91,9.17l-.72-.63A19,19,0,0,0,268,8.63V3.08h6.8a7.77,7.77,0,0,0-.72-1.27l1-.18a11.57,11.57,0,0,1,.68,1.45H282v.86h-6V5.46h4.41V7.94h1.81v.85h-1.81v2.45Zm-2.17,4a19.93,19.93,0,0,1-4.36,2.06l-.37-.86a17.66,17.66,0,0,0,4.5-2Zm-.48-1.86-.46.69a14.41,14.41,0,0,0-3-1.37l.48-.69A15.37,15.37,0,0,1,273.33,13.39ZM276,7.94h3.47V6.27H276Zm0,.85v1.62h3.47V8.79Zm6.24,7.89-.53.79a23.44,23.44,0,0,0-4.79-2.26l.44-.69A27.17,27.17,0,0,1,282.22,16.68ZM281,12.39a13.62,13.62,0,0,1-2.45,1.78l-.6-.56a13.68,13.68,0,0,0,2.38-1.73Z"/></g></g></svg>