<?xml version="1.0" encoding="utf-8"?>
<!-- Generator: Adobe Illustrator 22.0.1, SVG Export Plug-In . SVG Version: 6.00 Build 0)  -->
<svg version="1.1" id="圖層_1" xmlns="http://www.w3.org/2000/svg" xmlns:xlink="http://www.w3.org/1999/xlink" x="0px" y="0px"
	 viewBox="0 0 40.1 40" style="enable-background:new 0 0 40.1 40;" xml:space="preserve">
<style type="text/css">
	.st0{fill:#B3B3B3;}
</style>
<title>logo</title>
<g id="圖層_2_1_">
	<g id="圖層_1-2">
		<path class="st0" d="M10.7,40c0,0,0-0.1,0-0.1c0-2.7,0-5.3,0-7.9c0-0.1,0-0.3-0.2-0.4l0.1,0l1.4-0.4c0.1,0,0.1,0,0.1,0.1
			s0,0.2,0.2,0.1c0.3-0.1,0.7-0.2,1-0.2c0.5,0,0.9,0.2,1.1,0.6c0,0.1,0.1,0.1,0.1,0.2c0,0.9,0,1.8,0,2.7c0,0.1,0,0.2-0.2,0.2h-2.1
			c-0.2,0-0.2,0-0.2,0.2c0,1.6,0,3.2,0,4.8c0,0,0,0.1,0,0.2L10.7,40z M13.1,32.3L13.1,32.3c0-0.2,0-0.3,0-0.5c0-0.2-0.1-0.3-0.3-0.3
			c0,0-0.1,0-0.1,0c-0.2,0-0.3,0.1-0.5,0.2c-0.1,0-0.1,0.1-0.1,0.2c0,0.3,0,0.6,0,0.9c0,0.1,0,0.1,0.1,0.1H13c0.1,0,0.1,0,0.1-0.1
			S13.1,32.4,13.1,32.3L13.1,32.3z M13.1,33.8L13.1,33.8c0-0.2,0-0.3,0-0.5s0-0.1-0.1-0.1h-0.7c-0.1,0-0.1,0-0.1,0.1
			c0,0.3,0,0.7,0,1c0,0.1,0,0.1,0.1,0.1H13c0.1,0,0.1,0,0.1-0.2S13.1,34,13.1,33.8L13.1,33.8z"/>
		<path class="st0" d="M21.7,26.3c0-0.3,0-0.6,0-1c0-0.1,0-0.2,0.2-0.2c1-0.1,2-0.4,2.9-0.8c1.3-0.6,2.5-1.4,3.5-2.5
			c1.6-1.7,2.7-3.7,3.1-6c0.2-1,0.3-2.1,0.1-3.1c0-0.2,0-0.5-0.1-0.7s-0.1-0.2-0.3-0.3c-0.7-0.1-1.4-0.1-2.1,0.1
			c-1.1,0.2-2.3,0.4-3.4,0.9c-1.7,0.6-3.3,1.5-4.8,2.6c-0.3,0.2-0.6,0.5-0.9,0.7c-0.1,0.1-0.1,0.1-0.2,0c0,0,0,0,0,0l-0.5-0.4
			c-1.5-1.2-3.1-2.1-4.9-2.8c-1.1-0.5-2.3-0.8-3.4-0.9c-0.7-0.1-1.4-0.1-2.1,0c-0.1,0-0.2,0.1-0.2,0.2c-0.2,0.9-0.3,1.9-0.3,2.9
			c0.1,1.2,0.4,2.4,0.9,3.5c0.7,1.5,1.7,2.9,3,4c1.5,1.3,3.2,2.1,5.1,2.5l0.9,0.2c0.1,0,0.1,0.1,0.1,0.1c0,0,0,0,0,0
			c0,0.7,0,1.4,0,2.1c0,0.1,0,0.1-0.1,0.1c-1.3-0.2-2.6-0.5-3.8-1.1c-2.5-1.1-4.6-3-6.1-5.4c-1.5-2.3-2.2-5.1-2.1-7.9
			c0.1-1.4,0.3-2.7,0.8-4C7,9,7.2,8.9,7.3,8.9C8,8.8,8.6,8.8,9.3,8.8c0.9,0,1.7,0.1,2.6,0.3c2,0.4,3.8,1.2,5.6,2.1
			c0.7,0.4,1.4,0.8,2.1,1.2l0.2,0.1c0.1,0.1,0.2,0.1,0.3,0c0.7-0.5,1.5-0.9,2.2-1.3c1.4-0.8,2.9-1.4,4.5-1.8C27.7,9.3,28.9,9.1,30,9
			c0.9-0.1,1.8-0.1,2.7-0.1C32.8,8.9,33,9,33,9.2c0.3,1,0.6,2,0.7,3.1c0.4,3.8-0.8,7.5-3.2,10.4c-1,1.2-2.2,2.2-3.5,3
			c-1.1,0.7-2.4,1.2-3.7,1.5c-0.4,0.1-0.9,0.2-1.3,0.2l0,0c-0.2,0-0.2,0-0.2-0.2S21.7,26.6,21.7,26.3z"/>
		<path class="st0" d="M32.3,7.5c-4.4,0.1-8.7,1.5-12.5,3.9l-0.7-0.5c-1.7-1.2-3.6-2.1-5.6-2.6c-0.8-0.2-1.7-0.4-2.6-0.5
			C10,7.6,9.1,7.6,8.1,7.5H7.8c0,0,0-0.1,0-0.1l0.8-1.3C8.6,6,8.8,5.9,8.9,6c0.6,0,1.2,0,1.8,0c1,0.1,2,0.3,3,0.6
			c1.7,0.5,3.3,1.2,4.8,2.1c0.4,0.2,0.7,0.4,1.1,0.7c0.1,0.1,0.3,0.1,0.5,0c1.3-0.8,2.7-1.5,4.1-2.1c1.1-0.4,2.3-0.8,3.5-1
			C28.7,6,29.9,5.9,31,5.9c0.1,0,0.3,0.1,0.4,0.2C31.6,6.6,31.9,7,32.3,7.5L32.3,7.5z"/>
		<path class="st0" d="M23.4,32.6l1.6-0.5c0,0.1,0,0.2,0,0.2s0,0.2,0.1,0.1h0.2c0.1,0,0.1-0.1,0.1-0.2c0-0.2,0-0.3,0-0.5
			c0-0.1,0-0.1-0.1-0.1c0,0,0,0,0,0h-1.4c-0.2,0-0.4,0.1-0.5,0.2c0,0-0.1,0.1-0.1,0.1l-0.4-0.7h5.4c0.2,0,0.5,0,0.7-0.1
			c0,0,0.1,0,0.1,0c0.1,0.1,0.2,0.3,0.4,0.5h-0.1h-1.9c-0.1,0-0.1,0-0.1,0.1s0,0.3,0,0.4s0,0.2,0.1,0.2h0.8c0.1,0,0.2,0,0.3,0
			c0.4,0.1,0.7,0.4,0.7,0.8c0,0.1,0,0.2,0,0.3c0,2,0,4.1,0,6.1c0,0.3,0,0.2-0.2,0.2h-5.2c-0.2,0-0.2,0-0.2-0.2c0-2.2,0-4.4,0-6.5
			c0-0.1,0-0.1,0-0.2C23.7,32.7,23.6,32.7,23.4,32.6L23.4,32.6z M26.8,35L26.8,35c0-0.6,0-1.3,0-1.9c0-0.3,0-0.3-0.3-0.3
			s-0.2,0-0.2,0.2c0,0.8,0,1.7,0,2.5c0,0.3-0.1,0.6-0.2,0.9c-0.2,0.5-0.5,0.9-0.9,1.3c-0.1,0.1-0.2,0.3-0.1,0.4c0,0.1,0,0.1,0.1,0.1
			h2.7c0.1,0,0.1,0,0.1-0.1s0-0.2,0-0.4s0-0.2-0.2-0.2c-0.2,0-0.5-0.1-0.7-0.1c-0.3,0-0.4-0.3-0.4-0.5C26.8,36.3,26.8,35.6,26.8,35z
			 M26.6,39.5h1.3c0.1,0,0.1,0,0.1-0.1s0-0.4,0-0.6s0-0.2-0.2-0.2h-2.6c-0.1,0-0.1,0-0.1,0.1s0,0.3,0,0.5s0,0.2,0.2,0.2L26.6,39.5z
			 M28,37.3c0-0.1,0-0.2,0-0.2c0-1.3,0-2.6,0-3.9c0,0,0-0.1,0-0.1c0-0.2-0.1-0.3-0.3-0.3c-0.1,0-0.2,0-0.2,0.2c0,1.3,0,2.7,0,4
			c0,0,0,0.1,0,0.2c0,0,0,0.1,0.1,0.1C27.7,37.3,27.9,37.3,28,37.3z M25.1,37.3l0.1-0.1c0.2-0.3,0.4-0.6,0.4-1c0-1.1,0-2.2,0-3.2
			c0,0,0,0,0-0.1s0,0-0.1,0c-0.1,0-0.2,0.1-0.4,0.1c-0.1,0-0.1,0.1-0.1,0.2c0,0.1,0,0.2,0,0.3C25.1,34.8,25.1,36,25.1,37.3
			C25.1,37.3,25.1,37.3,25.1,37.3L25.1,37.3z M26.4,32L26.4,32c0,0.1,0,0.2,0,0.2s0,0.1,0.1,0.1h0.2c0.1,0,0.1,0,0.1-0.1
			c0,0,0,0,0,0c0-0.1,0-0.2,0-0.3c0-0.3,0-0.3-0.3-0.3c-0.1,0-0.1,0-0.1,0.1S26.4,31.9,26.4,32z"/>
		<path class="st0" d="M10,4.4l0.1-0.1C10.5,3.8,11,3.4,11.5,3c0.1-0.1,0.2-0.1,0.3-0.1C14,3.3,16.1,4.1,18,5.1
			c0.5,0.3,1.1,0.6,1.6,1c0.1,0.1,0.3,0.1,0.5,0c1.7-1.1,3.5-1.9,5.4-2.6c0.9-0.3,1.8-0.5,2.7-0.7c0.1,0,0.2,0,0.3,0.1
			c0.5,0.4,1,0.8,1.5,1.3l0.1,0.1l0,0l-0.3,0.1c-1.8,0.2-3.5,0.7-5.2,1.3c-1.4,0.5-2.7,1.1-3.9,1.9C20.4,7.7,20.2,7.9,20,8
			s-0.2,0.1-0.3,0c-1.1-0.8-2.3-1.5-3.5-2c-1.2-0.5-2.4-0.9-3.7-1.2c-0.8-0.2-1.5-0.3-2.3-0.4L10,4.4z"/>
		<path class="st0" d="M13.4,1.7c4.1-2.3,9.2-2.2,13.3,0.1l-0.6,0.2c-2,0.6-3.9,1.4-5.7,2.5c-0.1,0.1-0.3,0.2-0.4,0.3
			s-0.2,0.1-0.3,0c-1.6-1.2-3.3-2.2-5.2-2.8L13.4,1.7L13.4,1.7z"/>
		<path class="st0" d="M16.6,39.3l0.4,0.2l0.2,0.1c0.2,0.1,0.4-0.1,0.5-0.3c0,0,0-0.1,0-0.1c0,0,0-0.1,0-0.1c0-1.3,0-2.7,0-4
			c0-0.2,0-0.2-0.2-0.2h-2.1c-0.1,0-0.1,0-0.1-0.2c0-0.9,0-1.7,0-2.6c0,0,0-0.1,0-0.1c0-0.2-0.1-0.3-0.2-0.4h0.1l1.4-0.4
			c0.1,0,0.1,0,0.1,0.1l0,0c0,0.1,0,0.1,0.1,0.1c0.3-0.1,0.6-0.1,0.8-0.2c0.5-0.1,1.1,0.1,1.4,0.5c0,0.1,0.1,0.1,0.1,0.2
			c0,2.3,0,4.7,0,7c0,0.5-0.3,0.9-0.8,1c-0.5,0.1-1,0-1.5-0.3C16.6,39.7,16.6,39.5,16.6,39.3z M17.7,32.3L17.7,32.3
			c0-0.2,0-0.3,0-0.5c0-0.2-0.1-0.3-0.3-0.3c0,0-0.1,0-0.1,0c-0.2,0-0.3,0.1-0.5,0.2c-0.1,0-0.1,0.1-0.1,0.2c0,0.3,0,0.6,0,0.9
			c0,0.1,0,0.1,0.1,0.1h0.7c0.1,0,0.1,0,0.1-0.1S17.7,32.5,17.7,32.3L17.7,32.3z M17.7,33.9c0-0.2,0-0.3,0-0.5s0-0.1-0.1-0.1h-0.8
			c-0.1,0-0.1,0-0.1,0.1c0,0.3,0,0.7,0,1c0,0.1,0,0.1,0.1,0.1h0.7c0.1,0,0.1,0,0.1-0.1S17.7,34,17.7,33.9z"/>
		<path class="st0" d="M8.8,39.6H8.6H1.3c-0.3,0-0.5,0.1-0.7,0.2H0.5H0.5L0,39.2h0.2h3.2c0.2,0,0.2,0,0.2-0.2c0-0.9,0-1.7,0-2.6
			c0-0.2,0-0.2-0.2-0.2H1.2c-0.2,0-0.3,0-0.4,0.2l-0.2,0.1c0,0-0.1,0-0.1,0c0,0,0,0,0,0L0,35.9h0.2h3.2c0.2,0,0.2,0,0.2-0.2
			s0-0.7,0-1c0-0.1,0-0.2-0.2-0.2h-2c-0.2,0-0.3,0-0.5,0.2l-0.2,0.2l-0.4-0.7h0.2h6.7c0.2,0,0.5,0,0.7-0.1c0.1,0,0.2,0,0.2,0
			l0.4,0.5H8.2H5.4c-0.3,0-0.2,0-0.3,0.2s0,0.6,0,0.9s0,0.2,0.2,0.2h2.1c0.1,0,0.3,0,0.4-0.1c0.2-0.1,0.2-0.1,0.4,0.1l0.4,0.4H8.5
			H5.3c-0.2,0-0.2,0-0.2,0.2c0,0.9,0,1.7,0,2.6c0,0.2,0,0.2,0.2,0.2h2.1c0.2,0,0.3,0,0.5-0.1L8.2,39c0,0,0.1,0,0.1,0L8.8,39.6z"/>
		<path class="st0" d="M33.2,31.3v0.3c0,0.1,0,0.2,0.2,0.2h1.9c0.1,0,0.2,0,0.2-0.1c0.1-0.1,0-0.3-0.1-0.4h0h0.1l1.5-0.3
			c0.1,0,0.1,0,0.1,0.1s0,0.3,0,0.5s0,0.2,0.2,0.2h2c0.2,0,0.2-0.1,0.3-0.2c0.2,0.1,0.3,0.3,0.4,0.5h-6.7c-0.1,0-0.1,0-0.1,0.1
			s0,0.2,0,0.3c0,2.2,0,4.4,0,6.6c0,0.1,0,0.2,0,0.2c0,0.2-0.1,0.3-0.3,0.4c-0.4,0.2-0.8,0.2-1.2,0c-0.2-0.1-0.4-0.3-0.5-0.6
			l0.4,0.1c0.1,0,0.1,0,0.1-0.1c0-2.2,0-4.3,0-6.5c0-0.1,0-0.3,0-0.4c0-0.2,0-0.4-0.2-0.5L33.2,31.3z"/>
		<path class="st0" d="M35.9,39.7h0.2c0.1,0,0.1,0,0.1-0.1c0-1.3,0-2.7,0-4c0-0.2,0-0.3-0.3-0.3c-0.4-0.1-0.8-0.1-1.2,0.1
			c-0.3,0.1-0.4,0.3-0.4,0.6c0,1.3,0,2.6,0,3.9c0,0.2,0,0.2-0.2,0.2h-0.5c-0.2,0-0.2,0-0.2-0.2c0-0.8,0-1.6,0-2.4c0-0.6,0-1.2,0-1.8
			c0-0.2,0-0.3-0.2-0.4l0.1,0l0.8-0.2c0.1,0,0.1,0,0.2,0.1c0,0,0,0.1,0.1,0.1c0.2,0,0.3-0.1,0.3-0.2c0,0,0,0,0-0.1c0-0.5,0-1,0-1.4
			c0-0.1,0-0.2,0-0.4s0-0.2-0.2-0.2l-0.1-0.1l0.3-0.1l0.9-0.2c0.1,0,0.1,0,0.1,0.1c0,0.7,0,1.5,0,2.2c0,0.2,0,0.2,0.2,0.2
			c0.2,0,0.4,0,0.6,0.1c0.3,0.1,0.5,0.3,0.4,0.6c0,0.6,0,1.2,0,1.8s0,1.4,0,2c0,0,0,0.1,0,0.1c0,0.2-0.2,0.4-0.4,0.5
			c-0.3,0.1-0.5,0.1-0.8-0.1C35.9,39.8,35.9,39.7,35.9,39.7L35.9,39.7z"/>
		<path class="st0" d="M40,39.9c-0.2,0-0.4-0.1-0.5-0.2c-0.3-0.2-0.6-0.5-0.9-0.8l-0.1-0.1L38,39.2c-0.1,0.1-0.2,0.2-0.4,0.3
			c-0.2,0.1-0.4,0.2-0.6,0.2l0.1-0.1l0.7-1v-0.1c0.2-0.2,0.2-0.6,0.1-0.8c-0.3-0.7-0.5-1.4-0.6-2.1c0-0.2-0.1-0.5-0.2-0.7
			c0,0,0-0.1,0-0.2l0.9-0.7c0,0.5,0,0.9,0.1,1.3c0,0.4,0.1,0.9,0.2,1.3c0.1-0.1,0.1-0.3,0.2-0.4c0-0.8,0.1-1.6,0.1-2.4
			c0-0.3,0-0.5,0-0.8c0-0.1,0-0.1-0.1-0.1c0,0,0,0,0,0c-0.1,0-0.2,0-0.3,0.2c-0.3,0.5-0.7,1-1.2,1.2H37v-0.2
			c0.1-0.3,0.2-0.6,0.3-0.9c0-0.2,0-0.4,0-0.6c0-0.1,0-0.1,0.1-0.2l1-0.4c0.1,0.1,0.1,0.2,0.1,0.3c0,0.3,0,0.3,0.3,0.3h0.4
			c0.2,0,0.3,0,0.4-0.2c0.1,0.1,0.2,0.2,0.2,0.3s0,0.1,0,0.1c-0.1,0-0.1,0.1-0.1,0.2c0,0.6,0,1.2,0,1.8c0,0.9-0.2,1.7-0.6,2.5
			C39,37.9,39,38,38.9,38.1c-0.1,0.1-0.1,0.3,0,0.4c0.2,0.4,0.5,0.7,0.8,1L40,39.9L40,39.9z"/>
		<path class="st0" d="M0.1,33.8l0.2-0.1c0.2-0.2,0.3-0.3,0.5-0.5C0.9,32.9,1,32.6,1,32.3c0-0.2-0.1-0.3-0.1-0.5l1.9-0.7v0.6
			l0.4-0.2c0.5-0.2,1-0.3,1.5-0.4c0.6-0.1,1.2-0.1,1.8,0.1c0.4,0.1,0.8,0.3,1,0.6c0.2,0.3,0.4,0.6,0.6,0.8c0.1,0.3,0.4,0.4,0.7,0.4
			h0.1c0,0.1-0.1,0.2-0.2,0.3c-0.6,0.4-1.4,0.3-1.8-0.2c-0.2-0.3-0.4-0.6-0.6-0.9C6,32.1,6,32,5.9,31.8c-0.2-0.3-0.6-0.5-1.1-0.5
			c-0.6,0.1-1.3,0.2-1.8,0.5c-0.2,0.1-0.3,0.2-0.5,0.4c-0.2,0.4-0.5,0.7-0.9,0.9C1.2,33.5,0.7,33.7,0.1,33.8L0.1,33.8z"/>
		<path class="st0" d="M36,37.5c0,0.5,0,0.9,0,1.4c0,0.2,0,0.2-0.2,0.2H35c-0.1,0-0.2,0-0.2-0.2c0-0.9,0-1.9,0-2.8
			c0-0.2,0.1-0.4,0.3-0.4c0,0,0,0,0.1,0h0.5c0.2,0,0.3,0.1,0.3,0.4C36,36.6,36,37,36,37.5L36,37.5z M35.2,37.4L35.2,37.4
			c0,0.4,0,0.8,0,1.2c0,0.1,0,0.2,0.2,0.2s0.1,0,0.1-0.2s0,0,0-0.1c0-0.7,0-1.3,0-2c0-0.1,0-0.2,0-0.2c0-0.1,0-0.1-0.1-0.1
			c0,0,0,0,0,0c-0.1,0-0.1,0-0.1,0.1C35.2,36.7,35.2,37,35.2,37.4L35.2,37.4z"/>
		<path class="st0" d="M21.8,39.8l-0.8-1.5c0.3,0,0.6-0.1,0.8-0.3c0.2-0.2,0.4-0.4,0.5-0.7c0.3-0.4,0.5-0.9,0.7-1.4l0,0
			c0,0,0,0.2,0,0.3c0,0.7-0.1,1.4-0.3,2c-0.2,0.5-0.4,1-0.7,1.4C21.9,39.7,21.8,39.8,21.8,39.8L21.8,39.8z"/>
		<path class="st0" d="M0.8,36.6c0.2,0,0.3,0.1,0.4,0.2c0.6,0.3,1,0.7,1.3,1.2c0.1,0.2,0.2,0.4,0.2,0.6c0,0.3-0.3,0.5-0.6,0.5
			c0,0-0.1,0-0.1,0c-0.4-0.1-0.6-0.4-0.7-0.7c0-0.2,0-0.4-0.1-0.5c-0.1-0.4-0.2-0.7-0.4-1L0.8,36.6L0.8,36.6z"/>
		<path class="st0" d="M8.3,36.5C8,37.7,7.1,38.6,6,39l0.1-0.1c0.2-0.3,0.3-0.5,0.5-0.8c0.1-0.1,0.1-0.2,0.1-0.3
			c0-0.1,0-0.3-0.1-0.4l-0.1-0.1L8.3,36.5z"/>
		<path class="st0" d="M21,33.4c0.3,0.1,0.5,0.2,0.7,0.3c0.5,0.2,0.9,0.5,1.2,0.9c0.1,0.2,0.2,0.4,0.2,0.6c0,0.2-0.1,0.3-0.3,0.4
			c-0.1,0.1-0.3,0-0.4-0.1c-0.1-0.1-0.2-0.2-0.3-0.4c-0.3-0.5-0.6-1.1-1-1.5L21,33.4L21,33.4z"/>
		<path class="st0" d="M21,31.2c0.4,0.1,0.9,0.3,1.2,0.5c0.3,0.2,0.5,0.4,0.7,0.7c0.1,0.2,0.2,0.4,0.1,0.6c-0.1,0.2-0.3,0.4-0.5,0.3
			c-0.1,0-0.1,0-0.1-0.1c-0.1-0.1-0.2-0.2-0.3-0.3C21.8,32.3,21.4,31.8,21,31.2L21,31.2z"/>
		<path class="st0" d="M33.6,32.5c0.2,0.2,0.3,0.4,0.5,0.6c0.2,0.3,0.4,0.7,0.4,1.1c0,0.1,0,0.1,0,0.2c0,0.1-0.1,0.3-0.3,0.3
			c-0.2,0-0.4,0-0.5-0.2c0-0.1-0.1-0.2-0.1-0.3C33.7,33.6,33.7,33.1,33.6,32.5L33.6,32.5L33.6,32.5z"/>
		<path class="st0" d="M36.3,34.6c0-0.3,0.1-0.5,0.1-0.8s0-0.6,0-0.9c0-0.1,0-0.2,0.1-0.2l0.6-0.3c0.2-0.1,0.2-0.1,0.2,0.1
			c0.1,0.7-0.2,1.3-0.6,1.8L36.3,34.6L36.3,34.6z"/>
	</g>
</g>
<g>
	<path class="st0" d="M37.3,4.5c0-0.5-0.2-0.6-0.3-0.6c0.3-0.2,0.5-0.3,0.5-0.6s-0.2-0.8-1-0.8h-1.4v2.9h0.6V4.1h0.6
		c0.5,0,0.5,0.2,0.5,0.5c0,0.3,0,0.5,0,0.6h0.6l0,0C37.3,5,37.3,4.9,37.3,4.5z M36.4,3.6h-0.6V2.8h0.8c0.3,0,0.5,0.2,0.5,0.3
		C36.8,3.4,36.7,3.6,36.4,3.6z"/>
	<path class="st0" d="M36.4,1c-1.4,0-2.7,1.1-2.7,2.7c0,1.4,1.1,2.7,2.7,2.7c1.4,0,2.7-1.1,2.7-2.7C38.9,2.3,37.8,1,36.4,1z M36.4,6
		c-1.3,0-2.2-1-2.2-2.2s1-2.2,2.2-2.2s2.2,1,2.2,2.2C38.6,5,37.6,6,36.4,6z"/>
</g>
</svg>
