<svg xmlns="http://www.w3.org/2000/svg" viewBox="0 0 40.06 40"><defs><style>.cls-1{fill:#b3b3b3;}</style></defs><title>logo</title><g id="圖層_2" data-name="圖層 2"><g id="圖層_1-2" data-name="圖層 1"><path class="cls-1" d="M10.73,40a.46.46,0,0,1,0-.14q0-4,0-7.94c0-.15,0-.29-.2-.35l.11-.05,1.4-.39c.1,0,.12,0,.12.09s0,.16.18.12a3.71,3.71,0,0,1,1-.16,1.37,1.37,0,0,1,1.15.57.34.34,0,0,1,.07.19c0,.91,0,1.82,0,2.73,0,.13,0,.16-.17.16H12.3c-.17,0-.17,0-.18.18q0,2.42,0,4.84a.55.55,0,0,1,0,.15Zm2.39-7.72h0c0-.15,0-.3,0-.45a.3.3,0,0,0-.39-.32,4,4,0,0,0-.47.17.17.17,0,0,0-.11.18q0,.44,0,.88c0,.09,0,.13.13.12H13c.11,0,.14,0,.14-.14S13.11,32.43,13.11,32.28Zm0,1.57h0c0-.16,0-.31,0-.47s0-.14-.14-.14h-.7c-.1,0-.13,0-.13.13,0,.32,0,.65,0,1,0,.11,0,.13.14.13H13c.12,0,.14,0,.14-.15S13.11,34,13.11,33.85Z"/><path class="cls-1" d="M21.7,26.28c0-.32,0-.65,0-1,0-.14,0-.16.16-.18a10.81,10.81,0,0,0,2.92-.84,11.11,11.11,0,0,0,3.45-2.48,11.87,11.87,0,0,0,3.1-6,10.6,10.6,0,0,0,.15-3.08c0-.24-.05-.48-.08-.73s-.06-.24-.26-.26a8.48,8.48,0,0,0-2.13.05,16.39,16.39,0,0,0-3.36.85,18.9,18.9,0,0,0-4.81,2.59c-.3.23-.59.47-.89.7a.14.14,0,0,1-.2,0l-.51-.41a20.33,20.33,0,0,0-4.85-2.8,13.63,13.63,0,0,0-3.45-.91,10.06,10.06,0,0,0-2.12,0c-.15,0-.2.05-.24.22a9.17,9.17,0,0,0-.27,2.85,9.54,9.54,0,0,0,.89,3.55,11.88,11.88,0,0,0,3,4,11.71,11.71,0,0,0,5.09,2.54l.87.17a.13.13,0,0,1,.13.15q0,1,0,2.09c0,.08,0,.09-.1.09a13.1,13.1,0,0,1-3.78-1.06A13.8,13.8,0,0,1,8.32,21a13.75,13.75,0,0,1-2.08-7.85,14.24,14.24,0,0,1,.77-4,.34.34,0,0,1,.32-.25,14,14,0,0,1,1.94-.06,14.94,14.94,0,0,1,2.57.33,20.62,20.62,0,0,1,5.6,2.14c.7.39,1.37.83,2.06,1.25l.19.14a.2.2,0,0,0,.28,0c.71-.47,1.45-.88,2.2-1.28a24,24,0,0,1,4.48-1.82A19.9,19.9,0,0,1,30,9a15.22,15.22,0,0,1,2.65-.06.32.32,0,0,1,.35.26,14.17,14.17,0,0,1,.7,3.1A13.77,13.77,0,0,1,30.46,22.7a13.58,13.58,0,0,1-3.55,3,13.15,13.15,0,0,1-3.68,1.48c-.44.1-.88.17-1.33.25h0c-.18,0-.19,0-.19-.17S21.7,26.59,21.7,26.28Z"/><path class="cls-1" d="M32.26,7.53a23.78,23.78,0,0,0-12.45,3.91l-.73-.53a17.85,17.85,0,0,0-5.64-2.62,21.38,21.38,0,0,0-2.55-.52,25.06,25.06,0,0,0-2.74-.24l-.36,0a.39.39,0,0,1,0-.1l.75-1.28a.38.38,0,0,1,.37-.2C9.5,6,10.08,6,10.66,6a16.27,16.27,0,0,1,3,.63,22.76,22.76,0,0,1,4.81,2.07c.37.21.73.44,1.09.67a.38.38,0,0,0,.46,0,24.31,24.31,0,0,1,4.09-2.11,19.8,19.8,0,0,1,3.52-1,17.45,17.45,0,0,1,3.4-.33.36.36,0,0,1,.36.19c.25.44.52.88.78,1.32Z"/><path class="cls-1" d="M23.44,32.61l1.63-.5c0,.09,0,.17,0,.25s0,.15.14.13l.25,0a.18.18,0,0,0,.14-.19c0-.16,0-.33,0-.49a.11.11,0,0,0-.11-.12H24.13a.61.61,0,0,0-.5.2,1.12,1.12,0,0,1-.14.11l-.36-.72h5.38a1.26,1.26,0,0,0,.69-.13.16.16,0,0,1,.15,0c.12.15.24.31.37.48l-.14,0H27.65c-.09,0-.13,0-.13.13s0,.29,0,.43,0,.16.15.16h.75a1.68,1.68,0,0,1,.31,0,.81.81,0,0,1,.68.78c0,.09,0,.17,0,.26q0,3.07,0,6.13c0,.28,0,.25-.25.25H23.91c-.19,0-.19,0-.19-.19q0-3.27,0-6.54a1.19,1.19,0,0,0,0-.18c0-.14-.13-.2-.25-.24ZM26.79,35h0q0-.95,0-1.89c0-.28,0-.28-.28-.28s-.16,0-.16.17q0,1.26,0,2.51a2.12,2.12,0,0,1-.19.87,4.33,4.33,0,0,1-.91,1.29.5.5,0,0,0-.15.44c0,.1.05.12.14.12H27.9c.09,0,.13,0,.12-.13s0-.25,0-.38,0-.15-.16-.16a5,5,0,0,1-.68-.1.48.48,0,0,1-.4-.54Q26.79,35.94,26.79,35Zm-.23,4.48h1.32c.1,0,.14,0,.14-.14s0-.37,0-.56,0-.19-.19-.19H25.22c-.09,0-.13,0-.13.13s0,.35,0,.53,0,.22.21.22ZM28,37.3c0-.09,0-.15,0-.21q0-1.94,0-3.89a1.08,1.08,0,0,0,0-.11.34.34,0,0,0-.28-.3c-.15,0-.21,0-.21.18q0,2,0,4a.44.44,0,0,0,0,.15c0,.05.05.12.1.14A3.06,3.06,0,0,0,28,37.3Zm-2.89,0,.1-.08a1.64,1.64,0,0,0,.39-1c0-1.07,0-2.15,0-3.23,0,0,0,0,0-.06s-.05-.05-.07,0a1.92,1.92,0,0,0-.35.12.23.23,0,0,0-.09.16,2.27,2.27,0,0,0,0,.33q0,1.85,0,3.7A.81.81,0,0,0,25.11,37.33ZM26.35,32h0c0,.08,0,.16,0,.24s0,.11.11.11h.21a.11.11,0,0,0,.13-.13c0-.1,0-.21,0-.31,0-.29,0-.32-.32-.28-.08,0-.12,0-.12.12S26.35,31.91,26.35,32Z"/><path class="cls-1" d="M10,4.36l.09-.11A12.75,12.75,0,0,1,11.49,3a.35.35,0,0,1,.3-.07A21.72,21.72,0,0,1,18,5.14c.55.3,1.09.63,1.62,1a.39.39,0,0,0,.47,0,23.31,23.31,0,0,1,5.35-2.57,19.92,19.92,0,0,1,2.74-.68.35.35,0,0,1,.31.08A13.36,13.36,0,0,1,30,4.29l.07.08,0,0-.34.06a24.89,24.89,0,0,0-5.2,1.28,21,21,0,0,0-3.92,1.88c-.21.13-.41.29-.61.44s-.16.11-.29,0A16.58,16.58,0,0,0,16.2,6a19.52,19.52,0,0,0-3.72-1.22,21.92,21.92,0,0,0-2.3-.38Z"/><path class="cls-1" d="M13.43,1.68a13.67,13.67,0,0,1,13.27.07l-.62.18a22,22,0,0,0-5.67,2.51c-.15.1-.3.21-.44.33s-.16.09-.26,0A17,17,0,0,0,14.51,2l-1-.31Z"/><path class="cls-1" d="M16.6,39.31l.36.18.22.06a.38.38,0,0,0,.48-.36,1.09,1.09,0,0,0,0-.11q0-2,0-4c0-.18,0-.2-.2-.2H15.32c-.15,0-.15,0-.15-.15q0-1.3,0-2.6c0-.05,0-.1,0-.15a.29.29,0,0,0-.21-.35l.11,0,1.42-.39c.11,0,.13,0,.14.1a.29.29,0,0,1,0,0c0,.08,0,.09.11.07.28-.06.56-.12.84-.16a1.45,1.45,0,0,1,1.42.54.36.36,0,0,1,.08.21q0,3.48,0,7a1,1,0,0,1-.78,1.05,2,2,0,0,1-1.49-.27A.43.43,0,0,1,16.6,39.31Zm1.06-7h0c0-.17,0-.34,0-.51a.29.29,0,0,0-.39-.28,2.81,2.81,0,0,0-.51.19.21.21,0,0,0-.09.16c0,.29,0,.58,0,.87,0,.11,0,.14.14.14h.72c.11,0,.14,0,.14-.14S17.66,32.45,17.66,32.3Zm0,1.56c0-.17,0-.33,0-.5s0-.13-.13-.13h-.75c-.09,0-.13,0-.13.13q0,.49,0,1c0,.1,0,.14.14.14h.72c.11,0,.14,0,.14-.14S17.66,34,17.66,33.87Z"/><path class="cls-1" d="M8.82,39.62l-.18,0H1.32a1,1,0,0,0-.72.22l-.08,0-.07,0L0,39.25l.16,0H3.41c.15,0,.16,0,.16-.17q0-1.3,0-2.6c0-.18,0-.2-.2-.2H1.18a.68.68,0,0,0-.44.15l-.17.11a.1.1,0,0,1-.15,0L0,35.87l.17,0H3.36c.2,0,.21,0,.21-.22s0-.65,0-1c0-.14,0-.17-.17-.17h-2a.7.7,0,0,0-.47.15l-.23.16-.43-.7.18,0H7.11a1.42,1.42,0,0,0,.66-.12A.19.19,0,0,1,8,34l.44.47-.2,0H5.43c-.26,0-.25,0-.26.25s0,.61,0,.92,0,.2.2.2H7.47a1.42,1.42,0,0,0,.41-.1c.19-.06.23-.06.37.09l.41.41-.19,0H5.35c-.18,0-.18,0-.18.18q0,1.3,0,2.6c0,.18,0,.19.19.19H7.48a1.11,1.11,0,0,0,.49-.1L8.24,39a.12.12,0,0,1,.15,0Z"/><path class="cls-1" d="M33.18,31.34v.34c0,.15,0,.16.17.17h1.94c.08,0,.17.05.22-.06a.29.29,0,0,0-.09-.37l-.05,0,.1,0,1.5-.26c.09,0,.12,0,.12.11s0,.3,0,.45,0,.17.17.18h2c.16,0,.24-.1.34-.2a1.42,1.42,0,0,1,.38.53H33.3c-.08,0-.12,0-.11.12s0,.21,0,.31q0,3.31,0,6.62a1.5,1.5,0,0,1,0,.25.47.47,0,0,1-.26.36,1.32,1.32,0,0,1-1.21,0,.87.87,0,0,1-.46-.58l.43.11c.12,0,.13,0,.13-.1q0-3.25,0-6.5c0-.13,0-.27,0-.4a.48.48,0,0,0-.21-.5Z"/><path class="cls-1" d="M35.87,39.65l.25,0c.1,0,.12,0,.12-.1q0-2,0-4c0-.24-.05-.3-.28-.35a2,2,0,0,0-1.16.08.51.51,0,0,0-.39.56q0,2,0,3.94c0,.2,0,.2-.2.2h-.48c-.15,0-.16,0-.16-.16q0-1.21,0-2.42c0-.59,0-1.18,0-1.76,0-.17,0-.33-.19-.43l.1-.05.79-.23c.08,0,.13,0,.15.07a.12.12,0,0,0,.08.07.28.28,0,0,0,.33-.28c0-.48,0-1,0-1.43,0-.13,0-.25,0-.38s0-.19-.17-.23l-.12-.06.31-.08.92-.23c.12,0,.14,0,.14.11q0,1.09,0,2.18c0,.15,0,.16.17.17a3.17,3.17,0,0,1,.59.07.54.54,0,0,1,.44.57c0,.61,0,1.22,0,1.82s0,1.36,0,2c0,0,0,.09,0,.13a.46.46,0,0,1-.37.46.88.88,0,0,1-.75-.09,1.31,1.31,0,0,1-.15-.15Z"/><path class="cls-1" d="M40,39.87a1.31,1.31,0,0,1-.55-.24,5,5,0,0,1-.86-.79l-.09-.1-.45.48c-.12.12-.24.23-.37.34a1.09,1.09,0,0,1-.56.25l.07-.09.72-.95,0-.06a.82.82,0,0,0,.06-.84,12.5,12.5,0,0,1-.6-2.07c-.05-.23-.11-.47-.15-.7a.18.18,0,0,1,0-.15l.93-.66c0,.45,0,.89.06,1.33a5,5,0,0,0,.25,1.31.74.74,0,0,0,.15-.42q.07-1.19.12-2.38c0-.26,0-.52,0-.78a.11.11,0,0,0-.1-.12.25.25,0,0,0-.29.16,2.76,2.76,0,0,1-1.24,1.22l-.07,0,0-.17c.1-.31.22-.61.28-.92a2.19,2.19,0,0,0,0-.61c0-.08,0-.14.08-.17l1-.36a.49.49,0,0,1,.07.33c0,.29,0,.29.26.28h.41c.15,0,.31,0,.41-.15.08.1.16.18.22.27s0,.08,0,.1a.23.23,0,0,0-.1.22c0,.58,0,1.17,0,1.75a6.67,6.67,0,0,1-.56,2.54,4.38,4.38,0,0,1-.21.39.37.37,0,0,0,0,.41,7.45,7.45,0,0,0,.78,1l.23.27Z"/><path class="cls-1" d="M.08,33.79l.16-.14c.17-.18.35-.35.51-.54A1.12,1.12,0,0,0,1,32.33a2,2,0,0,0-.13-.46l1.87-.72v.58l.44-.22a4.84,4.84,0,0,1,1.46-.37,5.35,5.35,0,0,1,1.83.07,1.53,1.53,0,0,1,1,.65c.19.27.38.55.55.84a.79.79,0,0,0,.72.44h.08a.5.5,0,0,1-.22.29,1.43,1.43,0,0,1-1.84-.24c-.23-.28-.42-.59-.62-.9-.1-.14-.18-.3-.28-.44a1.09,1.09,0,0,0-1.06-.46,5.49,5.49,0,0,0-1.83.5,1.09,1.09,0,0,0-.46.39,3.19,3.19,0,0,1-.87.9,4.68,4.68,0,0,1-1.51.61Z"/><path class="cls-1" d="M36,37.51q0,.7,0,1.39c0,.17,0,.19-.19.19h-.86c-.14,0-.17,0-.17-.17q0-1.39,0-2.79a.35.35,0,0,1,.38-.37h.5c.24,0,.34.12.34.37,0,.46,0,.92,0,1.37Zm-.75-.07h0q0,.58,0,1.15c0,.13,0,.16.15.16s.14,0,.14-.15,0-.05,0-.08q0-1,0-2c0-.08,0-.17,0-.25a.11.11,0,0,0-.12-.11c-.09,0-.13,0-.13.14C35.24,36.65,35.24,37,35.24,37.43Z"/><path class="cls-1" d="M21.76,39.79l-.84-1.55a1.1,1.1,0,0,0,.79-.31,5,5,0,0,0,.53-.65,6.86,6.86,0,0,0,.73-1.4s0,0,0,0,0,.23,0,.35a5.26,5.26,0,0,1-.33,2,4.49,4.49,0,0,1-.71,1.4,2.57,2.57,0,0,1-.18.19Z"/><path class="cls-1" d="M.82,36.57a3.94,3.94,0,0,1,.45.15,3,3,0,0,1,1.34,1.19,1.08,1.08,0,0,1,.17.63.55.55,0,0,1-.67.51.86.86,0,0,1-.67-.74c0-.17,0-.36-.07-.53a2.46,2.46,0,0,0-.44-1L.8,36.61Z"/><path class="cls-1" d="M8.34,36.54A3.61,3.61,0,0,1,6,39l.05-.1c.17-.27.35-.54.52-.82a1,1,0,0,0,.11-.34.49.49,0,0,0-.14-.4l-.11-.13Z"/><path class="cls-1" d="M21,33.36c.26.1.49.18.72.27a2.85,2.85,0,0,1,1.17.87.82.82,0,0,1,.2.57.45.45,0,0,1-.27.39.35.35,0,0,1-.41-.06,1.39,1.39,0,0,1-.32-.37,8.76,8.76,0,0,0-1-1.53L21,33.43Z"/><path class="cls-1" d="M21,31.22a3.41,3.41,0,0,1,1.22.51,2.37,2.37,0,0,1,.67.65A.71.71,0,0,1,23,33a.41.41,0,0,1-.64.24,1,1,0,0,1-.3-.33,11.14,11.14,0,0,0-1-1.61Z"/><path class="cls-1" d="M33.59,32.53c.16.19.33.38.49.57a1.93,1.93,0,0,1,.41,1.09.79.79,0,0,1,0,.22.3.3,0,0,1-.28.26.43.43,0,0,1-.48-.2.61.61,0,0,1-.07-.29,9.84,9.84,0,0,0-.07-1.6.3.3,0,0,1,0,0Z"/><path class="cls-1" d="M36.28,34.62c0-.28.07-.55.09-.81s0-.59,0-.88a.19.19,0,0,1,.12-.21l.56-.27c.15-.07.17-.06.18.1a2.31,2.31,0,0,1-.63,1.78l-.24.24Z"/></g></g></svg>