<?xml version="1.0" encoding="utf-8"?>
<!-- Generator: Adobe Illustrator 22.0.1, SVG Export Plug-In . SVG Version: 6.00 Build 0)  -->
<svg version="1.1" id="圖層_1" xmlns="http://www.w3.org/2000/svg" xmlns:xlink="http://www.w3.org/1999/xlink" x="0px" y="0px"
	 viewBox="0 0 93.6 386.7" style="enable-background:new 0 0 93.6 386.7;" xml:space="preserve">
<style type="text/css">
	.st0{fill:#FFFFFF;}
</style>
<title>資產 6</title>
<g id="圖層_2_1_">
	<g id="圖層_1-2">
		<path class="st0" d="M3.7,63h0.1c11.7-4.8,18.8-11.3,21-19.1c-6.9,0.7-11.2,1.4-12.8,2h-0.1l-3.8-3l17.4-1.7
			c0.2-1.1,0.4-2.2,0.4-3.2c0-0.9-0.1-1.7-0.3-2.6v-0.1l0.8-0.5l3,3.8c0.1,0.1,0.2,0.3,0.2,0.4c0,0.2-0.1,0.4-0.3,0.6
			c-0.3,0.4-0.5,0.8-0.7,1.2L42,39.6l1.8-2.7l2.8,3.3c0.1,0.1,0.2,0.3,0.2,0.4c0,0.2-0.2,0.3-0.5,0.4c-0.4,0.2-0.7,0.5-1,0.8
			c-0.6,1.1-1.1,2.3-1.3,3.5c-1,4.5-2.5,8.9-4.5,13.1c-2.3,4.4-2.9,5-3.2,5c-0.2,0-0.4-0.1-0.5-0.3c-2.5-3.6-5.3-6.9-8.4-9.9
			l-0.1-0.1l0.6-1l8.4,5.8c1.8-1.9,3.8-7.3,6-16L28,43.3C24.8,53.7,16.8,60.7,4.2,64.2H4.1L3.7,63z M16.6,38.7
			c-0.2,0-0.3-0.1-0.5-0.4l-2.5-3.7v-0.1c0.7-1.8,1-3.7,0.9-5.6l-0.2-8.4c-0.1-2.8-0.4-5.7-1-8.5v-0.1l1-0.5l2,4.6l14.1-1.3
			l-7.5-4.9l0.4-1.1l7,2.8l6.5-6.1C22.9,6.6,14.9,7.6,13,8.3h-0.1L9.4,5.4L39,2.7l3.5-2.4l2.4,2.9c0.1,0.1,0.2,0.3,0.2,0.5
			c0,0.3-0.4,0.4-0.5,0.4c-1.7,0.5-3.3,1.3-4.7,2.3c-2.5,1.8-5.1,3.7-7.6,5.8l0.6,0.2v0.1c0.3,0.6,0.4,1.3,0.4,2l10.5-1l2-2.6
			l2.8,2.8c0.2,0.1,0.3,0.3,0.3,0.5c0,0.1,0,0.3-0.4,0.3c-0.5,0.2-0.9,0.6-1.1,1.1c-0.4,1-0.6,2-0.6,3.1l-1,10.5
			c-0.1,2.1-0.4,4.2-0.8,6.2c-0.2,0.8-0.4,1.1-0.6,1.1s-0.4-0.1-0.5-0.4l-2.1-3.5v-0.1c0.9-1.6,1.5-3.4,1.6-5.2l0.8-11.4L31,17.2
			v4.7c3.5-0.4,5.8-0.9,6.8-1.4h0.1l2.2,2.1c0.2,0.1,0.3,0.3,0.3,0.5c0,0.1-0.1,0.3-0.5,0.3L31,24.2v4.3c2.3-0.2,4.5-0.6,6.7-1.3
			h0.1l2.2,2.1c0.2,0.2,0.3,0.4,0.3,0.5s-0.2,0.3-0.5,0.3L31,30.9c0,6.4-0.5,6.4-0.7,6.4S30,37.2,29.9,37l-2.3-3.9V33
			c0.4-0.6,0.6-1.3,0.7-2c-2.4,0.1-4.9,0.5-7.2,1.2H21l-2.8-2.5l10.2-0.9v-4.3c-2.5,0.2-5.1,0.6-7.5,1.1h-0.1l-2.4-2.5l10.1-1v-4.7
			l-11.9,1.1l0.2,12c0,3.4,0.1,5.6,0,6.6C16.9,38.6,16.7,38.7,16.6,38.7z"/>
		<path class="st0" d="M42.6,0.3l2.3,2.9c0.1,0.1,0.2,0.3,0.2,0.5c0,0.1-0.1,0.2-0.4,0.3c-1.6,0.5-3.3,1.2-4.7,2.2
			c-2.7,1.9-5.4,3.9-7.9,6l0.7,0.3c0.3,0.7,0.4,1.4,0.4,2.1l10.7-1l1.9-2.4l2.7,2.7c0.1,0.1,0.2,0.3,0.3,0.5c0,0.1-0.1,0.2-0.3,0.2
			c-0.5,0.2-1,0.7-1.2,1.2c-0.4,1-0.6,2.1-0.6,3.1l-1.1,10.3c-0.1,2.1-0.4,4.1-0.8,6.2c-0.2,0.6-0.4,1-0.5,1s-0.3-0.1-0.4-0.3
			l-2-3.4c1-1.6,1.5-3.4,1.6-5.3l0.9-11.6L30.9,17v4.9c3.6-0.4,5.9-0.9,7-1.5l2.2,2c0.1,0.1,0.2,0.2,0.3,0.4c0,0.1-0.1,0.2-0.4,0.2
			l-9,0.8v4.5c2.3-0.2,4.6-0.6,6.8-1.3l2.1,2c0.2,0.2,0.3,0.3,0.3,0.4s-0.1,0.1-0.3,0.1L31,30.3c0,4.3-0.2,6.4-0.6,6.4
			c-0.1,0-0.2-0.1-0.3-0.3l-2.2-3.8c0.4-0.6,0.7-1.4,0.7-2.2c-2.5,0.1-5,0.5-7.4,1.2l-2.5-2.2l10-0.9v-4.3c-2.6,0.2-5.2,0.6-7.7,1.1
			l-2.3-2.1l9.9-1v-4.9l-12.1,1.1l0.3,12.1c0,3.4,0,5.6,0,6.6s-0.1,1.5-0.2,1.5s-0.2-0.1-0.4-0.3l-2.5-3.6c0.7-1.8,1-3.7,0.9-5.6
			l-0.2-8.4c-0.1-2.8-0.4-5.7-1-8.5l0.8-0.4l2,4.5l14.7-1.4l-7.7-5.1l0.3-0.9l7,2.8l6.9-6.4C23.2,6.6,15.1,7.5,13.2,8.2L10,5.5
			l29.3-2.6L42.6,0.3 M26.4,35.1l2.9,3.8c0.1,0.1,0.1,0.2,0.1,0.3c0,0.2-0.1,0.4-0.2,0.5c-0.3,0.5-0.5,1-0.8,1.5L42.1,40l1.7-2.6
			l2.7,3.2c0.1,0.1,0.2,0.2,0.2,0.3s-0.1,0.2-0.4,0.3c-0.4,0.2-0.7,0.5-1,0.9c-0.6,1.1-1.1,2.3-1.3,3.5c-1,4.5-2.5,8.9-4.5,13
			c-1.7,3.3-2.7,4.9-3.1,4.9l0,0c-0.1,0-0.3-0.1-0.4-0.3c-2.5-3.6-5.4-6.9-8.6-9.9l0.5-0.8l8.4,5.8c1.9-1.9,3.9-7.3,6.1-16.3
			l-14.5,1.5c-3.1,10.3-11,17.2-23.7,20.6l-0.3-1c11.9-4.9,19-11.4,21.2-19.4c-7.1,0.7-11.4,1.4-13,2L8.6,43l17.1-1.6
			c0.2-1.1,0.4-2.2,0.4-3.4c0-0.9-0.1-1.7-0.3-2.6L26.4,35.1 M42.7,0l-0.2,0.1l-3.4,2.4L9.9,5.2H9.3l0.5,0.4L13,8.3l0.1,0.1h0.1
			c1.8-0.7,9.7-1.6,23.4-2.8l-6.2,5.8l-6.8-2.7l-0.2-0.1l-0.1,0.2L23,9.7l-0.1,0.2l0.2,0.1l7.1,4.7L16.4,16l-2-4.4l-0.1-0.2
			l-0.2,0.1l-0.8,0.4L13.1,12v0.2c0.6,2.8,0.9,5.6,1,8.4l0.2,8.4c0.1,1.9-0.2,3.8-0.9,5.5l-0.1,0.1l0.1,0.1l2.5,3.6
			c0.2,0.3,0.4,0.5,0.6,0.5c0.2,0,0.4-0.2,0.5-1.8c0-1,0-3.2,0-6.6l-0.3-11.9l11.7-1v4.4l-9.7,1h-0.5l0.4,0.4l2.2,2.1l0.1,0.1H21
			c2.4-0.5,4.9-0.9,7.4-1.1v4.1l-9.8,0.9H18l0.4,0.4l2.5,2.2l0.1,0.1h0.1c2.3-0.6,4.6-1,7-1.1c-0.1,0.6-0.3,1.2-0.7,1.7l-0.1,0.1
			l0.1,0.1l2.2,3.8c0.1,0.2,0.3,0.4,0.5,0.4s0.8,0,0.8-6.4l8.6-0.8l0,0c0.5,0,0.6-0.2,0.6-0.4s-0.2-0.4-0.3-0.6l-2.1-2l-0.1-0.1
			l-0.2,0.1c-2.1,0.6-4.3,1.1-6.5,1.3v-4l8.8-0.8l0,0c0.6,0,0.6-0.3,0.6-0.5s-0.1-0.5-0.3-0.6l-2.1-2v-0.1l-0.2,0.1
			c-1,0.5-3.2,1-6.6,1.4v-4.4L44,16.1l-0.8,11.2c-0.1,1.8-0.6,3.6-1.6,5.2l-0.1,0.1l0.1,0.1l2,3.4c0.1,0.3,0.4,0.4,0.6,0.5
			c0.3,0,0.5-0.3,0.8-1.2c0.4-2.1,0.7-4.1,0.8-6.2l0.9-10.4c0-1,0.2-2,0.6-3c0.2-0.4,0.6-0.8,1.1-1c0.3,0,0.4-0.2,0.4-0.4
			c0-0.2-0.1-0.5-0.3-0.6L45.8,11l-0.2-0.2L45.4,11l-1.8,2.4l-10.2,1c0-0.7-0.2-1.3-0.4-1.9v-0.1h-0.1l-0.3-0.2c2.4-2,4.9-4,7.5-5.8
			c1.5-1,3-1.7,4.7-2.2c0.2,0,0.6-0.2,0.6-0.5c0-0.2-0.1-0.4-0.2-0.6l-2.3-2.9L42.7,0L42.7,0z M26.4,34.7l-0.2,0.1l-0.5,0.4
			l-0.2,0.1v0.2c0.2,0.8,0.3,1.7,0.2,2.5c0,1.1-0.1,2.1-0.3,3.2L8.5,42.7l-0.6,0.1l0.5,0.4l3.5,2.7L12,46h0.1
			c1.5-0.6,5.7-1.2,12.6-2c-2.3,7.7-9.3,14-20.9,18.8l-0.2,0.1l0.1,0.2l0.3,1l0.1,0.2l0.2-0.1c12.6-3.5,20.6-10.4,23.8-20.7l14-1.4
			C40,50.6,38,55.8,36.3,57.8l-8.2-5.6L27.9,52l-0.1,0.2L27.3,53l-0.1,0.2l0.1,0.1c3.2,3,6,6.3,8.5,9.9c0.1,0.2,0.3,0.4,0.6,0.4l0,0
			c0.4,0,1-0.4,3.4-5c2-4.2,3.5-8.6,4.5-13.1c0.2-1.2,0.6-2.4,1.2-3.4c0.2-0.3,0.6-0.6,0.9-0.8c0.3-0.1,0.6-0.3,0.6-0.5
			s-0.1-0.4-0.3-0.5l-2.6-3.1l-0.2-0.3l-0.2,0.3l-1.6,2.5l-13.2,1.2c0.1-0.4,0.3-0.7,0.5-1c0.2-0.2,0.3-0.4,0.3-0.6
			c0-0.2-0.1-0.4-0.2-0.5L26.6,35C26.6,34.9,26.4,34.7,26.4,34.7z"/>
		<path class="st0" d="M23,147.8c-0.2,0-0.4-0.1-0.6-0.5l-2.5-4.7v-0.1c0.9-1.9,1.4-5.5,1.4-10.5c-9.3,3.2-14.9,5.6-16.6,6.9H4.6
			l-3.9-2.6l9.6-2.9v-28.1c-2.2,0.3-4.5,0.8-6.6,1.4H3.6L0.5,104l15.8-1.8l4.1-8.8c-3.8,0.4-7.5,1-11.1,2H9.2l-3-2.6l14.2-1.6
			l2.2-3.2l2.9,3.2c0.2,0.1,0.3,0.3,0.3,0.5s-0.1,0.3-0.3,0.4c-1.1,0.6-2.1,1.4-2.8,2.5l-3.8,7.3c4.9-0.7,8.1-1.5,9.4-2.3h0.1
			l2.6,2.3c0.2,0.1,0.3,0.3,0.3,0.5c0,0.1,0,0.3-0.4,0.3l-7.1,0.9v25.8l5.3-1.6l0.2,1.5l-5.6,2v8.2c0,2.3,0,4.1-0.2,5.4
			c5.7-5.8,10.3-12.5,13.8-19.9l-4.3-9.2c-0.6-1.3-1.3-2.6-2.1-3.8c-1.3,2.7-2.8,5.4-4.4,8l-0.1,0.1l-1.2-1V119
			c3.1-5.8,5.7-11.9,7.6-18.3c1.8-6,2.7-11,2.7-14.9c0-0.8,0-1.6-0.1-2.3v-0.1l1-0.8l3.5,5.6c0.1,0.1,0.1,0.2,0.1,0.4
			c0,0.2-0.2,0.4-0.5,0.7c-0.4,0.4-0.6,0.8-0.8,1.3c-0.3,0.6-0.9,2.4-1.8,5.4s-1.9,5.8-3,8.6c8.7-1.2,14.1-2.5,16-3.8H50l2.8,2.1
			c0.3,0.2,0.4,0.4,0.4,0.6s-0.4,0.3-0.6,0.4l-8.6,1.4l2.3,3.7c0.1,0.1,0.1,0.3,0.1,0.4s-0.1,0.3-0.2,0.4c-0.7,0.5-1.6,2.3-2.7,5.5
			c-1.5,4-2.8,7.3-3.8,9.7l2.8,5.5c1.2,2.5,2.6,5,4.3,7.3c0.9,1.3,2.1,2.3,3.6,2.9c1.9,0.6,3.8,0.9,5.8,0.9h0.1l0.1,1.4l-10.3,0.9
			l-7.6-16.3c-3.4,7-8.3,13.3-14.2,18.4l-0.1,0.1l-0.8-1c0,0.2,0,0.5-0.1,0.7C23.3,147.6,23.1,147.8,23,147.8z M12.7,132.7l8.6-2.6
			v-7.3l-8.6,1.2C12.7,124,12.7,132.7,12.7,132.7z M33.6,110.3L33.6,110.3c0.1,1.6,0.5,3.1,1.2,4.5l3.9,7.6c1.3-3.1,2.3-6.2,3.1-9.5
			c0.6-2.4,1-4.9,1-7.4l-9.6,1.6L32,110L33.6,110.3z M12.7,122c3.9-0.6,6.3-1.2,7.2-1.8l0.1-0.1l1.3,1.8v-7.7l-8.6,1.1L12.7,122z
			 M21.3,113.3v-9.4l-8.6,1v8.3c3.6-0.4,6-1,7.1-1.6l0.1-0.1L21.3,113.3z"/>
		<path class="st0" d="M36.6,83l3.5,5.5c0,0.1,0.1,0.2,0.1,0.3c0,0.1-0.2,0.3-0.5,0.6c-0.4,0.4-0.7,0.8-0.8,1.3
			c-0.3,0.6-0.9,2.4-1.8,5.4c-1,3-2,5.9-3.1,8.8c8.9-1.2,14.3-2.5,16.3-3.8l2.8,2.1c0.2,0.2,0.3,0.3,0.3,0.4s-0.2,0.2-0.4,0.2
			l-8.8,1.4l2.3,3.8c0.1,0.1,0.1,0.2,0.1,0.4c0,0.1-0.1,0.2-0.1,0.3c-0.7,0.5-1.6,2.3-2.7,5.6c-1.5,4.1-2.8,7.3-3.9,9.7l2.8,5.6
			c1.2,2.6,2.7,5,4.3,7.3c0.9,1.3,2.2,2.4,3.7,3c1.9,0.6,3.9,0.9,5.8,0.9l0.1,1.2l-10.1,0.9l-7.6-16.5c-3.4,7.1-8.3,13.4-14.3,18.5
			l-0.7-0.9c5.7-5.8,10.4-12.6,13.9-20l-4.3-9.2c-0.6-1.4-1.4-2.7-2.3-3.9c-1.3,2.8-2.8,5.5-4.4,8.1l-1-0.8c3.1-5.8,5.7-12,7.6-18.3
			c1.8-6.1,2.7-11,2.7-14.9c0-0.8,0-1.6-0.1-2.4L36.6,83 M38.6,122.7c1.3-3.2,2.4-6.4,3.2-9.8c0.7-2.5,1-5,1-7.5L33,107l-1.2,3.2
			l1.6,0.3c0.1,1.5,0.5,3.1,1.2,4.4L38.6,122.7 M22.6,88.2l2.8,3.1c0.1,0.1,0.2,0.3,0.3,0.4c0,0.1-0.1,0.2-0.3,0.3
			c-1.2,0.6-2.2,1.5-2.9,2.6l-3.9,7.5c5.1-0.7,8.3-1.5,9.7-2.4l2.5,2.2c0.2,0.1,0.3,0.3,0.3,0.4s-0.1,0.2-0.3,0.2l-7.2,0.9v26
			l5.4-1.6l0.2,1.2l-5.5,2v8.3c0,2.1,0,4.2-0.3,6.3c-0.2,1.2-0.3,1.9-0.5,1.9s-0.3-0.1-0.5-0.4l-2.5-4.6c1-2,1.4-5.6,1.4-10.7
			c-9.5,3.3-15.1,5.6-16.9,6.9l-3.6-2.4l9.4-2.9v-28.2c-2.3,0.3-4.6,0.8-6.8,1.5l-2.9-2.5l15.6-1.7l4.2-9c-5.7,0.7-9.5,1.4-11.4,2.1
			l-2.7-2.4l14.1-1.8L22.6,88.2 M12.6,113.3c3.8-0.5,6.2-1,7.2-1.7l1.5,1.9v-9.9l-8.8,1L12.6,113.3 M12.6,122.1
			c4-0.7,6.5-1.3,7.4-1.9l1.4,2V114l-8.8,1.2v7 M12.6,133l8.8-2.8v-7.5l-8.8,1.2v8.9 M36.7,82.6l-0.2,0.2l-0.8,0.6l-0.1,0.1v0.1
			c0.1,0.8,0.1,1.6,0.1,2.3c0,3.8-0.9,8.8-2.7,14.8c-1.9,6.3-4.4,12.5-7.5,18.3l-0.1,0.2l0.2,0.1l1,0.8l0.2,0.2l0.2-0.2
			c1.6-2.5,3-5.1,4.3-7.8c0.8,1.1,1.4,2.3,2,3.6l4.2,9.1c-3.4,7.2-8,13.8-13.5,19.5c0.1-1.2,0.1-3,0.1-5.1v-8.1l5.4-1.9l0.2-0.1
			v-0.2l-0.2-1.2v-0.3l-0.3,0.1l-5,1.5v-25.5l7-0.9l0,0c0.2,0,0.4-0.1,0.5-0.4c0,0,0,0,0-0.1c0-0.2-0.2-0.5-0.4-0.6l-2.5-2.2
			l-0.2-0.1l-0.2,0.1c-1.3,0.8-4.4,1.6-9.1,2.2l3.7-7.1c0.7-1,1.7-1.9,2.8-2.5c0.2-0.1,0.4-0.3,0.4-0.5s-0.1-0.5-0.3-0.6l-2.8-3.1
			l-0.2-0.2L22.7,88l-2.1,3l-14,1.8L6,92.9l0.4,0.4l2.7,2.4l0.1,0.1h0.1c3.6-1,7.2-1.6,10.9-2l-4.1,8.5L0.6,104L0,104.1l0.5,0.4
			l2.9,2.4l0.1,0.1h0.1c2.1-0.6,4.3-1.1,6.5-1.4v27.9l-9.2,2.8l-0.5,0.1l0.4,0.3l3.5,2.4l0.1,0.1l0.1-0.1c1.7-1.3,7.2-3.6,16.4-6.8
			c0,4.9-0.5,8.3-1.4,10.2l-0.1,0.1l0.1,0.1l2.5,4.6c0.2,0.4,0.5,0.6,0.7,0.6s0.5-0.3,0.7-2.1c0-0.1,0-0.2,0-0.4l0.5,0.6l0.2,0.2
			l0.2-0.2c5.9-5,10.7-11.2,14.1-18.1l7.4,16l0.1,0.2h0.5l10.1-0.9h0.2V143l-0.1-1.2v-0.2h-0.2c-2,0-3.9-0.3-5.8-0.9
			c-1.4-0.6-2.6-1.6-3.5-2.9c-1.6-2.3-3-4.8-4.3-7.3l-2.8-5.4c1.1-2.4,2.4-5.6,3.8-9.6s2.2-5.1,2.7-5.4l0,0l0,0
			c0.1-0.1,0.2-0.3,0.2-0.5s-0.1-0.4-0.2-0.5l-2.2-3.5l8.4-1.3c0.2,0,0.7-0.1,0.7-0.5c0-0.2-0.1-0.4-0.4-0.6l-2.7-2.2l-0.1-0.1
			L50,101c-1.9,1.2-7.2,2.5-15.7,3.7c1-2.7,2-5.5,2.9-8.4s1.5-4.8,1.8-5.4c0.2-0.5,0.5-0.9,0.8-1.2c0.4-0.3,0.5-0.6,0.5-0.8
			c0-0.1,0-0.3-0.1-0.4L36.7,83V82.6L36.7,82.6z M12.8,105l8.3-1v8.9l-1.1-1.4l-0.1-0.2l-0.2,0.1c-1,0.6-3.3,1.1-6.9,1.6L12.8,105
			L12.8,105z M33.3,107.2l9.4-1.5c-0.1,2.4-0.4,4.8-1,7.2c-0.7,3.2-1.7,6.2-3,9.2l-3.7-7.4c-0.7-1.4-1.1-2.8-1.2-4.3v-0.2h-0.4
			l-1.3-0.2L33.3,107.2L33.3,107.2z M12.8,115.3l8.3-1v7.1l-1-1.4l-0.2-0.2l-0.2,0.1c-0.8,0.6-3.2,1.2-7,1.8L12.8,115.3L12.8,115.3z
			 M12.8,124.2l8.3-1.2v7l-8.3,2.5L12.8,124.2L12.8,124.2z"/>
		<path class="st0" d="M6.9,292.3L6.9,292.3c8.9-3.5,15.7-7.5,20.4-12c-3.1-2.5-6.4-4.6-9.8-6.4c-3.2,3.9-6.8,7.3-10.9,10.2
			l-0.1,0.1l-0.9-0.9l0.1-0.1c4-3.4,7.5-7.2,10.6-11.4c2.7-3.8,4.2-7.1,4.5-9.7V262l0.8-0.1l1.8,4.1c0.1,0.1,0.1,0.3,0.1,0.4
			c0,0.2-0.1,0.4-0.4,0.5c-0.5,0.2-1.3,1.2-2.4,2.9l16.1-2.2l2.1-2.1l2.4,2.7c0.2,0.2,0.2,0.4,0.2,0.7c0,0.3-0.1,0.5-0.4,0.6
			c-1,0.4-1.9,1.1-2.6,2c-2.2,3.1-4.7,6.1-7.4,8.7l2.3,1.4c2.8,1.8,5.8,3.2,9,4.3c3.2,0.9,6.5,1.4,9.8,1.4c1.1,0,2.3,0,3.7-0.1H56
			v1.2l-12.4,2.4l-14-9c-2.9,2.7-6.1,5.1-9.6,7c-4,2-8.2,3.7-12.5,4.9H7.4L6.9,292.3z M21.7,273.2c0.8,1,1.8,1.8,2.8,2.6
			c1.4,1.1,2.8,2.1,4.3,3c2.7-2.7,5.1-5.7,7-9c-4.6,0.5-9.2,1.3-13.6,2.3h-0.1l-2.1-1.8c-0.8,1.3-1.5,2.3-2.1,3L21.7,273.2
			L21.7,273.2z M11.1,265.6c-0.2,0-0.3-0.3-0.3-0.5l-0.7-3.4h0.1c1.2-0.9,2.1-2.1,2.8-3.4c0.7-1.5,1.1-3.2,1.4-4.8v-0.1h1.1v0.1
			c0.2,3.7-0.4,6.6-1.8,8.8C11.6,265.6,11.3,265.6,11.1,265.6z M36.6,264.8c-9.6,0-15.8-3.8-18.4-11.3v-0.1l1-0.4v0.1
			c2.1,3.5,4.4,6,7,7.4c2.4,1.3,6,1.9,10.8,1.9h0.8l-2.5-9.2l1.2-0.3v0.1c1.5,3.6,3.2,7.2,5.1,10.6c0.2,0.4,0.3,0.5,0.3,0.6
			C42,264.4,42,264.8,36.6,264.8z M48.4,262.7c-0.2,0-0.3-0.1-0.6-0.4l-8.2-9.2l0.6-0.9l7.9,4.8c0.4,1.6,0.6,3.3,0.6,5
			C48.6,262.2,48.6,262.7,48.4,262.7z M5.7,260c-0.2,0-0.3-0.1-0.4-0.3l-1.1-4h0.1c1.3-1.1,2.3-2.4,3-3.9c0.6-1.7,0.9-3.5,0.9-5.3
			v-0.1l1-0.1v0.1c0.1,1.1,0.2,2.1,0.1,3.2l26-2.8c2.2-5.6,3.3-9.7,3.3-12.3c-5.3,1.1-9.5,2-12.6,2.5l3.8,5v0.1
			c-0.2,0.9-0.6,1.8-1.1,2.6c-0.6,1-0.8,1.1-1,1.1s-0.4-0.2-0.5-0.6l-2.4-7.9c-3.7,0.5-6.3,0.9-8.1,1.1l3.7,6v0.1
			c-1.3,3.1-1.8,3.5-2.1,3.5s-0.4-0.2-0.5-0.6l-2.5-8.9c-2.2,0.2-4,0.4-5.2,0.5H10l-0.2-1.6h0.1c7.5-1,14.9-2.4,22.2-4.2
			c6.6-1.8,8.2-3,8.3-3.7l0.4-0.3l0.1-0.1l3.5,3.4c0.2,0.2,0.3,0.4,0.4,0.7c0,0.2-0.3,0.4-1.1,0.5c-1.3,0.1-2.5,0.3-3.8,0.5l1.9,3.5
			c0.1,0.2,0.2,0.4,0.2,0.6c0,0.2-0.2,0.5-0.7,0.8c-0.6,0.5-1,1-1.4,1.7c-0.5,0.9-1.6,2.8-3.1,5.8l12.6-1.4l2.2-3.1l3,3.1
			c0.2,0.2,0.3,0.4,0.3,0.7c0,0.3-0.2,0.5-0.7,0.7c-1.3,0.6-3.4,3.1-6.1,7.5l-0.1,0.1l-1-0.6l2.4-6L9,251.9c-0.2,2-0.8,3.9-1.7,5.8
			C6.3,259.7,5.9,260,5.7,260L5.7,260z M30.9,258.6c-0.2,0-0.4-0.1-0.6-0.3l-6.1-6.8l0.6-0.9l6.8,3.6v0.1c0,0.5,0.1,1,0.1,1.5
			c0,0.6-0.1,1.2-0.2,1.8C31.3,258.3,31.2,258.6,30.9,258.6L30.9,258.6z"/>
		<path class="st0" d="M40.9,229.1l3.5,3.3c0.2,0.2,0.3,0.4,0.3,0.6c0,0.2-0.3,0.3-1,0.4c-1.3,0.1-2.7,0.3-4,0.6l2,3.7
			c0.1,0.2,0.2,0.4,0.2,0.6c0,0.2-0.2,0.4-0.6,0.7c-0.6,0.5-1.1,1.1-1.4,1.7c-0.5,0.9-1.6,2.9-3.2,6l12.9-1.4l2.2-3l2.9,3
			c0.2,0.2,0.3,0.4,0.3,0.6s-0.2,0.4-0.6,0.6c-1.3,0.6-3.4,3.1-6.1,7.5l-0.8-0.5l2.4-6.1l-40.8,4.3c-0.2,2-0.8,4-1.7,5.8
			c-0.8,1.5-1.4,2.2-1.7,2.2c-0.1,0-0.2-0.1-0.3-0.2l-1-4c1.3-1.1,2.3-2.5,3-4c0.6-1.7,0.9-3.5,0.9-5.4l0.9-0.1
			c0.1,1.1,0.2,2.2,0.1,3.3l26.2-2.7c2.3-5.8,3.4-10,3.3-12.6c-5.5,1.2-9.8,2.1-12.9,2.6l3.9,5.1c-0.2,0.9-0.6,1.7-1.1,2.5
			c-0.4,0.7-0.7,1-0.9,1s-0.3-0.2-0.4-0.5l-2.4-8c-3.8,0.6-6.6,0.9-8.4,1.1l3.8,6.1c-1,2.3-1.7,3.4-2,3.4c-0.2,0-0.3-0.2-0.4-0.5
			l-2.4-8.9c-2.3,0.2-4,0.4-5.4,0.5l-0.1-1.4c7.5-0.9,14.9-2.3,22.2-4.1c5.4-1.4,8.2-2.7,8.4-3.8L40.9,229.1 M24.8,250.8l6.6,3.4
			c0,0.5,0.1,1,0.1,1.5c0,0.6-0.1,1.2-0.2,1.8c-0.1,0.6-0.2,0.9-0.4,0.9s-0.4-0.1-0.5-0.2l-6-6.8L24.8,250.8 M40.2,252.3L48,257
			c0.4,1.6,0.5,3.3,0.5,4.9c0,0.4-0.1,0.5-0.2,0.5s-0.3-0.1-0.5-0.3l-8.2-9.2L40.2,252.3 M36.5,253c1.5,3.6,3.2,7.2,5.1,10.6
			c0.1,0.2,0.2,0.4,0.3,0.6c0,0.3-1.7,0.5-5.2,0.5c-9.6,0-15.7-3.8-18.3-11.3l0.8-0.3c2.1,3.6,4.4,6,7.1,7.4c2.4,1.3,6.1,2,10.8,2h1
			l-2.5-9.3L36.5,253 M15.4,253.5c0.2,3.7-0.4,6.6-1.8,8.7s-2.2,3.2-2.5,3.2c-0.1,0-0.1-0.1-0.2-0.4l-0.7-3.3
			c1.2-0.9,2.2-2.1,2.9-3.4c0.7-1.6,1.1-3.2,1.4-4.8L15.4,253.5 M21.5,261.9l1.8,4c0,0.1,0.1,0.2,0.1,0.3c0,0.1-0.1,0.3-0.3,0.4
			c-0.6,0.2-1.4,1.3-2.6,3.2l16.3-2.2l2.1-2.1l2.3,2.6c0.1,0.2,0.2,0.4,0.2,0.6s-0.1,0.4-0.3,0.5c-1.1,0.4-2,1.1-2.7,2
			c-2.2,3.2-4.7,6.1-7.5,8.8l2.4,1.5c2.8,1.8,5.8,3.2,9,4.3c3.2,0.9,6.5,1.4,9.8,1.4c1.1,0,2.3,0,3.7-0.1v1l-12.3,2.4l-14-9
			c-2.9,2.7-6.1,5.1-9.6,7c-4,2-8.2,3.7-12.5,4.9l-0.2-1c8.9-3.5,15.7-7.6,20.4-12.2c-3.1-2.5-6.5-4.7-10-6.5
			c-3.2,3.9-6.8,7.3-10.9,10.2L6,283.1c4-3.4,7.6-7.2,10.6-11.5c2.7-3.8,4.2-7.1,4.5-9.8L21.5,261.9 M22.2,271.9l-2.2-1.8
			c-0.7,1.2-1.5,2.3-2.3,3.3l3.9-0.2c0.8,1,1.8,1.9,2.8,2.6c1.4,1.1,2.9,2.1,4.4,3c2.8-2.8,5.3-5.9,7.2-9.3
			C31.5,270,26.8,270.8,22.2,271.9 M41,228.8l-0.2,0.1l-0.3,0.2l-0.1,0.1v0.1c-0.1,0.7-1.7,1.9-8.2,3.6c-7.3,1.8-14.7,3.2-22.1,4.2
			H9.9v0.2l0.1,1.4v0.2h0.2c1.3-0.1,3-0.2,5.1-0.5l2.3,8.7c0.2,0.5,0.4,0.7,0.6,0.7s0.8-0.3,2.3-3.5v-0.1l-0.1-0.1l-3.6-5.8
			c1.8-0.2,4.3-0.5,7.8-1l2.3,7.8c0.2,0.5,0.5,0.7,0.7,0.7s0.6-0.3,1.1-1.1c0.5-0.8,0.8-1.7,1.1-2.6V242l-0.1-0.1l-3.7-4.7
			c3-0.5,7.1-1.3,12.2-2.4c0,2.6-1.1,6.6-3.3,12l-25.5,2.6c0-1,0-2.1-0.1-3.1v-0.2H9.1l-0.9,0.1H8v0.2c0,1.8-0.3,3.6-0.9,5.3
			c-0.7,1.5-1.7,2.8-3,3.9L4,255.7v0.1l1,4c0.1,0.2,0.3,0.4,0.5,0.4c0.3,0,0.8-0.3,1.9-2.4c0.9-1.8,1.5-3.7,1.7-5.7l40.3-4.3
			l-2.3,5.7l-0.1,0.2l0.2,0.1l0.8,0.5l0.2,0.1l0.2-0.2c2.7-4.3,4.7-6.8,6-7.4c0.5-0.2,0.7-0.5,0.7-0.9c0-0.3-0.1-0.6-0.3-0.8l-2.9-3
			l-0.2-0.2l-0.2,0.2l-2.1,2.9l-12.3,1.3c1.5-2.9,2.5-4.8,3-5.6c0.3-0.6,0.8-1.2,1.3-1.7c0.5-0.3,0.7-0.6,0.7-0.9
			c0-0.3-0.1-0.5-0.2-0.7l-1.8-3.3c1.2-0.2,2.4-0.4,3.6-0.5c0.6-0.1,1.2-0.2,1.2-0.6c0-0.3-0.2-0.6-0.4-0.8L41,228.8L41,228.8
			L41,228.8z M24.7,250.4l-0.1,0.2l-0.5,0.7l-0.1,0.2l0.1,0.1l6.1,6.7c0.1,0.2,0.4,0.4,0.7,0.4c0.4,0,0.6-0.6,0.7-1.1
			c0.1-0.6,0.2-1.2,0.2-1.8c0-0.5,0-1.1-0.1-1.6v-0.1l-0.1-0.1l-6.6-3.5L24.7,250.4L24.7,250.4z M40.1,252l-0.1,0.2l-0.5,0.7
			l-0.1,0.2l0.1,0.1l8.2,9.2c0.3,0.3,0.5,0.4,0.7,0.4c0.4,0,0.4-0.6,0.4-0.8c0-1.7-0.2-3.4-0.5-5v-0.1h-0.1l-7.8-4.7L40.1,252
			L40.1,252z M36.7,252.7h-0.2l-0.9,0.2l-0.2,0.1v0.2l2.3,9H37c-4.7,0-8.3-0.6-10.7-1.9s-4.9-3.9-6.9-7.4l-0.1-0.2l-0.2,0.1
			l-0.8,0.3l-0.2,0.1l0.1,0.2c2.6,7.6,8.8,11.4,18.5,11.4c5.5,0,5.5-0.4,5.5-0.7c0-0.1,0-0.3-0.3-0.7C40,260,38.3,256.4,36.7,252.7
			L36.7,252.7L36.7,252.7z M15.6,253.3h-1.3v0.2c-0.3,1.6-0.8,3.2-1.5,4.7c-0.7,1.3-1.7,2.4-2.8,3.4l-0.1,0.1v0.1l0.7,3.3
			c0.1,0.4,0.2,0.5,0.4,0.5s0.5,0,2.7-3.3c1.4-2.2,2-5.2,1.8-8.9L15.6,253.3L15.6,253.3z M21.7,261.6h-0.2l-0.7,0.1h-0.2v0.2
			c-0.3,2.6-1.8,5.9-4.4,9.7c-3,4.2-6.6,8.1-10.6,11.4l-0.2,0.2l0.2,0.2l0.7,0.8l0.1,0.2l0.2-0.1c4-2.9,7.7-6.3,10.8-10.1
			c3.4,1.7,6.6,3.8,9.6,6.2c-4.7,4.5-11.5,8.5-20.1,11.9l-0.2,0.1v0.2l0.2,1v0.3l0.3-0.1c4.3-1.2,8.5-2.9,12.5-4.9
			c3.5-1.9,6.7-4.3,9.5-7l13.8,8.9h0.1h0.1l12.3-2.4h0.2v-1.5h-0.3c-1.3,0.1-2.5,0.1-3.6,0.1c-3.3,0-6.6-0.4-9.8-1.3
			c-3.1-1-6.1-2.5-8.9-4.2l-2.1-1.4c2.7-2.6,5.1-5.5,7.3-8.6c0.7-0.9,1.6-1.5,2.6-1.9c0.3-0.1,0.5-0.4,0.5-0.8
			c0-0.3-0.1-0.5-0.3-0.8l-2.3-2.6l-0.2-0.2l-0.2,0.2l-2,2l-15.7,2.1c1.2-1.9,1.9-2.5,2.2-2.6s0.5-0.4,0.5-0.6s0-0.3-0.1-0.5l-1.8-4
			L21.7,261.6L21.7,261.6z M22.2,272.2L22.2,272.2c4.5-1.1,9-1.8,13.5-2.3c-1.9,3.2-4.2,6.1-6.8,8.7c-1.5-0.9-2.9-1.8-4.2-2.9
			c-1-0.7-2-1.6-2.8-2.5l-0.1-0.1h-0.2l-3.4,0.2c0.5-0.7,1.1-1.6,1.9-2.7L22.2,272.2L22.2,272.2L22.2,272.2z"/>
		<path class="st0" d="M92.7,99.6c-1.1-0.2-2.2-0.7-3.2-1.5c-1.5-1-2.9-2.2-3.9-3.7c-1.1-1.5-1.9-3.2-2.4-5
			c-1.7,1.7-3.7,3.1-5.8,4.2l-0.1,0.1L76.9,93l0.1-0.1c2.1-1.4,4.1-3,5.8-4.9c-0.8-3-1.3-6-1.7-9l-5.6,0.9v4.4l3.7-1.6l0.4,0.7
			l-4.2,2.1v7.2c0,1.4,0,2.9-0.2,4.3c-0.2,1.1-0.3,1.3-0.5,1.3c-0.1,0-0.2-0.1-0.3-0.2c-1.6-1.6-3.3-3.2-5-4.7l-0.1-0.1l0.4-0.6
			l3.9,2c0.3-1.1,0.4-2.2,0.3-3.3v-5.2c-1.9,0.9-3.7,1.9-5.4,2.9l-0.1,0.1l-2.4-1l7.9-3.3v-4.7c-1.8,0.2-3.6,0.6-5.3,1.1h-0.1
			l-2-1.5l7.3-1.2v-5.2c-2.3,1-4.5,1.8-6.3,2.4h-0.1l-0.1-0.6h0.1c2.4-1,4.7-2.2,7-3.5c1.4-0.9,2.2-1.6,2.3-2.2v-0.1l0.5-0.1l1.3,2
			c0.1,0.1,0.1,0.2,0.1,0.3c0,0.2-0.2,0.2-0.6,0.4c-0.5,0.1-0.9,0.3-1.3,0.5c-0.6,0.2-0.9,0.4-1,0.5c-0.1,0-0.2,0.1-0.2,0.1v5.6
			l5.4-0.8c-0.3-2.8-0.4-4.7-0.5-5.8c-0.1-1.1-0.2-2.2-0.4-3.3c-0.1-0.8-0.3-1.5-0.6-2.2v-0.4l0.4-0.5l2.6,2.4
			c0.1,0.1,0.2,0.2,0.2,0.4c0,0.1,0,0.2-0.1,0.3c-0.4,0.9-0.5,1.9-0.5,2.8c0,1.4,0.1,3.3,0.3,5.8c2-0.2,3.9-0.7,5.7-1.4h0.1l1.5,1.2
			c0.2,0.2,0.2,0.3,0.2,0.4s-0.2,0.2-0.3,0.2l-7,1.1c0.3,2.7,0.7,5.3,1.3,7.9c1.6-1.8,2.7-3.9,3.3-6.2v-0.1l0.5-0.2l1.2,2.4
			c0.1,0.1,0.1,0.2,0.1,0.3c0,0.2-0.2,0.3-0.3,0.3c-0.7,0.6-1.3,1.3-1.8,2c-0.8,1.1-1.7,2.1-2.7,3.1c0.5,1.9,1.4,3.6,2.6,5.1
			c1,1.3,2.4,2.4,3.9,3.2l0.3-6.3l0.7-0.1v0.1c0.2,2.1,0.4,4,0.6,5.5l0.5,3.3C92.9,99.5,92.7,99.6,92.7,99.6z M88.3,75.1
			c-0.2,0-0.3-0.1-0.4-0.2l-3.8-5.1l0.4-0.5l4.2,2.8c0.1,0.3,0.1,0.7,0.1,1.1s-0.1,0.8-0.2,1.2C88.6,74.9,88.5,75.1,88.3,75.1z"/>
		<path class="st0" d="M79.8,65.9l2.5,2.3c0.1,0.1,0.1,0.2,0.2,0.3c0,0.1,0,0.1-0.1,0.2c-0.4,0.9-0.6,1.9-0.5,2.9
			c0,1.4,0.1,3.4,0.4,6c2-0.2,4-0.7,5.9-1.4l1.4,1c0.1,0.1,0.2,0.2,0.2,0.3s-0.1,0.1-0.2,0.1l-7.2,1.1c0.3,2.8,0.7,5.5,1.3,8.3
			c2-2.5,3.2-4.6,3.5-6.4l0.3-0.1l1.1,2.3c0.1,0.1,0.1,0.2,0.1,0.3c0,0.1-0.1,0.2-0.2,0.2c-0.7,0.6-1.3,1.3-1.8,2
			c-0.8,1.1-1.7,2.1-2.7,3.1c0.5,1.9,1.4,3.7,2.7,5.2c1.1,1.4,2.5,2.5,4.1,3.3l0.3-6.4h0.5c0.2,2.1,0.4,3.9,0.6,5.5l0.5,3.3
			c0,0.1,0,0.2-0.1,0.2c-1.1-0.3-2.2-0.7-3.1-1.4c-1.5-1-2.9-2.2-3.9-3.7c-1.1-1.6-1.9-3.3-2.4-5.2c-1.8,1.7-3.8,3.1-5.9,4.3L77,93
			c2.2-1.4,4.1-3.1,5.9-5c-0.8-3-1.3-6.1-1.7-9.1l-5.8,1v4.7l3.8-1.6l0.3,0.5l-4.1,2.1v7.3c0,1.4,0,2.9-0.2,4.3
			c-0.1,0.8-0.2,1.2-0.4,1.2c-0.2,0-0.1,0-0.2-0.1c-1.6-1.7-3.2-3.2-5-4.7l0.3-0.4l3.9,2c0.4-1.1,0.5-2.3,0.4-3.5v-5.4
			c-2,0.9-3.8,2-5.7,3.1l-2-0.8l7.7-3.3v-5c-1.9,0.2-3.7,0.6-5.5,1.1L67,80.2l7.2-1.1v-5.5c-2.4,1-4.6,1.8-6.5,2.5l-0.2-0.9
			c2.4-1,4.7-2.2,7-3.5c1.5-0.9,2.3-1.7,2.4-2.3l0.4-0.1l1.3,1.9c0.1,0.1,0.1,0.2,0.1,0.2c0,0.1-0.2,0.2-0.5,0.3s-0.8,0.3-1.3,0.5
			s-0.9,0.4-1.1,0.5l-0.4,0.1v5.8l5.7-0.9c-0.3-2.8-0.4-4.8-0.5-5.9c-0.1-1.1-0.2-2.2-0.4-3.3c-0.1-0.8-0.3-1.6-0.6-2.3L79.8,65.9
			 M84.6,69.5l4.1,2.7c0.1,0.3,0.1,0.7,0.1,1c0,0.4-0.1,0.8-0.2,1.2c-0.1,0.4-0.2,0.6-0.3,0.6c-0.1,0-0.2-0.1-0.3-0.2l-3.7-5
			L84.6,69.5 M79.8,65.5l-0.2,0.2l-0.2,0.4l-0.1,0.1l0.1,0.1c0.3,0.7,0.5,1.5,0.6,2.2c0.2,1.1,0.3,2.2,0.4,3.3
			c0.1,1.1,0.2,3,0.5,5.7l-5.2,0.8V73l0.2-0.1l1-0.5c0.6-0.2,1-0.4,1.3-0.5s0.7-0.3,0.7-0.5c0-0.1-0.1-0.3-0.1-0.4l-1.3-1.8
			l-0.1-0.1h-0.2l-0.4,0.1h-0.2v0.2c-0.1,0.4-0.5,1.1-2.3,2.2c-2.3,1.3-4.6,2.5-7,3.5l-0.2,0.1l0.1,0.2l0.2,0.6l0.1,0.3l0.2-0.1
			c1.8-0.6,3.9-1.4,6.2-2.3v4.8L67,79.8l-0.6-0.1l0.5,0.4l1.7,1.2l0.1,0.1h0.1c1.7-0.5,3.4-0.9,5.1-1.1v4.6l-7.5,3.2l-0.6,0.2
			l0.6,0.2l2,0.8l0.1,0.1l0.1-0.1c1.7-1.1,3.4-2,5.2-2.8v5c0.1,1.1,0,2.1-0.3,3.2l-3.6-1.9l-0.2-0.1l-0.1,0.2l-0.3,0.4l-0.1,0.2
			l0.2,0.1c1.7,1.5,3.4,3,5,4.7c0.1,0.1,0.2,0.2,0.3,0.2c0.3,0,0.5-0.4,0.7-1.4c0.1-1.4,0.2-2.9,0.2-4.3v-7.2l4-2l0.2-0.1l-0.1-0.2
			l-0.3-0.5l-0.1-0.2l-0.2,0.1l-3.4,1.5v-4.1l5.3-0.8c0.4,3,0.9,5.9,1.6,8.8c-1.7,1.8-3.6,3.5-5.7,4.8L76.7,93l0.1,0.2l0.3,0.5
			l0.1,0.2l0.2-0.1c2.1-1.1,4-2.5,5.7-4.1c0.5,1.7,1.3,3.3,2.4,4.8c1.1,1.5,2.4,2.8,4,3.7c1,0.7,2.1,1.2,3.2,1.5c0,0,0.3,0,0.3-0.4
			l-0.5-3.4c-0.2-1.6-0.4-3.4-0.6-5.5v-0.2h-0.2h-0.5H91v0.2l-0.3,6c-1.4-0.8-2.7-1.8-3.7-3.1c-1.2-1.5-2-3.2-2.6-5
			c0.9-1,1.8-2,2.6-3c0.5-0.7,1.1-1.4,1.8-1.9c0.2-0.1,0.3-0.2,0.3-0.4c0-0.1-0.1-0.3-0.1-0.4l-1.1-2.3l-0.1-0.2l-0.2,0.1l-0.3,0.1
			h-0.1v0.1c-0.5,2.2-1.6,4.2-3.1,5.9c-0.5-2.5-0.9-5-1.2-7.5l6.8-1.1c0.4-0.1,0.4-0.2,0.4-0.4S90,77,89.8,76.8l-1.4-1l-0.1-0.1
			l-0.1,0.1c-1.8,0.7-3.7,1.1-5.6,1.3c-0.2-2.4-0.3-4.3-0.3-5.7c-0.1-0.9,0.1-1.9,0.5-2.8c0.1-0.1,0.1-0.2,0.1-0.3
			c0-0.2-0.1-0.3-0.2-0.5l-2.5-2.3L79.8,65.5L79.8,65.5z M84.5,69.1l-0.1,0.2l-0.3,0.4L84,69.9l0.1,0.2l3.7,5
			c0.1,0.2,0.3,0.3,0.5,0.3c0.3,0,0.4-0.3,0.5-0.8c0.2-0.7,0.2-1.5,0.1-2.2v-0.1l-0.1-0.1l-4.1-2.7L84.5,69.1L84.5,69.1z"/>
		<path class="st0" d="M86.6,141.8c-0.1,0-0.2-0.1-0.4-0.3c-1.3-1.9-2.7-3.7-4.2-5.4l-0.1-0.1l0.5-0.6l4,3c1.3-3.2,2.1-9.4,2.6-18.4
			l-8.1,1.2c-0.7,2.1-1.7,4.1-2.8,6l-0.1,0.1l-0.7-0.5v-0.1c2.8-6.7,4.2-12,4.2-15.7c0-0.6,0-1.1-0.1-1.7v-0.1l0.6-0.3l1.9,2.5
			c0.1,0.1,0.1,0.2,0.2,0.4c0,0.1-0.1,0.3-0.2,0.4c-0.4,0.5-0.6,1.1-0.8,1.8c-0.5,1.7-1.1,3.6-1.7,5.6l7.4-1.1l1.1-1.6l1.5,1.5
			c0.1,0.1,0.2,0.2,0.2,0.4c0,0.1-0.1,0.3-0.3,0.5c-0.2,0.2-0.4,0.5-0.5,0.7c-0.2,0.5-0.3,1-0.3,1.6c-0.2,3.4-0.5,6.3-0.8,8.8
			s-0.7,4.5-1,6.1c-0.3,1.2-0.6,2.4-1.1,3.6c-0.3,0.8-0.5,1.3-0.6,1.4C86.9,141.6,86.8,141.8,86.6,141.8z M69.2,138.6
			c-0.1,0-0.3-0.1-0.4-0.4l-1.2-2.3v-0.1c0.2-0.3,0.4-0.7,0.5-1.1c0.1-0.7,0.1-1.3,0.1-2l-0.1-10.2c0-1.8-0.2-3.5-0.6-5.3l0,0
			l0.7-0.3l1.2,2.8l0.8-0.1c0.6-2,1.1-3.6,1.4-4.8c0.3-0.9,0.4-1.8,0.4-2.7c0-0.6,0-1.1-0.2-1.7v-0.1l0.6-0.3l1.7,2.3
			c0.1,0.1,0.2,0.3,0.2,0.5s-0.1,0.3-0.2,0.4c-0.2,0.1-0.8,1.3-2.7,6.3l4.4-0.6l0.8-1.3l1.4,1.3c0.1,0.1,0.2,0.2,0.2,0.4
			c0,0.1-0.1,0.3-0.3,0.5s-0.3,0.4-0.4,0.7c-0.1,0.5-0.2,1-0.2,1.5l-0.4,10.9c0,1.1-0.1,2.1-0.3,3.1c-0.2,1.1-0.3,1.2-0.5,1.2
			s-0.3-0.1-0.4-0.3l-1-1.4l-5,0.6c0,0.6,0,1.3-0.1,1.9C69.4,138.4,69.3,138.6,69.2,138.6z M69.6,134.6c1.5-0.1,3.1-0.4,4.6-0.9h0.1
			l0.6,0.5c0.3-0.9,0.5-1.8,0.5-2.7l0.3-11.2l-6.2,0.8l0.1,5.8c1.4-0.2,2.7-0.5,4-1h0.1l0.9,1.1c0.2,0.2,0.2,0.3,0.2,0.4
			s-0.2,0.2-0.3,0.2l-4.9,0.6V134.6z M84.6,131.3c-0.2,0-0.3-0.1-0.4-0.4l-3.7-6.7l0.5-0.4l4.4,4.5c0,0.7-0.1,1.4-0.3,2
			C85,131.1,84.8,131.3,84.6,131.3L84.6,131.3z"/>
		<path class="st0" d="M82,109.2l1.9,2.4c0.1,0.1,0.1,0.2,0.1,0.3c0,0.1-0.1,0.2-0.2,0.3c-0.4,0.5-0.7,1.2-0.8,1.8
			c-0.5,1.8-1.1,3.7-1.8,5.8l7.6-1.2l1.1-1.5l1.4,1.4c0.1,0.1,0.1,0.2,0.1,0.3s-0.1,0.2-0.3,0.4s-0.4,0.5-0.5,0.8
			c-0.2,0.5-0.3,1.1-0.3,1.6c-0.2,3.4-0.5,6.3-0.8,8.8s-0.7,4.4-1,6c-0.2,1.2-0.6,2.4-1,3.6c-0.3,0.8-0.6,1.3-0.6,1.4
			s-0.2,0.2-0.2,0.2s-0.2-0.1-0.3-0.3c-1.3-1.9-2.7-3.7-4.2-5.4l0.4-0.4l4,3.1c1.3-3.1,2.2-9.4,2.6-18.8l-8.3,1.2
			c-0.8,2.1-1.7,4.1-2.8,6l-0.5-0.4c2.8-6.7,4.2-12,4.2-15.7c0-0.6,0-1.1-0.1-1.7L82,109.2 M72.3,110.1l1.6,2.2
			c0.1,0.1,0.2,0.2,0.2,0.4c0,0.1-0.1,0.2-0.2,0.3c-0.2,0.2-1.2,2.4-2.8,6.5l4.6-0.6l0.8-1.2l1.3,1.2c0.1,0.1,0.2,0.2,0.2,0.3
			s-0.1,0.2-0.3,0.4s-0.4,0.5-0.4,0.8c-0.1,0.5-0.2,1-0.2,1.5l-0.4,10.9c0,1-0.1,2.1-0.3,3.1c-0.1,0.7-0.2,1.1-0.3,1.1
			s-0.2-0.1-0.3-0.2l-1-1.5l-5.2,0.6c0,0.7,0,1.3-0.1,2c-0.1,0.4-0.2,0.7-0.3,0.7s-0.2-0.1-0.3-0.3l-1.2-2.2
			c0.2-0.3,0.4-0.7,0.5-1.1c0.1-0.7,0.1-1.3,0.1-2l-0.1-10.2c-0.1-1.8-0.3-3.6-0.6-5.3l0.5-0.2l1.2,2.8l1-0.1c0.6-2,1.1-3.6,1.4-4.8
			c0.3-0.9,0.4-1.8,0.4-2.8c0-0.6-0.1-1.2-0.2-1.7L72.3,110.1 M75.9,120.1l-6.5,0.9l0.1,6.1c1.4-0.2,2.8-0.5,4.1-1l0.9,1
			c0.1,0.1,0.2,0.2,0.2,0.3s-0.1,0.1-0.2,0.1l-5,0.6l0.1,6.6c1.6-0.1,3.2-0.4,4.7-0.9l0.7,0.6c0.4-0.9,0.6-1.9,0.6-2.9L75.9,120.1
			 M81.1,123.9l4.3,4.5c0,0.6-0.1,1.3-0.3,1.9c-0.2,0.6-0.3,0.9-0.4,0.9c-0.1,0-0.2-0.1-0.3-0.3l-3.6-6.6L81.1,123.9 M82.1,108.9
			l-0.2,0.1l-0.4,0.2l-0.2,0.1v0.2c0.1,0.5,0.1,1.1,0.1,1.6c0,3.7-1.4,8.9-4.2,15.6l-0.1,0.2l0.2,0.1l0.5,0.4l0.2,0.2l0.1-0.2
			c1.1-1.9,2-3.9,2.7-5.9l7.8-1.1c-0.4,8.8-1.3,14.9-2.5,18.1l-3.7-2.9l-0.2-0.1l-0.2,0.2l-0.4,0.4l-0.1,0.2l0.2,0.2
			c1.5,1.7,2.9,3.5,4.2,5.3c0.1,0.2,0.3,0.4,0.5,0.4s0.3-0.1,0.5-0.4s0.3-0.6,0.6-1.4c0.4-1.2,0.8-2.4,1.1-3.6
			c0.4-1.6,0.7-3.6,1-6.1s0.6-5.4,0.8-8.8c0-0.5,0.1-1,0.3-1.5c0.1-0.3,0.2-0.5,0.4-0.7c0.3-0.3,0.4-0.4,0.4-0.6
			c0-0.2-0.1-0.3-0.2-0.4l-1.4-1.4l-0.2-0.2l-0.2,0.2l-1,1.4l-7.1,1.1c0.7-1.9,1.2-3.8,1.7-5.4c0.1-0.6,0.4-1.2,0.8-1.7
			c0.1-0.1,0.2-0.3,0.2-0.5s-0.1-0.3-0.2-0.4l-1.9-2.5L82.1,108.9L82.1,108.9z M72.3,109.9l-0.2,0.1l-0.4,0.2l-0.2,0.1v0.2
			c0.1,0.5,0.2,1.1,0.2,1.7c0,0.9-0.2,1.8-0.4,2.7c-0.3,1.1-0.8,2.7-1.4,4.7l-0.6,0.1l-1.1-2.6l-0.1-0.2l-0.2,0.1l-0.5,0.2l-0.2,0.1
			v0.2c0.4,1.7,0.6,3.5,0.6,5.3l0.1,10.2c0,0.6,0,1.3-0.1,1.9c-0.1,0.4-0.2,0.7-0.4,1l-0.1,0.1l0.1,0.1l1.2,2.2
			c0.1,0.2,0.3,0.4,0.5,0.4s0.4-0.3,0.5-0.9c0.1-0.6,0.1-1.2,0.1-1.8l4.9-0.6l0.9,1.4c0.1,0.2,0.3,0.3,0.5,0.4
			c0.3,0,0.4-0.3,0.6-1.3s0.3-2.1,0.3-3.2l0.4-10.9c0-0.5,0.1-1,0.2-1.4c0-0.2,0.2-0.5,0.3-0.6c0.3-0.2,0.4-0.4,0.4-0.6
			c0-0.2-0.1-0.4-0.3-0.5l-1.3-1.2l-0.2-0.2l-0.2,0.2l-0.7,1.1l-4.1,0.6c2-4.9,2.5-5.9,2.6-6c0.2-0.1,0.3-0.3,0.3-0.5
			s-0.1-0.4-0.3-0.6L72.3,109.9L72.3,109.9L72.3,109.9z M69.6,121.2l6-0.8l-0.3,11.1c0,0.9-0.1,1.7-0.4,2.5l-0.4-0.4l-0.1-0.1
			l-0.2,0.1c-1.4,0.4-2.9,0.7-4.4,0.8l-0.1-6.1l4.8-0.6c0.4-0.1,0.4-0.2,0.4-0.4s-0.1-0.3-0.3-0.5l-0.9-1l-0.1-0.1l-0.2,0.1
			c-1.2,0.5-2.5,0.8-3.8,0.9V121.2L69.6,121.2z M81.1,123.6l-0.2,0.1l-0.3,0.3l-0.2,0.2l0.1,0.2l3.6,6.6c0.1,0.1,0.2,0.4,0.5,0.4
			s0.4-0.2,0.7-1c0.2-0.7,0.3-1.3,0.3-2v-0.1l-0.1-0.1l-4.3-4.4L81.1,123.6L81.1,123.6z"/>
		<path class="st0" d="M86.8,181.4c-2.2,0-4.4-0.6-6.4-1.7c-2.2-1.2-4-3.1-5.1-5.4c-1.5-3.2-2.4-6.7-2.7-10.2V164l0.9-0.1v0.1
			c1.5,6.4,3.4,10.6,5.6,12.6c2,1.8,4.6,2.8,7.3,2.9l-0.7-8.2l0.8-0.1v0.1c0.5,3.2,1.4,6.4,2.5,9.5c0,0.1,0,0.1,0,0.2
			C89.1,181.3,88.4,181.4,86.8,181.4z M67.2,177.1c-0.1,0-0.2-0.1-0.3-0.3l-0.9-3.2h0.1c0.9-1,1.6-2.3,1.8-3.6
			c0.5-2.2,0.9-4.4,1.1-6.7v-0.1h0.9v0.1c0,2.5-0.2,5-0.6,7.5c-0.2,1.6-0.6,3.1-1.1,4.6C67.6,176.8,67.4,177.1,67.2,177.1z
			 M92.1,169.4c-0.2,0-0.3-0.1-0.4-0.3l-5.5-7.6l0.4-0.5l6.3,5.3v0.1c0,0.6-0.1,1.3-0.2,1.9C92.4,169.2,92.2,169.4,92.1,169.4
			L92.1,169.4z M80.7,164.7c-0.2,0-0.3-0.1-0.4-0.4l-3.3-9.1l0.6-0.4l4.3,7c-0.1,0.6-0.3,1.2-0.5,1.7
			C81,164.6,80.8,164.7,80.7,164.7L80.7,164.7z"/>
		<path class="st0" d="M77.6,155l4.3,6.9c-0.1,0.5-0.3,1.1-0.5,1.6c-0.3,0.8-0.5,1.2-0.6,1.2c-0.1,0-0.2-0.1-0.2-0.3l-3.3-9
			L77.6,155 M86.6,161.2l6.1,5.2c0,0.6-0.1,1.3-0.2,1.9c-0.1,0.6-0.3,1-0.4,1c-0.1,0-0.2-0.1-0.3-0.2l-5.5-7.5L86.6,161.2
			 M69.8,163.3c0,2.5-0.2,5-0.6,7.5c-0.2,1.6-0.6,3.1-1.1,4.6c-0.4,1-0.7,1.6-0.9,1.6c-0.2,0-0.1-0.1-0.2-0.2l-0.9-3.1
			c0.9-1,1.6-2.3,1.9-3.7c0.5-2.2,0.9-4.4,1.1-6.7L69.8,163.3 M73.3,164c1.5,6.5,3.4,10.7,5.7,12.6c2,1.8,4.7,2.9,7.4,2.9h0.1
			l-0.7-8.2l0.5-0.1c0.5,3.2,1.4,6.4,2.5,9.5c0,0.1,0,0.1,0,0.2c0,0.3-0.7,0.4-2.1,0.4c-2.2,0-4.4-0.6-6.4-1.7
			c-2.2-1.2-4-3.1-5.1-5.3c-1.5-3.2-2.4-6.7-2.7-10.2L73.3,164 M77.6,154.6l-0.2,0.1L77,155l-0.2,0.1l0.1,0.2l3.3,9
			c0.1,0.4,0.3,0.4,0.5,0.4s0.4-0.1,0.9-1.3c0.2-0.5,0.4-1.1,0.5-1.6v-0.1v-0.1l-4.3-6.9L77.6,154.6L77.6,154.6z M86.5,160.8
			l-0.2,0.2l-0.3,0.3l-0.1,0.1l0.1,0.2l5.5,7.5c0.1,0.2,0.3,0.3,0.5,0.3c0.3,0,0.4-0.3,0.6-1.2c0.1-0.6,0.2-1.3,0.2-1.9v-0.1
			l-0.1-0.1L86.5,160.8L86.5,160.8L86.5,160.8z M70.1,163H69v0.2c-0.2,2.3-0.6,4.5-1.1,6.7c-0.3,1.3-0.9,2.5-1.8,3.5l-0.1,0.1v0.1
			l0.9,3.1c0.1,0.3,0.3,0.4,0.4,0.4c0.1,0,0.5-0.1,1.2-1.7c0.5-1.5,0.9-3,1.2-4.6c0.4-2.5,0.5-5,0.6-7.6L70.1,163L70.1,163z
			 M73.5,163.7h-0.2l-0.6,0.1h-0.3v0.2c0.4,3.6,1.3,7,2.8,10.3c1.1,2.4,3,4.3,5.2,5.5c2,1.1,4.2,1.7,6.5,1.7c1.7,0,2.3-0.2,2.3-0.7
			c0-0.1,0-0.2,0-0.2c-1.1-3.1-2-6.2-2.5-9.5v-0.2h-0.2L86,171h-0.2v0.2l0.6,8c-2.6-0.1-5.1-1.1-7.1-2.9c-2.2-1.9-4.1-6.1-5.6-12.5
			v-0.2L73.5,163.7z"/>
		<path class="st0" d="M87.5,228c-0.1,0-0.2-0.1-0.3-0.2c-1.2-1.4-2.6-2.8-4-4l-0.1-0.1l0.3-0.6l3.3,1.9c0.2-1.2,0.3-2.5,0.3-3.8
			v-9.3l-7.6,0.8v2.4c3.5-0.4,4.6-0.7,4.8-1l0.1-0.1l0.9,1.1c0.1,0.1,0.1,0.2,0.1,0.3c0,0.2-0.2,0.2-0.3,0.2l-5.6,0.6v2.3
			c2.8-0.3,4.4-0.5,4.9-0.9l0.1-0.1l0.8,1c0.1,0.2,0.2,0.2,0.2,0.3s-0.2,0.2-0.3,0.2l-5.7,0.5v2c0,5.8-0.3,5.8-0.5,5.8
			s-0.3-0.2-0.3-0.3l-1.3-2.4v-0.1c0.5-1,0.8-2.2,0.8-3.4v-6.2c0.1-1.7-0.1-3.4-0.4-5v0.3l0.6-0.3l0.9,1.8l7.7-0.8l0.8-1.3l1.4,1.3
			c0.1,0.1,0.2,0.2,0.2,0.3s-0.1,0.2-0.2,0.3c-0.4,0.3-0.6,1-0.6,2.2v8.5c0,1.5-0.1,3-0.3,4.5C87.9,227.8,87.7,228,87.5,228z
			 M72.2,227.6c-0.2,0-0.3-0.2-0.3-0.3l-1.3-2.3v-0.1c0.3-0.5,0.5-1.2,0.6-1.8c0.1-1.2,0.1-2.3,0.1-3.5v-19.1c0-2.8-0.2-4.6-0.6-5.4
			V195l0.4-0.4l2.1,2.1c0.1,0.1,0.2,0.2,0.2,0.3s0,0.2-0.1,0.3c-0.4,0.8-0.6,1.7-0.6,2.6v2.2l3.5,2.1l0,0c0.1,0.4,0.1,0.8,0.1,1.2
			c0,0.9-0.1,1.3-0.4,1.3c-0.1,0-0.2-0.1-0.3-0.2l-2.9-3.3v19.3C72.7,227.6,72.4,227.6,72.2,227.6z M67.3,212.5
			c-0.2,0-0.3-0.1-0.3-0.3l-0.7-1.8v-0.1c1.3-2.2,2-4.7,1.9-7.3v-0.1L69,203v0.1c0,0.5,0.1,1.3,0.1,2.3c0,1.1-0.1,2.3-0.4,3.4
			c-0.1,1-0.4,1.9-0.7,2.8C67.6,212.4,67.5,212.5,67.3,212.5z M73.7,208.6l8.6-0.8v-2.4c-1.2,0.1-2.5,0.3-3.7,0.6h-0.1l-1.5-1.3
			l5.3-0.6v-2.4c-1.6,0.1-3.3,0.4-4.9,0.8l0,0l-1.4-1.4l6.4-0.7v-0.2c0.1-2-0.1-3.9-0.5-5.8v-0.1l0.5-0.4l1.8,1.9
			c0.2,0.1,0.2,0.2,0.2,0.4c0,0.1,0,0.2-0.1,0.2c-0.4,0.4-0.6,1.4-0.6,3v1.1c3.2-0.4,5.1-0.8,5.8-1.2l0.1-0.1l1.2,1.1
			c0.2,0.1,0.2,0.3,0.2,0.4s-0.3,0.2-0.3,0.2l-6.9,0.7v2.4c1.4-0.1,2.8-0.4,4.2-0.9h0.1l1,0.9c0.2,0.1,0.2,0.3,0.2,0.4
			s-0.2,0.2-0.3,0.2l-5.2,0.6v2.4c4.4-0.4,7.1-0.9,8-1.5l0.1-0.1l1.5,1.3c0.1,0.1,0.2,0.2,0.2,0.3s0,0.2-0.3,0.2
			c-10.5,0.9-16.5,1.6-17.8,2h-0.1L73.7,208.6z"/>
		<path class="st0" d="M82.3,194.1l1.8,1.8c0.1,0.1,0.2,0.2,0.2,0.3s0,0.1-0.1,0.2c-0.4,0.4-0.6,1.5-0.6,3.1v1.2
			c3.3-0.4,5.3-0.8,5.9-1.2l1.1,1c0.1,0.1,0.2,0.2,0.2,0.3s-0.1,0.1-0.2,0.1l-7,0.8v2.6c1.5-0.1,3-0.4,4.3-0.9l1,0.9
			c0.1,0.1,0.2,0.2,0.2,0.3s-0.1,0.1-0.2,0.1l-5.3,0.6v2.7c4.5-0.4,7.2-0.9,8.2-1.5l1.4,1.2c0.1,0.1,0.2,0.2,0.2,0.2
			s-0.1,0.1-0.2,0.1c-10.6,0.9-16.5,1.6-17.8,2l-1.4-1.2l8.4-0.8v-2.8c-1.3,0.1-2.6,0.3-3.8,0.7l-1.2-1l5.1-0.5v-2.7
			c-1.7,0.1-3.4,0.4-5,0.9l-1.2-1.1l6.2-0.7v-0.6c0.1-2-0.1-3.9-0.5-5.9L82.3,194.1 M71.2,194.8l2,2c0.1,0.1,0.2,0.2,0.2,0.2
			c0,0.1,0,0.2-0.1,0.2c-0.5,0.8-0.7,1.8-0.6,2.7v2.3l3.5,2.1c0.1,0.4,0.1,0.8,0.1,1.1c0,0.8-0.1,1.1-0.3,1.1
			c-0.3,0-0.1-0.1-0.2-0.1l-3.1-3.6v19.6c0,3.3-0.2,5-0.5,5c-0.1,0-0.2-0.1-0.2-0.2l-1.3-2.2c0.3-0.6,0.6-1.2,0.7-1.8
			c0.1-0.6,0.1-1.8,0.1-3.5v-19.1c0-2.8-0.2-4.6-0.6-5.4L71.2,194.8 M68.4,203h0.5c0,0.5,0.1,1.3,0.1,2.3c0,1.1-0.1,2.3-0.3,3.4
			c-0.1,1-0.4,1.9-0.7,2.8c-0.3,0.6-0.4,0.9-0.5,0.9c-0.1,0-0.2-0.1-0.2-0.2l-0.7-1.8C67.9,208.2,68.5,205.6,68.4,203 M87.7,209.7
			l1.3,1.2c0.1,0.1,0.1,0.1,0.1,0.2c0,0.1,0,0.1-0.1,0.2c-0.4,0.3-0.6,1.1-0.6,2.3v8.5c0,1.5-0.1,3-0.3,4.4
			c-0.2,0.9-0.4,1.3-0.5,1.3c-0.1,0-0.1-0.1-0.2-0.1c-1.2-1.4-2.6-2.8-4-4l0.2-0.4l3.3,1.9c0.3-1.3,0.4-2.6,0.3-3.9v-9.4l-7.9,0.9
			v2.6c3-0.3,4.6-0.7,5-1l0.8,1c0.1,0,0.1,0.1,0.1,0.2c0,0.1-0.1,0.1-0.2,0.1l-5.7,0.6v2.6c2.9-0.3,4.6-0.6,5.1-0.9l0.8,0.9
			c0.1,0.1,0.1,0.2,0.1,0.2s-0.1,0.1-0.2,0.1l-5.8,0.5v2.2c0,3.8-0.1,5.7-0.4,5.7c-0.1,0-0.1-0.1-0.2-0.2l-1.3-2.3
			c0.5-1.1,0.8-2.2,0.8-3.4v-6.3c0.1-1.7-0.1-3.4-0.4-5l0.4-0.2l0.9,1.7l7.8-0.9L87.7,209.7 M82.3,193.8l-0.2,0.1l-0.4,0.3l-0.1,0.1
			l0.1,0.2c0.5,1.9,0.6,3.8,0.5,5.8v0.3l-6,0.6l-0.5,0.1l0.4,0.4l1.2,1.1l0.1,0.1l0.2-0.1c1.5-0.4,3.1-0.7,4.7-0.8v2.2l-4.8,0.5
			l-0.6,0.1l0.5,0.4l1.2,1l0.1,0.1l0.2-0.1c1.1-0.4,2.3-0.6,3.5-0.6v2.1l-8.2,0.8h-0.8l0.4,0.4l1.4,1.2l0.1,0.1h0.1
			c1.2-0.4,7.2-1.1,17.7-2c0.4-0.1,0.4-0.3,0.4-0.4c0-0.2-0.1-0.3-0.2-0.4l-1.4-1.2l-0.1-0.1l-0.2,0.1c-0.9,0.6-3.5,1.1-7.8,1.5
			v-2.2l5-0.5c0.4-0.1,0.5-0.2,0.5-0.4s-0.1-0.3-0.3-0.4l-1-0.9l-0.1-0.1l-0.2,0.1c-1.3,0.5-2.6,0.8-4,0.9v-2.1l6.8-0.7
			c0.4,0,0.5-0.2,0.5-0.4s-0.1-0.3-0.3-0.5l-1.1-1l-0.1-0.1l-0.2,0.1c-0.4,0.3-1.7,0.7-5.6,1.1v-1c0-2,0.3-2.7,0.5-3
			c0.1-0.1,0.1-0.2,0.1-0.3s-0.1-0.3-0.3-0.4L82.3,193.8l-0.1-0.1L82.3,193.8z M71.2,194.5l-0.2,0.2l-0.3,0.3l-0.1,0.1l0.1,0.2
			c0.4,0.8,0.6,2.6,0.6,5.3v19.1c0,1.6,0,2.8-0.1,3.4c-0.1,0.6-0.3,1.2-0.6,1.7l-0.1,0.1l0.1,0.1l1.3,2.2c0.1,0.2,0.2,0.4,0.5,0.4
			s0.7,0,0.7-5.3v-19l2.7,3.1c0.1,0.1,0.2,0.2,0.4,0.2c0.5,0,0.5-0.7,0.5-1.4c0-0.4,0-0.8-0.1-1.2v0.2l-0.1-0.1l-3.3-2V200
			c-0.1-0.9,0.1-1.8,0.6-2.6c0.1-0.1,0.1-0.2,0.1-0.4s-0.1-0.3-0.3-0.4l-2-2L71.2,194.5L71.2,194.5z M68.2,202.8v0.3
			c0.1,2.5-0.5,5.1-1.9,7.2l-0.1,0.1v0.1l0.7,1.8c0.1,0.2,0.2,0.3,0.4,0.3c0.2,0,0.4-0.1,0.8-1c0.3-0.9,0.6-1.9,0.8-2.8
			c0.2-1.1,0.3-2.3,0.3-3.4c0-1,0-1.8-0.1-2.3v-0.2h-0.2h-0.5L68.2,202.8L68.2,202.8z M87.7,209.4l-0.2,0.2l-0.7,1.1l-7.5,0.8
			l-0.9-1.7l-0.1-0.2l-0.2,0.1l-0.4,0.2l-0.2,0.1l0.1,0.2c0.3,1.6,0.5,3.3,0.4,5v6.4c0,1.1-0.2,2.3-0.7,3.3l-0.1,0.1l0.1,0.1
			l1.3,2.3c0,0.1,0.2,0.3,0.4,0.3c0.2,0,0.7,0,0.7-6v-1.9l5.5-0.5c0.4-0.1,0.4-0.2,0.4-0.4c0-0.1-0.1-0.3-0.2-0.4l-0.8-0.9l-0.1-0.2
			l-0.2,0.1c-0.3,0.2-1.4,0.5-4.7,0.8v-2.1l5.5-0.6c0.3-0.1,0.4-0.2,0.4-0.4c0-0.1-0.1-0.3-0.2-0.4l-0.8-1l-0.2-0.2l-0.2,0.2
			c-0.2,0.2-1,0.5-4.6,0.9v-2.1l7.4-0.8v9.2c0,1.2-0.1,2.4-0.2,3.6l-3-1.7l-0.2-0.1l-0.1,0.2l-0.2,0.4l-0.1,0.2l0.2,0.1
			c1.4,1.2,2.8,2.6,4,4c0.1,0.1,0.2,0.2,0.4,0.2c0.3,0,0.5-0.2,0.8-1.5c0.2-1.5,0.4-3,0.3-4.5v-8.5c0-1.4,0.3-2,0.5-2.1
			c0.1-0.1,0.2-0.2,0.2-0.4s-0.1-0.3-0.2-0.4l-1.3-1.2L87.7,209.4L87.7,209.4z"/>
		<path class="st0" d="M92.7,302.6c-1.1-0.3-2.2-0.7-3.2-1.5c-1.5-1-2.9-2.2-3.9-3.7c-1.1-1.5-1.9-3.2-2.4-5
			c-1.7,1.7-3.7,3.1-5.8,4.2l-0.1,0.1l-0.4-0.7l0.1-0.1c2.1-1.4,4.1-3.1,5.8-4.9c-0.8-2.9-1.3-5.9-1.7-9l-5.6,0.9v4.4l3.7-1.6
			l0.4,0.7l-4.2,2.1v7.2c0,1.4,0,2.9-0.1,4.3c-0.2,1.1-0.3,1.3-0.5,1.3c-0.1,0-0.2-0.1-0.3-0.1c-1.6-1.6-3.3-3.2-5-4.7l-0.1-0.1
			l0.4-0.6l3.9,2c0.3-1.1,0.4-2.2,0.3-3.3v-5.2c-1.9,0.9-3.7,1.9-5.4,3h-0.1l-2.4-1l7.9-3.4v-4.7c-1.8,0.2-3.6,0.6-5.3,1.1h-0.1
			l-2-1.5l7.3-1.2v-5.1c-2.3,1-4.5,1.8-6.3,2.4h-0.1l-0.1-0.7l0,0c2.4-1,4.7-2.2,7-3.5c1.4-0.9,2.2-1.6,2.3-2.2v-0.1l0.5-0.1
			l1.3,1.9c0.1,0.1,0.1,0.2,0.1,0.3c0,0.1-0.2,0.2-0.6,0.4c-0.4,0.2-0.8,0.3-1.3,0.5l-1,0.5l-0.2,0.1v5.6l5.4-0.9
			c-0.3-2.8-0.4-4.7-0.5-5.8c-0.1-1.1-0.2-2.2-0.4-3.3c-0.1-0.8-0.3-1.5-0.6-2.3v-0.1l0.4-0.5l2.6,2.5c0.1,0.1,0.2,0.2,0.2,0.4
			c0,0.1,0,0.2-0.1,0.3c-0.4,0.9-0.5,1.9-0.5,2.8c0,1.4,0.1,3.3,0.3,5.8c2-0.2,3.9-0.7,5.7-1.4h0.1l1.4,1.2c0.2,0.2,0.2,0.3,0.2,0.4
			s-0.2,0.2-0.3,0.2l-7,1.1c0.3,2.6,0.7,5.3,1.3,7.9c1.6-1.8,2.7-3.9,3.3-6.2v-0.1l0.5-0.2l1.2,2.4c0.1,0.1,0.1,0.2,0.1,0.3
			c0,0.2-0.2,0.3-0.3,0.3c-0.7,0.6-1.3,1.3-1.8,2c-0.8,1.1-1.7,2.1-2.7,3.1c0.5,1.9,1.4,3.6,2.6,5.1c1,1.3,2.4,2.4,3.9,3.2l0.3-6.3
			h0.7v0.1c0.2,2.1,0.4,4,0.6,5.5l0.5,3.3C92.9,302.6,92.7,302.6,92.7,302.6z M88.3,278.2c-0.2,0-0.3-0.1-0.4-0.2l-3.8-5.1l0.4-0.5
			l4.2,2.8c0.1,0.3,0.1,0.7,0.1,1.1s-0.1,0.8-0.2,1.2C88.6,278,88.5,278.2,88.3,278.2z"/>
		<path class="st0" d="M79.8,268.9l2.5,2.3c0.1,0.1,0.2,0.2,0.2,0.3c0,0.1,0,0.1-0.1,0.2c-0.4,0.9-0.6,1.9-0.5,2.9
			c0,1.4,0.1,3.4,0.4,6c2-0.2,4-0.7,5.9-1.4l1.4,1.1c0.1,0.1,0.2,0.2,0.2,0.3s-0.1,0.1-0.2,0.1l-7.1,1.1c0.3,2.8,0.7,5.5,1.3,8.3
			c2-2.5,3.2-4.6,3.5-6.4l0.3-0.1l1.1,2.3c0.1,0.1,0.1,0.2,0.1,0.3c0,0.1-0.1,0.1-0.2,0.2c-0.7,0.6-1.3,1.3-1.8,2
			c-0.8,1.1-1.7,2.1-2.7,3.1c0.5,1.9,1.4,3.7,2.7,5.2c1.1,1.4,2.5,2.5,4.1,3.3l0.3-6.4h0.5c0.2,2.1,0.4,4,0.6,5.5l0.5,3.3
			c0,0.1,0,0.1-0.1,0.1c-1.1-0.3-2.2-0.7-3.1-1.4c-1.5-1-2.9-2.2-3.9-3.7c-1.1-1.6-1.9-3.3-2.5-5.1c-1.8,1.7-3.8,3.1-5.9,4.3
			l-0.3-0.5c2.2-1.4,4.1-3.1,5.9-5c-0.8-3-1.3-6.1-1.7-9.1l-5.8,0.9v4.7l3.8-1.6l0.3,0.5l-4.1,2.1v7.3c0,1.4,0,2.8-0.2,4.3
			c-0.1,0.8-0.2,1.2-0.4,1.2c-0.2,0-0.1,0-0.2-0.1c-1.6-1.7-3.3-3.2-5-4.7l0.3-0.4l3.9,2c0.4-1.1,0.5-2.3,0.4-3.5v-5.5
			c-1.9,0.9-3.8,1.9-5.7,3l-2-0.9l7.7-3.3v-5c-1.8,0.2-3.7,0.6-5.4,1.2l-1.7-1.2l7.2-1.1v-5.4c-2.4,1-4.6,1.8-6.5,2.5l-0.2-0.6
			c2.4-1,4.7-2.2,7-3.5c1.5-0.9,2.3-1.7,2.4-2.3l0.4-0.1l1.2,1.9c0.1,0.1,0.1,0.2,0.1,0.2c0,0.1-0.2,0.2-0.5,0.3s-0.8,0.3-1.3,0.5
			l-1.1,0.5l-0.3,0.1v5.8l5.7-0.9c-0.3-2.9-0.4-4.8-0.5-5.9c-0.1-1.1-0.2-2.2-0.4-3.3c-0.1-0.8-0.3-1.6-0.6-2.3L79.8,268.9
			 M84.6,272.5l4.1,2.7c0.1,0.3,0.1,0.7,0.1,1c0,0.4-0.1,0.8-0.2,1.2c-0.1,0.4-0.2,0.6-0.3,0.6c-0.1,0-0.2-0.1-0.3-0.2l-3.7-5
			L84.6,272.5 M79.8,268.6l-0.2,0.2l-0.2,0.4l-0.1,0.1l0.1,0.1c0.3,0.7,0.5,1.5,0.6,2.2c0.2,1.1,0.3,2.2,0.4,3.3
			c0.1,1.1,0.2,3,0.5,5.7l-5.2,0.8v-5.3l0.2-0.1c0.2-0.1,0.5-0.2,1-0.5s1-0.4,1.3-0.5s0.7-0.3,0.7-0.5c0-0.1-0.1-0.3-0.1-0.4
			l-1.2-1.9l-0.1-0.1h-0.2l-0.4,0.1h-0.2v0.2c-0.1,0.4-0.5,1.1-2.3,2.2c-2.3,1.3-4.6,2.5-7,3.5l-0.2,0.1l0.1,0.2l0.2,0.6l0.1,0.3
			l0.2-0.1c1.8-0.6,3.9-1.4,6.2-2.4v4.9l-6.9,1.1l-0.6,0.1l0.5,0.4l1.7,1.2l0.1,0.1h0.1c1.7-0.5,3.4-0.9,5.1-1.1v4.6l-7.6,3.1
			l-0.6,0.2l0.6,0.2l2,0.9l0.1,0.1l0.1-0.1c1.7-1.1,3.4-2,5.2-2.8v5c0.1,1.1,0,2.1-0.3,3.2l-3.6-1.9l-0.2-0.1l-0.1,0.2l-0.3,0.4
			l-0.1,0.2l0.2,0.1c1.7,1.5,3.4,3,5,4.7c0.1,0.1,0.2,0.2,0.3,0.2c0.3,0,0.5-0.4,0.7-1.4c0.1-1.4,0.2-2.9,0.2-4.3v-7.2l4-2l0.2-0.1
			l-0.1-0.2l-0.3-0.5l-0.1-0.2l-0.2,0.1l-3.4,1.4v-4.1l5.3-0.9c0.4,3,0.9,5.9,1.6,8.8c-1.7,1.8-3.6,3.4-5.7,4.8l-0.2,0.1l0.1,0.2
			l0.3,0.5l0.1,0.2l0.2-0.1c2.1-1.1,4-2.5,5.7-4.1c0.5,1.7,1.3,3.3,2.4,4.8c1.1,1.5,2.4,2.8,4,3.8c1,0.7,2.1,1.2,3.2,1.5
			c0,0,0.3,0,0.3-0.4l-0.5-3.4c-0.2-1.5-0.4-3.4-0.6-5.5v-0.3h-0.2h-0.5H91v0.2l-0.3,6c-1.4-0.7-2.7-1.8-3.7-3.1
			c-1.2-1.5-2-3.2-2.6-5c0.9-1,1.8-2,2.6-3c0.5-0.7,1.1-1.4,1.8-2c0.2-0.1,0.3-0.2,0.3-0.4c0-0.1-0.1-0.3-0.1-0.4l-1.1-2.3l-0.1-0.2
			l-0.2,0.1l-0.3,0.1h-0.1v0.1c-0.5,2.2-1.6,4.2-3.1,5.9c-0.5-2.5-0.9-5-1.2-7.5l6.8-1.1c0.4-0.1,0.4-0.2,0.4-0.4s-0.1-0.3-0.3-0.5
			l-1.4-1l-0.1-0.1l-0.1,0.1c-1.8,0.7-3.6,1.1-5.5,1.4c-0.2-2.4-0.3-4.3-0.3-5.7c-0.1-0.9,0.1-1.9,0.5-2.8c0.1-0.1,0.1-0.2,0.1-0.3
			c0-0.2-0.1-0.3-0.2-0.5l-2.5-2.3L79.8,268.6L79.8,268.6z M84.5,272.2l-0.1,0.2l-0.3,0.4l-0.1,0.1l0.1,0.1l3.7,5
			c0.1,0.2,0.3,0.3,0.5,0.3c0.3,0,0.4-0.3,0.5-0.8c0.1-0.4,0.1-0.8,0.2-1.3c0-0.3,0-0.7-0.1-1v-0.1l-0.1-0.1l-4.1-2.7L84.5,272.2
			L84.5,272.2z"/>
		<path class="st0" d="M86.6,344.9c-0.1,0-0.2-0.1-0.4-0.3c-1.3-1.9-2.7-3.7-4.2-5.3l-0.1-0.1l0.5-0.6l4,3c1.3-3.1,2.1-9.3,2.6-18.4
			l-8.1,1.2c-0.8,2.1-1.7,4.1-2.8,6l-0.1,0.1l-0.7-0.5v-0.1c2.8-6.7,4.2-12,4.2-15.7c0-0.5,0-1.1-0.1-1.6v-0.1l0.6-0.3l1.9,2.5
			c0.1,0.1,0.1,0.2,0.2,0.4c0,0.1-0.1,0.3-0.2,0.4c-0.4,0.5-0.6,1.1-0.8,1.8c-0.5,1.7-1.1,3.6-1.7,5.6l7.4-1.1l1.1-1.6l1.5,1.5
			c0.1,0.1,0.2,0.2,0.2,0.4c0,0.1-0.1,0.3-0.3,0.5c-0.2,0.2-0.4,0.5-0.5,0.7c-0.2,0.5-0.3,1-0.3,1.6c-0.2,3.4-0.5,6.4-0.8,8.8
			s-0.7,4.5-1,6c-0.3,1.2-0.6,2.4-1.1,3.6c-0.3,0.8-0.5,1.3-0.6,1.4C86.9,344.8,86.8,344.9,86.6,344.9z M69.2,341.6
			c-0.1,0-0.3-0.1-0.4-0.3l-1.2-2.3v-0.1c0.2-0.3,0.4-0.7,0.5-1.1c0.1-0.7,0.1-1.3,0.1-2l-0.1-10.2c-0.1-1.8-0.3-3.6-0.6-5.3v-0.1
			l0.7-0.3l1.2,2.8l0.8-0.1c0.6-2,1.1-3.6,1.4-4.8c0.3-0.9,0.4-1.8,0.4-2.7c0-0.6,0-1.1-0.2-1.7v-0.1l0.6-0.4l1.7,2.3
			c0.1,0.1,0.2,0.3,0.2,0.5s-0.1,0.3-0.2,0.4c-0.2,0.1-0.8,1.3-2.7,6.2l4.4-0.6l0.8-1.3l1.4,1.3c0.1,0.1,0.2,0.2,0.2,0.4
			c0,0.1-0.1,0.3-0.3,0.5s-0.3,0.4-0.4,0.7c-0.1,0.5-0.2,1-0.2,1.5l-0.4,10.9c0,1.1-0.1,2.1-0.3,3.1c-0.2,1.1-0.3,1.2-0.5,1.2
			s-0.3-0.1-0.4-0.3l-1-1.4l-5,0.6c0,0.6,0,1.3-0.1,1.9C69.4,341.4,69.3,341.6,69.2,341.6z M69.6,337.6c1.5-0.1,3.1-0.4,4.6-0.9h0.1
			l0.6,0.5c0.3-0.9,0.5-1.8,0.5-2.7l0.3-11.2l-6.2,0.8l0.1,5.8c1.4-0.2,2.7-0.5,4-1h0.1l0.9,1.1c0.2,0.2,0.2,0.3,0.2,0.4
			s-0.2,0.2-0.3,0.2l-4.9,0.6V337.6z M84.6,334.3c-0.2,0-0.3-0.1-0.4-0.3l-3.7-6.7l0.5-0.4l4.4,4.5c0,0.7-0.1,1.4-0.3,2
			C85,334.2,84.8,334.4,84.6,334.3L84.6,334.3z"/>
		<path class="st0" d="M82,312.3l1.9,2.5c0.1,0.1,0.1,0.2,0.1,0.3c0,0.1-0.1,0.2-0.2,0.3c-0.4,0.5-0.7,1.2-0.8,1.8
			c-0.5,1.8-1.1,3.7-1.8,5.8l7.6-1.2l1.1-1.5l1.4,1.4c0.1,0.1,0.1,0.2,0.1,0.3c0,0.1-0.1,0.2-0.3,0.4c-0.2,0.2-0.4,0.5-0.5,0.8
			c-0.2,0.5-0.3,1.1-0.3,1.6c-0.2,3.4-0.5,6.3-0.8,8.8s-0.7,4.5-1,6c-0.2,1.2-0.6,2.4-1,3.6c-0.3,0.8-0.6,1.3-0.6,1.4
			s-0.2,0.2-0.2,0.2s-0.2-0.1-0.3-0.3c-1.3-1.9-2.7-3.7-4.2-5.4l0.4-0.4l4,3c1.3-3.1,2.2-9.4,2.6-18.8l-8.3,1.3
			c-0.8,2.1-1.7,4.1-2.8,6l-0.5-0.4c2.8-6.7,4.2-12,4.2-15.7c0-0.6,0-1.1-0.1-1.7L82,312.3 M72.2,313.3l1.6,2.2
			c0.1,0.1,0.2,0.2,0.2,0.4c0,0.1-0.1,0.2-0.2,0.3c-1.1,2.1-2.1,4.3-2.8,6.5l4.6-0.6l0.8-1.2l1.3,1.2c0.1,0.1,0.1,0.2,0.2,0.3
			c0,0.1-0.1,0.2-0.3,0.4c-0.2,0.2-0.4,0.5-0.4,0.8c-0.1,0.5-0.2,1-0.2,1.5L76.6,336c0,1-0.1,2.1-0.3,3.1c-0.1,0.7-0.2,1.1-0.3,1.1
			s-0.2-0.1-0.3-0.2l-1-1.5l-5.2,0.6c0,0.7,0,1.3-0.1,2c-0.1,0.5-0.2,0.7-0.3,0.7s-0.2-0.1-0.3-0.3l-1.2-2.2
			c0.2-0.3,0.4-0.7,0.5-1.1c0.1-0.7,0.1-1.3,0.1-2L68.1,326c-0.1-1.8-0.3-3.6-0.6-5.3l0.5-0.2l1.2,2.8l1-0.1c0.6-2,1.1-3.6,1.4-4.8
			c0.3-0.9,0.4-1.8,0.4-2.8c0-0.6-0.1-1.2-0.2-1.7L72.2,313.3 M75.8,323.2l-6.5,0.9l0.1,6.1c1.4-0.2,2.8-0.5,4.1-1l0.9,1
			c0.1,0.1,0.2,0.2,0.2,0.3s-0.1,0.1-0.2,0.1l-5,0.7l0.1,6.6c1.6-0.1,3.2-0.4,4.7-0.9l0.7,0.6c0.4-0.9,0.6-1.9,0.6-2.9L75.8,323.2
			 M81.1,327.1l4.3,4.4c0,0.6-0.1,1.3-0.3,1.9c-0.2,0.6-0.3,0.9-0.4,0.9c-0.1,0-0.2-0.1-0.3-0.3l-3.6-6.6L81.1,327.1 M82.1,312
			l-0.2,0.1l-0.4,0.2l-0.2,0.1v0.2c0.1,0.5,0.1,1.1,0.1,1.6c0,3.7-1.4,8.9-4.2,15.6l-0.1,0.2l0.2,0.1l0.5,0.4l0.2,0.1l0.1-0.2
			c1.1-1.9,2-3.9,2.7-6l7.8-1.1c-0.4,8.8-1.3,14.9-2.5,18.1l-3.7-2.9l-0.2-0.1l-0.2,0.2l-0.4,0.4l-0.1,0.2l0.2,0.2
			c1.5,1.7,2.9,3.5,4.2,5.3c0.1,0.2,0.3,0.4,0.5,0.4s0.4-0.1,0.5-0.3c0.1-0.2,0.3-0.6,0.6-1.4c0.4-1.2,0.8-2.4,1.1-3.6
			c0.4-1.6,0.7-3.6,1-6.1s0.6-5.4,0.8-8.8c0-0.5,0.1-1,0.3-1.5c0.1-0.3,0.3-0.5,0.4-0.7c0.3-0.3,0.4-0.4,0.4-0.6s-0.1-0.3-0.2-0.4
			l-1.4-1.4l-0.2-0.2l-0.2,0.2l-1,1.4l-7.1,1.1c0.7-1.9,1.2-3.8,1.7-5.4c0.1-0.6,0.4-1.2,0.8-1.7c0.1-0.1,0.2-0.3,0.2-0.5
			s-0.1-0.3-0.2-0.4l-1.9-2.5L82.1,312L82.1,312z M72.2,312.9L72,313l-0.4,0.2l-0.2,0.1v0.2c0.1,0.5,0.2,1.1,0.2,1.6
			c0,0.9-0.2,1.8-0.4,2.7c-0.3,1.1-0.8,2.7-1.4,4.7l-0.6,0.1l-1.1-2.6l-0.1-0.2l-0.2,0.1l-0.5,0.2l-0.2,0.1v0.2
			c0.4,1.7,0.6,3.5,0.6,5.3l0.1,10.2c0,0.6,0,1.3-0.1,1.9c-0.1,0.4-0.2,0.7-0.4,1l-0.1,0.1l0.1,0.1l1.2,2.2c0.1,0.2,0.3,0.4,0.5,0.4
			s0.4-0.3,0.5-0.9c0.1-0.6,0.1-1.2,0.1-1.8l4.9-0.6l0.9,1.4c0.1,0.2,0.3,0.3,0.5,0.4c0.3,0,0.4-0.3,0.6-1.3s0.3-2.1,0.3-3.2
			l0.4-10.9c0-0.5,0.1-1,0.2-1.4c0-0.3,0.2-0.5,0.3-0.7c0.3-0.2,0.4-0.4,0.4-0.6s-0.1-0.4-0.3-0.5l-1.3-1.2l-0.2-0.2l-0.2,0.2
			l-0.7,1.1l-4.1,0.6c2-4.9,2.5-5.9,2.6-6c0.2-0.1,0.3-0.3,0.3-0.5s-0.1-0.4-0.3-0.5l-1.6-2.2L72.2,312.9L72.2,312.9z M69.5,324.3
			l6-0.8l-0.3,11.1c0,0.9-0.1,1.7-0.4,2.5l-0.4-0.4l-0.1-0.1l-0.2,0.1c-1.4,0.4-2.9,0.7-4.4,0.8l-0.1-6.1l4.8-0.6
			c0.4,0,0.4-0.2,0.4-0.4s-0.1-0.3-0.3-0.5l-0.9-1l-0.1-0.1l-0.2,0.1c-1.2,0.5-2.5,0.8-3.8,0.9V324.3L69.5,324.3z M81,326.7
			l-0.2,0.1l-0.3,0.3l-0.2,0.1l0.1,0.2L84,334c0.1,0.1,0.2,0.4,0.5,0.4s0.4-0.2,0.7-1c0.2-0.7,0.3-1.3,0.3-2v-0.1l-0.1-0.1l-4.3-4.4
			L81,326.7L81,326.7z"/>
		<path class="st0" d="M76.7,386.6c-0.1,0-0.2-0.1-0.3-0.2l-1.3-2.8v-0.1c0.5-1.1,0.7-2.3,0.6-3.6l-0.3-12.3c0-1.6-0.1-3.3-0.3-4.9
			v-0.1l0.7-0.2l1,2.7l3.3-0.4c0.1-1.3,0.1-2.9,0-4.9c-1.5,0.1-3.1,0.4-4.6,0.8h-0.1l-1.8-1.6h0.3c10.2-0.8,16-1.6,17-2.3H91
			l1.7,1.4c0.1,0.1,0.2,0.2,0.2,0.3s-0.2,0.2-0.3,0.2l-7.4,0.7v4.8l3.3-0.4l1-1.5l1.7,1.4c0.1,0.1,0.2,0.2,0.2,0.3
			c0,0.1-0.1,0.2-0.3,0.4c-0.2,0.1-0.3,0.3-0.4,0.5c-0.1,0.3-0.2,0.6-0.2,0.9L90,379.4c0,1.6-0.2,3.3-0.4,4.9
			c-0.2,1.4-0.4,1.5-0.6,1.5s-0.2-0.1-0.3-0.3l-1-2.7l-10.6,0.9c0,0.8,0,1.6-0.1,2.4C76.9,386.4,76.8,386.6,76.7,386.6z M77.1,382.2
			c5.3-0.5,8.5-1,9.6-1.4h0.1l1.3,1c0.2-0.3,0.4-1.3,0.5-3.8l0.4-13.2l-3.7,0.5v5.6c0,0.3,0,0.6,0.2,0.9c0.1,0.2,0.3,0.3,0.5,0.2
			c0.5,0,0.9-0.2,1.3-0.4h0.1l1.2,1.4h-0.2c-0.8,0.2-1.7,0.4-2.5,0.4c-0.6,0.1-1.1-0.2-1.5-0.6c-0.4-0.7-0.5-1.5-0.5-2.3v-5
			l-2.4,0.3c-0.1,2-0.5,4.1-1.2,6c-0.7,1.7-1.7,3.2-3,4.4l-0.1,0.1L77,376L77.1,382.2z M77,375.2c0.9-1.2,1.6-2.5,2.1-4
			c0.5-1.8,0.8-3.6,0.9-5.4l-3.1,0.4L77,375.2z M81.8,359.5c0,1.8-0.1,3.5-0.2,4.9l2.2-0.3v-4.8L81.8,359.5z M69.8,384.9
			c-0.2,0-0.3-0.2-0.3-0.3c-1.1-1.4-2.2-2.7-3.5-4l-0.1-0.1l0.4-0.6l2.7,1.8l4.9-16.2l0.8,0.3l-4.6,18.6
			C70.1,384.7,70,385,69.8,384.9L69.8,384.9z M77.9,377.2h0.3c4.5-0.5,7.1-0.9,7.8-1.4h0.1l1.2,1c0.1,0.1,0.2,0.2,0.2,0.3
			c0,0.2-0.2,0.2-0.3,0.2c-2.5,0.3-5,0.7-7.5,1.3h-0.1L77.9,377.2z M70.9,370.2c-0.1,0-0.3-0.1-0.4-0.2l-4.4-3.9l0.3-0.6l4.7,1.9
			v0.1c0.1,0.4,0.1,0.9,0.1,1.3C71.2,370,71.1,370.3,70.9,370.2L70.9,370.2z M72.4,362.2c-0.1,0-0.2-0.1-0.4-0.3l-3.9-4.3l0.3-0.4
			l4.4,2.3v0.1c0,0.4,0,0.7,0,1.1s0,0.7-0.1,1.1S72.5,362.3,72.4,362.2L72.4,362.2z"/>
		<path class="st0" d="M91.1,356.7l1.6,1.4c0.1,0.1,0.1,0.2,0.1,0.2s-0.1,0.1-0.2,0.1l-7.5,0.8v5l3.5-0.5l0.9-1.4l1.6,1.3
			c0.1,0.1,0.1,0.1,0.1,0.2s-0.1,0.2-0.3,0.3c-0.2,0.1-0.4,0.3-0.5,0.5c-0.1,0.3-0.2,0.7-0.2,1l-0.6,13.7c0,1.6-0.2,3.3-0.4,4.9
			c-0.2,1-0.3,1.4-0.4,1.4c-0.1,0-0.1-0.1-0.2-0.2l-1.1-2.8l-10.8,0.9c0,0.8,0,1.6-0.1,2.5c-0.1,0.4-0.2,0.6-0.2,0.6
			s-0.1-0.1-0.2-0.2l-1.3-2.8c0.5-1.1,0.7-2.4,0.6-3.6l-0.2-12.3c0-1.7-0.1-3.3-0.3-4.9l0.4-0.1l1,2.7l3.5-0.5c0.1-1.3,0.1-3,0-5.1
			c-1.6,0.1-3.2,0.4-4.7,0.8l-1.5-1.4C84.3,358.2,90,357.4,91.1,356.7 M81.4,364.6l2.5-0.3v-5.1l-2.3,0.2
			C81.6,361.4,81.5,363.1,81.4,364.6 M89.1,364.7l-4,0.5v5.7c0,0.3,0,0.7,0.2,1c0.1,0.2,0.4,0.3,0.6,0.3c0.5,0,0.9-0.2,1.4-0.4
			l1,1.1c-0.8,0.2-1.7,0.4-2.5,0.4c-0.5,0.1-1.1-0.2-1.4-0.6c-0.4-0.7-0.5-1.4-0.4-2.2v-5.2l-2.6,0.3c-0.1,2-0.5,4.1-1.2,6
			c-0.6,1.7-1.6,3.1-2.9,4.4l-0.3-0.5c1-1.3,1.8-2.7,2.3-4.2c0.5-1.8,0.9-3.7,1-5.6l-3.4,0.4l0.2,16.1c5.4-0.5,8.7-1,9.7-1.4
			l1.4,1.1c0.3-0.4,0.5-1.7,0.6-4L89.1,364.7 M68.4,357.3l4.2,2.2c0,0.4,0,0.7,0,1.1s0,0.7-0.1,1.1c-0.1,0.3-0.1,0.5-0.2,0.5
			c-0.1,0-0.2-0.1-0.3-0.2l-3.9-4.2L68.4,357.3 M66.4,365.7l4.5,1.8c0.1,0.4,0.1,0.9,0.1,1.3c0,0.9-0.1,1.3-0.2,1.3
			c-0.1,0-0.2-0.1-0.3-0.2l-4.3-3.9L66.4,365.7 M74,365.8l0.5,0.2l-4.6,18.5c0,0.2-0.1,0.3-0.2,0.3c-0.1,0-0.2-0.1-0.2-0.2
			c-1.1-1.4-2.3-2.8-3.5-4l0.4-0.4l2.8,1.8l4.9-16.3 M86.1,376l1.2,1c0.1,0.1,0.1,0.1,0.1,0.2s-0.1,0.1-0.2,0.1
			c-2.5,0.3-5.1,0.7-7.6,1.3l-1.4-1.1C82.8,376.9,85.4,376.5,86.1,376 M91.2,356.4l-0.2,0.1c-0.7,0.5-4.2,1.2-17,2.3h-0.6l0.4,0.4
			l1.5,1.4l0.1,0.1h0.1c1.4-0.4,2.9-0.6,4.4-0.8c0,1.9,0,3.4,0,4.6l-3.1,0.4l-1-2.5l-0.1-0.2l-0.2,0.1l-0.4,0.1l-0.2,0.1v0.2
			c0.2,1.6,0.3,3.3,0.3,4.9l0.2,12.3c0.1,1.2-0.1,2.4-0.6,3.5l-0.1,0.1l0.1,0.1l1.3,2.8c0,0.1,0.2,0.3,0.4,0.3
			c0.2,0,0.4-0.3,0.5-0.8c0.1-0.8,0.2-1.5,0.1-2.3l10.4-0.9l1,2.6c0.1,0.3,0.3,0.4,0.4,0.4c0.3,0,0.4-0.2,0.7-1.6
			c0.2-1.6,0.4-3.3,0.4-4.9l0.6-13.7c0-0.3,0.1-0.6,0.2-0.9c0.1-0.2,0.2-0.3,0.4-0.5c0.2-0.2,0.4-0.3,0.4-0.5s-0.1-0.3-0.2-0.4
			l-1.6-1.3l-0.2-0.2l-0.2,0.2l-0.9,1.3l-3.1,0.4v-4.5l7.3-0.7c0.3,0,0.4-0.2,0.4-0.3c0-0.1-0.1-0.3-0.2-0.4l-1.6-1.4l-0.2-0.1
			L91.2,356.4z M82,359.7l1.8-0.2v4.6l-2,0.3C81.9,363,82,361.4,82,359.7L82,359.7z M85.4,365.4l3.5-0.4l-0.2,7.9l-0.1-0.1l-1-1.1
			l-0.1-0.1l-0.2,0.1c-0.4,0.2-0.8,0.3-1.3,0.3c-0.3,0-0.3-0.1-0.4-0.2c-0.1-0.3-0.2-0.6-0.1-0.9v-5.5L85.4,365.4L85.4,365.4z
			 M81.6,365.9l2.1-0.3v4.9c-0.1,0.8,0.1,1.6,0.5,2.3c0.4,0.5,1,0.7,1.6,0.7c0.9,0,1.8-0.1,2.6-0.4l0.2-0.1l-0.2,5
			c0,1.2-0.1,2.4-0.4,3.6l-1.2-0.9l-0.1-0.1h-0.1c-1,0.4-4.2,0.8-9.4,1.4l-0.1-5.7v0.1l0.2-0.2c1.3-1.2,2.3-2.8,3-4.5
			C81.1,370,81.5,368,81.6,365.9L81.6,365.9z M77,366.5l2.9-0.4c-0.1,1.8-0.4,3.5-0.9,5.2c-0.4,1.3-1,2.5-1.8,3.6L77,366.5z
			 M68.3,357l-0.1,0.2l-0.3,0.4l-0.1,0.2l0.1,0.1l3.9,4.2c0.2,0.2,0.4,0.3,0.5,0.3c0.1,0,0.4-0.3,0.4-0.7c0.1-0.4,0.1-0.8,0.1-1.1
			c0-0.4,0-0.8,0-1.1v-0.1l-0.1-0.1l-4.2-2.2L68.3,357L68.3,357z M66.3,365.4l-0.1,0.2L66,366l-0.1,0.2l0.2,0.1l4.3,3.9
			c0.1,0.1,0.3,0.2,0.5,0.2c0.4,0,0.5-0.5,0.5-1.6c0-0.4,0-0.9-0.1-1.3v-0.1l-0.1-0.1l-4.5-1.9H66.3L66.3,365.4z M73.9,365.4
			l-0.1,0.3l-4.8,16l-2.5-1.7l-0.2-0.1l-0.1,0.2l-0.3,0.4l-0.1,0.2l0.2,0.1c1.2,1.3,2.4,2.6,3.5,4c0.1,0.2,0.2,0.3,0.4,0.3
			c0.3,0,0.4-0.4,0.4-0.5l4.6-18.5v-0.2l-0.2-0.1l-0.5-0.2L73.9,365.4L73.9,365.4z M86,375.7l-0.2,0.1c-0.5,0.3-2.2,0.8-7.7,1.3
			l-0.6,0.1l0.5,0.4l1.4,1.1l0.1,0.1h0.1c2.5-0.6,5-1,7.5-1.3c0.3-0.1,0.4-0.2,0.4-0.4c0-0.2-0.1-0.3-0.2-0.4l-1.2-1L86,375.7
			L86,375.7z"/>
	</g>
</g>
</svg>
