<?xml version="1.0" encoding="utf-8"?>
<!-- Generator: Adobe Illustrator 22.0.1, SVG Export Plug-In . SVG Version: 6.00 Build 0)  -->
<svg version="1.1" id="_x30_0000" xmlns="http://www.w3.org/2000/svg" xmlns:xlink="http://www.w3.org/1999/xlink" x="0px" y="0px"
	 viewBox="0 0 310 310" style="enable-background:new 0 0 310 310;" xml:space="preserve">
<style type="text/css">
	.st0{fill:none;}
	.st1{fill:#FFFFFF;}
</style>
<title>資產 3</title>
<g id="圖層_2_1_">
	<g id="圖層_1-2">
		<rect y="0" class="st0" width="310" height="399"/>
		<rect x="18" y="15" width="175" height="38"/>
		<path class="st1" d="M51.8,33.4v4.3c-1.4,1.1-3,1.7-4.8,1.6c-3,0.2-5.5-2-5.7-5c0-0.3,0-0.5,0-0.8c0-4.1,2.5-6.1,5.7-6.1
			c3.7,0,4.4,2.5,4.7,3.3l-1,0.3c-0.4-1.7-2-2.8-3.7-2.7c-2.9,0-4.5,2.1-4.5,5c0,3.9,2.7,5,4.5,5c1.4,0,2.7-0.4,3.8-1.3v-2.7h-3.7
			v-1L51.8,33.4z"/>
		<path class="st1" d="M55.1,27.6v1.5h-1v-1.5H55.1z M55.1,30.8v8.3h-1v-8.3H55.1z"/>
		<path class="st1" d="M58.7,30.8V32l0,0c0.6-0.9,1.6-1.4,2.7-1.4c0.8,0,1.6,0.3,2.2,0.9c0.5,0.6,0.7,1.4,0.6,2.2v5.4h-1v-5.2
			c0.1-0.6-0.1-1.2-0.3-1.7c-0.4-0.5-1-0.8-1.6-0.8c-0.9,0.1-1.8,0.6-2.2,1.5c-0.3,0.8-0.4,1.7-0.3,2.6v3.6h-1v-8.3H58.7z"/>
		<path class="st1" d="M69.8,27.6l-3.7,11.7h-0.8L69,27.6H69.8z"/>
		<path class="st1" d="M71,27.6l3.6,10.3l0,0l3.7-10.3h1.1l-4.2,11.5h-1.1l-4.2-11.5C69.9,27.6,71,27.6,71,27.6z"/>
		<path class="st1" d="M84,39.3c-2.3,0-3.7-1.8-3.7-4.3c0-2.9,1.4-4.4,3.7-4.4s3.7,1.5,3.7,4.4C87.7,37.4,86.6,39.3,84,39.3z
			 M84,31.4c-1.8,0-2.7,1.5-2.7,3.6c0,2.3,1.1,3.5,2.7,3.5s2.7-1.3,2.7-3.5S85.7,31.4,84,31.4z"/>
		<path class="st1" d="M96,27.6h1v11.5h-1v-1.3c-0.8,0.9-1.9,1.5-3.1,1.5c-2.8,0-3.7-2.5-3.7-4.4s0.9-4.3,3.7-4.3
			c1.2-0.1,2.4,0.5,3.1,1.5l0,0V27.6z M93,38.5c0.7,0,1.4-0.2,2-0.7c0.8-0.7,1.1-1.8,1-2.8c0-2.8-1.8-3.5-3-3.5
			c-1.4,0-2.8,1.1-2.8,3.5S91.6,38.5,93,38.5z"/>
		<path class="st1" d="M100.5,27.6v7l4.1-3.8h1.4l-3.5,3.1l3.7,5.2h-1.3l-3.2-4.5l-1.3,1.1v3.4h-1V27.6H100.5z"/>
		<path class="st1" d="M107.2,33c0.3-1.7,1.4-2.4,3.6-2.4c3.1,0,3.2,1.6,3.2,3.5c0,0.2,0,2,0,2.3c-0.1,0.9,0.1,1.8,0.5,2.6h-1.1
			c-0.2-0.4-0.3-0.8-0.3-1.3c-0.8,1-2.1,1.5-3.4,1.5c-1.3,0.2-2.4-0.7-2.6-2c0-0.1,0-0.1,0-0.2c0-0.7,0.3-1.4,0.9-1.9
			c0.3-0.2,0.7-0.5,2.5-0.8c0.8-0.1,1.7-0.2,2.5-0.5v-0.3c0-1,0-2.2-2.2-2.2s-2.4,1.2-2.6,1.8L107.2,33z M112.9,34.6
			c-0.9,0.3-1.7,0.5-2.6,0.6c-1.1,0.2-2.3,0.4-2.3,1.7c0.1,0.9,0.9,1.6,1.8,1.6l0,0c0.8,0,1.6-0.3,2.2-0.9c0.7-0.6,1-1.5,0.9-2.5
			V34.6z"/>
		<path class="st1" d="M122.6,27.6l3.6,9.9l3.7-9.9h1.6v11.5h-1V28.7l0,0L126.7,39h-0.9L122,28.7l0,0V39h-1V27.6H122.6z"/>
		<path class="st1" d="M133.8,33c0.3-1.7,1.4-2.4,3.6-2.4c3.1,0,3.1,1.6,3.1,3.5c0,0.2,0,2,0,2.3c-0.1,0.9,0.1,1.8,0.5,2.6h-1
			c-0.2-0.4-0.3-0.8-0.3-1.3c-0.9,1-2.1,1.5-3.4,1.5c-1.3,0.2-2.4-0.7-2.6-2c0-0.1,0-0.2,0-0.3c0-0.7,0.3-1.4,0.9-1.9
			c0.3-0.2,0.7-0.5,2.5-0.8c0.8-0.1,1.7-0.2,2.5-0.5v-0.3c0-1,0-2.2-2.2-2.2s-2.4,1.2-2.6,1.8L133.8,33z M139.6,34.6
			c-0.9,0.3-1.7,0.5-2.6,0.6c-1.1,0.2-2.3,0.4-2.3,1.7c0.1,0.9,0.9,1.6,1.8,1.6c0.8,0,1.6-0.3,2.2-0.9c0.7-0.6,1-1.5,0.9-2.5
			L139.6,34.6L139.6,34.6z"/>
		<path class="st1" d="M143.9,30.8v1.7l0,0c0.2-0.6,0.6-1.9,1.9-1.9c0.5,0,1,0.2,1.5,0.5l-0.4,0.9c-0.3-0.2-0.7-0.3-1.1-0.3
			c-0.3,0-1,0-1.5,1.1c-0.2,0.4-0.3,0.9-0.3,1.4c0,0.4-0.1,0.8-0.1,1.2v3.8h-1v-8.3h1V30.8z"/>
		<path class="st1" d="M149.6,30.8h1.6v0.7h-1.6v5.4c0,1,0.1,1.5,0.9,1.5c0.3,0,0.5-0.1,0.8-0.1l0.1,0.8c-0.3,0.1-0.7,0.1-1,0.1
			c-1.8,0-1.8-1.2-1.8-2.1v-5.6h-1.1v-0.7h1.1v-2.1l1-0.6V30.8z"/>
		<path class="st1" d="M153.8,27.6v1.5h-1v-1.5H153.8z M153.8,30.8v8.3h-1v-8.3H153.8z"/>
		<path class="st1" d="M157.4,30.8V32l0,0c0.6-0.9,1.6-1.5,2.6-1.4c0.8,0,1.6,0.3,2.2,0.9c0.4,0.6,0.7,1.4,0.6,2.2v5.4h-1v-5.2
			c0.1-0.6-0.1-1.2-0.3-1.7c-0.4-0.5-1-0.8-1.6-0.8c-1,0-1.9,0.6-2.3,1.5c-0.3,0.8-0.4,1.7-0.3,2.6v3.6h-1v-8.3H157.4z"/>
		<path class="st1" d="M166.3,27.6v1.5h-1v-1.5H166.3z M166.3,30.8v8.3h-1v-8.3H166.3z"/>
		<path d="M24.7,69.1h3.6v0.4h-3.6v1.2h4.8v0.4h-10v-0.4h4.7v-1.2h-3.6v-0.4h3.6v-1H20v-0.4h4.2v-1.2h0.5v1.2H29v0.4h-4.2L24.7,69.1
			z M25.9,77c0.4,0,0.7,0,1.1,0c0.2,0,0.3-0.1,0.4-0.3v-1.3h-5.5v2.1h-0.5V72h6.5v5c0,0.3-0.2,0.5-0.5,0.6c-0.4,0.1-0.9,0-1.2,0
			L25.9,77z M21.8,72.4v1.1h5.5v-1.1H21.8z M27.3,75v-1h-5.5v1H27.3z"/>
		<path d="M43.7,75.6v-6.4h0.5v8.2h-0.5v-1.3H36v1.3h-0.5v-8.2H36v6.4h3.5v-8.5H40v8.5H43.7z"/>
		<path d="M50.1,72.6c0.1-0.2,0.2-0.3,0.3-0.5l0.9-1.7l0.5-1.1l0.8-1.9l0.3-0.8c0.1,0,0.3,0.1,0.4,0.2l-1,2.6v8.2h-0.5v-7.3
			c0,0.1-0.1,0.2-0.1,0.3l-0.9,1.6l-0.3,0.5L50.1,72.6z M60.6,77.6c-1.6-1.5-2.8-3.3-3.5-5.3c-0.2-0.8-0.4-1.7-0.5-2.5
			c-0.3,0.9-0.8,1.7-1.4,2.5v4.1h0.1l2.3-1.1v0.5c-0.5,0.2-1.1,0.5-1.6,0.8l-2,1c-0.1-0.1-0.2-0.3-0.2-0.4l1-0.4V73
			c-0.6,0.6-1.1,1.1-1.8,1.7l-0.3-0.3c1.5-1.2,2.7-2.7,3.5-4.5H53v-0.5h7.9v0.5H57c0.1,1.1,0.4,2.1,0.7,3.2c0.8-0.5,1.6-1,2.3-1.6
			l0.3,0.3c-0.8,0.6-1.6,1.2-2.4,1.7c0.7,1.5,1.7,2.9,3,4L60.6,77.6z M55.9,66.7c0.5,0.6,1,1.1,1.5,1.8L57,68.8
			c-0.4-0.6-0.9-1.2-1.4-1.8L55.9,66.7z"/>
		<path d="M76,73.1v0.4h-8v0.3h-0.5v-3.4l0,0c-0.3,0.4-0.7,0.7-1,1L66,71.2c0.9-0.7,1.7-1.7,2.3-2.7l0.4,0.2
			c-0.1,0.2-0.2,0.5-0.4,0.7h2.9c-0.1-0.3-0.3-0.7-0.4-1l0.4-0.2c0.2,0.4,0.4,0.8,0.6,1.1h3.7v0.4h-3.8v0.8h3.2V71h-3.3v0.8h3.2v0.4
			h-3.2V73L76,73.1z M68.8,66.5h0.5v1H71v0.4h-1.7v0.7h-0.5v-0.7h-2.3v-0.4h2.3V66.5z M74.7,76.5v-0.8h-3v-0.4h3v-0.8h-3.1v-0.4h3.6
			v3.3h-0.5v-0.5h-6.8v0.5h-0.5v-3.1c1.1,0,2.2-0.3,3.2-0.7L71,74c-1,0.4-2.1,0.6-3.2,0.7v0.5h2.9v0.4h-2.9v0.8L74.7,76.5z M68,70.6
			h3.2v-0.8H68V70.6z M71.2,71.8V71H68v0.8H71.2z M68,73h3.2v-0.8H68V73z M73.7,66.5v1h2.4v0.4h-2.4v0.8h-0.5v-0.8h-1.7v-0.4h1.7v-1
			H73.7z"/>
		<path d="M83.9,76.7v0.9h-0.5V72c-0.6,0.8-1.2,1.5-1.9,2.2l-0.4-0.3c1.5-1.4,2.7-3.1,3.5-5h-3.1v-0.4h3.3c0.3-0.6,0.5-1.2,0.7-1.9
			c0.2,0,0.3,0.1,0.4,0.1c-0.2,0.6-0.4,1.2-0.6,1.8h6.2v0.4h-6.4c-0.4,0.8-0.8,1.6-1.3,2.4v4.9h3.6v-3.5h-2.8v-0.5h2.8v-2.4H88v2.4
			h3.1v0.5H88v3.5h3.9v0.4L83.9,76.7z"/>
		<path d="M102.7,71c0.2,0.8-0.1,1.7-0.7,2.2l-0.3-0.3c0.3-0.2,0.5-0.5,0.6-0.9h-0.6v-1C101.7,71,102.7,71,102.7,71z"/>
		<path d="M117.9,66.6c0,0.7-0.1,1.4-0.1,2.2v1.8c0,0.8,0.1,1.7,0.3,2.5h4.7v0.4h-4.5c0.2,0.6,0.4,1.2,0.8,1.7
			c0.9-0.4,1.7-0.9,2.6-1.4l0.3,0.3c-0.8,0.6-1.7,1.1-2.6,1.5c0.7,0.7,1.6,1.2,2.6,1.5c0.1,0,0.2,0,0.3-0.2c0.2-0.5,0.3-1,0.4-1.5
			l0.4,0.2c-0.1,0.5-0.2,1-0.4,1.5c-0.1,0.2-0.2,0.3-0.4,0.4c-0.4,0-0.8,0-1.1-0.3c-0.8-0.3-1.6-0.8-2.2-1.5c-1.2,0.5-2.4,1-3.7,1.3
			l-0.3-0.4c1.2-0.3,2.4-0.8,3.6-1.3c-0.4-0.6-0.7-1.2-0.9-1.9h-3.2l-0.1,0.5c0.7,0.4,1.4,0.9,2.1,1.4l-0.3,0.4
			c-0.6-0.5-1.2-0.9-1.8-1.2c-0.3,1.2-1,2.2-1.9,3.1l-0.3-0.4c0.9-0.8,1.5-2,1.8-3.2l0.1-0.5h-1.6V73h1.6c0-0.3,0-0.7,0-1h0.4v1h3
			c-0.2-1.5-0.3-2.9-0.3-4.4c0-0.7,0-1.3,0.1-2H117.9z M116.2,69.9c0.4,0.7,0.7,1.4,1,2.2c-0.1,0.1-0.2,0.1-0.4,0.2l-0.3-0.7
			l-2.5,0.3l-0.9,0.1l-0.1-0.5c0.7-0.6,1.4-1.3,2.1-2c-0.6,0-1.2,0.1-1.8,0.1l-0.1-0.5c0.7-0.7,1.3-1.5,1.9-2.3l0.3,0.3
			c-0.5,0.6-0.9,1.3-1.5,1.9c-0.1,0.1-0.2,0.1-0.2,0.2c0.6-0.1,1.3-0.1,1.9-0.2l0.9-1.1l0.3,0.2c-0.8,1.1-1.8,2.1-2.8,3.1l-0.4,0.2
			c0.2,0,0.4,0,0.6-0.1l2.2-0.3l-0.5-1L116.2,69.9z M122.2,71.5l-1.8,0.2c-0.6,0.1-1.1,0.2-1.6,0.2v-0.5c0.7-0.6,1.3-1.2,1.9-1.9
			c-0.6,0-1.3,0.1-1.9,0.2v-0.6c0.7-0.7,1.3-1.5,1.8-2.3l0.4,0.3c-0.5,0.8-1.1,1.5-1.8,2.1c0.6-0.1,1.3-0.1,1.9-0.2
			c0.3-0.4,0.7-0.8,1-1.2c0.1,0.1,0.2,0.2,0.4,0.2c-0.9,1.1-1.8,2.2-2.9,3.2l-0.3,0.2c0.1,0,0.2-0.1,0.4-0.1L122,71l0,0l-0.5-0.9
			l0.4-0.2c0.4,0.7,0.8,1.4,1.1,2.1l-0.4,0.2L122.2,71.5z M121.4,72.9c-0.3-0.2-0.5-0.3-0.7-0.5l-0.6-0.3l0.2-0.3
			c0.5,0.2,0.9,0.5,1.3,0.8L121.4,72.9z"/>
		<path d="M129.4,68.2V73c0.1,1.6-0.4,3.2-1.3,4.5l-0.4-0.3c0.8-1.1,1.2-2.4,1.2-3.8v-5.7h4.7c-0.2-0.4-0.4-0.7-0.6-1.1l0.4-0.2
			c0.3,0.4,0.6,0.8,0.8,1.2l-0.3,0.1h4.3v0.5H129.4z M130.7,73.1h6.3c-0.7,1-1.5,1.9-2.5,2.5c1.1,0.7,2.4,1.2,3.7,1.5l-0.4,0.4
			c-1.3-0.4-2.6-0.9-3.8-1.6c-1.1,0.8-2.4,1.3-3.7,1.6l-0.3-0.4c1.3-0.2,2.5-0.7,3.6-1.4c-0.9-0.5-1.7-1.3-2.4-2.1h-0.5L130.7,73.1z
			 M130.1,69.8h1.7v-1.1h0.5v1.1h3.4v-1.1h0.5v1.1h1.7v0.4h-1.7v2h-4.4v-2h-1.7V69.8z M131.8,73.6c0.6,0.8,1.4,1.4,2.2,1.8
			c0.8-0.5,1.4-1.1,2-1.8H131.8z M135.7,70.3h-3.4v1.5h3.4V70.3z"/>
		<path d="M153,69.5c-1.1,2.3-2.7,4.4-4.7,6c-1.3,0.9-2.8,1.6-4.3,2l-0.3-0.4c2-0.5,3.9-1.6,5.4-3c-0.8-0.8-1.6-1.5-2.4-2.2l0.3-0.3
			c0.9,0.7,1.7,1.4,2.5,2.2c0.5-0.5,1-1.1,1.4-1.7c0.6-0.8,1.1-1.7,1.6-2.7H148c-0.9,1.4-2.1,2.7-3.5,3.8l-0.4-0.3
			c1.7-1.3,3.1-3,4.1-4.9c0.2-0.5,0.5-0.9,0.7-1.4l0.4,0.2c-0.3,0.8-0.7,1.5-1.1,2.2h4.7v0.5H153z"/>
		<path d="M161.1,70.3c0.1,0.2,0.3,0.3,0.5,0.5c0.7,0.8,0.9,1.9,0.5,2.9c-0.4,0.6-1,0.5-1.7,0.5l-0.2-0.5c0.5,0,1.3,0.2,1.6-0.4
			c0.1-0.3,0.1-0.7,0.1-1c-0.2-0.8-0.6-1.4-1.2-1.9l1.3-3h-2v9.8h-0.5V67h3.2L161.1,70.3z M165.5,73.2c-0.5,1.1-1.4,2.1-2.5,2.7
			l-0.4-0.3c1-0.5,1.9-1.4,2.4-2.4h-1.3c-0.4,0.5-0.9,1-1.5,1.3l-0.4-0.3c1-0.5,1.8-1.4,2.2-2.4h-1.4v-0.4h6.8v0.4h-4.9
			c-0.1,0.4-0.3,0.7-0.5,1h4.8c0,1.3-0.1,2.5-0.3,3.8c-0.1,0.3-0.3,0.5-0.6,0.6c-0.4,0.1-0.9,0.1-1.3,0l-0.2-0.5
			c0.4,0,0.7,0.1,1.1,0.1c0.6,0,0.5-0.7,0.6-1.2c0.1-0.8,0.2-1.6,0.2-2.3h-1.1c-0.5,1.7-1.7,3.2-3.4,4l-0.4-0.3
			c1.5-0.8,2.7-2.1,3.3-3.7L165.5,73.2z M168.1,67v3.4h-4.5V67H168.1z M164.1,68.9V70h3.5v-1.1H164.1z M164.1,67.4v1h3.5v-1H164.1z"
			/>
		<path d="M174.4,77.3c0.4-0.9,0.7-1.8,0.9-2.7l0.5,0.1c-0.2,1-0.5,1.9-0.9,2.8L174.4,77.3z M175.4,73.8l-0.7,0.2l-0.2-0.4
			c0.8-1,1.6-2.1,2.2-3.2c-0.7,0.1-1.4,0.2-2,0.4l-0.2-0.4c0.8-1.2,1.5-2.4,2-3.8l0.4,0.2c-0.5,1.2-1.1,2.4-1.8,3.4
			c0.6-0.1,1.3-0.2,1.9-0.3c0.3-0.5,0.6-1,0.8-1.5l0.5,0.2c-0.8,1.7-1.9,3.2-3,4.7l2.7-0.6c-0.2-0.3-0.4-0.6-0.6-0.9l0.4-0.2
			c0.5,0.7,0.9,1.4,1.3,2.1c-0.2,0.1-0.3,0.2-0.5,0.2c-0.1-0.3-0.2-0.5-0.4-0.8L175.4,73.8z M176.9,74.5c0.2,0.7,0.3,1.5,0.4,2.2
			l-0.5,0.2c-0.1-0.8-0.2-1.5-0.4-2.3L176.9,74.5z M178.4,75.8c-0.2-0.5-0.5-1-0.8-1.5l0.4-0.2c0.3,0.5,0.6,1,0.8,1.5L178.4,75.8z
			 M179,68.6v-0.5h5.7v0.5h-2.6v7.5h3c0,0.2,0,0.3,0,0.5h-6.4v-0.5h2.9v-7.5H179z"/>
		<path d="M193.8,72.1c0-0.8,0.7-1.5,1.5-1.5s1.5,0.7,1.5,1.5s-0.7,1.5-1.5,1.5l0,0C194.5,73.6,193.8,73,193.8,72.1L193.8,72.1z
			 M196.4,72.1c0-0.6-0.5-1.1-1.1-1.1s-1.1,0.5-1.1,1.1s0.5,1.1,1.1,1.1S196.4,72.7,196.4,72.1L196.4,72.1z"/>
		<path d="M206.8,69.3c-0.2,0.9-0.6,1.8-1,2.7c-0.1,0-0.3-0.1-0.4-0.2c0.4-0.9,0.7-1.8,1-2.7L206.8,69.3z M207.1,77.6v-11h0.5v11
			H207.1z M209.1,70.9c-0.1,0.1-0.3,0.2-0.4,0.2c-0.2-0.4-0.6-1.2-1-1.7c0.1-0.1,0.3-0.2,0.4-0.2C208.4,69.7,208.8,70.3,209.1,70.9
			L209.1,70.9z M208.4,77.2c1-0.3,2.1-0.7,3-1.2c0.1,0.1,0.2,0.2,0.3,0.3c-1,0.5-2,1-3,1.3L208.4,77.2z M215.2,67.2l-0.2,1.3h1.2V69
			h-1.3l-0.3,1.5h-4.9c0.1-0.5,0.2-1,0.3-1.5h-1.4v-0.4h1.4c0.1-0.4,0.1-0.8,0.2-1.3L215.2,67.2z M209.7,75.7v-4.4h5.3v4.4H209.7z
			 M210.1,73v0.8h4.3V73H210.1z M210.1,74.3v1h4.3v-1H210.1z M214.4,71.7h-4.3v0.8h4.3V71.7z M212.1,69h-1.7l-0.2,1h1.7L212.1,69z
			 M212.2,68.5l0.2-0.9h-1.8l-0.2,0.9H212.2z M214.3,69h-1.7l-0.2,1h1.8L214.3,69z M214.6,67.7H213l-0.2,0.9h1.7L214.6,67.7z
			 M213.2,76c0.9,0.3,1.8,0.7,2.7,1.2c-0.1,0.1-0.2,0.3-0.3,0.4c-0.8-0.5-1.7-0.9-2.6-1.2L213.2,76z"/>
		<path d="M221.3,73.8c1.3-0.8,2.5-1.8,3.5-3h-3.5v-0.4h3.8c0.2-0.3,0.4-0.7,0.5-1.1h-3.4v-0.4h3.6c0.1-0.4,0.2-0.8,0.3-1.2
			c-1.1,0-2.6,0.1-4,0.1l-0.3-0.5c2.8,0,5.6-0.2,8.4-0.6l0.3,0.4c-1.6,0.2-2.6,0.3-3.9,0.5c-0.1,0.4-0.2,0.8-0.3,1.2h4.3v0.5h-4.4
			c-0.2,0.4-0.3,0.6-0.5,1.1h5.7v0.4h-6.1c-0.3,0.4-0.6,0.7-0.9,1.1h5.2v5.6h-0.5v-0.9h-4.6v0.9H224v-5.2c-0.8,0.6-1.6,1.2-2.4,1.8
			L221.3,73.8z M224.6,72.3v0.9h4.6v-0.9H224.6z M229.2,73.7h-4.6v1h4.6V73.7z M229.2,75.2h-4.6v1h4.6V75.2z"/>
		<path d="M238.5,71.9c-0.4,1.1-1,2.2-1.6,3.2c-0.1-0.1-0.3-0.2-0.4-0.3c0.9-1.3,1.6-2.7,2-4.2v-0.3h-1.8v-0.4h1.8v-2.1
			c-0.5,0.1-0.9,0.1-1.4,0.2l-0.3-0.3c1.2-0.1,2.3-0.3,3.4-0.6c0.1,0.1,0.2,0.2,0.3,0.3c-0.5,0.1-1.1,0.3-1.6,0.4V70h1.9v0.4H239
			v7.4h-0.5V71.9z M239.2,71.5c0.1-0.1,0.2-0.2,0.4-0.2c0.5,0.6,0.9,1.2,1.4,1.8c-0.1,0.1-0.3,0.2-0.4,0.2
			C240.1,72.7,239.7,72.1,239.2,71.5z M240.2,77.3c1.6-1.4,2.7-3.3,3.1-5.4c0.2-1,0.3-2.1,0.2-3.2v-2.1h0.4v3.2
			c-0.1,0.5-0.1,1.1-0.1,1.6c0.7,2,1.5,4.2,3.3,5.7l-0.3,0.3c-1.2-0.8-2.7-3.4-3.1-4.9c-0.5,2-1.6,3.7-3.1,5.1L240.2,77.3z
			 M241.1,71.8c0.2-1,0.4-2.1,0.5-3.1h0.4c-0.1,1.1-0.4,2.2-0.5,3.2L241.1,71.8z M245.3,71.6c0.4-1,0.7-2,0.9-3l0.4,0.1
			c-0.2,1-0.5,2-0.9,3L245.3,71.6z"/>
		<path d="M259,76.9c0.4,0,0.7,0,1.1,0c0.1-0.1,0.2-0.2,0.2-0.3V73h-4.6c-0.2,1.7-1.2,3.3-2.6,4.3l-0.4-0.3c1-0.7,1.7-1.6,2.2-2.7
			c0.2-0.6,0.4-1.2,0.4-1.9V67h5.7v9.7c0,0.2-0.1,0.4-0.3,0.5c-0.4,0.1-0.8,0.1-1.3,0.1L259,76.9z M260.3,67.5h-4.6v2.2h4.6V67.5z
			 M255.7,70.1v2.4h4.6V70L255.7,70.1z"/>
		<path d="M267.7,74c1.1-0.7,2-1.6,2.9-2.5h-2.7V71h3.1c0.4-0.4,0.7-0.8,0.9-1.3h-2.8v-0.4h3c0.2-0.4,0.3-0.8,0.4-1.1h-4v-0.4h4.1
			c0.1-0.4,0.1-0.8,0.1-1.2h0.5c0,0.4-0.1,0.8-0.1,1.1h4.5v0.5H273c-0.1,0.4-0.2,0.8-0.4,1.1h4.4v0.4h-4.5c-0.2,0.5-0.5,0.9-0.8,1.3
			h6.6v0.4h-3.1c1,1,2.1,1.8,3.3,2.5l-0.3,0.3h-0.1c-1.3-0.8-2.5-1.7-3.5-2.9h-3.3c-1,1-2.1,2-3.2,2.9L267.7,74z M270.4,77.5v-4.9
			h5.3v4.9h-0.5v-0.8h-4.3v0.8H270.4z M270.9,73.1v1.3h4.3v-1.3H270.9z M270.9,74.9v1.4h4.3v-1.4H270.9z"/>
		<path d="M29.5,91.6l0.5,0.2c-0.1,0.8-0.2,1.7-0.4,2.5c-0.1,0.2-0.3,0.3-0.5,0.1c-1-1.5-1.5-3.3-1.4-5.1v-4.6h-7.1v4.1
			c0.1,1.9-0.3,3.9-1.1,5.7l-0.4-0.2c0.7-1.7,1.1-3.6,1-5.4v-4.5h8.1v4.9c-0.1,1.5,0.2,3.1,1,4.4C29.3,93,29.5,92.3,29.5,91.6z
			 M21.1,93c0.9,0,1.9-0.1,2.8-0.3v-2.1h-2.1v-2.8h2.1v-1.4h-2.6V86H27v0.4h-2.6v1.4h2.1v2.9h-2.1v2c0.6-0.1,1.3-0.1,1.9-0.2
			l-0.5-0.9c0.1-0.1,0.3-0.1,0.4-0.2c0.4,0.7,0.8,1.4,1.1,2.2l-0.4,0.2l-0.5-0.9c-0.8,0-1.6,0.2-2.4,0.3l-2.8,0.4L21.1,93z
			 M22.3,88.2v2h1.6v-2H22.3z M26,90.2v-2h-1.6v2H26z"/>
		<path d="M38.5,89.1c0-0.8,0.7-1.5,1.5-1.5s1.5,0.7,1.5,1.5s-0.7,1.5-1.5,1.5l0,0C39.2,90.6,38.5,89.9,38.5,89.1z M41.1,89.1
			c0-0.6-0.5-1.1-1.1-1.1s-1.1,0.5-1.1,1.1s0.5,1.1,1.1,1.1l0,0C40.6,90.2,41.1,89.7,41.1,89.1z"/>
		<path d="M50.6,88.8v-0.5h10v0.5H50.6z"/>
		<path d="M69.4,92.2h-2.1v-2.3h2.1v-1.5h-2.7v1.1h-0.5v-1.6H76v1.5h-0.5v-1.1h-2.9v1.4h2.2v2.4h-2.2v1.6h3.6v0.4H65.8v-0.4h3.6
			V92.2z M66,85.2v-0.4h4.8v-1.1h0.5v1.1H76v0.5h-4.8v1.1H75v0.4h-8v-0.4h3.8v-1.2H66z M74.3,90.2H72v-1.9h-2.1v1.9h-2.1v1.4h2.1v2
			H72v-2h2.2L74.3,90.2z"/>
		<path d="M81.8,94.1c-0.1-0.1-0.3-0.2-0.4-0.3c0.7-1.3,1.3-2.6,1.8-4c0.1,0.1,0.3,0.1,0.4,0.2C83.1,91.4,82.5,92.8,81.8,94.1z
			 M81.8,86.4c0.6,0.6,1.1,1.2,1.7,1.8l-0.3,0.4c-0.4-0.6-1-1.1-1.5-1.6l-0.2-0.2L81.8,86.4z M82.4,83.9c0.6,0.5,1.1,1.1,1.6,1.7
			l-0.3,0.3c-0.5-0.6-1.1-1.2-1.7-1.8L82.4,83.9L82.4,83.9z M83.6,89.7c1.1-0.8,1.9-1.8,2.6-2.9h-1.6v-2.6h6.6v2.6h-4.5
			c-0.2,0.4-0.4,0.7-0.6,1h5.5v0.7l-0.1,2.3l-0.1,2c-0.1,0.5,0,1.2-0.5,1.6s-1.1,0-1.7,0.1L89,94l1.3,0.1c0.2,0,0.3-0.1,0.4-0.2
			c0.1-0.2,0.2-0.5,0.2-0.8l0.1-1.7l0.1-2.3v-0.8h-5.3c-0.5,0.7-1.2,1.3-1.8,1.8L83.6,89.7z M88.2,91.8l0.3-0.2
			c0.6,0.5,1.1,1.1,1.6,1.8l-0.3,0.2l-0.6-0.7h-0.5l-3.2,0.3l-1.3,0.1L84,92.8c0.9,0,1.9-0.1,2.8-0.2v-1.3h-2v-2.1h2v-0.8h0.5v0.8
			h2.2v2.1h-2.2v1.2c0.5,0,1-0.1,1.5-0.2L88.2,91.8z M85,84.6v1.8h1.5v-1.8H85z M85.2,89.7V91h1.6v-1.3H85.2z M87,86.3h1.6v-1.8H87
			V86.3z M89,89.7h-1.7V91H89V89.7z M90.6,84.6h-1.5v1.8h1.6L90.6,84.6z"/>
		<path d="M99,89.7c-0.5,1.6-1.2,3.2-2,4.7l-0.4-0.3c0.8-1.5,1.5-3,2-4.6L99,89.7z M98.4,88.4c-0.5-0.6-1.1-1.1-1.7-1.6l0.4-0.3
			c0.6,0.5,1.2,1.1,1.7,1.6L98.4,88.4z M97.6,83.8c0.5,0.5,1.2,1,1.7,1.5l-0.4,0.3c-0.5-0.5-1-1-1.6-1.5L97.6,83.8z M100.1,94.4
			v-8.2h2.1v-1.7h-2.7v-0.4h7.8v0.4h-2.7v1.7h2.1v8.2h-0.5v-0.8h-5.5v0.8H100.1z M104.5,89.8c-0.2,0-0.4-0.3-0.4-0.5v-2.6h-1.4
			c0.1,1.2-0.3,2.4-1.1,3.4c-0.1,0.1-0.3,0.3-0.5,0.3l-0.4-0.3c1.2-0.7,1.4-2.1,1.5-3.4h-1.5v4.4h5.6v-1.3H104.5z M106.2,91.6h-5.5
			v1.7h5.5V91.6z M104.1,84.6h-1.4v1.7h1.4V84.6z M106.2,86.7h-1.6V89c0,0.3,0.1,0.4,0.3,0.4h1.2L106.2,86.7z"/>
		<path d="M116,90.4c-0.2-0.4-0.5-0.7-0.7-1.1l0.3-0.2c0.3,0.3,0.5,0.6,0.8,1L116,90.4l2.6-0.1c0.3-0.4,0.5-0.9,0.7-1.3l0.4,0.2
			c-0.2,0.4-0.4,0.8-0.7,1.2h3.6v0.4h-10.3v-0.4L116,90.4z M121.3,85.9v0.4h-7.5V86h3.5v-1h-4.5v-0.4h4.5v-1h0.5v1h4.6V85h-4.6v1
			L121.3,85.9z M114.1,94.5v-2.8h7v2.8h-0.5v-0.6h-6v0.6H114.1z M114.3,89v-1.9h6.6V89H114.3z M114.6,92.2v1.3h6v-1.3H114.6z
			 M120.4,87.6h-5.6v1h5.6V87.6z"/>
		<path d="M130.1,86.5v-2.7h0.5v2.7h1.8V87h-1.9v1.7l0.4-0.2c0.6,0.6,1,1.4,1.4,2.1l-0.4,0.3c-0.4-0.8-0.9-1.5-1.4-2.1v6H130v-5.6h0
			c-0.4,1.2-1,2.4-1.8,3.4l-0.4-0.4c1.1-1.3,1.9-2.9,2.2-4.6V87h-1.9v-0.4L130.1,86.5z M133.6,93.8v0.9h-0.5V84.5h5v10.1h-0.5v-0.8
			C137.6,93.8,133.6,93.8,133.6,93.8z M133.6,84.9v2.3h4V85L133.6,84.9z M133.6,87.7v2.4h4v-2.4H133.6z M133.6,90.6v2.8h4v-2.8
			H133.6z"/>
		<path d="M143.3,94.2c1.2-1,2-2.4,2.3-4h-1.8v-0.3c0.6-0.7,1.1-1.5,1.6-2.4h-1.8v-0.4h2.4c-0.4,1-1,1.9-1.6,2.7h1.8
			c-0.1,0.8-0.4,1.6-0.7,2.4c0.7,0.9,1.7,1.5,2.8,1.5h4.6l1.1-0.1l-0.2,0.5h-5.5c-1.2-0.1-2.3-0.7-3-1.6c-0.4,0.7-1,1.4-1.6,1.9
			L143.3,94.2z M144.5,84.1c0.3,0.6,0.7,1.1,0.9,1.7L145,86c-0.3-0.6-0.6-1.2-0.9-1.7L144.5,84.1z M146.2,88
			c1.1-0.4,2.2-0.8,3.3-1.4c-0.5-0.3-1-0.7-1.4-1.1c-0.2,0.2-0.5,0.6-1,1.1l-0.4-0.2c0.8-0.8,1.5-1.7,2-2.7c0.1,0.1,0.3,0.1,0.4,0.2
			c-0.1,0.3-0.3,0.5-0.4,0.8h3.4v0.4c-0.5,0.6-1.1,1.1-1.8,1.5c1.1,0.5,2.2,0.9,3.4,1.3l-0.2,0.4c-1.2-0.4-2.4-0.8-3.6-1.4
			c-0.8,0.4-2,1-3.5,1.5L146.2,88z M152.7,88.6V89h-2.6v1h2.1v0.4h-2.1v1.1h3.1V92h-3.1v1.3h-0.5V92h-3v-0.4h3v-1.1h-2.1V90h2.1v-1
			h-2.5v-0.4h2.5v-0.9h0.5v0.9H152.7z M148.4,85.1l-0.1,0.1c0.5,0.5,1,0.9,1.6,1.2c0.6-0.3,1.1-0.8,1.6-1.3L148.4,85.1z"/>
		<path d="M164.8,88c0.2,0.8-0.1,1.7-0.7,2.2l-0.3-0.3c0.3-0.2,0.5-0.5,0.6-0.9h-0.6v-1C163.8,88,164.8,88,164.8,88z"/>
		<path d="M175.1,93.4l0.9-1.6c0.3-0.6,0.6-1.2,0.8-1.8l0.4,0.3c-0.6,1.5-1.3,3-2.2,4.4l-0.4-0.3L175.1,93.4z M176.9,88.7
			c-0.6-0.6-1.3-1.1-2.1-1.6l0.2-0.4c0.8,0.4,1.5,1,2.1,1.5L176.9,88.7z M177.2,86.3c-0.6-0.6-1.3-1.2-2.1-1.7l0.3-0.4
			c0.8,0.5,1.5,1.1,2.1,1.8L177.2,86.3z M184.7,94.7c-1.5-0.9-2.8-2.1-3.6-3.7c-0.2-0.4-0.3-0.8-0.4-1.2H179v3.8l2.4-0.9
			c0,0.2,0,0.3,0,0.5l-3.8,1.4l-0.2-0.5c0.3-0.1,0.7-0.2,1-0.3v-8.4h2.5c-0.2-0.5-0.5-0.9-0.9-1.3l0.4-0.3c0.4,0.4,0.7,0.9,1,1.4
			c-0.1,0.1-0.2,0.2-0.3,0.2h2.5v4.4h-2.5c0.2,0.8,0.6,1.6,1.1,2.3l0,0c0.7-0.5,1.3-1.2,1.7-1.9l0.4,0.3c-0.5,0.8-1.1,1.4-1.8,2
			c0.7,0.8,1.5,1.5,2.5,2L184.7,94.7z M183.1,85.8H179v1.5h4.2L183.1,85.8z M179,87.7v1.6h4.2v-1.6H179z"/>
		<path d="M194,87.8c-0.5,0.7-1,1.3-1.5,2v5H192v-4.5l0,0c-0.6,0.6-1.2,1.2-1.9,1.7l-0.4-0.3c1.4-1,2.6-2.2,3.5-3.6l0.4-0.6
			L194,87.8z M192.8,85.9h-2.6v-0.4h2.6v-1.8h0.5v1.8h1.7v0.4h-1.7v1.3h-0.5V85.9z M200.1,89c-1.3,0.7-2.7,1.4-4.1,1.9v2.4
			c0,0.2,0.2,0.4,0.4,0.4l0,0h3c0.6,0,0.7-0.6,0.8-1l0.2-0.8l0.4,0.3c-0.1,0.5-0.3,1-0.5,1.4c-0.1,0.3-0.5,0.6-0.8,0.5H196
			c-0.3,0-0.6-0.3-0.6-0.6l0,0v-6.1h0.6v3c1.3-0.5,2.6-1,3.8-1.7L200.1,89z M197.3,87.2v-1.3h-1.7v-0.4h1.7v-1.8h0.5v1.7h2.7v0.4
			h-2.7v1.4L197.3,87.2z"/>
		<path d="M205.4,93.9c1-1.3,1.7-2.8,2.3-4.4c0.1,0.1,0.3,0.1,0.4,0.2c-0.5,1.6-1.3,3.1-2.2,4.4L205.4,93.9z M207.1,88.6
			c-0.5-0.6-1.1-1.2-1.7-1.8l0.3-0.3c0.6,0.5,1.2,1.1,1.7,1.8L207.1,88.6z M207.7,86.2c-0.4-0.6-1.2-1.4-1.7-1.9l0.3-0.3
			c0.6,0.6,1.2,1.2,1.7,1.9L207.7,86.2z M208,87.7c0.9-1.3,1.7-2.7,2.2-4.2c0.1,0,0.3,0.1,0.4,0.2c-0.2,0.6-0.5,1.2-0.8,1.8h5.7v3.2
			l-0.1,2.2c0,0.9-0.1,1.9-0.4,2.8c-0.1,0.4-0.4,0.6-0.8,0.8H214l-1.2-0.2l-0.2-0.5l1.5,0.2c0.3,0,0.5-0.2,0.6-0.4
			c0.1-0.6,0.2-1.2,0.3-1.8l0.1-1.9v-2.2V86h-5.4c-0.4,0.7-0.8,1.4-1.2,2.1L208,87.7z M210.8,86.4c-0.1,0.3-0.3,0.7-0.5,1h3.6v0.4
			h-2.1v1.6h2.6v0.4h-2.6V92h1.4v-1.8h0.5V93h-0.5v-0.6h-3.6v0.8h-0.5v-3.1h0.5v1.8h1.6v-2.2h-2.8v-0.4h2.8v-1.6H210
			c-0.3,0.5-0.6,0.9-0.9,1.4c-0.1-0.1-0.3-0.1-0.4-0.2c0.7-0.9,1.2-1.8,1.6-2.8L210.8,86.4z"/>
		<path d="M231.7,93.9v0.4h-10.6v-0.4h1.6v-2.6h7.5v2.5L231.7,93.9z M222.7,87.9v-0.4h3.5v-0.9h-5v-0.4h5v-0.8h-3.5V85h3.5v-1h0.5
			v0.9h3.3v1.3h1.7v0.4H230v1.3h-3.3v0.8h4.4v0.4h-9.3v-0.4h4.4v-0.8L222.7,87.9z M222.8,89.6c-0.4,0.6-0.7,1.2-1.1,1.8
			c-0.1-0.1-0.3-0.2-0.4-0.2c0.4-0.6,0.8-1.2,1.1-1.8L222.8,89.6z M225,91.8h-1.9v2.1h1.9V91.8z M225,89.4c0.4,0.5,0.8,1,1.1,1.5
			l-0.4,0.2c-0.3-0.5-0.7-1-1.1-1.4L225,89.4z M225.6,93.9h1.8v-2.1h-1.8V93.9z M226.7,85.3v0.9h2.8v-0.8L226.7,85.3z M229.5,86.6
			h-2.8v0.9h2.8V86.6z M227.7,89.4c0,0.1,0.1,0.1,0.1,0.2l0.9,1.3l-0.4,0.3c-0.3-0.5-0.7-1-1.1-1.5L227.7,89.4z M227.9,93.9h1.8
			v-2.1h-1.9L227.9,93.9z M231.3,91.3c-0.4-0.6-0.9-1.2-1.4-1.7l0.4-0.3c0.5,0.5,0.9,1.1,1.4,1.7L231.3,91.3z"/>
		<path d="M242.4,90.8c1.2,1.6,2.8,2.7,4.7,3.3l-0.3,0.4c-2-0.6-3.7-1.9-4.9-3.7c-1,2.1-2.9,3-5.1,3.7l-0.3-0.4
			c2.2-0.6,4-1.6,4.8-3.3h-4.4v-0.4h1.3v-2.9h3.4V86h0.5v1.5h3.4v2.9h1.4v0.4H242.4z M241.5,84.8v0.4h-1.9v1.4h-0.5v-1.4H237v-0.4
			h2.2v-1.2h0.5v1.2H241.5z M241.5,90.4c0.1-0.7,0.1-1.6,0.1-2.4h-2.9v2.4H241.5z M245,87.9h-2.9c0,0.8,0,1.8-0.1,2.4h3V87.9z
			 M246.9,84.8v0.4h-2.4v1.4H244v-1.4h-1.9v-0.4h1.9v-1.2h0.5v1.2H246.9z"/>
		<path d="M254.4,83.8c0,0.7,0,1.5,0,2.2h2.5v0.4h-2.6c-0.3,1.7-0.9,3.4-1.9,4.9c-0.2,0-0.3-0.1-0.5-0.2c0.7-1.1,1.2-2.2,1.6-3.5
			c0.1-0.4,0.1-0.8,0.2-1.2h-1.6V86h1.6c0.1-0.7,0.1-1.5,0.1-2.2H254.4z M256.3,92.2c-0.1-0.4-0.3-0.8-0.5-1.2
			c0.1,0,0.3-0.1,0.4-0.1c0.5,0.9,0.9,1.9,1.2,3l-0.5,0.1c-0.1-0.4-0.3-1-0.4-1.4l-3.6,1.3l-0.2-0.5c0.2,0,0.5-0.1,0.7-0.2
			c0.8-1.8,1.4-3.7,1.7-5.7l0.4,0.1c-0.2,1.8-0.7,3.6-1.5,5.3L256.3,92.2z M262.5,93.4h-4.3v1.1h-0.5v-7.1c-0.1,0.2-0.2,0.3-0.3,0.5
			c-0.2,0.4-0.5,0.8-0.7,1.2l-0.4-0.1c1.1-1.6,1.8-3.4,2.1-5.4l0.4,0.1c-0.1,0.7-0.3,1.5-0.5,2.2h4.1v0.4h-2v1.9h1.7v0.4h-1.7v1.8
			h1.7v0.4h-1.7V93h2.1L262.5,93.4z M258.2,86.3v1.8h1.7v-1.9L258.2,86.3z M259.9,88.5h-1.7v1.8h1.7V88.5z M259.9,93v-2.2h-1.7V93
			H259.9z M260.3,85.5c-0.3-0.5-0.5-1-0.8-1.5c0.1-0.1,0.3-0.1,0.4-0.2c0.3,0.5,0.6,1,0.8,1.5L260.3,85.5z"/>
		<path d="M271.5,89.1c0-0.8,0.7-1.5,1.5-1.5s1.5,0.7,1.5,1.5s-0.7,1.5-1.5,1.5l0,0C272.1,90.6,271.4,90,271.5,89.1
			C271.4,89.1,271.4,89.1,271.5,89.1z M274,89.1c0-0.6-0.5-1.1-1.1-1.1s-1.1,0.5-1.1,1.1s0.5,1.1,1.1,1.1S274,89.7,274,89.1
			L274,89.1z"/>
		<path d="M24.8,108.1v2.1c0.3,0.1,0.7,0.2,1,0.2h3l1.1-0.1l-0.3,0.6h-2.1c-2.2,0-4.2-0.3-5.5-2c-0.1-0.1-0.2-0.3-0.3-0.4
			c-0.4,1.1-1.2,2-2.1,2.8c-0.1-0.1-0.3-0.2-0.4-0.3c1.3-0.9,2.2-2.5,2.3-4.1L22,107c0,0.3-0.1,0.6-0.1,0.9c0.3,0.5,0.6,1,1,1.3
			c0.4,0.4,1,0.7,1.5,0.9v-3.8h-4.8v-0.5h10v0.5h-4.7v1.4h3.8v0.5L24.8,108.1z M21.5,104.7V101h6.1v3.7H21.5z M22,103v1.2h5V103H22z
			 M22,101.4v1.1h5v-1.1H22z"/>
		<path d="M35.2,111.3c1.6-0.7,2.9-1.4,3.3-3.3l-3.2,1.1l-0.2-0.5c0.8-0.2,2.2-0.7,3.5-1.1c0.1-0.5,0.1-1.1,0.1-1.6h-3.1v-0.5h3.1
			v-1.8h-3.4V103h3.4v-2.3h0.5v6.5L40,107v0.5l-0.9,0.3c-0.1,1.1-0.7,2.2-1.6,2.9c-0.5,0.4-1.1,0.8-1.8,1.1L35.2,111.3z M41.2,111.7
			v-11h0.5v2.3h3.4v0.5h-3.4v2.2h3.1v0.5h-3.1v2.2h3.6v0.5h-3.6v2.9L41.2,111.7z"/>
		<path d="M60.2,111.1c-0.1,0.2-0.2,0.4-0.4,0.4s-0.4,0-0.5-0.2c-0.9-0.9-1.7-1.9-2.2-3.1c-0.9,1-2,1.9-3.1,2.7l-0.4-0.3l1.7-1.3
			c0.6-0.5,1.1-1,1.6-1.6c-0.6-1.5-0.9-3.1-1-4.7h-4.2v1.9h3.1c0,1.3-0.1,2.6-0.4,3.8c-0.1,0.3-0.3,0.5-0.7,0.6c-0.4,0-0.8,0-1.1,0
			l-0.2-0.5c0.4,0,0.8,0,1.1,0c0.5,0,0.4-0.5,0.5-0.8c0.1-0.9,0.2-1.8,0.2-2.7h-2.6c-0.1,2-0.1,4-1.1,5.7c-0.1,0.1-0.2,0.2-0.2,0.4
			c-0.2-0.1-0.3-0.1-0.4-0.2c0.8-1.6,1.3-3.5,1.2-5.3v-3.4h4.7v-2h0.5c0,0.7,0,1.4,0.1,2h4.1v0.5h-4c0,1.5,0.3,2.9,0.8,4.2
			c0.8-0.9,1.5-2,2.2-3.1c0.2,0.1,0.3,0.2,0.4,0.3v0.1c-0.7,1.2-1.5,2.2-2.3,3.3c0.5,1.2,1.3,2.3,2.2,3.2c0.2,0.1,0.2,0,0.2-0.2
			c0.2-0.5,0.3-1.1,0.5-1.6l0.4,0.2L60.2,111.1z M58.8,102.1c-0.5-0.4-1-0.8-1.5-1.2l0.3-0.3c0.5,0.4,1,0.8,1.5,1.2L58.8,102.1z"/>
		<path d="M68.1,109c-0.4,0.9-1,1.8-1.6,2.5l-0.4-0.2c0.7-0.7,1.2-1.6,1.7-2.4L68.1,109z M66.7,101.6h4v6.7h-4V101.6z M70.2,103.6
			V102h-3v1.6H70.2z M70.2,104h-3v1.6h3V104z M70.2,106.1h-3v1.7h3V106.1z M70.5,110.7c-0.3-0.6-0.7-1.2-1.1-1.8l0.4-0.2
			c0.4,0.6,0.8,1.1,1.1,1.7L70.5,110.7z M70.9,111.2c0.9-0.9,1.8-1.9,2.5-3c-0.5-1.1-0.9-2.3-1.2-3.5c-0.2,0.6-0.4,1.1-0.7,1.7
			l-0.5-0.2c0.9-1.8,1.4-3.7,1.6-5.7l0.5,0.1c-0.1,0.7-0.2,1.4-0.4,2.1h3.5v0.4h-0.8c0,1.7-0.5,3.4-1.4,4.9c0.7,1.1,1.5,2,2.4,2.9
			l-0.4,0.4c-0.9-0.8-1.6-1.8-2.3-2.8c-0.7,1-1.5,2-2.4,2.8L70.9,111.2z M72.6,103.2c-0.1,0.2-0.1,0.3-0.2,0.5
			c0.2,1.4,0.6,2.7,1.3,4c0.8-1.3,1.3-2.9,1.3-4.5H72.6z"/>
		<path d="M88.5,111.1c0.4,0,0.7,0,1.1,0c0.2,0,0.3-0.2,0.3-0.3v-2h-3.7v0.4h-2.3v2.4h-0.5v-2.4h-2.3v-0.4h2.3v-1.2h-1.6v-3.9h1.6
			v-1.1h-2.1v-0.4h2.1v-1.6h0.5v1.6H86v0.4h-2.2v1.1h1.6v3.9h-1.6v1.2H86v-0.4h3.9v-0.7h0.5v0.7h1.4v0.4h-1.5v2.1
			c0,0.4-0.3,0.6-0.6,0.7l0,0h-1L88.5,111.1z M83.4,104h-1.2v1.3h1.2V104z M82.2,107.1h1.2v-1.4h-1.2V107.1z M83.8,104v1.3H85V104
			H83.8z M83.8,105.7v1.4H85v-1.4H83.8z M86.5,106.1V103h2.1v-1h-2.3v-0.4h2.3v-1.1h0.5v1.1h2.6v0.4h-2.6v1h2v3.1h-2v1l1.4-0.2
			c-0.1-0.1-0.2-0.2-0.4-0.3l0.3-0.3c0.4,0.4,0.7,0.8,1.1,1.2l-0.3,0.3l-0.4-0.5l-4.6,0.6l-0.1-0.5c0.9,0,1.7-0.1,2.6-0.2v-1
			L86.5,106.1z M88.2,110.5c-0.4-0.3-0.8-0.7-1.3-0.9l0.3-0.3c0.5,0.3,0.9,0.6,1.3,1L88.2,110.5z M87,103.4v0.9h1.6v-0.9H87z
			 M88.6,104.7H87v1h1.6V104.7z M90.7,103.4h-1.6v0.9h1.6V103.4z M90.7,104.7h-1.6v1h1.6V104.7z"/>
		<path d="M98.5,110.2c-0.4,0.1-0.8,0.3-1.2,0.4l-0.3-0.4c0.8-0.2,1.4-0.4,2.1-0.7c0.5-0.9,0.9-1.8,1.2-2.7l0.5,0.2
			c-0.2,0.8-0.5,1.6-0.9,2.3h0.1l1.7-0.6c0,0.2,0,0.3,0,0.5L98.5,110.2z M97,101.8v-0.4h4.5v0.4H97z M97.4,105.9v-2.8h3.7v2.9
			L97.4,105.9z M98.4,109c-0.2-0.7-0.5-1.4-0.8-2l0.4-0.2c0.3,0.7,0.6,1.3,0.8,2L98.4,109z M100.7,103.6H98v1.9h2.7V103.6z
			 M102.9,110.6l-0.9,0.7l-0.5-0.3c0.7-0.5,1.4-1.1,2-1.7l0.4,0.3C103.6,110,103.3,110.4,102.9,110.6L102.9,110.6z M107.4,101.4
			h-2.5c-0.1,0.5-0.2,0.9-0.4,1.4h2v6.1h-4.1v-6.1h1.6c0.2-0.4,0.4-0.9,0.5-1.4H102V101h5.4V101.4z M106.1,103.2H103v1.4h3.1V103.2z
			 M106.1,105.1H103v1.4h3.1V105.1z M103,106.9v1.5h3.1V107L103,106.9z M106.8,111.3c-0.5-0.6-1.1-1.2-1.7-1.7l0.4-0.3
			c0.6,0.5,1.2,1,1.8,1.7C107.1,111.1,106.9,111.2,106.8,111.3L106.8,111.3z"/>
		<path d="M112.7,106.3c2.2-0.6,2.8-1.3,3.3-2.9l0.4,0.1c-0.5,1.4-0.8,2.4-3.4,3.2L112.7,106.3z M117.4,107.9H114v-0.5h7.4v0.5h-3.5
			v2.8h4.8v0.5h-9.9v-0.5h4.7L117.4,107.9z M122,103h-8.6v1.7h-0.5v-2.2h9.6v2.1H122V103z M117.2,100.7c0.4,0.5,0.7,1,0.9,1.5
			l-0.4,0.2c-0.2-0.5-0.5-1-0.8-1.5L117.2,100.7z M122.3,106h-3.2c-0.6,0-0.7-0.3-0.7-0.6v-1.9h0.5v1.6c0,0.2,0.1,0.3,0.3,0.4
			c0,0,0,0,0.1,0h3C122.3,105.5,122.3,106,122.3,106z"/>
		<path d="M133.8,105c0.2,0.8-0.1,1.7-0.8,2.2l-0.3-0.3c0.3-0.2,0.5-0.5,0.6-0.9h-0.6v-1L133.8,105z"/>
		<path d="M145,105.7c-0.5-0.6-1.1-1.2-1.7-1.7l0.4-0.3c0.6,0.6,1.2,1.1,1.7,1.8L145,105.7z M143.7,111.2c-0.1-0.1-0.3-0.2-0.4-0.3
			c1-1.4,1.8-2.8,2.4-4.4c0.1,0.1,0.3,0.2,0.4,0.3C145.5,108.4,144.7,109.8,143.7,111.2L143.7,111.2z M145.8,102.3l0.4,0.5
			c-0.1,0.1-0.2,0.2-0.4,0.3c-0.5-0.7-1.1-1.3-1.7-1.8l0.3-0.3L145.8,102.3z M150.5,110l-2.5,1l-1,0.4l-0.2-0.4l1-0.4v-1.9h-0.1
			c-0.6,0.4-1.3,0.7-2,1c-0.1-0.1-0.2-0.2-0.2-0.4c1.4-0.5,2.7-1.2,3.7-2.3h-1.6v-2.4c-0.4,0.2-0.9,0.4-1.3,0.6l-0.3-0.4
			c0.1-0.1,0.3-0.1,0.4-0.2c1.1-0.4,2-1.2,2.5-2.2h-2.6V102h3.5c-0.3-0.4-0.5-0.8-0.8-1.2c0.1-0.1,0.2-0.2,0.4-0.3
			c0.4,0.5,0.7,1,1,1.5h3.7v0.4h-2.8v0.9c0,0.1,0.1,0.2,0.3,0.3h0.3h2v0.4h-2.4c-0.3,0-0.5-0.2-0.6-0.5c-0.1-0.4-0.1-0.8-0.1-1.2
			h-1.3c-0.3,0.9-0.9,1.7-1.7,2.1h4.8v2.5h-2.2c0.2,0.6,0.4,1.2,0.8,1.8h0.1c0.7-0.5,1.4-1.1,2-1.7c0.1,0.1,0.3,0.2,0.4,0.3
			c-0.7,0.6-1.4,1.2-2.1,1.8c0.7,0.9,1.7,1.6,2.8,2c0,0.1-0.2,0.2-0.3,0.3c-0.8-0.3-1.5-0.8-2.2-1.3c-0.9-0.8-1.5-1.9-1.8-3.1
			c-0.4,0.5-0.9,1-1.4,1.3v2l2.2-0.8L150.5,110z M152,105h-3.9v1.5h3.9V105z"/>
		<path d="M160.5,105.7c-0.5-0.6-1.1-1.2-1.7-1.7l0.3-0.3c0.6,0.6,1.2,1.1,1.7,1.8L160.5,105.7z M159.2,111.2
			c-0.1-0.1-0.3-0.2-0.4-0.3c1-1.4,1.8-2.8,2.4-4.4c0.1,0.1,0.3,0.2,0.4,0.3C161,108.4,160.2,109.8,159.2,111.2z M161.3,102.3
			l0.4,0.5c-0.1,0.1-0.2,0.2-0.4,0.3c-0.5-0.7-1.1-1.3-1.7-1.8l0.3-0.3L161.3,102.3z M166.1,110l-2.6,1l-1,0.4l-0.2-0.4l1-0.4v-1.9
			h-0.1c-0.6,0.4-1.3,0.7-2,1c-0.1-0.1-0.2-0.2-0.2-0.4c1.4-0.5,2.7-1.2,3.7-2.3h-1.6v-2.4c-0.4,0.2-0.9,0.4-1.3,0.6l-0.3-0.4
			c0.1-0.1,0.3-0.1,0.4-0.2c1.1-0.4,2-1.2,2.5-2.2h-2.6V102h3.5c-0.3-0.4-0.5-0.8-0.8-1.2c0.1-0.1,0.2-0.2,0.4-0.3
			c0.4,0.5,0.7,1,1,1.5h3.6v0.4h-2.8v0.9c0,0.1,0.1,0.2,0.3,0.3h0.3h2v0.4h-2.4c-0.3,0-0.5-0.2-0.6-0.5c-0.1-0.4-0.1-0.8-0.1-1.2
			h-1.3c-0.3,0.9-0.9,1.7-1.7,2.1h4.8v2.5h-2.2c0.2,0.6,0.4,1.2,0.8,1.8h0.1c0.7-0.5,1.4-1.1,2-1.7c0.1,0.1,0.3,0.2,0.4,0.3
			c-0.7,0.6-1.4,1.2-2.1,1.8c0.7,0.9,1.7,1.6,2.8,2c0,0.1-0.2,0.2-0.3,0.3c-0.8-0.3-1.5-0.8-2.2-1.3c-0.9-0.8-1.5-1.9-1.8-3.1
			c-0.4,0.5-0.9,1-1.4,1.3v2l2.2-0.8L166.1,110z M167.5,105h-3.9v1.5h3.9V105z"/>
		<path d="M179.7,106.3c0.3,0.7,0.8,1.4,1.4,2c0.7-0.4,1.4-0.9,2-1.5l0.4,0.3c-0.6,0.6-1.3,1.1-2.1,1.5c1.1,0.9,2.3,1.6,3.6,2
			c-0.1,0.2-0.2,0.3-0.3,0.4c-1.9-0.6-3.6-1.9-4.8-3.5c-0.2-0.4-0.4-0.8-0.7-1.3h-1.9v3.5l2.9-0.9v0.5l-2.7,0.8l-2.1,0.6l-0.3-0.5
			c0.5-0.1,1.1-0.2,1.6-0.4v-3.7h-2.3v-0.4h2.3V101h6.8v0.4h-6.3v1.1h5.6v0.4h-5.6v1.1h5.7v0.4h-5.7v1.3h7.5v0.4L179.7,106.3z"/>
		<path d="M191.4,109.6l-1.1,2l-0.4-0.3c0.9-1.5,1.7-3.1,2.3-4.8l0.4,0.3C192.3,107.7,191.9,108.7,191.4,109.6z M191.9,105.5
			c-0.6-0.6-1.2-1.1-1.9-1.6l0.3-0.4c0.7,0.5,1.3,1,1.9,1.6L191.9,105.5z M192.3,102.9c-0.5-0.6-1.1-1.1-1.7-1.6l0.4-0.3
			c0.6,0.5,1.2,1,1.7,1.6L192.3,102.9z M192.6,110.3v-0.4h3.7v-7.1h-3v-0.4h6.7v0.4h-3.1v7.1h3.8v0.4H192.6z"/>
		<path d="M207.1,103.2h3.3V102h-4.7v-0.5h4.7v-1.1h0.5v1.1h4.8v0.5h-4.8v1.1h3.4v4.2h-2.9c1.1,1.6,3,2.4,4.6,3.2l-0.3,0.4h-0.1
			c-1.7-0.9-3.6-1.8-4.7-3.5h-0.1v4.1h-0.5v-4.1c-1.2,1.5-2.8,2.8-4.6,3.6l-0.4-0.3c1.7-0.8,3.2-2,4.4-3.4h-2.8L207.1,103.2z
			 M210.4,103.6h-2.8v1.4h2.8V103.6z M207.6,105.4v1.5h2.8v-1.5H207.6z M213.8,103.6h-2.9v1.4h2.9V103.6z M213.8,105.4h-2.9v1.5h2.9
			V105.4z"/>
		<path d="M221.3,106.9c0.7-0.7,1.2-1.4,1.7-2.3h-1.8v-0.4h2.5c-0.5,1-1,1.9-1.7,2.7h1.7c-0.2,0.8-0.4,1.5-0.8,2.2
			c0.9,1.1,2.3,1.8,3.7,1.8h4.1h0.7c0,0.2-0.1,0.3-0.2,0.5h-4.9c-1.4-0.2-2.6-0.8-3.6-1.9c-0.5,0.7-1,1.4-1.6,2.1
			c-0.1-0.1-0.2-0.2-0.3-0.3c1.1-1.1,1.9-2.5,2.3-4h-1.8L221.3,106.9L221.3,106.9z M222.7,103.2c-0.3-0.6-0.7-1.2-1-1.8
			c0.1-0.1,0.3-0.1,0.4-0.2c0.4,0.6,0.7,1.2,1,1.8L222.7,103.2z M224.6,109.6c0.2,0,0.4,0,0.7,0c0.2,0,0.3-0.1,0.3-0.3l0,0v-2.9
			c-0.4,0.2-0.8,0.4-1.2,0.6l-0.2-0.4c0.5-0.2,1-0.4,1.5-0.7v-2.3h-1.3v-0.4h1.3V101h0.4v2.3h1.4v0.4H226v2.1h0.1
			c0.4-0.2,0.9-0.4,1.3-0.6v0.5l-1.4,0.7v3.2c0,0.3-0.2,0.5-0.5,0.5s-0.5,0-0.8,0L224.6,109.6z M226.7,109.8
			c0.7-0.9,1.1-2.1,1.2-3.2V102c1.1-0.1,2.2-0.4,3.3-0.8l0.1,0.1c0.1,0.1,0.1,0.1,0.2,0.2c-1,0.4-2,0.6-3.1,0.8v2h3.1v0.4h-1.1v5.4
			H230v-5.4h-1.6v2.1c-0.1,1.2-0.6,2.3-1.3,3.3L226.7,109.8z"/>
		<path d="M236.5,109.7c0.2-0.2,0.4-0.4,0.6-0.7c1.4-1.3,2.4-3.1,2.8-5h-3v-0.4h3.6c-0.2,1.6-0.8,3.2-1.9,4.5
			c-0.5,0.7-1.1,1.3-1.7,1.9L236.5,109.7z M242,102.2c0.3,1,0.7,2,1.2,2.9c1-0.6,1.9-1.3,2.8-2l0.4,0.3c-0.9,0.8-1.9,1.5-3,2.2
			c1,1.6,2.2,3,3.7,4.2l-0.4,0.4c-2.2-1.8-3.9-4.2-4.8-6.9v7.6c0,0.3-0.2,0.6-0.5,0.7c-0.5,0.1-0.9,0.1-1.4,0l-0.2-0.5
			c0.4,0,0.8,0,1.2,0c0.2,0,0.4-0.2,0.4-0.4v-10c0.2,0,0.4,0,0.5,0L242,102.2z"/>
		<path d="M258,105c0.2,0.8-0.1,1.7-0.7,2.2l-0.3-0.3c0.3-0.2,0.5-0.5,0.6-0.9H257v-1L258,105z"/>
		<path d="M269.5,110.4v1.1H269v-8.8h2.6c0.4-0.7,0.8-1.4,1.1-2.2l0.5,0.2c-0.3,0.7-0.6,1.4-1,2h4.7v8.8h-0.5v-1.1H269.5z
			 M276.2,106v-2.9h-6.8v2.8L276.2,106z M269.4,106.5v3.5h6.8v-3.5H269.4z"/>
		<path d="M29.7,128.6c-1.6-0.3-3.1-0.7-4.6-1.3c-1.6,0.7-3.3,1.1-5.1,1.3l-0.2-0.5c1.7-0.2,3.3-0.6,4.8-1.1c-0.8-0.4-1.5-0.9-2-1.5
			c-1,0.9-2.1,1.6-3.3,2l-0.3-0.4c1.4-0.5,2.7-1.4,3.8-2.5h-3.5v-0.4h3.8c0.2-0.3,0.4-0.6,0.6-0.9l0.4,0.2c-0.1,0.2-0.3,0.5-0.4,0.7
			h6.1v0.4h-6.4l-0.4,0.5c0.6,0.7,1.3,1.2,2.1,1.6c0.8-0.4,1.5-1,2-1.7l0.4,0.2c-0.5,0.7-1.2,1.3-1.9,1.7c1.4,0.6,2.9,0.9,4.4,1.2
			L29.7,128.6z M21.7,121.7c-0.4,0.4-0.9,0.8-1.4,1.2l3.3-0.3c-0.3-0.2-0.5-0.4-0.8-0.5l0.3-0.3c0.6,0.4,1.2,0.8,1.7,1.3l-0.3,0.3
			L24,123c-1.4,0.1-2.6,0.2-4.1,0.4l-0.1-0.4c0.5-0.4,1-0.8,1.5-1.2h-2.1v-0.4h1.3v-3h4.2v0.4H21v0.6h3.2v0.4H21v0.6h3.2v0.4H21v0.7
			h4v0.4L21.7,121.7z M25.2,119.7l-0.3-0.4c1.3-0.4,2.5-1,3.6-1.7l0.3,0.3C27.7,118.7,26.5,119.3,25.2,119.7L25.2,119.7z
			 M25.3,123.2l-0.2-0.4c1.5-0.5,3-1.1,4.3-2l0.3,0.3C28.3,122.1,26.9,122.8,25.3,123.2L25.3,123.2z M25.6,121.2l-0.3-0.4
			c1.2-0.4,2.4-1,3.5-1.6l0.2,0.3C28,120.3,26.8,120.9,25.6,121.2L25.6,121.2z M27.4,124.1c-0.3-0.3-0.7-0.6-1.1-0.8l0.3-0.3
			c0.4,0.2,0.8,0.5,1.1,0.8L27.4,124.1z"/>
		<path d="M36.5,122.7c-0.5-0.6-1.1-1.2-1.8-1.7l0.3-0.3c0.7,0.5,1.3,1.1,1.8,1.7L36.5,122.7z M35,128.4l-0.4-0.3
			c1-1.4,1.8-2.8,2.5-4.4l0.3,0.3C36.8,125.5,36,127,35,128.4z M37.2,120.3c-0.6-0.7-1.2-1.4-1.8-2l0.3-0.3c0.7,0.6,1.3,1.3,1.9,2
			L37.2,120.3z M37.2,128.5l-0.4-0.3c0.6-0.7,1.1-1.5,1.5-2.3l0.4,0.2C38.3,127,37.8,127.8,37.2,128.5L37.2,128.5z M38.6,125.3v-4.2
			c-0.4,0.4-0.7,0.8-1.1,1.3l-0.4-0.3c1.3-1.3,2.4-2.8,3.3-4.5l0.4,0.2c-0.2,0.3-0.4,0.7-0.5,1h2.9v0.4c-0.3,0.5-0.7,1-1.1,1.4h2.2
			v4.6L38.6,125.3z M40,119.3c-0.3,0.5-0.7,1-1,1.4h2.5c0.4-0.4,0.8-0.9,1.2-1.4H40z M41.2,123.2H39v1.7h2.2V123.2z M41.2,121.2
			h-2.1v1.6h2.2L41.2,121.2z M40.2,128.4c-0.1-0.7-0.3-1.5-0.5-2.2l0.5-0.1c0.2,0.7,0.4,1.4,0.5,2.1L40.2,128.4z M42.5,128.3
			c-0.2-0.6-0.5-1.3-0.8-2.1L42,126c0.4,0.7,0.7,1.4,1,2.1L42.5,128.3z M43.8,121.2h-2.1v1.6h2.1V121.2z M43.8,123.2h-2.1v1.7h2.1
			V123.2z M45,128.4c-0.4-0.8-0.9-1.6-1.4-2.3l0.3-0.3c0.5,0.7,1,1.5,1.4,2.3L45,128.4z"/>
		<path d="M52.4,120.5v8h-0.5v-6.2c-0.3,1.2-0.8,2.3-1.4,3.4c-0.1-0.1-0.3-0.2-0.5-0.3c0.9-1.5,1.5-3.1,1.8-4.8h-1.7v-0.4h1.8v-2.5
			h0.5v2.5h1.4v0.4L52.4,120.5z M53.7,123.7c-0.3-0.6-0.7-1.2-1.2-1.8l0.3-0.2c0.5,0.5,0.9,1.1,1.2,1.7L53.7,123.7z M53.4,128.4
			l-0.4-0.2c0.7-0.7,1.2-1.4,1.6-2.3l0.4,0.2C54.5,127,54,127.8,53.4,128.4z M55.1,125.4v0.4h-0.5v-5.2c-0.3,0.5-0.6,1-1,1.4
			l-0.4-0.3c1-1.2,1.9-2.6,2.4-4.1l0.4,0.2c-0.2,0.6-0.5,1.2-0.8,1.8h5.3v0.5h-2.9v1.3H60v0.4h-2.4v1.4H60v0.4h-2.4v1.4h3v0.4
			L55.1,125.4z M57.2,120h-2v1.3h2V120z M57.2,121.7h-2v1.4h2V121.7z M57.2,123.6h-2v1.4h2V123.6z M56.2,128.2
			c-0.1-0.7-0.2-1.4-0.5-2.1l0.5-0.1c0.2,0.7,0.4,1.4,0.5,2.1L56.2,128.2z M57.7,119.4c-0.3-0.5-0.7-1-1.1-1.5
			c0.1-0.1,0.2-0.2,0.3-0.3c0.4,0.4,0.8,0.9,1.1,1.4C57.9,119.2,57.8,119.3,57.7,119.4L57.7,119.4z M58.2,128.2
			c-0.2-0.7-0.5-1.4-0.8-2.1c0.1-0.1,0.2-0.1,0.4-0.2c0.4,0.7,0.6,1.4,0.8,2.1L58.2,128.2z M60.5,128.4c-0.4-0.8-0.8-1.6-1.4-2.3
			c0.1-0.1,0.2-0.2,0.3-0.2c0.6,0.7,1.1,1.5,1.5,2.3C60.8,128.3,60.7,128.4,60.5,128.4L60.5,128.4z"/>
		<path d="M67.2,126.6l-1.1,1.9l-0.4-0.3c0.9-1.5,1.7-3.1,2.3-4.8l0.4,0.3C68.1,124.7,67.7,125.7,67.2,126.6z M67.7,122.5
			c-0.6-0.6-1.2-1.1-1.9-1.6l0.3-0.4c0.7,0.5,1.3,1,1.9,1.6L67.7,122.5z M68.1,119.9c-0.5-0.6-1.1-1.1-1.7-1.6l0.4-0.3
			c0.6,0.5,1.2,1,1.7,1.6L68.1,119.9z M68.4,127.3v-0.4H72v-7.1h-3v-0.4h6.7v0.4h-3.2v7.1h3.8v0.4H68.4z"/>
		<path d="M84,123.9c-0.6,1.6-1.4,3-2.3,4.5c-0.1-0.1-0.2-0.2-0.4-0.3c0.9-1.4,1.7-2.8,2.3-4.4C83.7,123.7,83.8,123.8,84,123.9z
			 M83,122.7c-0.5-0.6-1.1-1.2-1.7-1.8l0.3-0.3c0.6,0.6,1.2,1.2,1.7,1.8L83,122.7z M83.8,120.2c-0.5-0.7-1.1-1.3-1.7-1.9l0.3-0.3
			c0.6,0.6,1.2,1.3,1.7,2L83.8,120.2z M86.6,128.6h-0.5v-4.7c-0.6,0.5-1.3,0.9-2,1.3c-0.1-0.1-0.2-0.2-0.3-0.4
			c1.5-0.9,3-1.9,4.3-3.1h-3.9v-0.4h3.2v-1.7H85v-0.4h2.4v-1.5h0.5v1.5h1.9v0.4h-1.9v1.7h0.6c0.9-1,1.8-2,2.5-3.1
			c0.1,0.1,0.3,0.1,0.3,0.2c-0.7,1-1.4,2-2.2,2.9H92v0.4h-3.2c-0.5,0.5-1.1,1-1.7,1.4h3.6v5.4h-0.5v-0.9h-3.6
			C86.6,127.6,86.6,128.6,86.6,128.6z M86.6,123.6v1.5h3.6v-1.5H86.6z M90.2,125.6h-3.6v1.6h3.6V125.6z"/>
		<path d="M106.5,122.1v0.4h-4.6v5.2h5.5v0.5H96.9v-0.5h4.5V118h0.5v4.1H106.5z"/>
		<path d="M118.2,122c0.2,0.8-0.1,1.7-0.8,2.2l-0.3-0.3c0.3-0.2,0.5-0.5,0.6-0.9h-0.6v-1L118.2,122z"/>
		<path d="M138.1,120.3v0.4h-4.8v2.7h3.2v5H136v-0.9h-5.8v0.9h-0.5v-5h3.1v-2.7h-4.7v-0.4h4.7v-2.8h0.5v2.8L138.1,120.3z M136,123.9
			h-5.8v3.2h5.8V123.9z"/>
		<path d="M153.9,122.7c-2.1-1-3.9-2.4-5.3-4.2c-1.4,1.8-3.1,3.3-5,4.5l-0.4-0.4c2.2-1.3,4-3,5.4-5.1l0.4,0.2
			c-0.1,0.1-0.2,0.2-0.2,0.3c1.4,1.8,3.2,3.3,5.3,4.2L153.9,122.7z M149.2,128.3l2.2-3.9h-5.9V124h6.6c-0.9,1.7-1.7,3.3-2.4,4.6
			L149.2,128.3z M146.2,122.3v-0.4h5.1v0.4H146.2z"/>
		<path d="M159.6,124l-0.4-0.4c1.4-0.5,2.7-1.1,3.9-1.8c-0.4-0.4-0.9-0.8-1.4-1.1l0.4-0.3c0.5,0.4,1,0.8,1.5,1.2
			c0.5-0.3,0.9-0.6,1.4-1s0.9-0.8,1.3-1.2h-4.1c-0.7,0.6-1.5,1.1-2.3,1.6l-0.4-0.3c1.5-0.8,2.8-1.8,3.9-3l0.4,0.2
			c-0.3,0.4-0.7,0.8-1.1,1.2h4.3v0.4C165,121.5,162.5,123.1,159.6,124z M159.6,128.5l-0.3-0.5c2.1-0.2,4.2-0.8,6-1.8
			c-0.5-0.4-1-0.9-1.5-1.3l0.4-0.3c0.5,0.4,1.1,0.8,1.6,1.3c1.1-0.8,2-1.7,2.8-2.7h-3.5c-1.2,0.9-2.4,1.6-3.7,2.3
			c-0.1-0.1-0.3-0.2-0.4-0.4c1.9-0.9,3.6-2.1,5.1-3.6l0.5,0.2c-0.3,0.4-0.6,0.7-0.9,1h3.6v0.5C166.9,126.3,164.7,127.8,159.6,128.5
			L159.6,128.5z"/>
		<path d="M183.2,123.3c0.1,0.1,0.3,0.2,0.4,0.3c-0.6,0.7-1.2,1.3-1.9,1.9c-1.9,1.6-4.1,2.7-6.5,3.4l-0.5-0.4c3-0.8,5.8-2.3,8-4.6
			L183.2,123.3z M177.7,120.4c-0.6,1.2-1.3,2.3-2.2,3.3l-0.5-0.2c0.9-1.1,1.6-2.2,2.3-3.4L177.7,120.4z M180.2,124.4
			c0,0.2-0.2,0.5-0.4,0.6c-0.5,0.1-1,0.1-1.6,0.1l-0.2-0.5c0.4,0.1,0.9,0.1,1.3,0c0.3-0.1,0.3-0.3,0.3-0.5v-6.2h0.5L180.2,124.4
			L180.2,124.4z M184.8,123c-0.8-1-1.7-1.9-2.6-2.8l0.4-0.3c0.9,0.8,1.8,1.7,2.6,2.7L184.8,123z"/>
		<path d="M195.5,118.7h4.7v0.4h-4.7v0.9h3.4v1.9h-3.4v1h3.6v1.4h1.4v0.4h-1.4v2h-0.5v-0.6h-3.1v1.8c0,0.3-0.2,0.5-0.4,0.5
			c-0.4,0.1-0.8,0.1-1.1,0.1l-0.2-0.5c0.4,0,0.7,0,1.1,0c0.1,0,0.2-0.1,0.2-0.2l0,0V126h-3.6v-0.4h3.5v-1h-4.8v-0.4h4.8v-0.9h-3.6
			V123h3.6v-1h-3.3v-1.8h3.3v-0.9h-4.5v-0.4h4.5v-1.2h0.5V118.7z M192.2,120.6v1h2.8v-1H192.2z M195.5,121.6h2.9v-1h-2.9V121.6z
			 M195.5,123.4v0.9h3.1v-0.9H195.5z M198.6,124.8h-3.1v1h3.1V124.8z"/>
		<path d="M211.4,122c0.2,0.8-0.1,1.7-0.8,2.2l-0.3-0.3c0.3-0.2,0.5-0.5,0.6-0.9h-0.6v-1L211.4,122z"/>
		<path d="M221.1,124.5c1.2-0.8,2.4-1.7,3.5-2.7h-3.3v-0.4h2.7v-1.7h-2.2v-0.4h2.2v-1.7h0.5v1.6h1.7v0.4h-1.7v1.7h0.5
			c0.9-0.9,1.6-1.8,2.3-2.8c0.1,0.1,0.3,0.2,0.4,0.2c-0.6,0.9-1.2,1.8-2,2.6h2v0.4h-2.5c-0.5,0.5-1,0.9-1.5,1.4h3v5.1h-0.5v-0.8h-3
			v1.1h-0.5V124l-1.3,0.9L221.1,124.5z M223.4,123.7v1.4h3v-1.4H223.4z M223.4,125.5v1.5h3v-1.5H223.4z M230.4,121.9
			c0.9,0.8,1.4,1.9,1.5,3.1c0,0.6-0.3,1.1-0.8,1.3c-0.4,0.2-0.9,0.3-1.3,0.2c-0.1-0.2-0.2-0.4-0.3-0.6c0.5,0.2,1.1,0.1,1.6-0.2
			c0.4-0.5,0.5-1.2,0.1-1.7c-0.3-0.7-0.8-1.4-1.3-2l1.2-3.3H229v9.9h-0.5v-10.3h3.4L230.4,121.9z"/>
		<path d="M238.4,120.6c-0.4,0.9-0.9,1.7-1.5,2.5l-0.4-0.3c1.1-1.7,2.1-3.5,2.7-5.4l0.4,0.4l-0.7,1.7v9h-0.5V120.6z M243.6,128
			c0.3,0,0.7,0,1,0c0.1,0,0.4-0.1,0.4-0.3v-6.6h-5v-0.5h5v-3.1h0.5v3.1h1.7v0.5h-1.7v6.8c0,0.2-0.1,0.5-0.3,0.6
			c-0.4,0.1-0.8,0.1-1.3,0.1L243.6,128z M243,125.3c-0.6-0.8-1.3-1.6-2-2.3l0.4-0.3c0.7,0.7,1.4,1.5,2,2.3L243,125.3z"/>
		<path d="M252.2,120.5c0.9-0.9,1.6-1.9,2.2-2.9c0.1,0.1,0.3,0.1,0.4,0.2l-0.7,1.1h3.7v0.4h-2.4l0.8,1.2c-0.1,0.1-0.3,0.2-0.4,0.2
			c-0.2-0.5-0.5-0.9-0.8-1.4h-1.2c-0.4,0.5-0.9,1-1.3,1.5L252.2,120.5z M252.2,128c3-1.2,4.1-2.1,4.8-3.5h-4.6v-0.4h4.8
			c0.1-0.7,0.2-1.3,0.1-2c-1,0.1-2.5,0.2-3.5,0.2l-0.3-0.4c2.4,0,4.9-0.3,7.3-0.8l0.4,0.4c-1,0.2-2.3,0.4-3.3,0.6
			c0,0.7,0,1.4-0.2,2.1h5v0.4H258c1,1.8,2.8,3.1,4.8,3.6l-0.2,0.4c-2.1-0.6-3.9-2-5-3.8c-1,1.9-2.5,2.7-4.9,3.7L252.2,128z
			 M257,120.5c0.9-0.9,1.7-2,2.3-3.1l0.4,0.2c-0.2,0.4-0.5,0.8-0.7,1.2h3.5v0.4h-1.9c0.3,0.4,0.5,0.8,0.8,1.2
			c-0.2,0-0.3,0.2-0.5,0.2c-0.2-0.5-0.5-0.9-0.8-1.4h-1.4c-0.4,0.5-0.8,1-1.3,1.5L257,120.5z"/>
		<path d="M271.7,120.1h-4.2v-0.4h4.2V120.1z M268.1,123v-0.5h3.1v0.5H268.1z M268.1,121.5v-0.4h3v0.4H268.1z M271,124.2v3.8h-0.5
			v-0.6h-1.8v1.1h-0.5v-4.2L271,124.2z M268.7,124.7v2.2h1.8v-2.2H268.7z M269.2,117.6c0.4,0.5,0.7,1,1,1.6l-0.4,0.2
			c-0.1-0.2-0.2-0.3-0.3-0.5c-0.2-0.4-0.4-0.7-0.7-1.1L269.2,117.6z M278,128.6c-1.3-0.7-3-2.1-3.3-3.8c-0.2,1.7-2,3.1-3.4,3.8
			c-0.1-0.1-0.2-0.2-0.3-0.4c1.3-0.5,2.4-1.5,3.1-2.8c0.4-1,0.6-2.1,0.6-3.1l0.5,0.1c0,0.6-0.1,1.1-0.2,1.7c0.4,1.8,1.7,3.3,3.4,4.1
			L278,128.6z M275.2,117.6c0,0.1,0,0.2,0,0.2c0,0.9-0.1,1.8-0.4,2.7l0.1,0.1c1.1,0.6,2.1,1.4,3.1,2.2l-0.3,0.4l0,0
			c-0.9-0.9-1.9-1.6-3-2.2c-0.6,1.1-1.6,1.9-2.7,2.5l0,0l-0.3-0.3c1.3-0.5,2.3-1.6,2.9-2.9c0.2-0.8,0.3-1.7,0.3-2.6L275.2,117.6z
			 M271.6,125.7c0.4-0.7,0.8-1.4,1.1-2.2l0.4,0.2c-0.3,0.8-0.7,1.5-1.1,2.3L271.6,125.7z M271.9,120.7c0.5-0.7,0.8-1.4,1.1-2.2
			l0.4,0.2c-0.3,0.8-0.6,1.5-1.1,2.2L271.9,120.7z M276.1,120.6c0.4-0.7,0.8-1.4,1.1-2.1c0.1,0,0.3,0.1,0.4,0.2
			c-0.3,0.7-0.7,1.4-1,2.1L276.1,120.6z M276.1,125.6c0.4-0.7,0.8-1.4,1.1-2.1l0.4,0.2c-0.3,0.7-0.7,1.4-1.1,2.2L276.1,125.6z"/>
		<path d="M23.8,141.2h-3.5v1h-0.6V137h4v-2.4h0.6v2.4h4.1v5h-0.6v-0.8h-3.5v4.5h-0.6v-4.5H23.8z M20.3,137.6v3.1h3.4v-3.1H20.3z
			 M24.3,137.6v3.1h3.6v-3.1H24.3z"/>
		<path d="M38.5,140.1c0-0.8,0.7-1.5,1.5-1.5s1.5,0.7,1.5,1.5s-0.7,1.5-1.5,1.5l0,0C39.2,141.6,38.5,141,38.5,140.1L38.5,140.1z
			 M41.1,140.1c0-0.6-0.5-1.1-1.1-1.1s-1.1,0.5-1.1,1.1s0.5,1.1,1.1,1.1C40.6,141.2,41.1,140.7,41.1,140.1L41.1,140.1z"/>
		<path d="M20.8,173.7c-0.5-0.6-1.1-1.2-1.7-1.7l0.4-0.3c0.6,0.6,1.2,1.1,1.7,1.8L20.8,173.7z M19.5,179.2c-0.1-0.1-0.3-0.2-0.4-0.3
			c1-1.3,1.8-2.8,2.4-4.4c0.1,0.1,0.3,0.2,0.4,0.3C21.3,176.4,20.5,177.8,19.5,179.2z M21.6,170.3l0.4,0.5c-0.1,0.1-0.2,0.2-0.4,0.3
			c-0.5-0.7-1.1-1.3-1.7-1.8l0.3-0.3L21.6,170.3z M26.3,178l-2.5,1l-1,0.4l-0.2-0.4l1-0.4v-1.8l0,0c-0.7,0.4-1.3,0.7-2,1
			c-0.1-0.1-0.2-0.2-0.3-0.4c1.4-0.5,2.7-1.3,3.7-2.3h-1.6v-2.4c-0.4,0.2-0.9,0.4-1.3,0.6l-0.3-0.4c0.1-0.1,0.3-0.1,0.4-0.2
			c1.1-0.4,2-1.2,2.5-2.2h-2.6V170h3.5c-0.3-0.4-0.5-0.8-0.8-1.2c0.1-0.1,0.2-0.2,0.4-0.3c0.4,0.5,0.7,1,1,1.5h3.6v0.4H27v0.9
			c0,0.1,0.1,0.3,0.3,0.3h0.3h2v0.4h-2.4c-0.3,0-0.5-0.2-0.6-0.5c-0.1-0.4-0.1-0.8-0.1-1.2h-1.3c-0.3,0.9-0.9,1.7-1.7,2.1h4.8v2.5
			h-2.2c0.2,0.6,0.4,1.2,0.8,1.8H27c0.7-0.5,1.4-1.1,2-1.7c0.1,0.1,0.3,0.2,0.4,0.3c-0.7,0.6-1.4,1.2-2.1,1.8c0.7,0.9,1.7,1.6,2.8,2
			c0,0.1-0.2,0.2-0.3,0.4c-0.8-0.3-1.5-0.8-2.2-1.3c-0.9-0.9-1.6-2-1.9-3.2c-0.4,0.5-0.9,1-1.4,1.3v2l2.2-0.8L26.3,178z M27.7,173
			h-3.9v1.5h3.9V173z"/>
		<path d="M36.3,173.7c-0.5-0.6-1.1-1.2-1.7-1.7l0.3-0.3c0.6,0.6,1.2,1.1,1.7,1.8L36.3,173.7z M35,179.2c-0.1-0.1-0.3-0.2-0.4-0.3
			c1-1.4,1.8-2.8,2.4-4.4c0.1,0.1,0.2,0.2,0.3,0.3C36.8,176.4,36,177.8,35,179.2z M37.1,170.3l0.4,0.5c-0.1,0.1-0.2,0.2-0.4,0.3
			c-0.5-0.7-1.1-1.3-1.7-1.8l0.3-0.3L37.1,170.3z M41.8,178l-2.6,1l-0.9,0.4l-0.2-0.4l1-0.4v-1.9H39c-0.7,0.4-1.3,0.7-2.1,1
			c-0.1-0.1-0.2-0.2-0.2-0.4c1.4-0.4,2.7-1.2,3.7-2.3h-1.6v-2.4c-0.4,0.2-0.9,0.4-1.3,0.6l-0.3-0.4c0.1-0.1,0.3-0.1,0.5-0.2
			c1.1-0.4,2-1.2,2.5-2.2h-2.6V170h3.5c-0.3-0.4-0.5-0.8-0.8-1.2c0.1-0.1,0.2-0.2,0.4-0.3c0.4,0.5,0.7,1,1,1.5h3.6v0.4h-2.8v0.9
			c0,0.1,0.1,0.3,0.3,0.3h0.3h2v0.4h-2.4c-0.3,0-0.5-0.2-0.6-0.5c-0.1-0.4-0.1-0.8-0.1-1.2h-1.3c-0.3,0.9-0.9,1.7-1.7,2.2h4.8v2.4
			h-2.2c0.2,0.6,0.4,1.2,0.8,1.8h0.1c0.7-0.5,1.4-1.1,2-1.7c0.1,0.1,0.3,0.2,0.4,0.3c-0.7,0.6-1.4,1.2-2.2,1.8
			c0.7,0.9,1.7,1.6,2.8,2c0,0.1-0.2,0.2-0.3,0.4c-0.8-0.3-1.5-0.8-2.1-1.4c-0.9-0.8-1.6-1.9-1.9-3.1c-0.4,0.5-0.9,1-1.4,1.3v2
			l2.2-0.8L41.8,178z M43.2,173h-3.9v1.5h3.9V173z"/>
		<path d="M55.5,174.3c0.3,0.7,0.8,1.4,1.4,2c0.7-0.4,1.4-0.9,2-1.5l0.4,0.3c-0.6,0.6-1.3,1.1-2.1,1.5c1.1,0.9,2.3,1.6,3.6,2
			c-0.1,0.2-0.2,0.3-0.3,0.4c-1.9-0.6-3.6-1.9-4.8-3.5c-0.2-0.4-0.5-0.8-0.7-1.3h-1.9v3.5l2.9-0.8v0.5l-2.7,0.8l-2.1,0.6l-0.3-0.5
			c0.5-0.1,1.1-0.2,1.6-0.4v-3.7h-2.3v-0.4h2.2v-4.7h6.8v0.4H53v1.1h5.6v0.4H53v1.1h5.7v0.4h-5.6v1.3h7.5v0.4L55.5,174.3z"/>
		<path d="M67.2,177.6l-1.1,1.9l-0.4-0.3c0.9-1.5,1.7-3.1,2.3-4.8l0.4,0.3C68.1,175.7,67.7,176.7,67.2,177.6z M67.7,173.5
			c-0.6-0.6-1.2-1.1-1.9-1.6l0.3-0.4c0.7,0.5,1.3,1,1.9,1.6L67.7,173.5z M68.1,170.9c-0.5-0.6-1.1-1.1-1.7-1.6l0.4-0.4
			c0.6,0.5,1.2,1,1.7,1.6L68.1,170.9z M68.4,178.3v-0.4H72v-7.1h-3v-0.4h6.7v0.4h-3.2v7.1h3.8v0.4H68.4z"/>
		<path d="M82.9,171.2h3.3V170h-4.7v-0.5h4.7v-1.1h0.5v1.1h4.8v0.4h-4.8v1.1h3.4v4.1h-2.9c1.1,1.6,3,2.4,4.6,3.2l-0.3,0.4h-0.2
			c-1.7-0.9-3.6-1.8-4.7-3.5l0,0v4.1h-0.5v-4.1c-1.2,1.5-2.8,2.8-4.6,3.6l-0.4-0.3c1.7-0.8,3.2-2,4.4-3.4h-2.8v-3.9H82.9z
			 M86.2,171.6h-2.8v1.4h2.8V171.6z M83.4,173.4v1.5h2.8v-1.5H83.4z M89.6,171.6h-2.9v1.4h2.9V171.6z M89.6,173.4h-2.9v1.5h2.9
			V173.4z"/>
		<path d="M97.1,174.9c0.7-0.7,1.2-1.4,1.7-2.3H97v-0.4h2.5c-0.5,1-1,1.9-1.7,2.7h1.7c-0.2,0.8-0.4,1.5-0.8,2.2
			c0.9,1.1,2.3,1.8,3.7,1.8h4.1h0.7c-0.1,0.2-0.2,0.3-0.2,0.5h-4.9c-1.4-0.2-2.6-0.8-3.6-1.9c-0.5,0.7-1,1.4-1.6,2
			c-0.1-0.1-0.2-0.2-0.3-0.3c1.1-1.1,1.9-2.5,2.3-4h-1.8C97.1,175.2,97.1,174.9,97.1,174.9z M98.4,171.2c-0.3-0.6-0.7-1.2-1-1.8
			c0.1-0.1,0.2-0.1,0.4-0.2c0.4,0.6,0.7,1.2,1,1.8L98.4,171.2z M100.4,177.6c0.2,0,0.4,0,0.7,0c0.2,0,0.3-0.1,0.3-0.2l0,0v-2.9
			c-0.4,0.2-0.8,0.4-1.2,0.6l-0.2-0.4c0.5-0.2,1-0.4,1.5-0.6v-2.3h-1.3v-0.4h1.3V169h0.4v2.3h1.4v0.4h-1.4v2.1h0.1
			c0.4-0.2,0.9-0.4,1.3-0.6v0.5l-1.4,0.7v3.2c0,0.3-0.2,0.5-0.4,0.5c-0.3,0-0.5,0-0.8,0L100.4,177.6z M102.4,177.8
			c0.7-0.9,1.1-2.1,1.2-3.2V170c1.1-0.1,2.2-0.4,3.3-0.8l0.1,0.1l0.2,0.2c-1,0.4-2,0.6-3.1,0.8v1.9h3.1v0.4h-1.1v5.3h-0.5v-5.4h-1.5
			v2.1c-0.1,1.2-0.6,2.3-1.3,3.3L102.4,177.8z"/>
		<path d="M112.2,177.7c0.2-0.2,0.4-0.4,0.6-0.6c1.4-1.3,2.4-3.1,2.8-5h-3v-0.4h3.6c-0.2,1.6-0.8,3.2-1.9,4.5
			c-0.5,0.7-1.1,1.3-1.7,1.9L112.2,177.7z M117.8,170.2c0.3,1,0.7,1.9,1.2,2.8c1-0.6,1.9-1.3,2.8-2l0.4,0.3c-0.9,0.8-1.9,1.5-3,2.2
			c1,1.6,2.2,3,3.7,4.2l-0.4,0.4c-2.2-1.8-3.9-4.2-4.8-6.9v7.6c0,0.3-0.2,0.6-0.5,0.7c-0.4,0.1-0.9,0.1-1.4,0.1l-0.2-0.5
			c0.4,0,0.8,0,1.2,0c0.2,0,0.3-0.2,0.3-0.4v-10c0.2,0,0.4,0,0.5,0L117.8,170.2z"/>
		<path d="M133.8,173c0.2,0.8-0.1,1.7-0.8,2.2l-0.3-0.3c0.3-0.2,0.5-0.5,0.6-0.9h-0.6v-1H133.8z"/>
		<path d="M144.1,178.4l0.9-1.6c0.3-0.6,0.6-1.2,0.8-1.8l0.4,0.3c-0.6,1.5-1.4,3-2.3,4.4l-0.4-0.3L144.1,178.4z M145.9,173.7
			c-0.7-0.6-1.4-1.1-2.1-1.6l0.2-0.4c0.8,0.4,1.5,1,2.1,1.5L145.9,173.7z M146.1,171.3c-0.6-0.6-1.3-1.2-2.1-1.7l0.3-0.4
			c0.8,0.5,1.5,1.1,2.1,1.7L146.1,171.3z M153.7,179.7c-1.5-0.9-2.8-2.1-3.7-3.7c-0.2-0.4-0.3-0.8-0.4-1.2h-1.7v3.8l2.4-0.9
			c0,0.1,0,0.3,0,0.5l-3.8,1.4l-0.2-0.5c0.3-0.1,0.7-0.2,1-0.3v-8.4h2.5c-0.2-0.5-0.5-1-0.9-1.4l0.4-0.3c0.4,0.4,0.7,0.9,1,1.4
			c-0.1,0.1-0.2,0.2-0.3,0.2h2.6v4.4h-2.5c0.2,0.8,0.6,1.6,1.1,2.2v0.1c0.7-0.5,1.3-1.2,1.7-1.9l0.4,0.3c-0.5,0.8-1.1,1.5-1.8,2
			c0.7,0.8,1.5,1.5,2.5,2L153.7,179.7z M152.1,170.8h-4.2v1.5h4.2V170.8z M147.9,172.7v1.6h4.2v-1.6H147.9z"/>
		<path d="M163,172.8c-0.5,0.7-1,1.3-1.5,1.9v5H161v-4.4h-0.1c-0.6,0.6-1.2,1.2-1.8,1.7l-0.4-0.3c1.4-1,2.6-2.2,3.5-3.6l0.4-0.6
			L163,172.8z M161.8,170.9h-2.6v-0.4h2.6v-1.8h0.5v1.8h1.7v0.4h-1.8v1.4h-0.5L161.8,170.9z M169.1,174c-1.3,0.8-2.7,1.4-4.1,1.9
			v2.4c0,0.2,0.2,0.4,0.4,0.4l0,0h3c0.6,0,0.7-0.6,0.8-1l0.2-0.8l0.4,0.3c-0.1,0.5-0.2,1-0.4,1.4c-0.1,0.3-0.5,0.6-0.8,0.5H165
			c-0.3,0-0.6-0.3-0.6-0.6l0,0v-6.1h0.5v3c1.3-0.5,2.6-1,3.8-1.7L169.1,174z M166.3,172.2v-1.4h-1.7v-0.4h1.7v-1.7h0.5v1.7h2.7v0.4
			h-2.7v1.4H166.3z"/>
		<path d="M174.4,178.9c1-1.3,1.7-2.8,2.3-4.4c0.1,0.1,0.3,0.1,0.4,0.2c-0.5,1.6-1.3,3.1-2.2,4.4L174.4,178.9z M176.1,173.6
			c-0.5-0.6-1.1-1.2-1.7-1.8l0.3-0.3c0.6,0.5,1.2,1.1,1.7,1.8L176.1,173.6z M176.7,171.2c-0.4-0.6-1.2-1.4-1.7-1.9l0.3-0.3
			c0.6,0.6,1.2,1.2,1.7,1.9L176.7,171.2z M177,172.7c0.9-1.3,1.6-2.7,2.2-4.2c0.1,0,0.3,0.1,0.4,0.1c-0.2,0.6-0.5,1.2-0.8,1.8h5.7
			v3.2l-0.1,2.2c0,0.9-0.1,1.9-0.4,2.8c-0.1,0.4-0.4,0.6-0.8,0.8H183l-1.2-0.2l-0.2-0.5l1.5,0.2c0.3,0,0.5-0.2,0.6-0.4
			c0.1-0.6,0.2-1.2,0.3-1.8l0.1-1.9l0.1-2.2v-1.7h-5.4c-0.4,0.7-0.8,1.4-1.2,2.1L177,172.7z M179.7,171.4c-0.1,0.4-0.3,0.7-0.5,1
			h3.6v0.4h-2.1v1.6h2.6v0.4h-2.6v2.2h1.4v-1.8h0.5v2.8h-0.5v-0.6h-3.6v0.9H178v-3.1h0.5v1.8h1.6v-2.2h-2.8v-0.4h2.8v-1.6H179
			c-0.3,0.5-0.6,0.9-0.9,1.4c-0.1-0.1-0.3-0.1-0.4-0.2c0.7-0.9,1.2-1.8,1.6-2.8L179.7,171.4z"/>
		<path d="M200.6,178.9v0.4H190v-0.4h1.6v-2.6h7.5v2.5L200.6,178.9z M191.6,172.9v-0.4h3.5v-0.9h-5v-0.4h5v-0.8h-3.5V170h3.5v-1h0.5
			v0.9h3.3v1.3h1.7v0.4h-1.7v1.3h-3.3v0.8h4.4v0.4h-9.3v-0.4h4.4v-0.8H191.6z M191.8,174.6c-0.4,0.6-0.7,1.2-1.1,1.9
			c-0.1-0.1-0.3-0.2-0.4-0.2c0.4-0.6,0.8-1.2,1.1-1.9L191.8,174.6z M194,176.8h-1.9v2.1h1.9V176.8z M193.9,174.5
			c0.4,0.5,0.8,1,1.1,1.5l-0.4,0.2c-0.3-0.5-0.7-1-1.1-1.4L193.9,174.5z M194.5,178.9h1.8v-2.1h-1.8V178.9z M195.6,170.3v0.9h2.8
			v-0.8L195.6,170.3z M198.4,171.6h-2.8v0.9h2.8V171.6z M196.7,174.4c0,0.1,0.1,0.1,0.1,0.2l0.9,1.3l-0.4,0.3
			c-0.3-0.5-0.7-1-1.1-1.5L196.7,174.4z M196.8,178.9h1.8v-2.1h-1.8V178.9z M200.2,176.4c-0.4-0.6-0.9-1.2-1.4-1.7l0.4-0.3
			c0.5,0.5,1,1.1,1.4,1.7L200.2,176.4z"/>
		<path d="M211.4,175.8c1.2,1.6,2.8,2.7,4.7,3.3l-0.4,0.4c-2-0.6-3.7-1.9-4.9-3.7c-1,2.1-2.9,3-5.1,3.7l-0.3-0.4
			c2.2-0.6,4-1.6,4.8-3.3h-4.4v-0.4h1.3v-2.9h3.4V171h0.5v1.5h3.4v2.9h1.4v0.4L211.4,175.8z M210.5,169.8v0.4h-1.8v1.4h-0.5v-1.4
			h-2.3v-0.4h2.3v-1.2h0.5v1.2H210.5z M210.5,175.4c0.1-0.7,0.1-1.6,0.1-2.4h-2.9v2.4H210.5z M213.9,172.9H211c0,0.8,0,1.8-0.1,2.4
			h3V172.9z M215.9,169.8v0.4h-2.4v1.4H213v-1.4h-1.9v-0.4h1.9v-1.2h0.5v1.2H215.9z"/>
		<path d="M223.4,168.8c0,0.7,0,1.5-0.1,2.2h2.5v0.4h-2.6c-0.3,1.7-0.9,3.4-1.9,4.9c-0.2,0-0.3-0.1-0.5-0.2c0.7-1.1,1.2-2.2,1.6-3.5
			c0.1-0.4,0.2-0.8,0.2-1.2H221V171h1.6c0.1-0.7,0.1-1.5,0.1-2.2H223.4z M225.2,177.2c-0.1-0.4-0.3-0.8-0.5-1.2
			c0.1,0,0.3-0.1,0.4-0.1c0.5,0.9,0.9,1.9,1.2,3l-0.5,0.1c-0.1-0.4-0.2-0.9-0.4-1.4l-3.6,1.3l-0.2-0.5c0.2,0,0.5-0.1,0.7-0.2
			c0.8-1.8,1.4-3.7,1.7-5.7l0.4,0.1c-0.2,1.9-0.7,3.7-1.5,5.4L225.2,177.2z M231.4,178.4h-4.3v1.1h-0.5v-7.1
			c-0.1,0.2-0.2,0.3-0.3,0.5c-0.2,0.4-0.4,0.8-0.7,1.1l-0.4-0.1c1.1-1.6,1.8-3.4,2.1-5.4l0.4,0.1c-0.1,0.7-0.3,1.5-0.5,2.2h4.1v0.4
			h-2v1.9h1.7v0.4h-1.7v1.9h1.7v0.4h-1.7v2.2h2.1L231.4,178.4z M227.1,171.3v1.9h1.7v-1.9H227.1z M228.8,173.5h-1.7v1.9h1.7V173.5z
			 M228.8,178v-2.2h-1.7v2.2H228.8z M229.3,170.5c-0.3-0.5-0.5-1-0.8-1.5c0.1-0.1,0.2-0.1,0.4-0.2c0.3,0.5,0.6,1,0.8,1.5
			L229.3,170.5z"/>
		<path d="M240.4,174.1c0-0.8,0.7-1.5,1.5-1.5s1.5,0.7,1.5,1.5s-0.7,1.5-1.5,1.5S240.4,175,240.4,174.1z M243,174.1
			c0-0.6-0.5-1.1-1.1-1.1s-1.1,0.5-1.1,1.1s0.5,1.1,1.1,1.1C242.5,175.2,243,174.8,243,174.1C243,174.2,243,174.1,243,174.1
			L243,174.1z"/>
		<path d="M257.7,176.1v2.1c0.3,0.1,0.7,0.2,1,0.2h3l1.1-0.1l-0.3,0.6h-2.2c-2.1,0-4.2-0.3-5.5-2c-0.1-0.1-0.2-0.3-0.3-0.4
			c-0.4,1.1-1.2,2-2.1,2.8c-0.1-0.1-0.3-0.2-0.4-0.3c1.3-0.9,2.2-2.5,2.3-4.1l0.5,0.1c0,0.3-0.1,0.6-0.1,0.9c0.3,0.5,0.6,1,1,1.4
			s1,0.7,1.6,0.9v-3.8h-4.7v-0.5h10v0.5h-4.7v1.4h3.8v0.5h-4V176.1z M254.4,172.7V169h6.1v3.6L254.4,172.7z M254.9,171v1.1h5V171
			H254.9z M254.9,169.5v1.1h5v-1.1H254.9z"/>
		<path d="M268.1,179.3c1.6-0.7,2.9-1.4,3.3-3.4l-3.2,1.1l-0.2-0.5c0.8-0.2,2.2-0.7,3.5-1.1c0.1-0.5,0.1-1.1,0.1-1.6h-3.1v-0.5h3.1
			v-1.9h-3.4V171h3.4v-2.3h0.5v6.5l0.8-0.3v0.5l-0.9,0.3c-0.1,1.1-0.7,2.2-1.6,2.9c-0.5,0.4-1.1,0.8-1.8,1.1L268.1,179.3z
			 M274.1,179.7v-11h0.5v2.3h3.4v0.5h-3.4v2.1h3.1v0.5h-3.1v2.2h3.6v0.5h-3.6v2.9H274.1z"/>
		<path d="M29.1,196.1c-0.1,0.2-0.2,0.4-0.4,0.4c-0.2,0-0.4,0-0.5-0.2c-0.9-0.9-1.7-1.9-2.3-3.1c-0.9,1-2,1.9-3.1,2.7l-0.4-0.3
			l1.7-1.4c0.6-0.5,1.1-1,1.6-1.6c-0.6-1.5-0.9-3.1-1-4.7h-4.2v1.9h3.1c0,1.3-0.1,2.6-0.4,3.8c-0.1,0.3-0.3,0.5-0.7,0.6
			c-0.4,0-0.8,0-1.1,0l-0.2-0.5c0.4,0,0.8,0,1.1,0c0.5,0,0.4-0.5,0.5-0.8c0.1-0.9,0.2-1.8,0.2-2.7h-2.6c-0.1,2-0.1,4-1.1,5.7
			l-0.2,0.4c-0.2-0.1-0.3-0.1-0.5-0.2c0.9-1.6,1.3-3.5,1.2-5.3v-3.4h4.7v-2H25c0,0.7,0,1.4,0.1,2h4.1v0.4h-4c0,1.4,0.3,2.9,0.8,4.2
			c0.8-0.9,1.5-2,2.1-3.1c0.2,0.1,0.3,0.2,0.4,0.3v0.1c-0.7,1.1-1.5,2.2-2.4,3.3c0.5,1.2,1.2,2.3,2.2,3.2c0.1,0.1,0.2,0,0.2-0.1
			c0.2-0.5,0.4-1.1,0.5-1.6l0.4,0.2L29.1,196.1z M27.8,187.1c-0.5-0.4-1-0.8-1.5-1.2l0.3-0.3c0.5,0.4,1,0.8,1.5,1.2L27.8,187.1z"/>
		<path d="M37,194c-0.4,0.9-1,1.8-1.6,2.5l-0.4-0.2c0.7-0.7,1.2-1.6,1.7-2.4L37,194z M35.7,186.6h4v6.7h-4V186.6z M39.2,188.6V187
			h-3v1.6H39.2z M39.2,189h-3v1.6h3V189z M39.2,191.1h-3v1.7h3V191.1z M39.4,195.7c-0.3-0.6-0.7-1.2-1.1-1.8l0.4-0.2
			c0.4,0.6,0.8,1.1,1.1,1.7L39.4,195.7z M39.8,196.2c0.9-0.9,1.8-1.9,2.5-3c-0.5-1.1-0.9-2.3-1.2-3.5c-0.2,0.6-0.4,1.1-0.7,1.7
			l-0.5-0.1c0.9-1.8,1.4-3.7,1.6-5.7l0.5,0.1c-0.1,0.7-0.2,1.4-0.4,2.1h3.5v0.4h-0.8c0,1.7-0.4,3.4-1.4,4.9c0.7,1.1,1.5,2,2.4,2.9
			l-0.4,0.4c-0.9-0.8-1.6-1.8-2.3-2.8c-0.7,1-1.5,2-2.4,2.9L39.8,196.2z M41.6,188.3c0,0.1-0.1,0.4-0.1,0.5c0.2,1.4,0.6,2.7,1.3,3.9
			c0.8-1.3,1.2-2.9,1.2-4.4H41.6z"/>
		<path d="M57.4,196.1c0.4,0,0.7,0,1.1,0c0.2,0,0.3-0.2,0.3-0.4v-2h-3.7v0.4h-2.3v2.4h-0.5v-2.4H50v-0.4h2.3v-1.2h-1.6v-3.9h1.6
			v-1.1h-2.1v-0.4h2.1v-1.6h0.5v1.6h2.1v0.4h-2.1v1.1h1.6v3.9h-1.6v1.2h2.1v-0.4h3.9v-0.7h0.5v0.7h1.5v0.4h-1.5v2.1
			c0,0.4-0.3,0.6-0.6,0.7l0,0h-1L57.4,196.1z M52.3,189h-1.2v1.3h1.2V189z M51.2,192.1h1.2v-1.4h-1.2V192.1z M52.8,189v1.3H54V189
			H52.8z M52.8,190.7v1.4H54v-1.4H52.8z M55.5,191.1V188h2.1v-1h-2.3v-0.4h2.3v-1.1H58v1.1h2.6v0.4H58v1h2v3.1h-2v1l1.5-0.2
			c-0.1-0.1-0.2-0.2-0.4-0.3l0.3-0.3c0.4,0.4,0.7,0.8,1.1,1.2l-0.3,0.3l-0.4-0.5l-4.6,0.6l-0.1-0.5c0.9,0,1.7-0.1,2.5-0.2v-1
			L55.5,191.1z M57.1,195.5c-0.4-0.3-0.8-0.7-1.3-0.9l0.3-0.3c0.5,0.3,0.9,0.6,1.3,1L57.1,195.5z M55.9,188.4v0.9h1.6v-0.9H55.9z
			 M57.5,189.7h-1.6v1h1.6V189.7z M59.6,188.4H58v0.9h1.6V188.4z M59.6,189.7H58v1h1.6V189.7z"/>
		<path d="M67.4,195.2c-0.4,0.1-0.8,0.3-1.2,0.4l-0.3-0.4c0.7-0.2,1.4-0.4,2.1-0.6c0.5-0.9,0.9-1.8,1.2-2.7l0.5,0.2
			c-0.2,0.8-0.5,1.6-0.9,2.3h0.1l1.7-0.6c0,0.1,0,0.3,0,0.5L67.4,195.2z M66,186.8v-0.4h4.5v0.4H66z M66.4,190.9v-2.8h3.7v2.9
			L66.4,190.9z M67.4,194c-0.2-0.7-0.4-1.4-0.8-2l0.4-0.2c0.3,0.6,0.6,1.3,0.8,2L67.4,194z M69.7,188.6h-2.8v1.9h2.7L69.7,188.6z
			 M71.9,195.6l-0.9,0.7l-0.5-0.3c0.7-0.5,1.4-1.1,2-1.7l0.4,0.3C72.6,195,72.3,195.4,71.9,195.6L71.9,195.6z M76.4,186.4h-2.5
			c-0.1,0.5-0.2,0.9-0.4,1.4h2v6.1h-4.1v-6.1H73c0.2-0.4,0.4-0.9,0.4-1.4H71V186h5.4V186.4z M75,188.2h-3.1v1.4H75V188.2z M75,190.1
			h-3.1v1.4H75V190.1z M71.9,191.9v1.5H75V192L71.9,191.9z M75.7,196.3c-0.5-0.6-1.1-1.2-1.7-1.7l0.4-0.3c0.6,0.5,1.2,1.1,1.7,1.7
			C76,196.1,75.8,196.2,75.7,196.3L75.7,196.3z"/>
		<path d="M81.6,191.3c2.2-0.6,2.8-1.3,3.3-2.9l0.4,0.1c-0.5,1.4-0.8,2.4-3.4,3.2L81.6,191.3z M86.4,192.9H83v-0.5h7.4v0.5h-3.5v2.8
			h4.7v0.5h-9.9v-0.5h4.7L86.4,192.9z M90.9,188h-8.6v1.7h-0.5v-2.1h9.6v2.1h-0.5V188z M86.1,185.7c0.4,0.5,0.7,1,0.9,1.5l-0.4,0.2
			c-0.2-0.5-0.5-1-0.8-1.5L86.1,185.7z M91.3,191h-3.2c-0.6,0-0.7-0.3-0.7-0.6v-1.9h0.5v1.6c0,0.2,0.1,0.3,0.3,0.4c0,0,0,0,0.1,0h3
			L91.3,191z"/>
		<path d="M102.7,190c0.2,0.8-0.1,1.7-0.7,2.2l-0.3-0.3c0.3-0.2,0.5-0.5,0.6-0.9h-0.6v-1H102.7z"/>
		<path d="M117.9,188.1h3.7v0.4h-3.7v1.2h4.8v0.4h-10v-0.4h4.7v-1.2h-3.6v-0.4h3.6v-1h-4.2v-0.4h4.2v-1.2h0.5v1.2h4.3v0.4H118
			L117.9,188.1z M119,196c0.4,0,0.7,0,1.1,0c0.2,0,0.4-0.1,0.4-0.3l0,0v-1.3H115v2.1h-0.5V191h6.6v5c0,0.3-0.2,0.5-0.5,0.6
			c-0.4,0.1-0.9,0-1.2,0L119,196z M115,191.4v1.1h5.5v-1.1H115z M120.5,194v-1.1H115v1.1H120.5z"/>
		<path d="M136.8,194.6v-6.4h0.6v8.2h-0.6v-1.3h-7.6v1.3h-0.5v-8.2h0.5v6.4h3.6v-8.5h0.5v8.5H136.8z"/>
		<path d="M143.3,191.6c0.1-0.2,0.2-0.3,0.3-0.5l0.9-1.7l0.5-1.1l0.8-1.9l0.3-0.8c0.1,0,0.3,0.1,0.4,0.2l-1,2.6v8.2H145v-7.3
			c0,0.1-0.1,0.2-0.1,0.4l-0.9,1.6l-0.3,0.5L143.3,191.6z M153.7,196.6c-1.6-1.5-2.8-3.3-3.5-5.4c-0.2-0.8-0.4-1.7-0.5-2.5
			c-0.3,0.9-0.8,1.7-1.4,2.5v4.1h0.1l2.3-1.1v0.5c-0.5,0.2-1.1,0.5-1.6,0.8l-2,1c-0.1-0.1-0.2-0.3-0.2-0.4l0.9-0.4v-3.8
			c-0.6,0.6-1.1,1.1-1.8,1.7l-0.3-0.4c1.5-1.2,2.7-2.7,3.5-4.5h-3.1v-0.5h7.9v0.5h-3.9c0.1,1.1,0.4,2.1,0.7,3.2
			c0.8-0.5,1.6-1,2.3-1.6l0.3,0.4c-0.8,0.6-1.6,1.2-2.4,1.7c0.7,1.5,1.7,2.9,3,4L153.7,196.6z M149.1,185.7c0.5,0.6,1,1.1,1.4,1.8
			l-0.4,0.3c-0.4-0.6-0.9-1.2-1.4-1.8L149.1,185.7z"/>
		<path d="M169.1,192.1v0.4h-8v0.3h-0.5v-3.4l0,0c-0.3,0.3-0.7,0.7-1,1l-0.4-0.3c0.9-0.8,1.7-1.7,2.3-2.7l0.4,0.2
			c-0.1,0.2-0.2,0.5-0.4,0.7h2.9c-0.1-0.3-0.3-0.7-0.4-1l0.4-0.2c0.2,0.4,0.4,0.7,0.6,1.1h3.7v0.4H165v0.8h3.2v0.5H165v0.8h3.2v0.4
			H165v0.8L169.1,192.1z M161.9,185.5h0.5v1h1.6v0.4h-1.7v0.7h-0.5v-0.7h-2.3v-0.4h2.3L161.9,185.5z M167.8,195.5v-0.8h-3v-0.4h3
			v-0.7h-3.1v-0.4h3.6v3.3h-0.5V196H161v0.5h-0.5v-3.1c1.1,0,2.2-0.3,3.2-0.7l0.4,0.4c-1,0.4-2.1,0.6-3.2,0.7v0.5h2.9v0.4H161v0.9
			L167.8,195.5z M161.1,189.6h3.2v-0.8h-3.2V189.6z M164.4,190.8V190h-3.2v0.8H164.4z M161.1,192h3.2v-0.8h-3.2V192z M166.9,185.5v1
			h2.4v0.4h-2.4v0.8h-0.5v-0.8h-1.7v-0.4h1.7v-1H166.9z"/>
		<path d="M177.1,195.7v0.9h-0.5V191c-0.6,0.8-1.2,1.5-1.9,2.2l-0.4-0.3c1.5-1.4,2.7-3.1,3.5-5h-3.1v-0.4h3.2
			c0.3-0.6,0.5-1.2,0.7-1.9c0.1,0,0.3,0.1,0.4,0.1c-0.2,0.6-0.4,1.2-0.6,1.8h6.2v0.4h-6.4c-0.4,0.8-0.8,1.6-1.3,2.4v4.9h3.6v-3.5
			h-2.8v-0.5h2.8v-2.4h0.5v2.4h3.1v0.5H181v3.5h3.9v0.4L177.1,195.7z"/>
		<path d="M195.9,190c0.2,0.8-0.1,1.7-0.8,2.2l-0.3-0.3c0.3-0.2,0.5-0.5,0.6-0.9h-0.6v-1H195.9z"/>
		<path d="M211.1,185.6c0,0.7-0.1,1.4-0.1,2.1v1.8c0,0.8,0.1,1.7,0.3,2.5h4.7v0.4h-4.5c0.2,0.6,0.4,1.2,0.8,1.7
			c0.9-0.4,1.7-0.9,2.6-1.4l0.3,0.3c-0.8,0.6-1.7,1.1-2.6,1.5c0.7,0.7,1.6,1.2,2.6,1.5c0.1,0,0.2,0,0.3-0.2c0.2-0.5,0.3-1,0.4-1.5
			l0.4,0.2c-0.1,0.5-0.2,1-0.4,1.5c-0.1,0.2-0.2,0.3-0.4,0.4c-0.4,0-0.8,0-1.1-0.3c-0.9-0.3-1.6-0.8-2.3-1.5c-1.2,0.5-2.4,1-3.7,1.3
			l-0.3-0.4c1.2-0.3,2.5-0.8,3.6-1.3c-0.4-0.6-0.7-1.3-0.9-1.9h-3.1l-0.1,0.5c0.7,0.4,1.4,0.9,2.1,1.4l-0.3,0.4
			c-0.6-0.5-1.2-0.9-1.8-1.2c-0.3,1.2-1,2.2-1.9,3.1l-0.3-0.4c0.9-0.8,1.5-2,1.8-3.2l0.1-0.5h-1.6V192h1.6c0-0.3,0-0.7,0-1h0.4v1h3
			c-0.2-1.5-0.3-2.9-0.3-4.4c0-0.7,0-1.4,0.1-2H211.1z M209.4,188.9c0.4,0.7,0.7,1.4,1,2.2c-0.1,0.1-0.2,0.1-0.4,0.2l-0.3-0.7
			l-2.5,0.3l-0.9,0.1l-0.1-0.5c0.7-0.6,1.4-1.3,2.1-2c-0.6,0-1.2,0.1-1.9,0.1l-0.1-0.5c0.7-0.7,1.3-1.5,1.8-2.3l0.3,0.3
			c-0.4,0.7-0.9,1.3-1.4,1.9c-0.1,0.1-0.2,0.1-0.2,0.2c0.6-0.1,1.3-0.1,1.9-0.2l0.9-1.1l0.3,0.2c-0.9,1.1-1.8,2.1-2.9,3.1l-0.4,0.2
			c0.2,0,0.4,0,0.6-0.1l2.2-0.3l-0.5-1L209.4,188.9z M215.4,190.5l-1.8,0.2c-0.6,0.1-1.1,0.2-1.6,0.2v-0.5c0.7-0.6,1.3-1.2,1.9-1.9
			c-0.6,0-1.3,0.1-1.9,0.2l-0.1-0.6c0.7-0.7,1.3-1.5,1.8-2.3l0.4,0.3c-0.5,0.8-1.1,1.5-1.8,2.1c0.6-0.1,1.3-0.1,1.9-0.2
			c0.4-0.4,0.7-0.8,1-1.2c0.1,0.1,0.2,0.2,0.4,0.2c-0.9,1.1-1.8,2.2-2.9,3.2l-0.3,0.1c0.1,0,0.3-0.1,0.4-0.1l2.4-0.3v0.1l-0.5-0.9
			l0.4-0.2c0.4,0.7,0.8,1.4,1.1,2.1l-0.4,0.2L215.4,190.5z M214.6,191.9c-0.2-0.1-0.5-0.3-0.7-0.5l-0.6-0.3l0.2-0.3
			c0.5,0.2,0.9,0.5,1.3,0.8L214.6,191.9z"/>
		<path d="M222.6,187.2v4.8c0.1,1.6-0.4,3.2-1.3,4.5l-0.4-0.3c0.8-1.1,1.2-2.4,1.2-3.8v-5.7h4.7c-0.2-0.4-0.4-0.7-0.7-1.1l0.4-0.2
			c0.3,0.4,0.6,0.8,0.8,1.2l-0.3,0.1h4.3v0.5H222.6z M223.9,192.1h6.3c-0.7,1-1.5,1.9-2.5,2.5c1.2,0.7,2.4,1.2,3.7,1.5l-0.4,0.4
			c-1.3-0.4-2.6-0.9-3.7-1.6c-1.1,0.8-2.4,1.3-3.7,1.6l-0.3-0.4c1.3-0.2,2.5-0.7,3.6-1.4c-0.9-0.5-1.7-1.3-2.4-2.1H224L223.9,192.1z
			 M223.2,188.8h1.7v-1.1h0.5v1.1h3.5v-1.1h0.5v1.1h1.7v0.4h-1.7v2H225v-2h-1.7L223.2,188.8z M225,192.6c0.6,0.8,1.4,1.4,2.2,1.8
			c0.8-0.5,1.4-1.1,2-1.8H225z M228.9,189.3h-3.5v1.5h3.5V189.3z"/>
		<path d="M246.2,188.5c-1.1,2.3-2.7,4.4-4.7,6c-1.3,0.9-2.8,1.6-4.3,2l-0.3-0.4c2-0.5,3.9-1.6,5.4-3c-0.8-0.8-1.6-1.5-2.4-2.2
			l0.3-0.4c0.9,0.7,1.7,1.4,2.5,2.2c0.5-0.5,1-1.1,1.4-1.7c0.6-0.9,1.1-1.8,1.6-2.7h-4.4c-0.9,1.4-2.1,2.7-3.5,3.8l-0.4-0.3
			c1.7-1.3,3.1-3,4.1-4.9c0.3-0.5,0.5-0.9,0.7-1.4l0.4,0.2c-0.3,0.8-0.7,1.5-1.1,2.2h4.7V188.5z"/>
		<path d="M254.3,189.3c0.1,0.2,0.3,0.3,0.5,0.5c0.7,0.8,0.9,1.9,0.4,2.9c-0.3,0.6-1,0.5-1.6,0.5l-0.2-0.5c0.5-0.1,1.3,0.2,1.6-0.4
			c0.1-0.3,0.1-0.7,0.1-1c-0.2-0.8-0.6-1.4-1.2-1.9l1.3-3h-2v9.9h-0.5V186h3.2L254.3,189.3z M258.7,192.2c-0.5,1.1-1.4,2.1-2.5,2.7
			l-0.4-0.3c1-0.5,1.9-1.3,2.5-2.4h-1.4c-0.4,0.5-0.9,1-1.5,1.3l-0.4-0.3c1-0.5,1.8-1.4,2.2-2.4h-1.4v-0.4h6.8v0.4h-4.9
			c-0.1,0.4-0.3,0.7-0.5,1h4.8c0,1.3-0.1,2.5-0.3,3.8c-0.1,0.3-0.3,0.5-0.6,0.6c-0.4,0.1-0.9,0.1-1.3,0l-0.2-0.5
			c0.4,0,0.7,0.1,1.1,0.1c0.6,0,0.5-0.7,0.6-1.2c0.1-0.8,0.2-1.6,0.2-2.4h-1.1c-0.5,1.7-1.8,3.2-3.4,4l-0.4-0.3
			c1.5-0.8,2.7-2.1,3.3-3.7L258.7,192.2z M261.3,186v3.4h-4.5V186H261.3z M257.3,187.9v1.1h3.5v-1.1H257.3z M257.3,186.4v1h3.5v-1
			H257.3z"/>
		<path d="M267.6,196.3c0.4-0.9,0.7-1.8,0.9-2.7l0.5,0.1c-0.2,1-0.5,1.9-0.9,2.8L267.6,196.3z M268.6,192.8L268,193l-0.2-0.4
			c0.8-1,1.6-2.1,2.2-3.2c-0.7,0.1-1.4,0.2-2,0.4l-0.2-0.4c0.8-1.2,1.5-2.4,2-3.8l0.4,0.2c-0.5,1.2-1.1,2.4-1.8,3.4
			c0.6-0.1,1.3-0.2,1.9-0.3c0.3-0.5,0.6-1,0.8-1.5l0.5,0.2c-0.8,1.7-1.8,3.2-3,4.7l2.7-0.6c-0.2-0.3-0.4-0.6-0.6-0.9l0.4-0.2
			c0.5,0.7,0.9,1.4,1.3,2.1c-0.2,0.1-0.3,0.2-0.5,0.2c-0.1-0.3-0.2-0.5-0.4-0.8L268.6,192.8z M270.1,193.5c0.2,0.7,0.3,1.5,0.5,2.2
			l-0.5,0.1c-0.1-0.8-0.2-1.5-0.4-2.3H270.1z M271.6,194.8c-0.2-0.5-0.5-1-0.8-1.5l0.4-0.2c0.3,0.5,0.6,1,0.8,1.5L271.6,194.8z
			 M272.2,187.6v-0.5h5.7v0.5h-2.6v7.5h3c0,0.2,0,0.3,0,0.5h-6.4v-0.5h2.9v-7.5H272.2z"/>
		<path d="M23,208.1c0-0.8,0.7-1.5,1.5-1.5s1.5,0.7,1.5,1.5s-0.7,1.5-1.5,1.5S23,209,23,208.1z M25.6,208.1c0-0.6-0.5-1.1-1.1-1.1
			s-1.1,0.5-1.1,1.1s0.5,1.1,1.1,1.1C25.1,209.2,25.6,208.7,25.6,208.1L25.6,208.1z"/>
		<path d="M36.5,212.4v1.1H36v-8.8h2.6c0.4-0.7,0.8-1.4,1.1-2.2l0.5,0.1c-0.3,0.7-0.6,1.4-1,2.1h4.7v8.8h-0.5v-1.1L36.5,212.4z
			 M43.3,208v-2.9h-6.8v2.9H43.3z M36.5,208.5v3.5h6.8v-3.5H36.5z"/>
		<path d="M60.8,213.6c-1.6-0.3-3.1-0.7-4.6-1.3c-1.6,0.7-3.3,1.1-5.1,1.3l-0.2-0.5c1.7-0.2,3.3-0.6,4.8-1.2c-0.8-0.4-1.5-0.9-2-1.5
			c-1,0.9-2.1,1.6-3.3,2.1l-0.3-0.4c1.4-0.5,2.7-1.4,3.8-2.5h-3.5v-0.4h3.8c0.2-0.3,0.4-0.6,0.6-0.9l0.4,0.2
			c-0.1,0.2-0.3,0.5-0.4,0.7H61v0.4h-6.4l-0.4,0.5c0.6,0.7,1.3,1.2,2.2,1.6c0.8-0.4,1.5-1,2-1.7l0.4,0.2c-0.5,0.7-1.2,1.3-1.9,1.7
			c1.4,0.6,2.9,0.9,4.4,1.2L60.8,213.6z M52.8,206.7c-0.4,0.4-0.9,0.8-1.3,1.2l3.3-0.3c-0.2-0.2-0.5-0.4-0.8-0.5l0.2-0.3
			c0.6,0.4,1.2,0.8,1.7,1.3l-0.3,0.3l-0.5-0.5c-1.4,0.1-2.6,0.2-4.1,0.4l-0.1-0.4c0.5-0.4,1-0.8,1.5-1.2h-2.1v-0.4h1.3v-3h4.2v0.4
			H52v0.6h3.2v0.4H52v0.6h3.2v0.4H52v0.7h4v0.4L52.8,206.7z M56.2,204.7l-0.3-0.4c1.3-0.4,2.5-1,3.6-1.7l0.3,0.3
			C58.8,203.7,57.5,204.3,56.2,204.7L56.2,204.7z M56.4,208.2l-0.2-0.4c1.5-0.5,3-1.1,4.3-2l0.3,0.3
			C59.4,207.1,57.9,207.8,56.4,208.2L56.4,208.2z M56.7,206.3l-0.3-0.4c1.2-0.4,2.4-1,3.5-1.6l0.2,0.3
			C59,205.3,57.9,205.9,56.7,206.3L56.7,206.3z M58.4,209.1c-0.3-0.3-0.7-0.6-1.1-0.8l0.3-0.3c0.4,0.2,0.8,0.5,1.1,0.8L58.4,209.1z"
			/>
		<path d="M67.5,207.7c-0.5-0.6-1.1-1.2-1.8-1.7l0.3-0.3c0.7,0.5,1.3,1.1,1.8,1.7L67.5,207.7z M66.1,213.4l-0.4-0.3
			c1-1.4,1.8-2.8,2.5-4.4l0.3,0.3C67.9,210.5,67,212,66.1,213.4L66.1,213.4z M68.2,205.3c-0.6-0.7-1.2-1.4-1.8-2l0.3-0.3
			c0.7,0.6,1.3,1.3,1.8,2L68.2,205.3z M68.2,213.5l-0.4-0.3c0.6-0.7,1.1-1.5,1.5-2.3l0.4,0.2C69.3,212,68.9,212.8,68.2,213.5
			L68.2,213.5z M69.7,210.3v-4.1c-0.4,0.4-0.7,0.8-1.1,1.3l-0.4-0.3c1.3-1.3,2.4-2.8,3.3-4.5l0.4,0.2c-0.2,0.4-0.4,0.7-0.6,1h2.9
			v0.4c-0.3,0.5-0.6,1-1,1.4h2.2v4.6L69.7,210.3z M71,204.3c-0.3,0.5-0.7,1-1,1.4h2.5c0.4-0.4,0.8-0.9,1.2-1.4H71z M72.3,208.2h-2.2
			v1.7h2.2V208.2z M72.3,206.2h-2.2v1.6h2.2V206.2z M71.3,213.3c-0.1-0.7-0.3-1.5-0.5-2.2l0.4-0.1c0.2,0.7,0.4,1.4,0.5,2.1
			L71.3,213.3z M73.5,213.3c-0.2-0.7-0.5-1.4-0.8-2.1l0.4-0.2c0.3,0.7,0.6,1.4,0.9,2.1L73.5,213.3z M74.9,206.2h-2.1v1.6h2.1V206.2z
			 M74.9,208.2h-2.1v1.7h2.1V208.2z M76.1,213.4c-0.4-0.8-0.9-1.6-1.4-2.3l0.3-0.3c0.5,0.7,1,1.5,1.4,2.3L76.1,213.4z"/>
		<path d="M83.4,205.5v8H83v-6.2c-0.3,1.2-0.8,2.3-1.4,3.4c-0.1-0.1-0.3-0.2-0.4-0.3c0.9-1.5,1.5-3.1,1.8-4.8h-1.8v-0.4H83v-2.5h0.5
			v2.5h1.4v0.4L83.4,205.5L83.4,205.5z M84.7,208.7c-0.3-0.6-0.7-1.2-1.2-1.8l0.3-0.2c0.5,0.5,0.9,1.1,1.2,1.7L84.7,208.7z
			 M84.4,213.4l-0.4-0.2c0.7-0.7,1.2-1.4,1.6-2.3c0.1,0.1,0.3,0.1,0.4,0.2C85.6,212,85.1,212.8,84.4,213.4z M86.2,210.4v0.4h-0.5
			v-5.2c-0.3,0.5-0.6,1-1,1.4l-0.4-0.3c1-1.2,1.9-2.6,2.4-4.1l0.4,0.1c-0.2,0.6-0.5,1.2-0.8,1.8h5.3v0.5h-2.9v1.3h2.4v0.4h-2.4v1.4
			h2.4v0.4h-2.4v1.4h3v0.4L86.2,210.4z M88.3,205h-2v1.3h2V205z M88.3,206.7h-2v1.4h2V206.7z M88.3,208.6h-2v1.4h2V208.6z
			 M87.3,213.2c-0.1-0.7-0.2-1.4-0.5-2.1l0.4-0.1c0.2,0.7,0.4,1.4,0.5,2.1L87.3,213.2z M88.7,204.4c-0.3-0.5-0.7-1-1.1-1.5
			c0.1-0.1,0.2-0.2,0.3-0.3c0.4,0.4,0.8,0.9,1.1,1.4C89,204.2,88.8,204.3,88.7,204.4L88.7,204.4z M89.3,213.2
			c-0.2-0.7-0.4-1.4-0.8-2.1c0.1-0.1,0.3-0.1,0.4-0.2c0.3,0.7,0.6,1.4,0.8,2.1L89.3,213.2z M91.6,213.4c-0.4-0.8-0.8-1.6-1.4-2.3
			c0.1-0.1,0.2-0.2,0.3-0.2c0.6,0.7,1.1,1.5,1.4,2.3C91.9,213.3,91.8,213.4,91.6,213.4L91.6,213.4z"/>
		<path d="M98.3,211.6l-1.1,1.9l-0.4-0.3c0.9-1.5,1.7-3.1,2.3-4.8l0.4,0.3C99.2,209.7,98.8,210.7,98.3,211.6z M98.8,207.5
			c-0.5-0.5-1.5-1.3-1.9-1.6l0.3-0.4c0.7,0.5,1.3,1,1.9,1.6L98.8,207.5z M99.2,204.9c-0.5-0.6-1.1-1.1-1.7-1.6l0.4-0.4
			c0.6,0.5,1.2,1,1.7,1.6L99.2,204.9z M99.4,212.3v-0.4h3.7v-7.1h-3v-0.4h6.7v0.4h-3.1v7.1h3.8v0.4H99.4z"/>
		<path d="M115,208.9c-0.6,1.6-1.4,3-2.3,4.4c-0.1-0.1-0.2-0.2-0.4-0.3c0.9-1.4,1.7-2.8,2.3-4.4C114.8,208.7,114.9,208.8,115,208.9z
			 M114,207.7c-0.5-0.6-1.1-1.2-1.7-1.8l0.3-0.3c0.6,0.6,1.2,1.2,1.7,1.8L114,207.7z M114.8,205.2c-0.5-0.7-1.1-1.3-1.7-1.9l0.3-0.3
			c0.6,0.6,1.2,1.3,1.7,2L114.8,205.2z M117.6,213.6h-0.5v-4.7c-0.6,0.5-1.3,0.9-2,1.3c-0.1-0.1-0.2-0.2-0.3-0.4
			c1.5-0.9,3-1.9,4.3-3.1h-3.9v-0.4h3.2v-1.7H116v-0.4h2.4v-1.5h0.6v1.5h1.9v0.4H119v1.7h0.6c0.9-1,1.8-2,2.5-3.1
			c0.1,0.1,0.3,0.1,0.3,0.2c-0.7,1-1.4,2-2.2,2.9h2.7v0.4h-3.2c-0.5,0.5-1.1,1-1.7,1.4h3.6v5.4h-0.5v-0.9h-3.6L117.6,213.6z
			 M117.6,208.6v1.5h3.6v-1.5H117.6z M121.2,210.6h-3.6v1.6h3.6V210.6z"/>
		<path d="M137.6,207.1v0.4H133v5.1h5.5v0.5h-10.6v-0.5h4.5V203h0.5v4.1H137.6z"/>
		<path d="M149.3,207c0.2,0.8-0.1,1.7-0.7,2.2l-0.3-0.3c0.3-0.2,0.5-0.5,0.6-0.9h-0.6v-1H149.3z"/>
		<path d="M160.2,205.3c-0.3,0.9-0.6,1.8-1,2.7c-0.1,0-0.3-0.1-0.4-0.1c0.4-0.9,0.7-1.8,1-2.7L160.2,205.3z M160.6,213.6v-11h0.4v11
			H160.6z M162.6,206.9c-0.1,0.1-0.2,0.2-0.4,0.2c-0.2-0.4-0.6-1.2-1-1.7c0.1-0.1,0.3-0.2,0.4-0.2
			C161.8,205.7,162.2,206.3,162.6,206.9L162.6,206.9z M161.8,213.2c1-0.3,2.1-0.7,3-1.2c0.1,0.1,0.2,0.2,0.3,0.3c-1,0.5-2,1-3,1.3
			L161.8,213.2z M168.6,203.2l-0.2,1.4h1.2v0.4h-1.3l-0.3,1.5h-4.9c0.1-0.5,0.2-1,0.3-1.5H162v-0.4h1.5c0.1-0.4,0.1-0.8,0.2-1.4
			H168.6z M163.1,211.7v-4.4h5.3v4.4H163.1z M163.6,209v0.8h4.3V209H163.6z M163.6,210.3v1h4.3v-1H163.6z M167.9,207.8h-4.3v0.8h4.3
			V207.8z M165.5,205h-1.7l-0.2,1h1.6L165.5,205z M165.6,204.5l0.2-0.9H164l-0.2,0.9H165.6z M167.8,205H166l-0.2,1h1.8L167.8,205z
			 M168,203.7h-1.7l-0.2,0.9h1.7L168,203.7z M166.6,212c0.9,0.3,1.8,0.7,2.7,1.2c-0.1,0.1-0.2,0.3-0.3,0.4c-0.8-0.5-1.7-0.9-2.6-1.2
			L166.6,212z"/>
		<path d="M174.7,209.8c1.3-0.8,2.5-1.8,3.5-3h-3.5v-0.4h3.8c0.2-0.3,0.4-0.7,0.5-1.1h-3.4v-0.4h3.6c0.1-0.4,0.2-0.8,0.3-1.2
			c-1.1,0-2.6,0.1-4,0.1l-0.3-0.5c2.8,0,5.6-0.2,8.4-0.6l0.3,0.4c-1.5,0.2-2.6,0.4-3.9,0.5c-0.1,0.4-0.2,0.9-0.3,1.2h4.3v0.5h-4.4
			c-0.1,0.4-0.3,0.7-0.5,1.1h5.8v0.4h-6.1c-0.3,0.4-0.6,0.7-0.9,1.1h5.2v5.6h-0.5v-0.9H178v0.9h-0.5v-5.2c-0.8,0.6-1.6,1.2-2.4,1.8
			L174.7,209.8z M178,208.3v0.9h4.6v-0.9H178z M182.6,209.7H178v1h4.6V209.7z M182.6,211.2H178v1h4.6V211.2z"/>
		<path d="M192,207.9c-0.4,1.1-1,2.2-1.6,3.2c-0.1-0.1-0.3-0.2-0.4-0.3c0.9-1.3,1.6-2.7,2-4.2v-0.3h-1.8v-0.4h1.8v-2.1
			c-0.5,0.1-0.9,0.1-1.4,0.1l-0.3-0.4c1.2-0.1,2.3-0.3,3.4-0.6c0.1,0.1,0.2,0.2,0.3,0.3c-0.5,0.1-1.1,0.3-1.6,0.4v2.2h1.9v0.4h-1.9
			v7.4H192V207.9z M192.6,207.5c0.1-0.1,0.3-0.2,0.4-0.2c0.5,0.6,0.9,1.2,1.4,1.8c-0.1,0.1-0.2,0.2-0.4,0.2
			C193.5,208.7,193.1,208.1,192.6,207.5L192.6,207.5z M193.7,213.3c1.6-1.4,2.7-3.3,3.1-5.4c0.2-1,0.3-2.1,0.2-3.2v-2.1h0.5v3.2
			c0,0.5,0,1.1-0.1,1.6c0.7,2,1.5,4.2,3.3,5.7l-0.3,0.3c-1.2-0.8-2.7-3.4-3.1-4.9c-0.5,2-1.6,3.7-3.1,5.1L193.7,213.3z M194.6,207.8
			c0.2-1,0.4-2.1,0.5-3.1h0.4c-0.1,1.1-0.4,2.2-0.5,3.2L194.6,207.8z M198.8,207.6c0.4-1,0.7-2,0.9-3l0.4,0.1c-0.2,1-0.5,2-0.9,3
			L198.8,207.6z"/>
		<path d="M212.4,212.9c0.4,0,0.7,0,1.1,0c0.1-0.1,0.2-0.2,0.2-0.4V209h-4.6c-0.3,1.7-1.2,3.3-2.6,4.3l-0.4-0.4
			c1-0.7,1.7-1.6,2.2-2.7c0.2-0.6,0.4-1.2,0.4-1.9V203h5.7v9.7c0,0.2-0.1,0.4-0.3,0.5c-0.4,0.1-0.8,0.1-1.3,0.1L212.4,212.9z
			 M213.8,203.5h-4.6v2.2h4.6V203.5z M209.1,206.1v2.4h4.6v-2.4H209.1z"/>
		<path d="M221.1,210c1.1-0.7,2-1.6,2.9-2.5h-2.7V207h3.1c0.4-0.4,0.7-0.8,0.9-1.3h-2.7v-0.4h3c0.2-0.4,0.3-0.8,0.4-1.1h-4v-0.4h4
			c0.1-0.4,0.1-0.8,0.1-1.1h0.5c0,0.4-0.1,0.8-0.1,1.1h4.5v0.5h-4.6c-0.1,0.4-0.2,0.8-0.3,1.1h4.3v0.4h-4.5
			c-0.2,0.5-0.5,0.9-0.8,1.3h6.6v0.4h-3.1c1,1,2.1,1.8,3.3,2.5l-0.3,0.3h-0.1c-1.3-0.8-2.5-1.7-3.5-2.9h-3.3c-1,1-2.1,2-3.2,2.9
			L221.1,210z M223.8,213.5v-4.9h5.3v4.9h-0.5v-0.8h-4.3v0.8H223.8z M224.3,209.1v1.3h4.3v-1.3H224.3z M224.3,210.9v1.4h4.3v-1.4
			H224.3z"/>
		<path d="M246.9,210.6l0.4,0.2c-0.1,0.8-0.2,1.7-0.4,2.5c-0.1,0.1-0.3,0.3-0.5,0.1c-1-1.5-1.5-3.3-1.4-5.1v-4.6h-7v4
			c0.1,1.9-0.3,3.9-1.1,5.7l-0.4-0.2c0.7-1.7,1.1-3.6,1-5.4v-4.5h8.1v4.9c-0.1,1.5,0.2,3.1,1,4.4
			C246.7,211.9,246.8,211.2,246.9,210.6z M238.5,212c0.9,0,1.9-0.1,2.8-0.3v-2.1h-2.1v-2.9h2.1v-1.4h-2.6V205h5.7v0.4h-2.6v1.4h2.1
			v2.9h-2.1v2c0.6-0.1,1.3-0.1,1.9-0.2l-0.5-0.9c0.1-0.1,0.3-0.1,0.4-0.2c0.4,0.7,0.8,1.4,1.1,2.2l-0.4,0.2l-0.5-0.9
			c-0.8,0.1-1.6,0.2-2.4,0.3l-2.8,0.4L238.5,212z M239.7,207.2v2h1.6v-2H239.7z M243.4,209.2v-2h-1.6v2H243.4z"/>
		<path d="M255.9,208.1c0-0.8,0.7-1.5,1.5-1.5s1.5,0.7,1.5,1.5s-0.7,1.5-1.5,1.5l0,0C256.6,209.6,255.9,209,255.9,208.1z
			 M258.5,208.1c0-0.6-0.5-1.1-1.1-1.1s-1.1,0.5-1.1,1.1s0.5,1.1,1.1,1.1C258,209.2,258.5,208.7,258.5,208.1L258.5,208.1z"/>
		<path d="M268,207.8v-0.5h10v0.5H268z"/>
		<path d="M22.8,228.2h-2.1v-2.3h2.1v-1.4h-2.7v1.1h-0.5V224h9.8v1.5h-0.5v-1.1H26v1.4h2.2v2.4H26v1.6h3.6v0.4H19.2v-0.4h3.6
			C22.8,229.8,22.8,228.2,22.8,228.2z M19.4,221.2v-0.4h4.8v-1.1h0.5v1h4.7v0.5h-4.7v1.1h3.8v0.4h-8.1v-0.4h3.8v-1.1H19.4z
			 M27.7,226.2h-2.2v-1.9h-2.1v1.9h-2.1v1.4h2.1v2h2.1v-2h2.2V226.2z"/>
		<path d="M35.2,230.1c-0.1-0.1-0.3-0.2-0.4-0.3c0.7-1.3,1.3-2.6,1.8-4c0.1,0.1,0.3,0.1,0.4,0.2C36.5,227.4,35.9,228.8,35.2,230.1z
			 M35.2,222.4c0.6,0.6,1.1,1.1,1.7,1.8l-0.3,0.4c-0.4-0.6-1-1.1-1.5-1.6l-0.2-0.2L35.2,222.4z M35.8,219.9c0.6,0.5,1.1,1.1,1.6,1.7
			l-0.3,0.3c-0.5-0.6-1.1-1.2-1.7-1.8L35.8,219.9L35.8,219.9z M37,225.7c1.1-0.8,1.9-1.8,2.6-2.9H38v-2.6h6.5v2.6H40
			c-0.2,0.3-0.4,0.7-0.6,1h5.5v0.7l-0.1,2.3l-0.1,2c-0.1,0.5,0,1.2-0.5,1.6s-1.1,0-1.7,0.1l-0.2-0.5l1.3,0.1c0.2,0,0.3-0.1,0.4-0.2
			c0.1-0.2,0.2-0.5,0.2-0.8l0.1-1.7l0.1-2.2v-0.8h-5.3c-0.5,0.7-1.2,1.3-1.8,1.8L37,225.7z M41.6,227.8l0.3-0.2
			c0.6,0.5,1.1,1.1,1.6,1.8l-0.3,0.2l-0.5-0.7h-0.5l-3.2,0.3l-1.3,0.1l-0.2-0.5c0.9,0,1.9-0.1,2.8-0.2v-1.3h-2v-2.1h2v-0.8h0.5v0.8
			H43v2.1h-2.2v1.2c0.5,0,1-0.1,1.5-0.2L41.6,227.8z M38.5,220.6v1.8H40v-1.8H38.5z M38.7,225.7v1.3h1.6v-1.3H38.7z M40.5,222.3H42
			v-1.8h-1.5V222.3z M42.5,225.7h-1.8v1.3h1.7L42.5,225.7z M44.1,220.6h-1.6v1.8h1.6V220.6z"/>
		<path d="M52.4,225.7c-0.5,1.6-1.2,3.2-2,4.7l-0.4-0.3c0.8-1.5,1.5-3,2-4.6L52.4,225.7z M51.8,224.4c-0.5-0.6-1.1-1.1-1.7-1.6
			l0.4-0.3c0.6,0.5,1.2,1,1.7,1.6L51.8,224.4z M51,219.8c0.5,0.5,1.2,1,1.6,1.5l-0.4,0.3c-0.5-0.5-1-1-1.6-1.5L51,219.8z
			 M53.5,230.4v-8.2h2.1v-1.7H53v-0.4h7.8v0.4H58v1.7h2.1v8.2h-0.5v-0.8h-5.5v0.8H53.5z M57.9,225.8c-0.2,0-0.4-0.3-0.4-0.5v-2.6
			h-1.3c0.1,1.2-0.3,2.5-1.1,3.4c-0.1,0.2-0.3,0.3-0.5,0.4l-0.4-0.3c1.2-0.7,1.5-2.1,1.5-3.4h-1.5v4.4h5.6v-1.3L57.9,225.8z
			 M59.6,227.6h-5.5v1.7h5.5V227.6z M57.5,220.6h-1.3v1.7h1.4L57.5,220.6z M59.6,222.7H58v2.3c0,0.3,0.1,0.4,0.3,0.4h1.2L59.6,222.7
			z"/>
		<path d="M69.4,226.4c-0.2-0.4-0.5-0.7-0.7-1.1l0.3-0.2c0.3,0.3,0.5,0.6,0.8,1L69.4,226.4l2.6-0.1c0.3-0.4,0.5-0.9,0.8-1.3l0.4,0.2
			c-0.2,0.4-0.4,0.8-0.7,1.1h3.6v0.4H65.9v-0.4L69.4,226.4z M74.8,221.9v0.4h-7.5V222h3.5v-1h-4.5v-0.4h4.5v-1h0.5v1h4.6v0.4h-4.6v1
			L74.8,221.9z M67.5,230.5v-2.8h7v2.8H74v-0.6h-6v0.6H67.5z M67.7,225v-1.9h6.6v1.9H67.7z M68,228.2v1.3h6v-1.3H68z M73.8,223.6
			h-5.6v1h5.6V223.6z"/>
		<path d="M83.5,222.5v-2.7H84v2.7h1.8v0.5H84v1.7l0.4-0.2c0.6,0.6,1,1.4,1.4,2.1l-0.4,0.3c-0.4-0.8-0.9-1.5-1.4-2.1v6h-0.5v-5.6
			l0,0c-0.4,1.3-1,2.4-1.8,3.4l-0.4-0.4c1.1-1.3,1.8-2.9,2.1-4.6l0.1-0.6h-2v-0.4L83.5,222.5z M87,229.8v0.9h-0.5v-10.2h5v10.1H91
			v-0.8H87z M87,221v2.3h4V221H87z M87,223.7v2.4h4v-2.4H87z M87,226.6v2.8h4v-2.8H87z"/>
		<path d="M96.7,230.2c1.2-1,2-2.4,2.3-3.9h-1.9V226c0.6-0.7,1.1-1.5,1.6-2.4H97v-0.4h2.4c-0.4,1-1,1.9-1.6,2.7h1.8
			c-0.1,0.8-0.4,1.6-0.7,2.4c0.7,0.9,1.7,1.5,2.8,1.5h4.6l1.1-0.1l-0.2,0.5h-5.5c-1.2-0.1-2.3-0.7-3-1.6c-0.4,0.7-1,1.4-1.6,1.9
			L96.7,230.2z M97.9,220.1c0.3,0.6,0.7,1.1,0.9,1.7l-0.4,0.2c-0.3-0.6-0.6-1.2-0.9-1.7L97.9,220.1z M99.6,224
			c1.1-0.4,2.2-0.8,3.3-1.4c-0.5-0.3-1-0.7-1.4-1.1c-0.2,0.2-0.5,0.6-1,1.1l-0.4-0.2c0.8-0.8,1.5-1.7,2-2.7c0.1,0.1,0.2,0.1,0.4,0.2
			c-0.1,0.3-0.3,0.5-0.4,0.8h3.4v0.4c-0.5,0.6-1.1,1.1-1.8,1.5c1.1,0.5,2.2,0.9,3.4,1.3l-0.2,0.4c-1.2-0.4-2.4-0.8-3.6-1.4
			c-0.8,0.4-2,1-3.5,1.5L99.6,224z M106.1,224.6v0.4h-2.6v1h2.1v0.4h-2.1v1.1h3.1v0.5h-3.1v1.3H103V228h-3v-0.4h3v-1.1h-2V226h2.1
			v-1h-2.5v-0.4h2.5v-0.9h0.5v0.9H106.1z M101.8,221.1l-0.1,0.1c0.5,0.5,1,0.8,1.6,1.1c0.6-0.3,1.1-0.8,1.6-1.3L101.8,221.1z"/>
		<path d="M118.2,224c0.2,0.8-0.1,1.7-0.8,2.2l-0.3-0.3c0.3-0.2,0.5-0.5,0.6-0.9h-0.6v-1H118.2z"/>
		<path d="M138.1,222.3v0.4h-4.8v2.7h3.2v5H136v-0.9h-5.8v0.9h-0.5v-5h3.1v-2.7h-4.7v-0.4h4.7v-2.8h0.5v2.8H138.1z M136,225.9h-5.8
			v3.2h5.8V225.9z"/>
		<path d="M153.9,224.7c-2.1-1-3.9-2.4-5.3-4.2c-1.4,1.8-3.1,3.3-5,4.5l-0.4-0.4c2.2-1.3,4-3,5.4-5.1l0.4,0.2
			c-0.1,0.1-0.2,0.2-0.2,0.4c1.4,1.8,3.2,3.3,5.3,4.2L153.9,224.7z M149.2,230.3l2.2-3.9h-5.9V226h6.6c-0.9,1.7-1.7,3.3-2.4,4.6
			L149.2,230.3z M146.2,224.3v-0.4h5.1v0.4H146.2z"/>
		<path d="M159.6,226l-0.4-0.4c1.4-0.5,2.7-1.1,3.9-1.8c-0.4-0.4-0.9-0.8-1.4-1.1l0.4-0.4c0.5,0.4,1,0.8,1.5,1.2
			c0.5-0.3,0.9-0.6,1.4-1s0.9-0.8,1.3-1.2h-4.1c-0.7,0.6-1.5,1.1-2.3,1.6l-0.4-0.3c1.5-0.8,2.8-1.8,3.9-3l0.4,0.2
			c-0.3,0.4-0.7,0.8-1.1,1.2h4.3v0.4C165,223.5,162.5,225.1,159.6,226z M159.6,230.5l-0.3-0.5c2.1-0.2,4.2-0.8,6-1.8
			c-0.5-0.4-1-0.9-1.5-1.3l0.4-0.3c0.5,0.4,1.1,0.9,1.6,1.3c1.1-0.8,2-1.7,2.8-2.7h-3.5c-1.2,0.9-2.4,1.6-3.7,2.3
			c-0.1-0.1-0.3-0.2-0.4-0.4c1.9-0.9,3.6-2.1,5.1-3.6l0.5,0.2c-0.3,0.4-0.6,0.7-0.9,1h3.6v0.5C166.9,228.3,164.7,229.8,159.6,230.5
			L159.6,230.5z"/>
		<path d="M183.2,225.3c0.1,0.1,0.3,0.2,0.4,0.3c-0.6,0.7-1.2,1.3-1.9,1.9c-1.9,1.6-4.1,2.7-6.5,3.4l-0.5-0.4c3-0.8,5.8-2.3,8-4.6
			L183.2,225.3z M177.7,222.4c-0.6,1.2-1.3,2.3-2.2,3.3l-0.5-0.2c0.9-1.1,1.6-2.2,2.3-3.4L177.7,222.4z M180.2,226.4
			c0,0.2-0.2,0.5-0.4,0.6c-0.5,0.1-1,0.1-1.6,0.1l-0.2-0.5c0.4,0.1,0.9,0.1,1.3,0c0.3-0.1,0.3-0.3,0.3-0.5v-6.2h0.5L180.2,226.4
			L180.2,226.4z M184.8,225c-0.8-1-1.7-1.9-2.6-2.8l0.4-0.3c0.9,0.8,1.8,1.7,2.6,2.7L184.8,225z"/>
		<path d="M195.5,220.7h4.7v0.4h-4.7v0.9h3.4v1.9h-3.4v1h3.6v1.4h1.4v0.4h-1.4v2h-0.5v-0.6h-3.1v1.9c0,0.3-0.2,0.5-0.4,0.5
			c-0.4,0.1-0.8,0.1-1.1,0.1l-0.2-0.5c0.4,0,0.7,0,1.1,0c0.1,0,0.2-0.1,0.2-0.2l0,0v-1.8h-3.6v-0.4h3.5v-1h-4.8v-0.4h4.8v-0.9h-3.6
			V225h3.6v-1h-3.3v-1.9h3.3v-0.9h-4.5v-0.4h4.5v-1.1h0.5V220.7z M192.2,222.6v1h2.8v-1H192.2z M195.5,223.6h2.9v-1h-2.9V223.6z
			 M195.5,225.4v0.9h3.1v-0.9H195.5z M198.6,226.8h-3.1v1h3.1V226.8z"/>
		<path d="M211.4,224c0.2,0.8-0.1,1.7-0.8,2.2l-0.3-0.3c0.3-0.2,0.5-0.5,0.6-0.9h-0.6v-1H211.4z"/>
		<path d="M221.1,226.5c1.2-0.8,2.4-1.7,3.5-2.7h-3.3v-0.4h2.7v-1.7h-2.2v-0.4h2.2v-1.6h0.5v1.6h1.7v0.4h-1.7v1.7h0.5
			c0.9-0.9,1.6-1.8,2.3-2.8c0.1,0.1,0.3,0.2,0.4,0.2c-0.6,0.9-1.2,1.8-2,2.6h2v0.4h-2.5c-0.5,0.5-1,0.9-1.5,1.4h3v5.1h-0.5v-0.8h-3
			v1.1h-0.5V226l-1.3,0.9L221.1,226.5z M223.4,225.7v1.4h3v-1.4H223.4z M223.4,227.5v1.4h3v-1.5L223.4,227.5z M230.4,223.9
			c0.9,0.8,1.4,1.9,1.5,3.1c0,0.6-0.3,1.1-0.8,1.3c-0.4,0.2-0.9,0.3-1.3,0.2c-0.1-0.2-0.2-0.4-0.3-0.6c0.5,0.2,1.1,0.1,1.6-0.2
			c0.4-0.5,0.5-1.2,0.1-1.7c-0.3-0.7-0.8-1.4-1.3-2l1.2-3.3H229v9.9h-0.5v-10.3h3.4L230.4,223.9z"/>
		<path d="M238.4,222.6c-0.4,0.9-0.9,1.7-1.5,2.5l-0.4-0.3c1.1-1.7,2.1-3.5,2.7-5.4l0.4,0.4l-0.7,1.7v9h-0.5V222.6z M243.6,230
			c0.3,0,0.7,0,1,0c0.1,0,0.4-0.1,0.4-0.3v-6.6h-5v-0.5h5v-3.1h0.5v3.1h1.7v0.5h-1.7v6.8c0,0.2-0.1,0.5-0.3,0.6
			c-0.4,0.1-0.8,0.1-1.3,0.1L243.6,230z M243,227.3c-0.6-0.8-1.3-1.6-2-2.3l0.4-0.3c0.7,0.7,1.4,1.5,2,2.3L243,227.3z"/>
		<path d="M252.2,222.5c0.9-0.9,1.6-1.9,2.2-2.9c0.1,0.1,0.3,0.1,0.4,0.2l-0.7,1.1h3.7v0.4h-2.4l0.8,1.2c-0.1,0.1-0.3,0.2-0.4,0.2
			c-0.2-0.5-0.5-0.9-0.8-1.4h-1.2c-0.4,0.5-0.9,1-1.3,1.5L252.2,222.5z M252.2,230c3-1.2,4.1-2.1,4.8-3.5h-4.6v-0.4h4.8
			c0.1-0.7,0.2-1.3,0.1-2c-1,0.1-2.5,0.2-3.5,0.2l-0.3-0.4c2.4,0,4.9-0.3,7.3-0.8l0.4,0.4c-1,0.2-2.3,0.4-3.3,0.6
			c0,0.7,0,1.4-0.2,2.1h5v0.4H258c1,1.8,2.8,3.1,4.8,3.6l-0.2,0.4c-2.1-0.6-3.9-2-5-3.9c-1,1.9-2.5,2.7-4.9,3.7L252.2,230z
			 M257,222.5c0.9-0.9,1.7-2,2.3-3.1l0.4,0.2c-0.2,0.4-0.5,0.8-0.7,1.2h3.5v0.4h-1.9c0.3,0.4,0.5,0.8,0.8,1.2
			c-0.2,0.1-0.3,0.2-0.5,0.2c-0.2-0.5-0.5-0.9-0.8-1.4h-1.4c-0.4,0.5-0.8,1-1.3,1.5L257,222.5z"/>
		<path d="M271.7,222.1h-4.2v-0.4h4.2V222.1z M268.1,225v-0.5h3.1v0.5H268.1z M268.1,223.5v-0.4h3v0.4H268.1z M271,226.2v3.8h-0.5
			v-0.6h-1.8v1.1h-0.5v-4.2L271,226.2z M268.7,226.7v2.2h1.8v-2.2H268.7z M269.2,219.6c0.4,0.5,0.7,1,1,1.6l-0.4,0.2
			c-0.1-0.2-0.2-0.3-0.3-0.5c-0.2-0.4-0.4-0.7-0.7-1.1L269.2,219.6z M278,230.6c-1.3-0.7-3-2.1-3.3-3.8c-0.2,1.7-2,3.1-3.4,3.8
			c-0.1-0.1-0.2-0.2-0.3-0.4c1.3-0.5,2.4-1.5,3.1-2.8c0.4-1,0.6-2.1,0.6-3.1l0.5,0.1c0,0.6-0.1,1.1-0.2,1.7c0.4,1.8,1.7,3.3,3.4,4.1
			L278,230.6z M275.2,219.6c0,0.1,0,0.2,0,0.2c0,0.9-0.1,1.8-0.4,2.6l0.1,0.1c1.1,0.6,2.1,1.4,3.1,2.2l-0.3,0.4l0,0
			c-0.9-0.9-1.9-1.6-3-2.2c-0.6,1.1-1.6,1.9-2.7,2.5l0,0l-0.3-0.4c1.3-0.5,2.3-1.6,2.9-2.9c0.2-0.8,0.3-1.7,0.3-2.6L275.2,219.6z
			 M271.6,227.7c0.4-0.7,0.8-1.4,1.1-2.2l0.4,0.2c-0.3,0.8-0.7,1.5-1.1,2.3L271.6,227.7z M271.9,222.7c0.5-0.7,0.8-1.4,1.1-2.2
			l0.4,0.2c-0.3,0.8-0.6,1.5-1.1,2.2L271.9,222.7z M276.1,222.6c0.4-0.7,0.8-1.4,1.1-2.1c0.1,0,0.3,0.1,0.4,0.2
			c-0.3,0.7-0.7,1.4-1,2.1L276.1,222.6z M276.1,227.6c0.4-0.7,0.8-1.4,1.1-2.1l0.4,0.2c-0.3,0.7-0.7,1.4-1.1,2.2L276.1,227.6z"/>
		<path d="M23.8,243.2h-3.5v1h-0.6V239h4v-2.4h0.6v2.4h4.1v5h-0.6v-0.8h-3.5v4.5h-0.6v-4.5H23.8z M20.3,239.6v3.1h3.4v-3.1H20.3z
			 M24.3,239.6v3.1h3.6v-3.1H24.3z"/>
		<path d="M38.5,242.1c0-0.8,0.7-1.5,1.5-1.5s1.5,0.7,1.5,1.5s-0.7,1.5-1.5,1.5l0,0C39.2,243.6,38.5,243,38.5,242.1L38.5,242.1z
			 M41.1,242.1c0-0.6-0.5-1.1-1.1-1.1s-1.1,0.5-1.1,1.1s0.5,1.1,1.1,1.1C40.6,243.2,41.1,242.7,41.1,242.1L41.1,242.1z"/>
		<path d="M24.7,256.1h3.6v0.4h-3.6v1.2h4.8v0.4h-10v-0.4h4.7v-1.2h-3.6v-0.4h3.6v-1H20v-0.4h4.2v-1.2h0.5v1.2H29v0.4h-4.2
			L24.7,256.1z M25.9,264c0.4,0,0.7,0,1.1,0c0.2,0,0.3-0.1,0.4-0.3v-1.3h-5.5v2.1h-0.5V259h6.5v5c0,0.3-0.2,0.5-0.5,0.6
			c-0.4,0.1-0.9,0-1.2,0L25.9,264z M21.8,259.3v1.1h5.5v-1.1H21.8z M27.3,262v-1h-5.5v1H27.3z"/>
		<path d="M43.7,262.6v-6.4h0.5v8.2h-0.5v-1.3H36v1.3h-0.5v-8.2H36v6.4h3.5v-8.5H40v8.5H43.7z"/>
		<path d="M50.1,259.6c0.1-0.2,0.2-0.3,0.3-0.5l0.9-1.7l0.5-1.1l0.8-1.9l0.3-0.8c0.1,0,0.3,0.1,0.4,0.2l-1,2.6v8.2h-0.5v-7.3
			c0,0.1-0.1,0.2-0.1,0.4l-0.9,1.6l-0.3,0.5L50.1,259.6z M60.6,264.6c-1.6-1.5-2.8-3.3-3.5-5.4c-0.2-0.8-0.4-1.7-0.5-2.5
			c-0.3,0.9-0.8,1.7-1.4,2.5v4.1h0.1l2.3-1.1v0.5c-0.5,0.2-1.1,0.5-1.6,0.8l-2,1c-0.1-0.1-0.2-0.3-0.2-0.4l1-0.4v-3.8
			c-0.6,0.6-1.1,1.1-1.8,1.7l-0.3-0.4c1.5-1.2,2.7-2.7,3.5-4.5H53v-0.5h7.9v0.5H57c0.1,1.1,0.4,2.1,0.7,3.2c0.8-0.5,1.6-1,2.3-1.6
			l0.3,0.4c-0.8,0.6-1.6,1.2-2.4,1.7c0.7,1.5,1.7,2.9,3,4L60.6,264.6z M55.9,253.7c0.5,0.6,1,1.1,1.5,1.8l-0.4,0.3
			c-0.4-0.6-0.9-1.2-1.4-1.8L55.9,253.7z"/>
		<path d="M76,260.1v0.4h-8v0.3h-0.5v-3.4l0,0c-0.3,0.4-0.7,0.7-1,1l-0.5-0.3c0.9-0.7,1.7-1.7,2.3-2.7l0.4,0.2
			c-0.1,0.2-0.2,0.5-0.4,0.7h2.9c-0.1-0.3-0.3-0.7-0.4-1l0.4-0.2c0.2,0.4,0.4,0.8,0.6,1.1h3.7v0.4h-3.8v0.8h3.2v0.5h-3.3v0.8h3.2
			v0.4h-3.2v0.8L76,260.1z M68.8,253.5h0.5v1H71v0.4h-1.7v0.7h-0.5v-0.7h-2.3v-0.4h2.3V253.5z M74.7,263.5v-0.8h-3v-0.4h3v-0.7h-3.1
			v-0.4h3.6v3.3h-0.5V264h-6.8v0.5h-0.5v-3.1c1.1,0,2.2-0.3,3.2-0.7L71,261c-1,0.4-2.1,0.6-3.2,0.7v0.5h2.9v0.4h-2.9v0.9H74.7z
			 M68,257.6h3.2v-0.8H68V257.6z M71.2,258.8V258H68v0.8H71.2z M68,260h3.2v-0.8H68V260z M73.7,253.5v1h2.4v0.4h-2.4v0.8h-0.5v-0.8
			h-1.7v-0.4h1.7v-1H73.7z"/>
		<path d="M83.9,263.7v0.9h-0.5V259c-0.6,0.8-1.2,1.5-1.9,2.2l-0.4-0.3c1.5-1.4,2.7-3.1,3.5-5h-3.1v-0.4h3.3
			c0.3-0.6,0.5-1.2,0.7-1.9c0.2,0,0.3,0.1,0.4,0.1c-0.2,0.6-0.4,1.2-0.6,1.8h6.2v0.4h-6.4c-0.4,0.8-0.8,1.6-1.3,2.4v4.9h3.6v-3.5
			h-2.8v-0.5h2.8v-2.4H88v2.4h3.1v0.5H88v3.5h3.9v0.5L83.9,263.7z"/>
		<path d="M102.7,258c0.2,0.8-0.1,1.7-0.7,2.2l-0.3-0.3c0.3-0.2,0.5-0.5,0.6-0.9h-0.6v-1L102.7,258z"/>
		<path d="M117.9,253.6c0,0.7-0.1,1.4-0.1,2.1v1.8c0,0.8,0.1,1.7,0.3,2.5h4.7v0.5h-4.5c0.2,0.6,0.4,1.2,0.8,1.7
			c0.9-0.4,1.7-0.9,2.6-1.5l0.3,0.3c-0.8,0.6-1.7,1.1-2.6,1.5c0.7,0.7,1.6,1.2,2.6,1.5c0.1,0,0.2,0,0.3-0.2c0.2-0.5,0.3-1,0.4-1.5
			l0.4,0.2c-0.1,0.5-0.2,1-0.4,1.5c-0.1,0.2-0.2,0.3-0.4,0.4c-0.4,0-0.8,0-1.1-0.3c-0.8-0.3-1.6-0.8-2.3-1.5c-1.2,0.5-2.4,1-3.7,1.3
			l-0.3-0.4c1.2-0.3,2.4-0.8,3.6-1.3c-0.4-0.6-0.7-1.2-0.9-1.9h-3.2l-0.1,0.5c0.7,0.4,1.4,0.9,2.1,1.4l-0.3,0.4
			c-0.6-0.5-1.2-0.9-1.8-1.2c-0.3,1.2-1,2.2-1.9,3.1l-0.3-0.4c0.9-0.8,1.5-2,1.8-3.2l0.1-0.5h-1.6V260h1.6c0-0.3,0-0.7,0-1h0.4v1h3
			c-0.2-1.5-0.3-2.9-0.3-4.4c0-0.7,0-1.4,0.1-2H117.9z M116.2,256.9c0.4,0.7,0.7,1.4,1,2.2c-0.1,0.1-0.2,0.1-0.4,0.2l-0.3-0.7
			l-2.5,0.3l-0.9,0.1l-0.1-0.5c0.7-0.6,1.4-1.3,2.1-2c-0.6,0-1.2,0.1-1.8,0.1l-0.1-0.5c0.7-0.7,1.3-1.5,1.8-2.3l0.3,0.3
			c-0.5,0.6-0.9,1.3-1.5,1.9c-0.1,0.1-0.2,0.1-0.2,0.2c0.6-0.1,1.3-0.1,1.9-0.2l0.9-1.1l0.3,0.2c-0.9,1.1-1.8,2.1-2.8,3.1l-0.4,0.2
			c0.2,0,0.4,0,0.6-0.1l2.2-0.3l-0.5-1L116.2,256.9z M122.2,258.5l-1.8,0.2c-0.6,0.1-1.1,0.2-1.6,0.2v-0.5c0.7-0.6,1.3-1.2,1.9-1.9
			c-0.6,0-1.3,0.1-1.9,0.2v-0.5c0.7-0.7,1.3-1.5,1.8-2.3l0.4,0.3c-0.5,0.8-1.1,1.5-1.8,2.1c0.6-0.1,1.3-0.1,1.9-0.2
			c0.3-0.4,0.7-0.8,1-1.2c0.1,0.1,0.2,0.2,0.4,0.2c-0.9,1.1-1.8,2.2-2.9,3.2l-0.3,0.1c0.1,0,0.2-0.1,0.4-0.1l2.3-0.3l0,0l-0.5-0.9
			l0.4-0.2c0.4,0.7,0.8,1.4,1.1,2.1l-0.4,0.2L122.2,258.5z M121.4,259.9c-0.3-0.1-0.5-0.3-0.7-0.5l-0.6-0.3l0.2-0.3
			c0.5,0.2,0.9,0.5,1.3,0.8L121.4,259.9z"/>
		<path d="M129.4,255.2v4.8c0.1,1.6-0.4,3.2-1.3,4.5l-0.4-0.3c0.8-1.1,1.2-2.4,1.2-3.8v-5.7h4.7c-0.2-0.4-0.4-0.7-0.7-1.1l0.4-0.2
			c0.3,0.4,0.6,0.8,0.8,1.2l-0.3,0.1h4.3v0.5L129.4,255.2z M130.7,260.1h6.3c-0.7,1-1.5,1.9-2.5,2.5c1.1,0.7,2.4,1.2,3.7,1.5
			l-0.4,0.4c-1.3-0.4-2.6-0.9-3.8-1.6c-1.1,0.8-2.4,1.3-3.7,1.6L130,264c1.3-0.2,2.5-0.7,3.6-1.4c-0.9-0.5-1.7-1.3-2.4-2.1h-0.5
			L130.7,260.1z M130.1,256.8h1.7v-1.1h0.5v1.1h3.4v-1.1h0.5v1.1h1.7v0.5h-1.7v2h-4.4v-2h-1.7V256.8z M131.8,260.6
			c0.6,0.8,1.4,1.4,2.2,1.8c0.8-0.5,1.4-1.1,2-1.8H131.8z M135.7,257.3h-3.4v1.5h3.4V257.3z"/>
		<path d="M153,256.5c-1.1,2.3-2.7,4.4-4.7,6c-1.3,0.9-2.8,1.6-4.3,2l-0.3-0.4c2-0.5,3.9-1.6,5.4-3c-0.8-0.8-1.6-1.5-2.4-2.2
			l0.3-0.4c0.9,0.7,1.7,1.4,2.5,2.2c0.5-0.5,1-1.1,1.4-1.7c0.6-0.8,1.1-1.7,1.6-2.7H148c-0.9,1.4-2.1,2.7-3.5,3.8l-0.4-0.3
			c1.7-1.3,3.1-3,4.1-4.9c0.2-0.5,0.5-0.9,0.7-1.4l0.4,0.2c-0.3,0.8-0.7,1.5-1.1,2.2h4.7v0.6H153z"/>
		<path d="M161.1,257.3c0.1,0.2,0.3,0.3,0.5,0.5c0.7,0.8,0.9,1.9,0.5,2.9c-0.4,0.6-1,0.5-1.7,0.5l-0.2-0.5c0.5,0,1.3,0.2,1.6-0.4
			c0.1-0.3,0.1-0.7,0.1-1c-0.2-0.8-0.6-1.4-1.2-1.9l1.3-3h-2v9.9h-0.5V254h3.2L161.1,257.3z M165.5,260.2c-0.5,1.1-1.4,2.1-2.5,2.7
			l-0.4-0.3c1-0.5,1.9-1.3,2.5-2.4h-1.3c-0.4,0.5-0.9,1-1.5,1.3l-0.4-0.3c1-0.5,1.8-1.4,2.2-2.4h-1.4v-0.5h6.8v0.5h-4.9
			c-0.1,0.4-0.3,0.7-0.5,1h4.8c0,1.3-0.1,2.5-0.3,3.8c-0.1,0.3-0.3,0.5-0.6,0.6c-0.4,0.1-0.9,0.1-1.3,0l-0.2-0.5
			c0.4,0,0.7,0.1,1.1,0.1c0.6,0,0.5-0.7,0.6-1.2c0.1-0.8,0.2-1.6,0.2-2.4h-1.1c-0.5,1.7-1.7,3.2-3.4,4l-0.4-0.3
			c1.5-0.8,2.7-2.1,3.3-3.7L165.5,260.2z M168.1,254v3.4h-4.5V254H168.1z M164.1,255.9v1.1h3.5v-1.1H164.1z M164.1,254.4v1h3.5v-1
			H164.1z"/>
		<path d="M174.4,264.3c0.4-0.9,0.7-1.8,0.9-2.7l0.5,0.1c-0.2,1-0.5,1.9-0.9,2.8L174.4,264.3z M175.4,260.8l-0.7,0.2l-0.2-0.4
			c0.8-1,1.6-2.1,2.2-3.2c-0.7,0.1-1.4,0.2-2,0.4l-0.2-0.4c0.8-1.2,1.5-2.4,2-3.8l0.4,0.2c-0.5,1.2-1.1,2.4-1.8,3.4
			c0.6-0.1,1.3-0.2,1.9-0.3c0.3-0.5,0.6-1,0.8-1.5l0.5,0.2c-0.8,1.7-1.9,3.2-3,4.7l2.7-0.5c-0.2-0.3-0.4-0.6-0.6-0.9l0.4-0.2
			c0.5,0.7,0.9,1.4,1.3,2.1c-0.2,0.1-0.3,0.2-0.5,0.2c-0.1-0.3-0.2-0.5-0.4-0.8L175.4,260.8z M176.9,261.5c0.2,0.7,0.3,1.5,0.4,2.2
			l-0.5,0.1c-0.1-0.8-0.2-1.5-0.4-2.3L176.9,261.5z M178.4,262.8c-0.2-0.5-0.5-1-0.8-1.5l0.4-0.2c0.3,0.5,0.6,1,0.8,1.5L178.4,262.8
			z M179,255.6v-0.5h5.7v0.5h-2.6v7.5h3c0,0.2,0,0.3,0,0.5h-6.4v-0.5h2.9v-7.5H179z"/>
		<path d="M193.8,259.1c0-0.8,0.7-1.5,1.5-1.5s1.5,0.7,1.5,1.5s-0.7,1.5-1.5,1.5l0,0C194.5,260.6,193.8,260,193.8,259.1L193.8,259.1
			z M196.4,259.1c0-0.6-0.5-1.1-1.1-1.1s-1.1,0.5-1.1,1.1s0.5,1.1,1.1,1.1S196.4,259.7,196.4,259.1L196.4,259.1z"/>
		<path d="M206.8,256.3c-0.2,0.9-0.6,1.8-1,2.7c-0.1,0-0.3-0.1-0.4-0.1c0.4-0.9,0.7-1.8,1-2.7L206.8,256.3z M207.1,264.6v-11h0.5v11
			H207.1z M209.1,257.9c-0.1,0.1-0.3,0.2-0.4,0.2c-0.2-0.4-0.6-1.2-1-1.7c0.1-0.1,0.3-0.2,0.4-0.2
			C208.4,256.7,208.8,257.3,209.1,257.9L209.1,257.9z M208.4,264.2c1-0.3,2.1-0.7,3-1.2c0.1,0.1,0.2,0.2,0.3,0.3c-1,0.5-2,1-3,1.3
			L208.4,264.2z M215.2,254.2l-0.2,1.4h1.2v0.4h-1.3l-0.3,1.5h-4.9c0.1-0.5,0.2-1,0.3-1.5h-1.4v-0.4h1.4c0.1-0.4,0.1-0.8,0.2-1.4
			L215.2,254.2z M209.7,262.7v-4.4h5.3v4.4H209.7z M210.1,260v0.8h4.3V260H210.1z M210.1,261.3v1h4.3v-1H210.1z M214.5,258.8h-4.3
			v0.8h4.3V258.8z M212.1,256h-1.7l-0.2,1h1.7L212.1,256z M212.2,255.5l0.2-0.9h-1.8l-0.2,0.9H212.2z M214.3,256h-1.7l-0.2,1h1.8
			L214.3,256z M214.6,254.7H213l-0.2,0.9h1.7L214.6,254.7z M213.2,263c0.9,0.3,1.8,0.7,2.7,1.2c-0.1,0.1-0.2,0.3-0.3,0.4
			c-0.8-0.5-1.7-0.9-2.6-1.2L213.2,263z"/>
		<path d="M221.3,260.8c1.3-0.8,2.5-1.8,3.5-3h-3.5v-0.5h3.8c0.2-0.3,0.4-0.7,0.5-1.1h-3.4v-0.4h3.6c0.1-0.4,0.2-0.8,0.3-1.2
			c-1.1,0-2.6,0.1-4,0.1l-0.3-0.5c2.8,0,5.6-0.2,8.4-0.6l0.3,0.4c-1.6,0.2-2.6,0.4-3.9,0.5c-0.1,0.4-0.2,0.9-0.3,1.2h4.3v0.5h-4.4
			c-0.2,0.4-0.3,0.6-0.5,1.1h5.7v0.4h-6.1c-0.3,0.4-0.6,0.7-0.9,1.1h5.2v5.6h-0.5v-0.9h-4.6v0.9H224v-5.2c-0.8,0.6-1.6,1.2-2.4,1.8
			L221.3,260.8z M224.6,259.3v0.9h4.6v-0.9H224.6z M229.2,260.7h-4.6v1h4.6V260.7z M229.2,262.2h-4.6v1h4.6V262.2z"/>
		<path d="M238.5,258.9c-0.4,1.1-1,2.2-1.6,3.2c-0.1-0.1-0.3-0.2-0.4-0.3c0.9-1.3,1.6-2.7,2-4.2v-0.3h-1.8v-0.4h1.8v-2.1
			c-0.5,0.1-0.9,0.1-1.4,0.1l-0.3-0.4c1.2-0.1,2.3-0.3,3.4-0.6c0.1,0.1,0.2,0.2,0.3,0.3c-0.5,0.1-1.1,0.3-1.6,0.4v2.2h1.9v0.4H239
			v7.4h-0.5V258.9z M239.2,258.5c0.1-0.1,0.2-0.2,0.4-0.2c0.5,0.6,0.9,1.2,1.4,1.8c-0.1,0.1-0.3,0.2-0.4,0.2
			C240.1,259.7,239.7,259.1,239.2,258.5L239.2,258.5z M240.2,264.3c1.6-1.4,2.7-3.3,3.1-5.4c0.2-1,0.3-2.1,0.2-3.2v-2.1h0.4v3.2
			c-0.1,0.5-0.1,1.1-0.1,1.6c0.7,2,1.5,4.2,3.3,5.7l-0.3,0.3c-1.2-0.8-2.7-3.4-3.1-4.9c-0.5,2-1.6,3.7-3.1,5.1L240.2,264.3z
			 M241.1,258.8c0.2-1,0.4-2.1,0.5-3.1h0.4c-0.1,1.1-0.4,2.2-0.5,3.2L241.1,258.8z M245.3,258.6c0.4-1,0.7-2,0.9-3l0.4,0.1
			c-0.2,1-0.5,2-0.9,3L245.3,258.6z"/>
		<path d="M259,263.9c0.4,0,0.7,0,1.1,0c0.1-0.1,0.2-0.2,0.2-0.4V260h-4.6c-0.2,1.7-1.2,3.3-2.6,4.3l-0.4-0.4c1-0.7,1.7-1.6,2.2-2.7
			c0.2-0.6,0.4-1.2,0.4-1.9V254h5.7v9.7c0,0.2-0.1,0.4-0.3,0.5c-0.4,0.1-0.8,0.1-1.3,0.1L259,263.9z M260.3,254.5h-4.6v2.2h4.6
			V254.5z M255.7,257.1v2.4h4.6V257L255.7,257.1z"/>
		<path d="M267.7,261c1.1-0.7,2-1.6,2.9-2.5h-2.7V258h3.1c0.4-0.4,0.7-0.8,0.9-1.3h-2.8v-0.4h3c0.2-0.4,0.3-0.8,0.4-1.1h-4v-0.4h4.1
			c0.1-0.4,0.1-0.8,0.1-1.1h0.5c0,0.4-0.1,0.8-0.1,1.1h4.5v0.5H273c-0.1,0.4-0.2,0.8-0.4,1.1h4.4v0.4h-4.5c-0.2,0.5-0.5,0.9-0.8,1.3
			h6.6v0.4h-3.1c1,1,2.1,1.8,3.3,2.5l-0.3,0.3h-0.1c-1.3-0.8-2.5-1.7-3.5-2.9h-3.3c-1,1-2.1,2-3.2,2.9L267.7,261z M270.4,264.5v-4.8
			h5.3v4.9h-0.5v-0.8h-4.3v0.8L270.4,264.5z M270.9,260.1v1.3h4.3v-1.3H270.9z M270.9,261.9v1.4h4.3v-1.4H270.9z"/>
		<path d="M29.5,278.6l0.5,0.2c-0.1,0.8-0.2,1.7-0.4,2.5c-0.1,0.1-0.3,0.3-0.5,0.1c-1-1.5-1.5-3.3-1.4-5.1v-4.6h-7.1v4
			c0.1,1.9-0.3,3.9-1.1,5.7l-0.4-0.2c0.7-1.7,1.1-3.6,1-5.5v-4.5h8.1v4.9c-0.1,1.5,0.2,3.1,1,4.5C29.3,280,29.5,279.3,29.5,278.6z
			 M21.1,280c0.9,0,1.9-0.1,2.8-0.3v-2.1h-2.1v-2.9h2.1v-1.4h-2.6V273H27v0.4h-2.6v1.4h2.1v2.9h-2.1v2c0.6-0.1,1.3-0.1,1.9-0.2
			l-0.5-0.9c0.1-0.1,0.3-0.1,0.4-0.2c0.4,0.7,0.8,1.5,1.1,2.2l-0.4,0.2l-0.5-0.9c-0.8,0-1.6,0.2-2.4,0.3l-2.8,0.4L21.1,280z
			 M22.3,275.2v2h1.6v-2H22.3z M26,277.2v-2h-1.6v2H26z"/>
		<path d="M38.5,276.1c0-0.8,0.7-1.5,1.5-1.5s1.5,0.7,1.5,1.5s-0.7,1.5-1.5,1.5l0,0C39.2,277.6,38.5,277,38.5,276.1L38.5,276.1z
			 M41.1,276.1c0-0.6-0.5-1.1-1.1-1.1s-1.1,0.5-1.1,1.1s0.5,1.1,1.1,1.1S41.1,276.7,41.1,276.1L41.1,276.1z"/>
	</g>
</g>
</svg>
