<svg xmlns="http://www.w3.org/2000/svg" viewBox="0 0 310 399"><defs><style>.cls-1{fill:none;}.cls-2{fill:#fff;}</style></defs><title>資產 3</title><g id="圖層_2" data-name="圖層 2"><g id="圖層_1-2" data-name="圖層 1"><rect class="cls-1" width="310" height="399"/><rect x="18" y="15" width="175" height="38"/><path class="cls-2" d="M51.84,33.36v4.26a7.44,7.44,0,0,1-4.77,1.64,5.39,5.39,0,0,1-5.74-5.77c0-4.1,2.53-6.07,5.7-6.07,3.69,0,4.41,2.45,4.65,3.27l-1,.31A3.59,3.59,0,0,0,47,28.32c-2.86,0-4.51,2.09-4.51,5,0,3.86,2.67,5,4.53,5a6.31,6.31,0,0,0,3.79-1.27V34.32H47.14v-1Z"/><path class="cls-2" d="M55.14,27.61v1.47h-1V27.61Zm0,3.17v8.29h-1V30.78Z"/><path class="cls-2" d="M58.67,30.78V32h0a3,3,0,0,1,2.65-1.41,2.85,2.85,0,0,1,2.19.88,3.25,3.25,0,0,1,.59,2.19v5.41h-1V33.92a3.05,3.05,0,0,0-.32-1.7,1.91,1.91,0,0,0-1.6-.78A2.57,2.57,0,0,0,59,32.91a6.17,6.17,0,0,0-.29,2.56v3.6h-1V30.78Z"/><path class="cls-2" d="M69.78,27.61l-3.7,11.75h-.75L69,27.61Z"/><path class="cls-2" d="M71,27.61,74.63,37.9h0l3.73-10.29h1.07L75.19,39.07H74.07l-4.2-11.46Z"/><path class="cls-2" d="M84,39.26c-2.34,0-3.72-1.79-3.7-4.29,0-2.86,1.42-4.38,3.7-4.38S87.7,32.11,87.7,35C87.7,37.42,86.56,39.26,84,39.26Zm0-7.87c-1.83,0-2.71,1.54-2.71,3.58,0,2.28,1.14,3.49,2.72,3.49S86.67,37.2,86.67,35,85.7,31.39,84,31.39Z"/><path class="cls-2" d="M96,27.61h1V39.07H96V37.81a3.85,3.85,0,0,1-3.12,1.45c-2.78,0-3.7-2.51-3.7-4.4s.87-4.27,3.72-4.27A3.39,3.39,0,0,1,96,32.13h0ZM93,38.46a2.9,2.9,0,0,0,2-.73,3.43,3.43,0,0,0,1-2.84c0-2.78-1.84-3.5-3-3.5-1.43,0-2.77,1.1-2.77,3.55S91.55,38.46,93,38.46Z"/><path class="cls-2" d="M100.46,27.61v7l4.07-3.84h1.36l-3.46,3.09,3.72,5.2h-1.27l-3.15-4.54-1.27,1.12v3.42h-1V27.61Z"/><path class="cls-2" d="M107.17,33c.32-1.73,1.39-2.45,3.57-2.45,3.14,0,3.15,1.57,3.15,3.52,0,.18,0,2,0,2.34a4.73,4.73,0,0,0,.51,2.62H113.3a4.23,4.23,0,0,1-.31-1.26,4.25,4.25,0,0,1-3.37,1.45A2.32,2.32,0,0,1,107,37a2.21,2.21,0,0,1,.92-1.86c.31-.24.69-.49,2.53-.75a11.73,11.73,0,0,0,2.48-.5v-.28c0-1,0-2.23-2.17-2.23s-2.44,1.23-2.58,1.84Zm5.74,1.57a18.24,18.24,0,0,1-2.64.62c-1.09.19-2.27.4-2.27,1.65a1.69,1.69,0,0,0,1.81,1.58,3.8,3.8,0,0,0,2.24-.86,2.79,2.79,0,0,0,.86-2.45Z"/><path class="cls-2" d="M122.61,27.61l3.6,9.93,3.65-9.93h1.62V39.07h-1V28.72h0l-3.78,10.35h-.91L122,28.72h0V39.07h-1V27.61Z"/><path class="cls-2" d="M133.84,33c.32-1.73,1.39-2.45,3.57-2.45,3.14,0,3.15,1.57,3.15,3.52,0,.18,0,2,0,2.34a4.73,4.73,0,0,0,.51,2.62H140a3.94,3.94,0,0,1-.3-1.26,4.29,4.29,0,0,1-3.38,1.45,2.32,2.32,0,0,1-2.64-2.3,2.2,2.2,0,0,1,.93-1.86c.3-.24.68-.49,2.53-.75a12,12,0,0,0,2.48-.5v-.28c0-1,0-2.23-2.18-2.23s-2.43,1.23-2.58,1.84Zm5.75,1.57a18.55,18.55,0,0,1-2.64.62c-1.09.19-2.28.4-2.28,1.65a1.7,1.7,0,0,0,1.81,1.58,3.8,3.8,0,0,0,2.24-.86,2.79,2.79,0,0,0,.87-2.45Z"/><path class="cls-2" d="M143.92,30.78v1.67h0c.18-.61.59-1.86,1.91-1.86a2.55,2.55,0,0,1,1.47.49l-.37.85a2.8,2.8,0,0,0-1.12-.32c-.3,0-1,0-1.47,1.11a4.94,4.94,0,0,0-.29,1.39,11.47,11.47,0,0,0-.06,1.17v3.79h-1V30.78Z"/><path class="cls-2" d="M149.58,30.78h1.56v.72h-1.56v5.44c0,1,.12,1.46.93,1.46a4.76,4.76,0,0,0,.77-.11l.13.78a4.89,4.89,0,0,1-1,.13c-1.79,0-1.76-1.2-1.76-2.13V31.5h-1.15v-.72h1.15V28.65l1-.62Z"/><path class="cls-2" d="M153.82,27.61v1.47h-1V27.61Zm0,3.17v8.29h-1V30.78Z"/><path class="cls-2" d="M157.36,30.78V32h0A2.93,2.93,0,0,1,160,30.59a2.88,2.88,0,0,1,2.2.88,3.31,3.31,0,0,1,.59,2.19v5.41h-1V33.92a3.05,3.05,0,0,0-.32-1.7,1.91,1.91,0,0,0-1.6-.78,2.57,2.57,0,0,0-2.29,1.47,6.17,6.17,0,0,0-.29,2.56v3.6h-1V30.78Z"/><path class="cls-2" d="M166.27,27.61v1.47h-1V27.61Zm0,3.17v8.29h-1V30.78Z"/><path d="M24.74,69.11h3.65v.43H24.74V70.7h4.78v.43h-10V70.7h4.72V69.54H20.62v-.43h3.61v-1H20v-.44h4.24V66.51h.5v1.16H29l0,.43H24.75ZM25.86,77a6.94,6.94,0,0,0,1.1,0,.36.36,0,0,0,.36-.34V75.38l-5.51,0v2.13h-.49V72h6.51v5a.56.56,0,0,1-.48.56c-.4.06-.86,0-1.24,0ZM21.8,72.39v1.1h5.52V72.37ZM27.32,75v-1H21.81V75Z"/><path d="M43.67,75.61V69.2h.55v8.24h-.55V76.1H36v1.34h-.52V69.2H36v6.41h3.55V67.12h.54v8.49Z"/><path d="M50.12,72.64a3.49,3.49,0,0,1,.28-.48l.93-1.67.53-1.07.78-1.89.27-.77a3.12,3.12,0,0,1,.42.18l-1,2.58V77.7h-.51V70.43a1.11,1.11,0,0,1-.14.35l-.89,1.64-.31.48Zm10.45,4.93a12.56,12.56,0,0,1-3.47-5.35c-.2-.82-.36-1.67-.52-2.5a9.07,9.07,0,0,1-1.41,2.49V76.3h.07l2.3-1.08v.48c-.53.24-1.08.51-1.58.75l-2,1a2,2,0,0,1-.23-.44l1-.42V72.79a22.28,22.28,0,0,1-1.75,1.66l-.29-.35a10.56,10.56,0,0,0,3.46-4.48H53v-.46h7.91v.46H57a16.27,16.27,0,0,0,.73,3.17,15.68,15.68,0,0,0,2.3-1.58l.31.35a22.84,22.84,0,0,1-2.44,1.67,12.13,12.13,0,0,0,3,4ZM55.92,66.74a15.93,15.93,0,0,1,1.46,1.77L57,68.8A13.68,13.68,0,0,0,55.59,67Z"/><path d="M76,73.06v.42H68v.31h-.48V70.42s0,0,0,0c-.34.37-.67.71-1,1L66,71.16a9.62,9.62,0,0,0,2.31-2.7l.42.22a6.1,6.1,0,0,1-.39.72h2.86a5.36,5.36,0,0,0-.45-1l.41-.16c.2.37.39.76.55,1.14h3.74v.43H71.68v.75h3.25V71H71.67v.79h3.25v.43H71.68v.83Zm-7.25-6.54h.5v1h1.65v.43H69.2v.69h-.49v-.69h-2.3v-.42h2.29Zm5.93,10v-.84h-3v-.43h3V74.5H71.56v-.43h3.57V77.4h-.48v-.46H67.81v.47h-.5V74.34a9.73,9.73,0,0,0,3.22-.68L71,74a14.84,14.84,0,0,1-3.19.73v.48h2.93v.42H67.79v.85ZM68,70.58h3.22v-.75H68Zm3.22,1.21V71H68v.79ZM68,73h3.22v-.82H68Zm5.71-6.53v1l2.39,0v.43H73.7l0,.8h-.49v-.8h-1.7v-.43h1.7v-1Z"/><path d="M83.92,76.67v.91h-.5V72a25.37,25.37,0,0,1-1.87,2.16l-.4-.31a15,15,0,0,0,3.5-5H81.58v-.45h3.28c.26-.63.47-1.25.69-1.89.16,0,.29.1.44.14a17.69,17.69,0,0,1-.63,1.76h6.25v.44H85.19a21.7,21.7,0,0,1-1.28,2.43v4.92h3.6V72.71H84.68v-.46h2.83V69.81H88v2.44h3.14v.46H88v3.52h3.9v.45Z"/><path d="M102.7,71a2.31,2.31,0,0,1-.74,2.24l-.34-.31a1.42,1.42,0,0,0,.59-.9h-.64V71Z"/><path d="M117.9,66.61c0,.67-.07,1.43-.06,2.15l0,1.82a15.93,15.93,0,0,0,.26,2.47h4.65v.45h-4.5a4.84,4.84,0,0,0,.84,1.74,15,15,0,0,0,2.55-1.45l.34.3a18.4,18.4,0,0,1-2.56,1.5,6.5,6.5,0,0,0,2.62,1.52c.14,0,.25,0,.29-.19a6.93,6.93,0,0,0,.38-1.49l.43.2a9.56,9.56,0,0,1-.39,1.51.73.73,0,0,1-.4.41,1.7,1.7,0,0,1-1.12-.26A6.35,6.35,0,0,1,119,75.83a23.19,23.19,0,0,1-3.66,1.34l-.26-.37a21.43,21.43,0,0,0,3.61-1.33,6.6,6.6,0,0,1-.9-1.94h-3.16l-.06.46a14.06,14.06,0,0,1,2.1,1.38l-.31.37a12.17,12.17,0,0,0-1.81-1.25,6.84,6.84,0,0,1-1.86,3.09l-.32-.36a5.88,5.88,0,0,0,1.75-3.17l.08-.52h-1.55v-.47h1.57c0-.34,0-.69,0-1h.43l0,1h3a31.8,31.8,0,0,1-.27-4.4c0-.71,0-1.35.06-2Zm-1.71,3.28a14.91,14.91,0,0,1,1,2.17,1.69,1.69,0,0,1-.38.19l-.29-.7-2.54.31-.89.14-.09-.5a23.7,23.7,0,0,0,2.06-2,15.44,15.44,0,0,0-1.85.14l-.08-.47A18,18,0,0,0,115,66.88l.3.31a21.42,21.42,0,0,1-1.46,1.87,2.07,2.07,0,0,1-.24.17c.59-.12,1.28-.09,1.9-.18l.92-1.1.34.25A24.26,24.26,0,0,1,114,71.27l-.39.23a2.78,2.78,0,0,0,.55-.1l2.25-.27-.52-1Zm6,1.61-1.81.19c-.56.06-1.1.16-1.64.24l0-.5a26.35,26.35,0,0,0,1.92-1.89c-.64,0-1.28.06-1.91.16l0-.55a10,10,0,0,0,1.82-2.32l.38.3a8.88,8.88,0,0,1-1.75,2.14c.61-.12,1.27-.11,1.9-.18.35-.41.71-.82,1-1.23a3.75,3.75,0,0,1,.36.24,23.37,23.37,0,0,1-2.88,3.18l-.27.15c.13,0,.25-.08.4-.08l2.35-.26v0l-.52-.86.36-.2a16.23,16.23,0,0,1,1.14,2.08l-.41.17Zm-.75,1.38c-.26-.15-.48-.33-.73-.46l-.58-.31.22-.32a8.89,8.89,0,0,1,1.29.76Z"/><path d="M129.42,68.24v4.84a7.19,7.19,0,0,1-1.31,4.48l-.41-.34a6.35,6.35,0,0,0,1.23-3.75V67.78h4.7A5.71,5.71,0,0,0,133,66.7l.41-.24a6.28,6.28,0,0,1,.76,1.23l-.28.08h4.33v.46Zm1.27,4.91H137a8.73,8.73,0,0,1-2.5,2.53,13.71,13.71,0,0,0,3.68,1.48l-.4.43A18.32,18.32,0,0,1,134,76a9.89,9.89,0,0,1-3.68,1.59l-.31-.45a9,9,0,0,0,3.55-1.4,8.19,8.19,0,0,1-2.38-2.13h-.52Zm-.63-3.35h1.69V68.72h.5v1.09h3.45V68.72h.48V69.8h1.71v.45h-1.71v2h-4.44v-2h-1.68Zm1.73,3.79A7.1,7.1,0,0,0,134,75.41a9.42,9.42,0,0,0,2-1.81Zm3.91-3.33h-3.45v1.53h3.45Z"/><path d="M153,69.54a16.59,16.59,0,0,1-4.71,6,15.82,15.82,0,0,1-4.3,2l-.33-.41a13,13,0,0,0,5.45-3,21.17,21.17,0,0,0-2.44-2.2l.31-.35a22.15,22.15,0,0,1,2.49,2.21,14.48,14.48,0,0,0,1.4-1.66,17.71,17.71,0,0,0,1.58-2.69H148a15.82,15.82,0,0,1-3.47,3.79l-.36-.27a15.67,15.67,0,0,0,4.12-4.91c.23-.47.5-.93.69-1.43l.42.18a16.33,16.33,0,0,1-1.13,2.2H153Z"/><path d="M161.09,70.31c.15.19.3.34.46.54a2.62,2.62,0,0,1,.46,2.89c-.35.58-1,.48-1.66.46l-.23-.46c.52,0,1.3.22,1.57-.38a1.65,1.65,0,0,0,.06-1,3.51,3.51,0,0,0-1.22-1.9l1.3-3h-2v9.85h-.5V67h3.18Zm4.43,2.93a6,6,0,0,1-2.54,2.7l-.42-.32A5.77,5.77,0,0,0,165,73.25h-1.34a6,6,0,0,1-1.47,1.32l-.43-.34A4.8,4.8,0,0,0,164,71.82h-1.43v-.45h6.83v.45h-4.89a4.38,4.38,0,0,1-.48,1h4.77a25.09,25.09,0,0,1-.32,3.79.92.92,0,0,1-.57.63,5,5,0,0,1-1.34,0l-.17-.48c.4,0,.72.1,1.13.11.59,0,.53-.69.61-1.22a16.78,16.78,0,0,0,.17-2.35h-1.12a6.82,6.82,0,0,1-3.35,4l-.45-.32a6.7,6.7,0,0,0,3.34-3.69ZM168.13,67v3.44h-4.52V67Zm-4,1.88,0,1.11h3.51V68.87Zm0-1.45v1h3.51v-1Z"/><path d="M174.43,77.33a13.35,13.35,0,0,0,.9-2.72l.46.09a11.89,11.89,0,0,1-.86,2.77Zm1-3.54-.68.22-.24-.38a27.14,27.14,0,0,0,2.22-3.16c-.68.13-1.37.17-2,.36l-.19-.43a19.49,19.49,0,0,0,2-3.77l.45.18a21,21,0,0,1-1.81,3.45c.63-.06,1.27-.18,1.9-.27.31-.49.57-1,.83-1.54l.46.19a29.61,29.61,0,0,1-3,4.72l2.74-.55a8.4,8.4,0,0,0-.58-.93l.42-.21a12.05,12.05,0,0,1,1.26,2.13c-.16.07-.31.17-.48.23a5.34,5.34,0,0,0-.38-.8Zm1.48.71c.18.73.33,1.47.44,2.23l-.52.15a16.23,16.23,0,0,0-.38-2.3Zm1.52,1.32a14.45,14.45,0,0,0-.79-1.51l.42-.18a13.09,13.09,0,0,1,.79,1.48Zm.6-7.22v-.46h5.66v.46h-2.59v7.52h3c0,.16,0,.3,0,.46h-6.35v-.46h2.88V68.61Z"/><path d="M193.81,72.13a1.5,1.5,0,1,1,1.49,1.5A1.49,1.49,0,0,1,193.81,72.13Zm2.59,0a1.1,1.1,0,1,0-1.1,1.1A1.1,1.1,0,0,0,196.4,72.13Z"/><path d="M206.75,69.35a15,15,0,0,1-1,2.71,1.31,1.31,0,0,1-.4-.15,21.51,21.51,0,0,0,1-2.71Zm.4,8.22v-11h.47v11Zm2-6.68a1.9,1.9,0,0,1-.39.23c-.23-.44-.63-1.18-1-1.7a4.06,4.06,0,0,1,.41-.25C208.42,69.68,208.83,70.35,209.11,70.89Zm-.76,6.33a14.45,14.45,0,0,0,3-1.25c.12.07.21.22.32.31a20.75,20.75,0,0,1-3,1.31Zm6.79-10-.25,1.35h1.22V69h-1.3l-.28,1.48h-4.9c.14-.48.22-1,.32-1.48h-1.43v-.44H210c.06-.4.15-.84.22-1.35Zm-5.51,8.47V71.3h5.28v4.36ZM210.1,73v.79h4.33V73Zm0,1.26v1h4.33v-1Zm4.34-2.51h-4.33v.78h4.33ZM212.12,69h-1.7l-.2,1h1.66Zm.07-.45.23-.89h-1.79l-.17.89Zm2.14.45h-1.72l-.23,1h1.75Zm.23-1.34h-1.65l-.19.87h1.69ZM213.2,76a26.25,26.25,0,0,1,2.66,1.18c-.09.14-.21.28-.3.41a13.28,13.28,0,0,0-2.63-1.21Z"/><path d="M221.3,73.81a13.72,13.72,0,0,0,3.54-3h-3.47V70.4h3.77a7.65,7.65,0,0,0,.54-1.07h-3.45V68.9h3.59a8.63,8.63,0,0,0,.32-1.21c-1.1,0-2.59.11-4,.13l-.28-.47a52.43,52.43,0,0,0,8.39-.62l.32.43c-1.55.19-2.62.35-3.9.48-.07.4-.18.85-.29,1.24h4.27v.46h-4.42c-.17.41-.27.64-.48,1.06h5.74v.44h-6.06a8.85,8.85,0,0,1-.88,1.08h5.19v5.62h-.52v-.9H224.6v.92l-.52,0V72.37a23.74,23.74,0,0,1-2.38,1.77Zm3.31-1.46v.92h4.58v-.91Zm4.57,1.37H224.6v1h4.58Zm0,1.45H224.6v1h4.58Z"/><path d="M238.53,71.89a17.67,17.67,0,0,1-1.61,3.19,3.74,3.74,0,0,1-.4-.32,14.49,14.49,0,0,0,2-4.22v-.31H236.7V69.8h1.82V67.69a12.86,12.86,0,0,1-1.42.15l-.26-.35a18.51,18.51,0,0,0,3.42-.57c.09.12.23.21.31.33-.52.12-1.06.26-1.58.36v2.2h1.86v.43H239v7.39h-.46Zm.64-.37a2.88,2.88,0,0,1,.38-.22c.48.57.94,1.16,1.37,1.77a4.44,4.44,0,0,1-.39.24C240.09,72.7,239.66,72.1,239.17,71.52Zm1.05,5.74a9.67,9.67,0,0,0,3.14-5.4,13.39,13.39,0,0,0,.21-3.16V66.57H244v3.25c-.05.52-.05,1.07-.13,1.58.66,2,1.51,4.25,3.29,5.69l-.33.32c-1.21-.75-2.71-3.4-3.14-4.94a10.9,10.9,0,0,1-3.13,5.12Zm.9-5.45a27.43,27.43,0,0,0,.52-3.12h.44c-.08,1.08-.37,2.25-.52,3.18Zm4.17-.25a19.82,19.82,0,0,0,.94-3l.43.12a21.14,21.14,0,0,1-.9,3Z"/><path d="M259,76.86a7.43,7.43,0,0,0,1.1,0,.34.34,0,0,0,.22-.35V73h-4.63a6.33,6.33,0,0,1-2.65,4.3l-.37-.35a6.38,6.38,0,0,0,2.17-2.69,5,5,0,0,0,.35-1.87V67h5.66v9.71a.46.46,0,0,1-.3.5,3.6,3.6,0,0,1-1.27.11Zm1.33-9.4h-4.62v2.23h4.62Zm-4.62,2.68v2.44h4.62V70.13Z"/><path d="M267.69,74a18.88,18.88,0,0,0,2.94-2.5h-2.71v-.45H271a8.43,8.43,0,0,0,.93-1.31h-2.75v-.44h3a7.66,7.66,0,0,0,.39-1.14h-4v-.45h4.06a8.61,8.61,0,0,0,.13-1.15h.49a7.25,7.25,0,0,1-.14,1.14h4.5v.46H273c-.11.38-.21.75-.35,1.13H277v.44h-4.53a8.12,8.12,0,0,1-.81,1.31h6.57v.44h-3.08a14.57,14.57,0,0,0,3.3,2.53l-.28.34-.09,0a15.13,15.13,0,0,1-3.49-2.86h-3.27a26.14,26.14,0,0,1-3.23,2.86Zm2.74,3.55V72.7h5.3v4.86h-.51V76.8h-4.29v.77Zm.49-4.42v1.34h4.3V73.15Zm0,1.77v1.42h4.29V74.93Z"/><path d="M29.49,91.57l.45.23a17.35,17.35,0,0,1-.39,2.5c-.09.15-.33.32-.51.08a8.28,8.28,0,0,1-1.35-5.1V84.71H20.62v4.05a12.42,12.42,0,0,1-1.09,5.66l-.44-.2a12.32,12.32,0,0,0,1-5.45V84.29h8.07v4.89a8,8,0,0,0,1,4.45A9.86,9.86,0,0,0,29.49,91.57ZM21.08,93a23.62,23.62,0,0,0,2.82-.29V90.61H21.79V87.76H23.9V86.39H21.31V86H27v.43H24.4v1.37h2.09v2.86H24.4v2c.62-.07,1.27-.14,1.88-.25l-.48-.91c.15-.06.28-.13.44-.18.4.72.76,1.45,1.12,2.19l-.42.24-.45-.9c-.79,0-1.56.17-2.37.28l-2.83.38Zm1.21-4.78v2H23.9v-2Zm3.69,2v-2H24.4v2Z"/><path d="M38.53,89.13A1.5,1.5,0,1,1,40,90.63,1.49,1.49,0,0,1,38.53,89.13Zm2.59,0a1.1,1.1,0,1,0-1.1,1.1A1.1,1.1,0,0,0,41.12,89.13Z"/><path d="M50.62,88.79v-.48h10v.48Z"/><path d="M69.4,92.17H67.29V89.83h2.09V88.38h-2.7v1.14h-.52V87.94h9.76v1.54h-.5v-1.1H72.54v1.39h2.23v2.36h-2.2v1.61h3.64v.44H65.83v-.45H69.4ZM66,85.25V84.8h4.79V83.74h.48v1.05H76v.46H71.25v1.14h3.82v.44H67V86.4h3.81V85.25Zm8.27,5H72V88.38H69.87v1.89h-2.1v1.44h2.12v2H72v-2h2.21Z"/><path d="M81.78,94.1a2.46,2.46,0,0,1-.4-.3,23.18,23.18,0,0,0,1.83-4,2.5,2.5,0,0,1,.39.23A29,29,0,0,1,81.78,94.1Zm0-7.72c.58.55,1.13,1.15,1.66,1.76l-.32.37c-.44-.56-1-1.13-1.47-1.63l-.19-.2Zm.58-2.46a21.18,21.18,0,0,1,1.59,1.69l-.33.33a19.77,19.77,0,0,0-1.66-1.77l.31-.31Zm1.2,5.78a9.8,9.8,0,0,0,2.59-2.92H84.59V84.15h6.55v2.63H86.6a6.25,6.25,0,0,1-.59,1h5.47v.68l-.06,2.29-.14,2c-.13.53,0,1.22-.52,1.56s-1.14,0-1.71.06l-.18-.49,1.3.13a.65.65,0,0,0,.42-.19,1.65,1.65,0,0,0,.19-.76l.13-1.69L91,89.09v-.84H85.65a13.46,13.46,0,0,1-1.81,1.81Zm4.66,2.09.31-.24a13.54,13.54,0,0,1,1.62,1.75l-.33.25-.55-.67-.52,0-3.21.31-1.31.12L84,92.85a23.37,23.37,0,0,0,2.81-.2v-1.3h-2V89.23h2v-.78h.47v.78h2.19v2.12H87.3V92.6c.51,0,1-.14,1.53-.18ZM85,84.57v1.78h1.53V84.57Zm.21,5.13V91h1.59V89.69ZM87,86.34h1.57V84.57H87Zm2,3.37H87.32V91H89Zm1.62-5.14H89.08v1.77h1.58Z"/><path d="M99,89.72a26.47,26.47,0,0,1-2,4.66l-.43-.27a25.85,25.85,0,0,0,2-4.63Zm-.64-1.34a15.2,15.2,0,0,0-1.68-1.63l.38-.27c.56.48,1.18,1.08,1.69,1.61Zm-.77-4.55c.54.5,1.16,1,1.65,1.54l-.37.3c-.52-.54-1-1-1.6-1.51Zm2.5,10.61v-8.2h2.09l0-1.67-2.66,0v-.44h7.81v.44h-2.71v1.69h2.09v8.21h-.52v-.76h-5.54v.75Zm4.38-4.6c-.23,0-.39-.29-.39-.53V86.69h-1.38a4.59,4.59,0,0,1-1.12,3.38,1.48,1.48,0,0,1-.49.35l-.39-.34c1.21-.74,1.45-2.06,1.46-3.39h-1.53V91.1h5.55V89.84Zm1.7,1.72h-5.54v1.66h5.54Zm-2.09-7h-1.38v1.66h1.38Zm2.09,2.12h-1.56V89c0,.28.12.4.35.4h1.22Z"/><path d="M116,90.44a10.65,10.65,0,0,0-.73-1.07l.34-.22a8.92,8.92,0,0,1,.78,1l-.33.22,2.58,0a8.56,8.56,0,0,0,.74-1.32l.43.17a13.13,13.13,0,0,1-.66,1.15h3.6v.43h-10.3v-.42Zm5.33-4.5v.44l-7.47,0v-.42h3.48V85h-4.51v-.43h4.53v-1h.51v1h4.61V85h-4.61v1Zm-7.22,8.57V91.76h7v2.76h-.49v-.61h-6v.6Zm.18-5.46V87.14h6.6v1.91Zm.33,3.13v1.3h6v-1.3Zm5.77-4.6h-5.6v1h5.6Z"/><path d="M130.09,86.51V83.77h.5v2.74h1.83V87h-1.85v1.67l.38-.23a9.43,9.43,0,0,1,1.41,2.12l-.39.29a10.81,10.81,0,0,0-1.4-2.12v6h-.5V89.17H130a10.86,10.86,0,0,1-1.81,3.45l-.36-.42A9.51,9.51,0,0,0,130,87.56L130,87H128.1v-.43Zm3.47,7.31v.88h-.51V84.51h5V94.59h-.51v-.77Zm0-8.87v2.28h4V85Zm0,2.73v2.45h4V87.68Zm0,2.91v2.79h4V90.57Z"/><path d="M143.31,94.22a6.72,6.72,0,0,0,2.3-4h-1.84v-.33a15,15,0,0,0,1.59-2.38l-1.77,0v-.44H146a14.06,14.06,0,0,1-1.63,2.7h1.76a9.22,9.22,0,0,1-.71,2.38,3.74,3.74,0,0,0,2.84,1.51h4.62l1.08-.07-.22.5h-5.51a4.33,4.33,0,0,1-3-1.58,8.52,8.52,0,0,1-1.62,1.92Zm1.19-10.11c.33.56.66,1.14.95,1.71l-.38.2a19.12,19.12,0,0,0-.94-1.72Zm1.7,3.9a19.29,19.29,0,0,0,3.28-1.38,7.84,7.84,0,0,1-1.4-1.09c-.16.24-.49.56-1,1.08l-.36-.23a13,13,0,0,0,2-2.7,3.48,3.48,0,0,1,.38.2,7.29,7.29,0,0,1-.42.78h3.4v.43a7.76,7.76,0,0,1-1.77,1.53,20.87,20.87,0,0,0,3.42,1.27l-.24.41a22.11,22.11,0,0,1-3.59-1.41c-.81.37-2,1-3.5,1.54Zm6.5.57V89h-2.55v1h2.07v.43h-2.07v1.09h3.07V92h-3.07V93.3h-.48V92h-3v-.45h3V90.44h-2.1V90h2.1V89h-2.53v-.42h2.53v-.92h.48v.92Zm-4.3-3.49-.07.12a6,6,0,0,0,1.57,1.15,6.4,6.4,0,0,0,1.6-1.27Z"/><path d="M164.81,88a2.29,2.29,0,0,1-.74,2.24l-.34-.31a1.42,1.42,0,0,0,.59-.9h-.63V88Z"/><path d="M175.12,93.36l.89-1.63a12.73,12.73,0,0,0,.8-1.82l.42.27A25.77,25.77,0,0,1,175,94.54l-.45-.28Zm1.81-4.61a14.82,14.82,0,0,0-2.09-1.57l.22-.38a15.54,15.54,0,0,1,2.15,1.52Zm.23-2.42a14.76,14.76,0,0,0-2.07-1.72l.26-.38A13.37,13.37,0,0,1,177.49,86Zm7.57,8.36A9.39,9.39,0,0,1,181.1,91a5,5,0,0,1-.44-1.22H179v3.78l2.45-.87c0,.15,0,.34,0,.5l-3.76,1.37-.19-.47c.31-.12.66-.19,1-.34V85.32H181a5.77,5.77,0,0,0-.9-1.33l.35-.28a12.48,12.48,0,0,1,1,1.37,2.13,2.13,0,0,1-.34.25h2.54v4.4h-2.48A6.31,6.31,0,0,0,182.32,92l0,0a6.52,6.52,0,0,0,1.72-1.94l.4.28a7.42,7.42,0,0,1-1.8,2,7,7,0,0,0,2.46,2Zm-1.6-8.9H179v1.47h4.17ZM179,87.73v1.55h4.16V87.73Z"/><path d="M194,87.78c-.49.67-1,1.32-1.51,2v5H192V90.31H192a11.38,11.38,0,0,1-1.85,1.7l-.36-.34a14.72,14.72,0,0,0,3.52-3.61l.4-.58Zm-1.24-1.84h-2.6v-.45h2.61V83.74h.49V85.5H195v.44h-1.72v1.35h-.49Zm7.32,3.11A24.33,24.33,0,0,1,196,90.92v2.36a.38.38,0,0,0,.4.39h3c.55,0,.67-.62.79-1l.18-.76.45.28a7.18,7.18,0,0,1-.46,1.4.77.77,0,0,1-.84.5H196a.58.58,0,0,1-.57-.6V87.43H196v3a21.61,21.61,0,0,0,3.79-1.74Zm-2.78-1.8V85.9l-1.69,0v-.44h1.69V83.71h.48v1.73h2.7v.44h-2.7v1.37Z"/><path d="M205.45,93.86a17.09,17.09,0,0,0,2.26-4.37,1.69,1.69,0,0,1,.39.22,19.24,19.24,0,0,1-2.23,4.44Zm1.69-5.21a23.19,23.19,0,0,0-1.68-1.76l.34-.31a20.32,20.32,0,0,1,1.72,1.75Zm.6-2.43c-.43-.56-1.2-1.4-1.69-1.94l.31-.3a25.51,25.51,0,0,1,1.74,1.87Zm.27,1.52a17.77,17.77,0,0,0,2.19-4.21c.14,0,.27.1.43.15-.23.6-.48,1.18-.76,1.77h5.66l0,3.18-.08,2.23a13.1,13.1,0,0,1-.35,2.81,1.13,1.13,0,0,1-.77.75l-.3,0-1.25-.18-.24-.54,1.48.21a.69.69,0,0,0,.61-.39,10,10,0,0,0,.26-1.82l.12-1.89,0-2.19V85.9h-5.38a18.93,18.93,0,0,1-1.2,2.08Zm2.75-1.34a10.8,10.8,0,0,1-.48,1h3.56v.45h-2.12v1.6h2.61v.44h-2.61v2.25h1.44V90.37h.49v2.82h-.49v-.58h-3.55v.85h-.49V90.37h.49v1.81h1.6V89.93h-2.77v-.44h2.77v-1.6H210a12.61,12.61,0,0,1-.89,1.39,3.42,3.42,0,0,1-.42-.23,13.73,13.73,0,0,0,1.65-2.84Z"/><path d="M231.67,93.9v.42H221.1v-.42h1.57l0-2.56,7.5,0v2.54Zm-9-6v-.42h3.5v-.87l-5,0v-.43h5v-.84h-3.49v-.43h3.49v-.92h.51v.92H230v1.28h1.71v.42H230v1.3h-3.3v.8h4.39v.42h-9.3v-.42h4.41v-.8Zm.17,1.74c-.36.63-.72,1.25-1.14,1.85a2.26,2.26,0,0,1-.38-.25c.4-.6.76-1.23,1.11-1.85ZM225,91.77h-1.85v2.11H225ZM225,89.45c.37.48.76,1,1.07,1.46l-.39.23c-.32-.48-.7-1-1.07-1.44Zm.55,4.43h1.8V91.77h-1.8Zm1.14-8.6v.86h2.78V85.3Zm2.79,1.28h-2.79v.87h2.79Zm-1.76,2.84c0,.06.11.13.13.17l.95,1.3-.41.26c-.34-.48-.68-1-1.06-1.48Zm.13,4.48h1.83V91.77H227.8Zm3.42-2.55a17.09,17.09,0,0,0-1.38-1.7l.37-.26a17.82,17.82,0,0,1,1.37,1.72Z"/><path d="M242.42,90.83a8.89,8.89,0,0,0,4.73,3.29l-.34.4a9.31,9.31,0,0,1-4.92-3.69c-1,2.07-2.92,3-5.07,3.7l-.27-.43c2.2-.6,4-1.55,4.82-3.27h-4.45v-.44h1.29V87.5h3.37V86h.49V87.5h3.39v2.89h1.43v.44Zm-.88-6.07v.43h-1.85v1.4h-.49v-1.4H237v-.43h2.25V83.52h.49v1.24Zm0,5.63c.06-.7.1-1.63.09-2.45h-2.88v2.45ZM245,87.94h-2.89c0,.83,0,1.76-.08,2.45h3Zm1.93-3.18v.43h-2.36v1.4H244v-1.4h-1.86v-.43H244V83.52h.5v1.24Z"/><path d="M254.42,83.77c0,.74,0,1.48,0,2.21h2.52v.43h-2.57a12.76,12.76,0,0,1-1.85,4.87c-.17,0-.3-.14-.46-.18a11.84,11.84,0,0,0,1.56-3.48c.12-.38.15-.81.24-1.22h-1.56V86h1.61c.06-.69.07-1.52.07-2.24Zm1.86,8.45a6.83,6.83,0,0,0-.53-1.21c.14,0,.28-.1.42-.12a10.6,10.6,0,0,1,1.16,3l-.45.14c-.15-.43-.26-1-.43-1.36l-3.65,1.3-.18-.47c.24,0,.48-.11.71-.18a20.26,20.26,0,0,0,1.7-5.71l.43.1A16.74,16.74,0,0,1,253.94,93Zm6.2,1.22h-4.3v1.07h-.5V87.36a3.21,3.21,0,0,0-.3.53,11.93,11.93,0,0,1-.71,1.15l-.42-.13a13.88,13.88,0,0,0,2.13-5.36l.42.08a13,13,0,0,1-.52,2.19h4.09v.44h-2v1.86h1.7v.43l-1.7,0v1.85h1.7v.44l-1.7,0V93h2.14Zm-4.3-7.17v1.85h1.67V86.26Zm1.67,2.26h-1.67v1.85h1.67Zm0,4.48v-2.2h-1.67V93Zm.48-7.47c-.26-.5-.52-1-.82-1.53.11-.06.26-.1.39-.16.28.5.57,1,.81,1.53Z"/><path d="M271.45,89.13a1.5,1.5,0,1,1,1.49,1.5A1.49,1.49,0,0,1,271.45,89.13Zm2.59,0a1.1,1.1,0,1,0-1.1,1.1A1.1,1.1,0,0,0,274,89.13Z"/><path d="M24.82,108.13v2.09a4.85,4.85,0,0,0,1,.2h3l1.06-.06-.3.56H27.44c-2.16,0-4.24-.26-5.52-2-.11-.14-.22-.3-.34-.44a6.27,6.27,0,0,1-2.11,2.75,1.65,1.65,0,0,1-.37-.33,5.48,5.48,0,0,0,2.3-4.09l.48.11a6.45,6.45,0,0,1-.14.88,5.25,5.25,0,0,0,1,1.35,4.34,4.34,0,0,0,1.55.9v-3.84H19.53v-.47h10v.47h-4.7v1.45h3.76v.47Zm-3.37-3.47V101h6.07v3.65ZM22,103v1.15h5V103Zm0-1.56v1.09h5v-1.09Z"/><path d="M35.22,111.33c1.61-.71,2.91-1.43,3.26-3.35l-3.19,1.08-.25-.48c.78-.2,2.17-.68,3.5-1.14a10.73,10.73,0,0,0,.07-1.61H35.52v-.48h3.09V103.5H35.23V103h3.38v-2.26h.5v6.47L40,107v.5l-.9.32a4.42,4.42,0,0,1-1.63,2.91,8.36,8.36,0,0,1-1.77,1.09Zm6,.36v-11h.5V103h3.44v.48H41.75v2.15h3.14v.48H41.75v2.23h3.62v.48H41.75v2.89Z"/><path d="M60.16,111.15c-.06.2-.18.38-.39.38a.73.73,0,0,1-.54-.18A10.9,10.9,0,0,1,57,108.27a20,20,0,0,1-3.09,2.67l-.39-.28,1.69-1.35a11.58,11.58,0,0,0,1.57-1.56,14.35,14.35,0,0,1-1-4.73H51.56v1.92l3.09,0a19.48,19.48,0,0,1-.4,3.81.72.72,0,0,1-.66.56,7.14,7.14,0,0,1-1.13,0l-.22-.47a11.34,11.34,0,0,0,1.14,0c.46,0,.36-.49.49-.76a18.71,18.71,0,0,0,.23-2.72H51.53c-.09,2-.14,4-1.06,5.73-.06.11-.15.24-.22.36a2.86,2.86,0,0,1-.44-.2A10.87,10.87,0,0,0,51,105.92l0-3.37h4.69l0-2h.51c0,.71,0,1.38.06,2h4.07V103h-4a12.79,12.79,0,0,0,.83,4.24,19,19,0,0,0,2.15-3.06,2.24,2.24,0,0,1,.43.26l0,.08a22.55,22.55,0,0,1-2.35,3.26A9.64,9.64,0,0,0,59.59,111c.15.09.18,0,.2-.15.16-.54.34-1.09.5-1.64l.42.17Zm-1.32-9.09c-.48-.39-1-.83-1.54-1.18l.32-.33c.51.36,1,.76,1.52,1.16Z"/><path d="M68.07,109a9.42,9.42,0,0,1-1.63,2.49l-.42-.25a10.23,10.23,0,0,0,1.65-2.45Zm-1.34-7.44h4v6.67h-4Zm3.51,2V102h-3v1.56Zm0,.44h-3v1.63h3Zm0,2.06h-3v1.73h3Zm.24,4.64a11.56,11.56,0,0,0-1.11-1.76l.38-.21a13.44,13.44,0,0,1,1.11,1.74Zm.41.54a20.26,20.26,0,0,0,2.52-3,19.64,19.64,0,0,1-1.23-3.46,13.09,13.09,0,0,1-.67,1.66l-.5-.15a16.85,16.85,0,0,0,1.59-5.69l.47.14a21.53,21.53,0,0,1-.37,2.13h3.5v.45h-.78A9.06,9.06,0,0,1,74,108.2a13.43,13.43,0,0,0,2.38,2.88l-.4.36a19.18,19.18,0,0,1-2.31-2.75,24,24,0,0,1-2.42,2.85Zm1.73-8c-.05.15-.1.35-.15.5a13.07,13.07,0,0,0,1.27,4A8.45,8.45,0,0,0,75,103.27Z"/><path d="M88.48,111.08a6.7,6.7,0,0,0,1.09,0,.34.34,0,0,0,.31-.35v-2H86.14v.37H83.85v2.4h-.46v-2.4H81.13v-.4h2.26v-1.19h-1.6v-3.93h1.6v-1.1H81.33v-.4h2.06v-1.56h.46v1.56H86v.4H83.85v1.1h1.63v3.93H83.85v1.19H86v-.37h3.93v-.66h.46v.66H91.8v.4H90.34v2.11a.64.64,0,0,1-.67.65h-1ZM83.39,104H82.24v1.3h1.15Zm-1.15,3.12h1.15v-1.41H82.24ZM83.85,104v1.3H85V104Zm0,1.71v1.41H85v-1.41Zm2.69.4V103H88.6v-1H86.25v-.41H88.6v-1.1h.46v1.1h2.56v.41H89.06v1h2v3.1h-2v1l1.45-.19c-.11-.11-.24-.24-.36-.34l.33-.26a11.25,11.25,0,0,1,1.08,1.2l-.33.26-.4-.48-4.64.57-.14-.49c.86,0,1.67-.1,2.55-.21v-1Zm1.62,4.39a11.46,11.46,0,0,0-1.3-.93l.32-.33a13.89,13.89,0,0,1,1.32,1ZM87,103.44v.87H88.6v-.87Zm1.61,1.28H87v1H88.6Zm2.05-1.28H89.06v.87h1.59Zm0,1.28H89.06v1h1.59Z"/><path d="M98.47,110.24c-.4.13-.79.28-1.2.39l-.27-.45c.75-.2,1.44-.4,2.14-.65a12.48,12.48,0,0,0,1.15-2.72l.47.16a16.3,16.3,0,0,1-.91,2.29h.09l1.73-.61c0,.15,0,.33,0,.48ZM97,101.77v-.44l4.48,0v.45Zm.44,4.18v-2.81h3.69V106Zm1,3.06a11.16,11.16,0,0,0-.78-2l.42-.18c.29.65.56,1.3.82,2Zm2.22-5.45H98v1.93h2.68Zm2.27,7.08-.87.71-.51-.27a14.79,14.79,0,0,0,2-1.67l.41.3A8.93,8.93,0,0,1,102.92,110.64Zm4.48-9.19h-2.47a6.25,6.25,0,0,1-.39,1.36h2v6.06h-4.14v-6.05H104a5.54,5.54,0,0,0,.46-1.39H102V101h5.42Zm-1.33,1.79-3.14,0v1.36h3.14Zm0,1.83h-3.14v1.39h3.14ZM103,106.94v1.49h3.14V107Zm3.79,4.36a14.36,14.36,0,0,0-1.72-1.68l.4-.28c.61.52,1.2,1,1.78,1.65A3.37,3.37,0,0,1,106.74,111.3Z"/><path d="M112.7,106.35c2.23-.59,2.82-1.26,3.3-2.87l.43.09c-.47,1.45-.79,2.42-3.43,3.21Zm4.71,1.51H114v-.46h7.45v.46H117.9v2.81h4.75v.46h-9.9v-.46h4.65ZM122,103h-8.56v1.66h-.5V102.5h9.55v2.08H122Zm-4.82-2.26a8.49,8.49,0,0,1,.91,1.52l-.43.23a9.69,9.69,0,0,0-.84-1.5Zm5.17,5.29h-3.19c-.55,0-.7-.3-.7-.6v-1.88H119v1.64a.33.33,0,0,0,.35.37h3Z"/><path d="M133.76,105a2.32,2.32,0,0,1-.75,2.24l-.33-.31a1.4,1.4,0,0,0,.58-.9h-.63v-1Z"/><path d="M145,105.69a14,14,0,0,0-1.7-1.74l.35-.31c.62.61,1.16,1.14,1.72,1.78Zm-1.27,5.53a1.53,1.53,0,0,1-.37-.31,20.36,20.36,0,0,0,2.43-4.37,1.14,1.14,0,0,1,.35.27A24.6,24.6,0,0,1,143.72,111.22Zm2.06-8.88.45.5a2.11,2.11,0,0,1-.36.31,15.61,15.61,0,0,0-1.72-1.82l.33-.3Zm4.76,7.67L148,111l-1,.37-.19-.44,1-.38V108.7h-.06a13.39,13.39,0,0,1-2,1,2.78,2.78,0,0,1-.25-.38,9.12,9.12,0,0,0,3.68-2.3h-1.62v-2.41a7.76,7.76,0,0,1-1.31.6l-.26-.37c.13-.07.3-.13.44-.19a4.4,4.4,0,0,0,2.47-2.21h-2.59V102h3.49a10.56,10.56,0,0,0-.84-1.18,1.57,1.57,0,0,1,.38-.3,10.89,10.89,0,0,1,1,1.47H154v.42h-2.77v.88a.47.47,0,0,0,.28.3l.28,0h2v.43h-2.4a.83.83,0,0,1-.61-.48,3,3,0,0,1-.07-1.16h-1.3a3.76,3.76,0,0,1-1.74,2.13l4.84,0V107h-2.17a6.28,6.28,0,0,0,.78,1.76l.06,0a20.12,20.12,0,0,0,2-1.69,1.61,1.61,0,0,1,.36.27,22.66,22.66,0,0,1-2.14,1.8,6.59,6.59,0,0,0,2.77,2c0,.11-.21.24-.29.35a7.35,7.35,0,0,1-2.16-1.32,6.33,6.33,0,0,1-1.83-3.11,6.73,6.73,0,0,1-1.44,1.34v2l2.17-.83Zm1.41-5h-3.9v1.54H152Z"/><path d="M160.52,105.69a15.56,15.56,0,0,0-1.7-1.74l.34-.31c.63.61,1.17,1.14,1.73,1.78Zm-1.27,5.53a1.36,1.36,0,0,1-.37-.31,20.36,20.36,0,0,0,2.43-4.37,1.14,1.14,0,0,1,.35.27A24.6,24.6,0,0,1,159.25,111.22Zm2.06-8.88.44.5a1.55,1.55,0,0,1-.36.31,14.73,14.73,0,0,0-1.71-1.82l.32-.3Zm4.76,7.67-2.55,1-1,.37-.19-.44,1-.38V108.7h-.06a13.39,13.39,0,0,1-2,1,2.08,2.08,0,0,1-.25-.38,9.12,9.12,0,0,0,3.68-2.3h-1.62v-2.41a7.76,7.76,0,0,1-1.31.6l-.26-.37c.13-.07.3-.13.44-.19a4.4,4.4,0,0,0,2.47-2.21h-2.59V102h3.49a12,12,0,0,0-.84-1.18,1.74,1.74,0,0,1,.37-.3,11,11,0,0,1,1,1.47h3.6v.42h-2.77v.88a.47.47,0,0,0,.28.3l.28,0h2v.43h-2.4a.81.81,0,0,1-.61-.48,2.86,2.86,0,0,1-.07-1.16h-1.3a3.8,3.8,0,0,1-1.74,2.13l4.83,0V107h-2.17a6.91,6.91,0,0,0,.78,1.76l.06,0a19.14,19.14,0,0,0,2-1.69,1.61,1.61,0,0,1,.36.27,22.66,22.66,0,0,1-2.14,1.8,6.53,6.53,0,0,0,2.77,2c0,.11-.21.24-.29.35a7.35,7.35,0,0,1-2.16-1.32,6.42,6.42,0,0,1-1.84-3.11,6.5,6.5,0,0,1-1.44,1.34v2l2.18-.83Zm1.4-5h-3.89v1.54h3.89Z"/><path d="M179.71,106.34a7.61,7.61,0,0,0,1.37,2,17,17,0,0,0,2-1.46l.4.27a10.81,10.81,0,0,1-2.06,1.53,10.76,10.76,0,0,0,3.62,2,2.74,2.74,0,0,1-.3.43,9.3,9.3,0,0,1-4.81-3.54c-.25-.42-.45-.85-.66-1.28H177.4v3.53l2.93-.89v.48l-2.67.83-2.08.64-.28-.49c.54-.13,1.08-.23,1.61-.41v-3.7h-2.27v-.42h2.26v-4.68h6.75v.42h-6.27v1.08H183v.44h-5.6v1.06h5.66v.42H177.4v1.26h7.51v.44Z"/><path d="M191.43,109.59l-1.07,2-.42-.28a28.54,28.54,0,0,0,2.29-4.8l.4.26A16.74,16.74,0,0,1,191.43,109.59Zm.5-4.09a23,23,0,0,0-1.9-1.57l.33-.36a15.76,15.76,0,0,1,1.9,1.56Zm.41-2.56a11.75,11.75,0,0,0-1.7-1.61L191,101a13.31,13.31,0,0,1,1.73,1.63Zm.23,7.4v-.45h3.66v-7.07h-3v-.45h6.68v.45h-3.15v7.07h3.76v.45Z"/><path d="M207.11,103.16h3.33V102h-4.68v-.47h4.68v-1.08h.49v1.1h4.81V102h-4.8v1.14h3.42v4.15h-2.89c1.13,1.63,3,2.42,4.63,3.25l-.29.38-.14,0c-1.68-.89-3.6-1.78-4.68-3.52h-.05v4.07h-.5v-4.11a13.38,13.38,0,0,1-4.58,3.62l-.39-.3a15.42,15.42,0,0,0,4.42-3.36h-2.78Zm3.33.46h-2.82V105h2.82Zm-2.81,1.77v1.49h2.81v-1.49Zm6.2-1.77h-2.89V105h2.89Zm0,1.77h-2.89v1.48h2.89Z"/><path d="M221.34,106.93a8.32,8.32,0,0,0,1.66-2.29l-1.77,0v-.4h2.48a12.93,12.93,0,0,1-1.7,2.67h1.72a9.54,9.54,0,0,1-.76,2.24,4.85,4.85,0,0,0,3.71,1.81l4.09,0,.71,0c0,.17-.15.32-.21.49h-4.91a5.51,5.51,0,0,1-3.55-1.88,19,19,0,0,1-1.58,2.11,2.65,2.65,0,0,1-.34-.33,8.56,8.56,0,0,0,2.27-4h-1.82Zm1.33-3.73c-.33-.59-.67-1.2-1-1.78a2.93,2.93,0,0,1,.39-.21,17.59,17.59,0,0,1,1,1.78Zm1.93,6.42a2.39,2.39,0,0,0,.66,0,.29.29,0,0,0,.32-.28v-2.86c-.39.21-.81.42-1.23.61l-.23-.43a8.24,8.24,0,0,0,1.46-.65v-2.33h-1.27v-.42h1.27V101H226v2.27h1.39v.4H226v2.1h.07c.43-.23.87-.44,1.32-.64v.46l-1.38.67v3.25a.52.52,0,0,1-.46.54,2.44,2.44,0,0,1-.81,0Zm2.06.16a5.65,5.65,0,0,0,1.19-3.25v-4.59a16,16,0,0,0,3.28-.75l.11.14c.06.07.12.13.18.21a15.27,15.27,0,0,1-3.1.76l0,2h3.15v.42h-1.14l0,5.37h-.45v-5.38H228.3v2.13a7.22,7.22,0,0,1-1.27,3.29Z"/><path d="M236.46,109.7c.18-.22.42-.42.63-.65a9.52,9.52,0,0,0,2.77-5h-3v-.45h3.55a8.42,8.42,0,0,1-1.88,4.47,20.58,20.58,0,0,1-1.69,1.91Zm5.54-7.54a13.46,13.46,0,0,0,1.24,2.87,20.51,20.51,0,0,0,2.82-2l.42.27a24.85,24.85,0,0,1-3,2.2,18.38,18.38,0,0,0,3.67,4.24l-.36.42a14.83,14.83,0,0,1-4.79-6.9l0,7.59a.6.6,0,0,1-.47.67,4.76,4.76,0,0,1-1.37,0l-.23-.48a5.35,5.35,0,0,0,1.2,0c.2,0,.35-.23.35-.43v-10c.19,0,.36,0,.53,0Z"/><path d="M258,105a2.31,2.31,0,0,1-.74,2.24l-.34-.31a1.42,1.42,0,0,0,.59-.9h-.64v-1Z"/><path d="M269.45,110.45v1.07h-.51v-8.84h2.62a11,11,0,0,0,1.06-2.19l.47.15a12.07,12.07,0,0,1-1,2h4.67v8.83h-.53v-1.06Zm6.79-4.42v-2.88h-6.78V106Zm-6.8.46V110h6.79v-3.49Z"/><path d="M29.7,128.59a24.17,24.17,0,0,1-4.57-1.29,19.07,19.07,0,0,1-5.07,1.33l-.19-.48A18.8,18.8,0,0,0,24.69,127a6.82,6.82,0,0,1-2.05-1.5,10,10,0,0,1-3.34,2l-.28-.39a9.8,9.8,0,0,0,3.79-2.47H19.27v-.43h3.81a3.24,3.24,0,0,0,.57-.92l.38.21a7.6,7.6,0,0,1-.42.71h6.15v.43H23.35l-.41.51a6.57,6.57,0,0,0,2.14,1.56,6.35,6.35,0,0,0,2-1.68l.37.24A5.9,5.9,0,0,1,25.54,127a20,20,0,0,0,4.38,1.16Zm-8-6.87a7.89,7.89,0,0,1-1.36,1.19l3.27-.3a5.76,5.76,0,0,0-.8-.51l.26-.26a8,8,0,0,1,1.72,1.32l-.3.29L24,123c-1.44.11-2.64.22-4.14.38l-.12-.38a9.76,9.76,0,0,0,1.48-1.23H19.1v-.4h1.33v-3h4.21v.42H20.91v.55h3.23v.42H20.91v.58h3.2v.41h-3.2v.66h4v.41Zm3.46-2-.26-.37a16.29,16.29,0,0,0,3.6-1.66l.33.28A15.27,15.27,0,0,1,25.2,119.76Zm.14,3.53-.23-.37a17.74,17.74,0,0,0,4.29-2l.3.33A17.15,17.15,0,0,1,25.34,123.29Zm.28-2-.28-.38a18.42,18.42,0,0,0,3.52-1.63l.24.31A19,19,0,0,1,25.62,121.34Zm1.79,2.84a4.73,4.73,0,0,0-1.09-.84l.3-.3a8.15,8.15,0,0,1,1.11.81Z"/><path d="M36.45,122.7a12.74,12.74,0,0,0-1.8-1.71l.3-.29a11.33,11.33,0,0,1,1.85,1.68ZM35,128.38l-.36-.32a22.59,22.59,0,0,0,2.46-4.36l.35.27A22.52,22.52,0,0,1,35,128.38Zm2.16-8.1a18.61,18.61,0,0,0-1.81-2l.31-.28A17.7,17.7,0,0,1,37.52,120Zm0,8.23-.37-.31a8.42,8.42,0,0,0,1.46-2.34l.39.21A8.57,8.57,0,0,1,37.18,128.51Zm1.43-3.19v-4.15c-.37.44-.73.84-1.12,1.26l-.36-.34a17.44,17.44,0,0,0,3.27-4.46l.4.2c-.16.35-.37.7-.55,1h2.91v.42a12.55,12.55,0,0,1-1.06,1.43h2.24v4.61Zm1.38-6c-.32.47-.67,1-1,1.4h2.48a8.48,8.48,0,0,0,1.15-1.4Zm1.25,3.91H39.07v1.67h2.17Zm0-2H39.08v1.59h2.16Zm-1,7.17a13.07,13.07,0,0,0-.52-2.18l.45-.11c.21.71.4,1.4.54,2.13Zm2.25-.06c-.2-.62-.48-1.33-.82-2.12l.39-.18A19.89,19.89,0,0,1,43,128.1Zm1.37-7.11H41.72v1.59h2.13Zm0,2H41.72v1.67h2.13ZM45,128.4a16.18,16.18,0,0,0-1.41-2.3l.35-.29a18.18,18.18,0,0,1,1.44,2.28Z"/><path d="M52.39,120.51v8h-.48v-6.22a17.53,17.53,0,0,1-1.39,3.36c-.12-.1-.34-.22-.45-.33a16,16,0,0,0,1.82-4.78H50.17v-.43h1.76v-2.53h.47v2.53h1.44v.43Zm1.27,3.24A10.74,10.74,0,0,0,52.48,122l.3-.22A12.55,12.55,0,0,1,54,123.51Zm-.29,4.69-.44-.23a7.39,7.39,0,0,0,1.58-2.3l.4.21A8.85,8.85,0,0,1,53.37,128.44Zm1.76-3v.39h-.48v-5.21a11.94,11.94,0,0,1-1,1.42l-.39-.32a13.28,13.28,0,0,0,2.41-4.11l.42.15a17.9,17.9,0,0,1-.83,1.78h5.31V120H57.66v1.34h2.4v.42h-2.4v1.4h2.4v.44h-2.4V125h3v.45ZM57.22,120h-2v1.32h2Zm0,1.75h-2v1.39h2Zm0,1.81h-2V125h2Zm-1,4.65a7.76,7.76,0,0,0-.47-2.11l.45-.07a10.23,10.23,0,0,1,.45,2.06Zm1.43-8.8a6.81,6.81,0,0,0-1.08-1.46,1.06,1.06,0,0,1,.35-.27A10.7,10.7,0,0,1,58,119.1,3.07,3.07,0,0,1,57.69,119.38Zm.6,8.82a11.94,11.94,0,0,0-.78-2.12,1.09,1.09,0,0,1,.38-.16,10.81,10.81,0,0,1,.83,2.13Zm2.29.21a11.82,11.82,0,0,0-1.38-2.29,2.64,2.64,0,0,1,.35-.23A9.81,9.81,0,0,1,61,128.21C60.85,128.27,60.72,128.36,60.58,128.41Z"/><path d="M67.21,126.59l-1.07,1.95-.42-.28a28.54,28.54,0,0,0,2.29-4.8l.4.26A17.58,17.58,0,0,1,67.21,126.59Zm.5-4.09a23,23,0,0,0-1.91-1.57l.34-.36A16.47,16.47,0,0,1,68,122.13Zm.41-2.56a12.29,12.29,0,0,0-1.7-1.61l.36-.35a12.62,12.62,0,0,1,1.72,1.63Zm.23,7.4v-.45H72v-7.07H69v-.45h6.68v.45H72.52v7.07h3.75v.45Z"/><path d="M84,123.88a26.78,26.78,0,0,1-2.34,4.45c-.13-.06-.24-.25-.36-.34a23.39,23.39,0,0,0,2.33-4.39C83.72,123.66,83.84,123.81,84,123.88Zm-1-1.18c-.5-.55-1.1-1.2-1.72-1.76l.33-.34a17.11,17.11,0,0,1,1.7,1.8Zm.81-2.5a11.91,11.91,0,0,0-1.72-1.92l.33-.34a15.37,15.37,0,0,1,1.72,2Zm2.79,8.36h-.47v-4.67a20.57,20.57,0,0,1-2,1.28,2.64,2.64,0,0,1-.28-.36,26.39,26.39,0,0,0,4.27-3.09H84.23v-.43h3.24v-1.68H85.09v-.44h2.38v-1.54h.46v1.53h1.9v.44H87.94v1.68h.64a25.76,25.76,0,0,0,2.54-3.13,1,1,0,0,1,.35.24,24.5,24.5,0,0,1-2.22,2.9H92v.43h-3.2a13.33,13.33,0,0,1-1.69,1.43l3.55,0v5.37h-.48v-.93H86.6Zm0-5v1.49h3.57v-1.49Zm3.57,2H86.6v1.63h3.57Z"/><path d="M106.51,122.14v.45H101.9l0,5.15h5.52v.46H96.87v-.47h4.5V118h.5l0,4.1Z"/><path d="M118.23,122a2.32,2.32,0,0,1-.75,2.24l-.33-.31a1.46,1.46,0,0,0,.59-.9h-.64v-1Z"/><path d="M138.11,120.27v.45h-4.77v2.74h3.16v5H136v-.88h-5.8v.87h-.51v-5h3.14l0-2.72-4.68,0v-.45h4.66l0-2.78h.49v2.79Zm-2.1,3.64h-5.8v3.21H136Z"/><path d="M153.94,122.74a15.63,15.63,0,0,1-5.3-4.22,19.58,19.58,0,0,1-5,4.51l-.37-.38a17.85,17.85,0,0,0,5.45-5.12l.44.22a2.53,2.53,0,0,1-.25.35,14.42,14.42,0,0,0,5.3,4.25Zm-4.78,5.61,2.16-3.92h-5.91V124h6.64c-.92,1.7-1.69,3.31-2.44,4.61Zm-3-6.09v-.44h5.15v.43Z"/><path d="M159.62,124l-.35-.36a24.06,24.06,0,0,0,3.92-1.83,17,17,0,0,0-1.4-1.14l.37-.35c.51.37,1,.79,1.49,1.2a9.35,9.35,0,0,0,1.35-1,12.65,12.65,0,0,0,1.34-1.19h-4.05A20.67,20.67,0,0,1,160,120.9l-.39-.34a14.31,14.31,0,0,0,3.88-3l.42.22a6.92,6.92,0,0,1-1.06,1.17l4.26,0v.36A18.48,18.48,0,0,1,159.62,124Zm0,4.48-.3-.46a15,15,0,0,0,6-1.84c-.47-.45-1-.93-1.47-1.33l.36-.33c.53.43,1.11.85,1.6,1.33a12.51,12.51,0,0,0,2.77-2.71h-3.49a21.74,21.74,0,0,1-3.7,2.27,2.6,2.6,0,0,1-.38-.36,15.87,15.87,0,0,0,5.05-3.58l.47.22a9.54,9.54,0,0,1-.91,1h3.58v.46C166.89,126.31,164.72,127.81,159.61,128.5Z"/><path d="M183.25,123.27a2.41,2.41,0,0,1,.39.26,15,15,0,0,1-1.87,1.87,17.71,17.71,0,0,1-6.52,3.36l-.46-.38a16.65,16.65,0,0,0,8-4.61Zm-5.54-2.88a22.08,22.08,0,0,1-2.17,3.33l-.51-.19a19.42,19.42,0,0,0,2.26-3.44Zm2.53,4a.63.63,0,0,1-.39.56,4.48,4.48,0,0,1-1.57.07l-.17-.5a3.65,3.65,0,0,0,1.32,0c.29-.06.31-.28.29-.49v-6.18h.52Zm4.57-1.38a24.33,24.33,0,0,0-2.62-2.75l.36-.29a22.88,22.88,0,0,1,2.62,2.68Z"/><path d="M195.54,118.73h4.73v.45h-4.71v.92H199V122h-3.39l0,1h3.59v1.36h1.43v.44h-1.42v2h-.51v-.57h-3.09v1.85a.57.57,0,0,1-.44.54,6.31,6.31,0,0,1-1.15.1l-.22-.46a4.43,4.43,0,0,0,1.11,0,.22.22,0,0,0,.21-.24V126.2h-3.58v-.43H195v-1h-4.78v-.44H195v-.91h-3.58V123H195v-1h-3.31v-1.85H195v-.93h-4.48v-.45h4.48v-1.15h.5Zm-3.29,1.84v1H195v-1Zm3.29,1h2.9v-1h-2.89Zm0,1.88v.9h3.07v-.91Zm3.07,1.34h-3.07v1h3.07Z"/><path d="M211.4,122a2.32,2.32,0,0,1-.75,2.24l-.33-.31a1.4,1.4,0,0,0,.58-.9h-.63v-1Z"/><path d="M221.14,124.53a20.75,20.75,0,0,0,3.47-2.68h-3.27v-.45h2.74V119.7h-2.17v-.45h2.17v-1.65h.51v1.64h1.7v.43h-1.7v1.71h.49a17.38,17.38,0,0,0,2.32-2.83c.15.06.28.16.42.22a14.76,14.76,0,0,1-2,2.6h2v.45h-2.49a17.53,17.53,0,0,1-1.53,1.36l3,0v5.07h-.51v-.82h-3v1.08l-.5,0,0-4.54-1.27.86Zm2.22-.86v1.43h3v-1.43Zm0,1.88V127h3v-1.47Zm7-3.69a4.7,4.7,0,0,1,1.47,3.06,1.52,1.52,0,0,1-.81,1.31,2.55,2.55,0,0,1-1.33.21c-.12-.19-.21-.43-.31-.63a1.86,1.86,0,0,0,1.58-.18,1.56,1.56,0,0,0,.15-1.73,6.23,6.23,0,0,0-1.32-2l1.17-3.3h-2.12v9.91l-.51,0V118.19l3.37,0Z"/><path d="M238.38,120.65a16.73,16.73,0,0,1-1.53,2.46l-.38-.26a23.6,23.6,0,0,0,2.74-5.42l.38.38-.71,1.7v9h-.5Zm5.19,7.39a6.46,6.46,0,0,0,1,0c.15,0,.37-.11.37-.29v-6.63h-5v-.48h5v-3.07h.5v3.07h1.66v.48h-1.66v6.77a.57.57,0,0,1-.32.56,5.71,5.71,0,0,1-1.26.07Zm-.61-2.69a16.44,16.44,0,0,0-2-2.32l.35-.29a14.46,14.46,0,0,1,2,2.29Z"/><path d="M252.19,120.46a13.49,13.49,0,0,0,2.25-2.94,1.93,1.93,0,0,1,.37.23l-.69,1.09h3.74v.41h-2.39l.77,1.21a1.75,1.75,0,0,1-.44.2c-.25-.49-.54-.93-.83-1.41h-1.16a16.82,16.82,0,0,1-1.33,1.52Zm.05,7.56c3-1.2,4.06-2.1,4.79-3.52h-4.64v-.4h4.8a9.57,9.57,0,0,0,.15-2c-1,.08-2.49.22-3.52.24l-.33-.43a42.22,42.22,0,0,0,7.28-.78l.36.36c-1,.23-2.32.43-3.31.55a8.66,8.66,0,0,1-.17,2.06h5v.41H258a7.58,7.58,0,0,0,4.77,3.62l-.25.41a8.22,8.22,0,0,1-5-3.85c-1,1.86-2.51,2.71-4.89,3.7Zm4.79-7.51a11.27,11.27,0,0,0,2.26-3.13l.41.2c-.23.41-.45.84-.71,1.24h3.5v.42h-1.93c.27.38.54.79.79,1.17-.17,0-.3.16-.47.21a12,12,0,0,0-.8-1.38h-1.35a17.09,17.09,0,0,1-1.3,1.52Z"/><path d="M271.73,120.09h-4.21v-.45h4.21ZM268.11,123v-.46h3.07V123Zm0-1.48,0-.44h3.05v.44Zm2.86,2.7V128h-.48v-.59h-1.83l0,1.1h-.48v-4.22Zm-2.31.47,0,2.22h1.82v-2.23Zm.53-7.07a14,14,0,0,1,1,1.6l-.39.23a5.64,5.64,0,0,1-.31-.53c-.24-.36-.44-.71-.7-1.06Zm8.85,10.95c-1.26-.69-3-2.1-3.31-3.77-.2,1.73-1.95,3.1-3.41,3.81-.1-.11-.21-.25-.3-.37a6,6,0,0,0,3.07-2.81,9.45,9.45,0,0,0,.58-3.14l.45.07c0,.55-.11,1.12-.18,1.68a6.23,6.23,0,0,0,3.38,4.15Zm-2.83-11a.49.49,0,0,1,0,.24,8.66,8.66,0,0,1-.36,2.65l.06.06a17.81,17.81,0,0,1,3.09,2.25l-.27.37-.05,0a15.37,15.37,0,0,0-3-2.22,6.25,6.25,0,0,1-2.73,2.47H272l-.29-.35a5.22,5.22,0,0,0,2.86-2.9,9.08,9.08,0,0,0,.28-2.55Zm-3.56,8.15a15.12,15.12,0,0,0,1.15-2.18l.39.19a15.44,15.44,0,0,1-1.14,2.26Zm.27-5.06a9.66,9.66,0,0,0,1.11-2.17l.38.18a8.73,8.73,0,0,1-1.08,2.24Zm4.2-.08c.39-.69.76-1.39,1.08-2.11a2.87,2.87,0,0,1,.4.18c-.3.72-.66,1.41-1,2.1Zm0,5a19.28,19.28,0,0,0,1.09-2.12l.4.19c-.34.74-.7,1.45-1.09,2.17Z"/><path d="M23.79,141.19H20.33l0,1h-.57V137h4v-2.45h.56V137h4.14V142H27.9v-.79H24.35v4.48h-.56Zm-3.46-3.62,0,3.09h3.44v-3.1Zm4,0v3.09h3.56v-3.1Z"/><path d="M38.53,140.13a1.5,1.5,0,1,1,1.49,1.5A1.49,1.49,0,0,1,38.53,140.13Zm2.59,0a1.1,1.1,0,1,0-1.1,1.1A1.1,1.1,0,0,0,41.12,140.13Z"/><path d="M20.77,173.69A14.81,14.81,0,0,0,19.06,172l.35-.31c.63.61,1.16,1.14,1.73,1.78Zm-1.27,5.53a1.4,1.4,0,0,1-.38-.31,20,20,0,0,0,2.44-4.37,1.14,1.14,0,0,1,.35.27A24.6,24.6,0,0,1,19.5,179.22Zm2.06-8.88.44.5a2.11,2.11,0,0,1-.36.31,15.53,15.53,0,0,0-1.71-1.82l.32-.3ZM26.32,178l-2.55,1-.95.37-.19-.44,1-.38V176.7H23.6a13.85,13.85,0,0,1-2.05,1,2.81,2.81,0,0,1-.26-.38A9.08,9.08,0,0,0,25,175H23.36v-2.41a7.76,7.76,0,0,1-1.31.6l-.26-.37c.13-.07.3-.13.44-.19a4.43,4.43,0,0,0,2.47-2.21H22.11V170H25.6a12,12,0,0,0-.84-1.18,1.74,1.74,0,0,1,.37-.3,12,12,0,0,1,1,1.47h3.6v.42H27v.88a.43.43,0,0,0,.27.3l.29,0h2v.43h-2.4a.8.8,0,0,1-.61-.48,2.84,2.84,0,0,1-.08-1.16H25.17a3.8,3.8,0,0,1-1.74,2.13l4.83,0V175H26.09a6.58,6.58,0,0,0,.78,1.76l.06,0a19.14,19.14,0,0,0,2-1.69,1.88,1.88,0,0,1,.36.27,21.57,21.57,0,0,1-2.15,1.8,6.65,6.65,0,0,0,2.77,2c0,.11-.2.24-.28.35a7.35,7.35,0,0,1-2.16-1.32A6.42,6.42,0,0,1,25.61,175a6.5,6.5,0,0,1-1.44,1.34v2l2.17-.83Zm1.4-5H23.83v1.54h3.89Z"/><path d="M36.29,173.69a14,14,0,0,0-1.7-1.74l.35-.31c.62.61,1.16,1.14,1.73,1.78ZM35,179.22a1.53,1.53,0,0,1-.37-.31,20.4,20.4,0,0,0,2.44-4.37,1,1,0,0,1,.34.27A23.41,23.41,0,0,1,35,179.22Zm2.07-8.88.44.5a2.11,2.11,0,0,1-.36.31,15.53,15.53,0,0,0-1.71-1.82l.32-.3ZM41.85,178l-2.56,1-.94.37-.2-.44,1-.38,0-1.88h-.06a13.49,13.49,0,0,1-2.06,1,2.78,2.78,0,0,1-.25-.38A9,9,0,0,0,40.5,175H38.89v-2.41a8.14,8.14,0,0,1-1.31.6l-.27-.37c.14-.07.3-.13.45-.19a4.43,4.43,0,0,0,2.47-2.21H37.64V170h3.49a14,14,0,0,0-.84-1.18,1.74,1.74,0,0,1,.37-.3,12,12,0,0,1,1,1.47h3.6v.42H42.5v.88a.43.43,0,0,0,.27.3l.29,0h2v.43H42.68a.83.83,0,0,1-.62-.48,3,3,0,0,1-.07-1.16H40.7A3.84,3.84,0,0,1,39,172.56l4.83,0V175H41.62a6.58,6.58,0,0,0,.78,1.76l.06,0a19.14,19.14,0,0,0,2-1.69,1.88,1.88,0,0,1,.36.27,22.77,22.77,0,0,1-2.15,1.8,6.65,6.65,0,0,0,2.77,2c0,.11-.2.24-.29.35A7.17,7.17,0,0,1,43,178.12,6.42,6.42,0,0,1,41.14,175a6.5,6.5,0,0,1-1.44,1.34v2l2.17-.83Zm1.4-5h-3.9v1.54h3.9Z"/><path d="M55.48,174.34a7.4,7.4,0,0,0,1.38,2,16.88,16.88,0,0,0,2-1.46l.41.27a11.49,11.49,0,0,1-2.06,1.53,10.57,10.57,0,0,0,3.62,2,3.61,3.61,0,0,1-.3.43,9.3,9.3,0,0,1-4.81-3.54,14.11,14.11,0,0,1-.66-1.28H53.18v3.53L56.1,177v.48l-2.66.83-2.09.64-.27-.49c.54-.13,1.08-.23,1.6-.41v-3.7H50.41v-.42h2.25v-4.68h6.76v.42H53.17v1.08h5.6v.44h-5.6v1.06h5.66v.42H53.18v1.26h7.51v.44Z"/><path d="M67.21,177.59l-1.07,1.95-.42-.28a28.54,28.54,0,0,0,2.29-4.8l.4.26A17.58,17.58,0,0,1,67.21,177.59Zm.5-4.09a23,23,0,0,0-1.91-1.57l.34-.36A16.47,16.47,0,0,1,68,173.13Zm.41-2.56a12.29,12.29,0,0,0-1.7-1.61l.36-.35a12.62,12.62,0,0,1,1.72,1.63Zm.23,7.4v-.45H72v-7.07H69v-.45h6.68v.45H72.52v7.07h3.75v.45Z"/><path d="M82.89,171.16h3.32V170H81.54v-.47h4.67l0-1.08h.49v1.1h4.81l0,.45H86.72v1.14h3.41v4.15H87.24c1.13,1.63,3,2.42,4.63,3.25l-.28.38-.15,0c-1.68-.89-3.6-1.78-4.68-3.52h0v4.07h-.51v-4.11A13.17,13.17,0,0,1,81.63,179l-.38-.3a15.38,15.38,0,0,0,4.41-3.36H82.89Zm3.32.46H83.39V173h2.82Zm-2.8,1.77v1.49h2.8v-1.49Zm6.2-1.77H86.72V173h2.89Zm0,1.77H86.72v1.48h2.89Z"/><path d="M97.11,174.93a8.59,8.59,0,0,0,1.67-2.29l-1.78,0v-.4h2.49a13,13,0,0,1-1.71,2.67h1.73a9.57,9.57,0,0,1-.77,2.24,4.88,4.88,0,0,0,3.72,1.81l4.09,0,.71,0c-.05.17-.16.32-.22.49h-4.9a5.49,5.49,0,0,1-3.55-1.88A17.93,17.93,0,0,1,97,179.59a2.06,2.06,0,0,1-.33-.33,8.46,8.46,0,0,0,2.26-4H97.11Zm1.33-3.73c-.32-.59-.67-1.2-1-1.78a2.82,2.82,0,0,1,.38-.21,17.67,17.67,0,0,1,1,1.78Zm1.93,6.42a2.38,2.38,0,0,0,.66,0,.29.29,0,0,0,.33-.28v-2.86c-.4.21-.82.42-1.24.61l-.23-.43a8,8,0,0,0,1.47-.65v-2.33h-1.27l0-.42h1.27l0-2.27h.45v2.27h1.39v.4h-1.39v2.1h.07c.44-.23.88-.44,1.32-.64v.46l-1.38.67v3.25a.52.52,0,0,1-.45.54,2.5,2.5,0,0,1-.82,0Zm2.07.16a5.64,5.64,0,0,0,1.18-3.25v-4.59a16.08,16.08,0,0,0,3.29-.75l.11.14.18.21a15.36,15.36,0,0,1-3.11.76v1.95h3.14v.42h-1.14V178h-.46v-5.38h-1.53v2.13a7.22,7.22,0,0,1-1.27,3.29Z"/><path d="M112.23,177.7c.18-.22.42-.42.64-.65a9.52,9.52,0,0,0,2.77-5h-3v-.45h3.55a8.5,8.5,0,0,1-1.88,4.47,22.15,22.15,0,0,1-1.69,1.91Zm5.54-7.54A13.5,13.5,0,0,0,119,173a20.51,20.51,0,0,0,2.82-2l.42.27a25,25,0,0,1-3,2.2,18.62,18.62,0,0,0,3.67,4.24l-.36.42a14.87,14.87,0,0,1-4.78-6.9l0,7.59a.59.59,0,0,1-.47.67,4.69,4.69,0,0,1-1.36.05l-.23-.48a5.35,5.35,0,0,0,1.2,0c.19,0,.35-.23.35-.43l0-10c.2,0,.36,0,.53,0Z"/><path d="M133.76,173a2.32,2.32,0,0,1-.75,2.24l-.33-.31a1.4,1.4,0,0,0,.58-.9h-.63v-1Z"/><path d="M144.07,178.36l.89-1.63a14,14,0,0,0,.8-1.82l.42.27a26.57,26.57,0,0,1-2.27,4.36l-.44-.28Zm1.81-4.61a14.9,14.9,0,0,0-2.1-1.57l.23-.38a15.45,15.45,0,0,1,2.14,1.52Zm.23-2.42a15.44,15.44,0,0,0-2.08-1.72l.26-.38a12.94,12.94,0,0,1,2.14,1.74Zm7.56,8.36A9.39,9.39,0,0,1,150,176a4.93,4.93,0,0,1-.43-1.22h-1.69v3.78l2.44-.87c0,.15,0,.34,0,.5l-3.77,1.37-.19-.47c.31-.12.66-.19,1-.34v-8.38h2.53A5.47,5.47,0,0,0,149,169l.35-.28a11.32,11.32,0,0,1,1,1.37c-.08.11-.23.16-.34.25h2.55v4.4h-2.49a6.65,6.65,0,0,0,1.14,2.25l0,.05a6.55,6.55,0,0,0,1.73-1.94l.39.28a7.26,7.26,0,0,1-1.8,2,7.22,7.22,0,0,0,2.46,2Zm-1.59-8.9h-4.17v1.47h4.17Zm-4.16,1.94v1.55h4.16v-1.55Z"/><path d="M163,172.78c-.49.67-1,1.32-1.51,1.95v5H161v-4.38h-.06a11.74,11.74,0,0,1-1.84,1.7l-.36-.34a14.87,14.87,0,0,0,3.51-3.61l.41-.58Zm-1.23-1.84h-2.6l0-.45h2.62v-1.75h.49v1.76h1.72v.44H162.2v1.35h-.49Zm7.31,3.11a24.23,24.23,0,0,1-4.12,1.87v2.36a.38.38,0,0,0,.39.39h3c.55,0,.67-.62.79-1l.18-.76.44.28a6.54,6.54,0,0,1-.45,1.4.78.78,0,0,1-.84.5H165a.58.58,0,0,1-.56-.6v-6.09h.48v3a22.3,22.3,0,0,0,3.79-1.74Zm-2.78-1.8V170.9l-1.69,0v-.44h1.69v-1.73h.48v1.73h2.7v.44h-2.7v1.37Z"/><path d="M174.39,178.86a17.13,17.13,0,0,0,2.27-4.37,1.63,1.63,0,0,1,.38.22,18.48,18.48,0,0,1-2.23,4.44Zm1.69-5.21a21.37,21.37,0,0,0-1.68-1.76l.34-.31a20.42,20.42,0,0,1,1.73,1.75Zm.6-2.43c-.43-.56-1.2-1.4-1.69-1.94l.31-.3a25.51,25.51,0,0,1,1.74,1.87Zm.28,1.52a18.1,18.1,0,0,0,2.18-4.21,3.66,3.66,0,0,1,.43.15c-.23.6-.48,1.18-.75,1.77h5.66l0,3.18-.08,2.23a13.1,13.1,0,0,1-.35,2.81,1.12,1.12,0,0,1-.77.75l-.29,0-1.25-.18-.24-.54,1.47.21a.67.67,0,0,0,.61-.39,10,10,0,0,0,.27-1.82l.12-1.89.05-2.19V170.9H178.6a17.45,17.45,0,0,1-1.2,2.08Zm2.75-1.34c-.14.35-.32.7-.48,1h3.56v.45h-2.13v1.6h2.62v.44h-2.62v2.25h1.44l0-1.81h.49v2.82h-.49v-.58h-3.55v.85h-.5v-3.09h.5v1.81h1.59v-2.25h-2.77v-.44h2.77v-1.6H179a16.44,16.44,0,0,1-.89,1.39,2.4,2.4,0,0,1-.42-.23,13.69,13.69,0,0,0,1.64-2.84Z"/><path d="M200.62,178.9v.42H190v-.42h1.57v-2.56l7.49,0v2.54Zm-9-6v-.42h3.5v-.87l-5,0v-.43h5v-.84h-3.49v-.43h3.49v-.92h.5v.92h3.3v1.28h1.72v.42H198.9v1.3h-3.3l0,.8H200v.42H190.7v-.42h4.41v-.8Zm.16,1.74c-.36.63-.72,1.25-1.14,1.85a2.26,2.26,0,0,1-.38-.25c.41-.6.77-1.23,1.11-1.85Zm2.21,2.17H192.1v2.11H194Zm-.06-2.32c.37.48.77,1,1.08,1.46l-.4.23c-.32-.48-.69-1-1.06-1.44Zm.55,4.43h1.8v-2.11h-1.8Zm1.14-8.6v.86h2.78v-.84Zm2.8,1.28h-2.8v.87h2.8Zm-1.77,2.84c0,.06.11.13.13.17l.95,1.3-.41.26c-.33-.48-.68-1-1.05-1.48Zm.13,4.48h1.84v-2.11h-1.84Zm3.42-2.55a15.78,15.78,0,0,0-1.38-1.7l.37-.26a16.4,16.4,0,0,1,1.37,1.72Z"/><path d="M211.36,175.83a8.92,8.92,0,0,0,4.74,3.29l-.35.4a9.31,9.31,0,0,1-4.92-3.69c-1,2.07-2.91,3-5.07,3.7l-.26-.43c2.19-.6,4-1.55,4.82-3.27h-4.45v-.44h1.28V172.5h3.37V171H211v1.53h3.4v2.89h1.43l0,.44Zm-.88-6.07v.43h-1.84v1.4h-.49v-1.4h-2.26v-.43h2.26v-1.24h.49v1.24Zm0,5.63c.06-.7.09-1.63.08-2.45h-2.88v2.45Zm3.47-2.45H211c0,.83,0,1.76-.08,2.45h3Zm1.93-3.18v.43h-2.37v1.4H213v-1.4h-1.86v-.43H213v-1.24h.5v1.24Z"/><path d="M223.36,168.77c0,.74,0,1.48-.05,2.21h2.52v.43h-2.56a12.78,12.78,0,0,1-1.86,4.87c-.17,0-.3-.14-.46-.18a11.59,11.59,0,0,0,1.56-3.48,11.45,11.45,0,0,0,.24-1.22H221.2V171h1.61c.06-.69.07-1.52.07-2.24Zm1.86,8.45a6.17,6.17,0,0,0-.53-1.21c.15,0,.28-.1.42-.12a10.94,10.94,0,0,1,1.17,3l-.46.14c-.14-.43-.25-.95-.43-1.36l-3.65,1.3-.18-.47c.24,0,.48-.11.71-.18a20.26,20.26,0,0,0,1.7-5.71l.44.1a16.47,16.47,0,0,1-1.53,5.36Zm6.2,1.22h-4.29v1.07h-.51v-7.15a4.14,4.14,0,0,0-.3.53,10.11,10.11,0,0,1-.7,1.15l-.42-.13a13.86,13.86,0,0,0,2.12-5.36l.42.08a13,13,0,0,1-.52,2.19h4.09v.44h-2v1.86H231v.43l-1.69,0v1.85H231v.44l-1.69,0V178h2.13Zm-4.29-7.17v1.85h1.67v-1.86Zm1.67,2.26h-1.67v1.85h1.67Zm0,4.48,0-2.2h-1.67V178Zm.48-7.47c-.26-.5-.51-1-.81-1.53.11-.06.25-.1.38-.16.29.5.58,1,.82,1.53Z"/><path d="M240.39,174.13a1.5,1.5,0,1,1,1.5,1.5A1.5,1.5,0,0,1,240.39,174.13Zm2.59,0a1.09,1.09,0,1,0-1.09,1.1A1.09,1.09,0,0,0,243,174.13Z"/><path d="M257.74,176.13v2.09a4.85,4.85,0,0,0,1,.2h3l1.06-.06-.3.56h-2.19c-2.15,0-4.23-.26-5.51-2-.11-.14-.22-.3-.34-.44a6.27,6.27,0,0,1-2.11,2.75,1.65,1.65,0,0,1-.37-.33,5.48,5.48,0,0,0,2.3-4.09l.48.11a6.45,6.45,0,0,1-.14.88,5.25,5.25,0,0,0,1,1.35,4.34,4.34,0,0,0,1.55.9v-3.84h-4.74v-.47h10v.47h-4.7v1.45h3.76v.47Zm-3.37-3.47V169h6.07v3.65Zm.54-1.62v1.15h5V171Zm0-1.56v1.09h5v-1.09Z"/><path d="M268.14,179.33c1.61-.71,2.91-1.43,3.26-3.35l-3.19,1.08-.25-.48c.78-.2,2.17-.68,3.5-1.14a10.73,10.73,0,0,0,.07-1.61h-3.09v-.48h3.09V171.5h-3.38V171h3.38v-2.26h.5v6.47l.84-.28v.5l-.9.32a4.42,4.42,0,0,1-1.63,2.91,8.36,8.36,0,0,1-1.77,1.09Zm6,.36v-11h.5V171h3.44v.48h-3.44v2.15h3.14v.48h-3.14v2.23h3.62v.48h-3.62v2.89Z"/><path d="M29.1,196.15c-.06.2-.18.38-.38.38a.7.7,0,0,1-.54-.18,10.93,10.93,0,0,1-2.26-3.08,19.55,19.55,0,0,1-3.09,2.67l-.38-.28,1.69-1.35a11.58,11.58,0,0,0,1.57-1.56,13.86,13.86,0,0,1-1-4.73H20.5v1.92l3.1,0a19.49,19.49,0,0,1-.41,3.81.71.71,0,0,1-.66.56,7.13,7.13,0,0,1-1.13,0l-.21-.47a11.24,11.24,0,0,0,1.14,0c.45,0,.36-.49.49-.76a22,22,0,0,0,.23-2.72H20.48c-.1,2-.15,4-1.07,5.73l-.21.36a3,3,0,0,1-.45-.2A10.87,10.87,0,0,0,20,190.92l.05-3.37H24.7l0-2h.5c0,.71,0,1.38.06,2h4.08V188h-4a12.78,12.78,0,0,0,.82,4.24,19,19,0,0,0,2.15-3.06,2,2,0,0,1,.43.26l0,.08a24.18,24.18,0,0,1-2.35,3.26A9.35,9.35,0,0,0,28.54,196c.14.09.18,0,.19-.15.17-.54.35-1.09.5-1.64l.42.17Zm-1.32-9.09c-.48-.39-1-.83-1.53-1.18l.31-.33c.52.36,1,.76,1.52,1.16Z"/><path d="M37,194a9,9,0,0,1-1.63,2.49l-.42-.25a10.27,10.27,0,0,0,1.66-2.45Zm-1.34-7.44h4v6.67h-4Zm3.52,2V187h-3v1.56Zm0,.44h-3v1.63h3Zm0,2.06h-3v1.73h3Zm.24,4.64a12.47,12.47,0,0,0-1.12-1.76l.38-.21a13.52,13.52,0,0,1,1.12,1.74Zm.4.54a19.68,19.68,0,0,0,2.52-3,18.9,18.9,0,0,1-1.22-3.46,14.77,14.77,0,0,1-.67,1.66l-.51-.15a16.86,16.86,0,0,0,1.6-5.69l.47.14c-.1.72-.22,1.43-.38,2.13h3.51v.45h-.78A9,9,0,0,1,43,193.2a13.46,13.46,0,0,0,2.39,2.88l-.41.36a19.13,19.13,0,0,1-2.3-2.75,24.11,24.11,0,0,1-2.43,2.85Zm1.73-7.95c-.05.15-.1.35-.14.5a12.79,12.79,0,0,0,1.27,3.95,8.54,8.54,0,0,0,1.21-4.45Z"/><path d="M57.42,196.08a6.69,6.69,0,0,0,1.09,0,.35.35,0,0,0,.32-.35v-2H55.08v.38H52.79v2.39h-.45v-2.39H50.07v-.41h2.27v-1.19H50.73v-3.93h1.61v-1.1H50.28v-.4h2.06v-1.56h.45v1.56h2.13v.4H52.79v1.1h1.64v3.93H52.79v1.19h2.1v-.37h3.94v-.66h.45v.66h1.47v.4H59.28v2.11a.64.64,0,0,1-.67.65h-1ZM52.34,189H51.19v1.3h1.15Zm-1.15,3.12h1.15v-1.41H51.19Zm1.6-3.12v1.3H54V189Zm0,1.71v1.41H54v-1.41Zm2.69.4V188h2.06v-1H55.19v-.41h2.35v-1.1H58v1.1h2.57v.41H58v1h2v3.1H58v1l1.45-.19c-.11-.11-.24-.24-.36-.34l.34-.26a12.45,12.45,0,0,1,1.08,1.2l-.34.26-.4-.48-4.64.57-.14-.49c.86,0,1.68-.1,2.55-.21v-1Zm1.62,4.39a10.63,10.63,0,0,0-1.3-.93l.33-.33a15.3,15.3,0,0,1,1.32,1Zm-1.16-7.08v.87h1.6v-.87Zm1.6,1.28h-1.6v1h1.6Zm2.05-1.28H58v.87h1.59Zm0,1.28H58v1h1.59Z"/><path d="M67.41,195.24c-.4.13-.79.28-1.2.39l-.26-.45c.74-.2,1.44-.4,2.13-.65a12.48,12.48,0,0,0,1.15-2.72l.47.16a15.17,15.17,0,0,1-.91,2.29h.1l1.72-.61c0,.15,0,.33,0,.48ZM66,186.77v-.44l4.49,0v.45Zm.45,4.18,0-2.81h3.7V191Zm1,3.06a11.12,11.12,0,0,0-.77-2l.41-.18c.29.65.57,1.3.82,2Zm2.22-5.45H66.92v1.93h2.67Zm2.27,7.08-.86.71-.52-.27a14.26,14.26,0,0,0,2-1.67l.41.3A9.06,9.06,0,0,1,71.86,195.64Zm4.49-9.19H73.88a6.88,6.88,0,0,1-.4,1.36h2v6.06H71.37v-6.05h1.55a5.52,5.52,0,0,0,.45-1.39H70.94V186h5.42ZM75,188.24l-3.14,0v1.36H75Zm0,1.83H71.87v1.39H75Zm-3.11,1.87,0,1.49H75V192Zm3.79,4.36A14.44,14.44,0,0,0,74,194.62l.41-.28A22.76,22.76,0,0,1,76.14,196,3.28,3.28,0,0,1,75.69,196.3Z"/><path d="M81.64,191.35c2.23-.59,2.82-1.26,3.3-2.87l.43.09c-.46,1.45-.79,2.42-3.43,3.21Zm4.72,1.51H82.91v-.46h7.45v.46h-3.5v2.81H91.6v.46H81.69v-.46h4.65Zm4.57-4.9H82.36v1.66h-.5V187.5h9.56v2.08h-.49ZM86.1,185.7a8.55,8.55,0,0,1,.92,1.52l-.44.23a8.86,8.86,0,0,0-.83-1.5ZM91.27,191H88.08c-.55,0-.69-.3-.69-.6v-1.88h.51v1.64a.33.33,0,0,0,.35.37h3Z"/><path d="M102.7,190a2.31,2.31,0,0,1-.74,2.24l-.34-.31a1.42,1.42,0,0,0,.59-.9h-.64v-1Z"/><path d="M117.9,188.11h3.66v.43H117.9v1.16h4.79v.43h-10v-.44h4.72v-1.16h-3.61v-.43h3.61v-1h-4.24v-.44h4.24v-1.16h.49v1.16h4.27v.43h-4.24ZM119,196a6.83,6.83,0,0,0,1.09,0,.35.35,0,0,0,.36-.34v-1.34l-5.5,0v2.13h-.5V191H121v5a.57.57,0,0,1-.48.56c-.4.06-.87,0-1.24,0ZM115,191.39v1.1h5.51v-1.12Zm5.51,2.58v-1.05H115V194Z"/><path d="M136.84,194.61V188.2h.55v8.24h-.55V195.1h-7.63v1.34h-.53V188.2h.53v6.41h3.55v-8.49h.54v8.49Z"/><path d="M143.29,191.64a4.76,4.76,0,0,1,.27-.48l.94-1.67.53-1.07.78-1.89.27-.77a3.12,3.12,0,0,1,.42.18l-1,2.58v8.18H145v-7.27a1.11,1.11,0,0,1-.14.35l-.89,1.64-.31.48Zm10.44,4.93a12.63,12.63,0,0,1-3.46-5.35c-.21-.82-.36-1.67-.52-2.5a9.07,9.07,0,0,1-1.41,2.49v4.09h.07l2.3-1.08v.48c-.53.24-1.08.51-1.58.75l-2,1a2,2,0,0,1-.23-.44l.95-.42v-3.76a20.73,20.73,0,0,1-1.76,1.66l-.28-.35a10.56,10.56,0,0,0,3.46-4.48h-3.08v-.46h7.9v.46H150.2a16.27,16.27,0,0,0,.73,3.17,16.23,16.23,0,0,0,2.3-1.58l.31.35a23.9,23.9,0,0,1-2.44,1.67,12.13,12.13,0,0,0,3,4Zm-4.64-10.83a15.82,15.82,0,0,1,1.45,1.77l-.37.29a13.68,13.68,0,0,0-1.41-1.77Z"/><path d="M169.13,192.06v.42h-8v.31h-.48v-3.37s0,0,0,0a14.45,14.45,0,0,1-1,1l-.45-.29a9.78,9.78,0,0,0,2.31-2.7l.42.22a6.1,6.1,0,0,1-.39.72h2.86a5.36,5.36,0,0,0-.45-1l.4-.16a10.92,10.92,0,0,1,.56,1.14h3.74v.43h-3.73v.75h3.25V190h-3.25v.79h3.25v.43h-3.25v.83Zm-7.26-6.54h.51v1H164v.43h-1.66v.69h-.5l0-.69h-2.31v-.42h2.29Zm5.94,10v-.84h-3v-.43h3v-.73h-3.09v-.43h3.57v3.33h-.48v-.46H161v.47h-.49v-3.07a9.73,9.73,0,0,0,3.22-.68l.45.35a14.84,14.84,0,0,1-3.19.73v.48h2.93v.42H161v.85Zm-6.67-5.92h3.22v-.75h-3.22Zm3.22,1.21V190h-3.22v.79ZM161.14,192h3.22v-.82h-3.22Zm5.71-6.53v1l2.39,0v.43h-2.38v.8h-.49v-.8h-1.7v-.43h1.7v-1Z"/><path d="M177.09,195.67v.91h-.5V191a25.37,25.37,0,0,1-1.87,2.16l-.4-.31a15,15,0,0,0,3.5-5h-3.07v-.45H178c.26-.63.46-1.25.69-1.89a4.34,4.34,0,0,1,.43.14,15.39,15.39,0,0,1-.62,1.76h6.25v.44h-6.42a21.7,21.7,0,0,1-1.28,2.43v4.92h3.6l0-3.51h-2.81v-.46h2.83v-2.44h.49v2.44h3.14v.46h-3.13v3.52h3.9v.45Z"/><path d="M195.87,190a2.32,2.32,0,0,1-.75,2.24l-.33-.31a1.46,1.46,0,0,0,.59-.9h-.64v-1Z"/><path d="M211.07,185.61c0,.67-.07,1.43-.06,2.15l0,1.82a15.93,15.93,0,0,0,.26,2.47H216v.45h-4.49a4.84,4.84,0,0,0,.84,1.74,15,15,0,0,0,2.55-1.45l.34.3a18.4,18.4,0,0,1-2.56,1.5,6.43,6.43,0,0,0,2.62,1.52c.14,0,.25,0,.28-.19a7,7,0,0,0,.39-1.49l.43.2a8.61,8.61,0,0,1-.4,1.51.69.69,0,0,1-.39.41,1.7,1.7,0,0,1-1.12-.26,6.26,6.26,0,0,1-2.26-1.47,23.19,23.19,0,0,1-3.66,1.34l-.27-.37a20.81,20.81,0,0,0,3.61-1.33,7.15,7.15,0,0,1-.9-1.94h-3.15l-.06.46a14.06,14.06,0,0,1,2.1,1.38l-.31.37a12.71,12.71,0,0,0-1.81-1.25,6.93,6.93,0,0,1-1.86,3.09l-.33-.36a5.76,5.76,0,0,0,1.75-3.17l.09-.52h-1.55v-.47h1.57c0-.34,0-.69,0-1h.44l0,1h3a30.32,30.32,0,0,1-.27-4.4c0-.71,0-1.35.06-2Zm-1.71,3.28a16,16,0,0,1,1,2.17,1.93,1.93,0,0,1-.38.19l-.29-.7-2.54.31-.89.14-.1-.5a23.81,23.81,0,0,0,2.07-2,15.44,15.44,0,0,0-1.85.14l-.08-.47a17.13,17.13,0,0,0,1.84-2.33l.3.31a19.53,19.53,0,0,1-1.45,1.87,2.07,2.07,0,0,1-.24.17c.59-.12,1.27-.09,1.9-.18l.92-1.1.34.25a23.62,23.62,0,0,1-2.85,3.07l-.38.23a2.78,2.78,0,0,0,.55-.1l2.25-.27-.52-1Zm6,1.61-1.81.19c-.56.06-1.1.16-1.64.24l0-.5a26.35,26.35,0,0,0,1.92-1.89c-.64,0-1.29.06-1.91.16l-.05-.55a9.91,9.91,0,0,0,1.81-2.32l.39.3a8.88,8.88,0,0,1-1.75,2.14c.61-.12,1.27-.11,1.9-.18.35-.41.71-.82,1-1.23a3.75,3.75,0,0,1,.36.24,24,24,0,0,1-2.88,3.18l-.28.15c.14,0,.26-.08.41-.08l2.35-.26V190l-.53-.86.36-.2a14.1,14.1,0,0,1,1.14,2.08l-.4.17Zm-.76,1.38c-.25-.15-.48-.33-.73-.46l-.57-.31.21-.32a8.49,8.49,0,0,1,1.3.76Z"/><path d="M222.58,187.24v4.84a7.18,7.18,0,0,1-1.3,4.48l-.41-.34a6.34,6.34,0,0,0,1.22-3.75v-5.69h4.7a5.19,5.19,0,0,0-.67-1.08l.41-.24a6.79,6.79,0,0,1,.76,1.23l-.28.08h4.33v.46Zm1.27,4.91h6.3a8.77,8.77,0,0,1-2.51,2.53,13.78,13.78,0,0,0,3.69,1.48l-.4.43a18.08,18.08,0,0,1-3.73-1.6,9.89,9.89,0,0,1-3.68,1.59l-.31-.45a9.05,9.05,0,0,0,3.55-1.4,8.06,8.06,0,0,1-2.38-2.13h-.53Zm-.62-3.35h1.69v-1.08h.49v1.09h3.46v-1.09h.48v1.08h1.71v.45h-1.71v2h-4.44v-2h-1.68Zm1.73,3.79a7,7,0,0,0,2.23,1.82,9.37,9.37,0,0,0,2-1.81Zm3.91-3.33h-3.46v1.53h3.46Z"/><path d="M246.18,188.54a16.7,16.7,0,0,1-4.71,6,15.88,15.88,0,0,1-4.31,2l-.32-.41a12.93,12.93,0,0,0,5.44-3,21.08,21.08,0,0,0-2.43-2.2l.31-.35a21.23,21.23,0,0,1,2.48,2.21,13.63,13.63,0,0,0,1.41-1.66,18.58,18.58,0,0,0,1.58-2.69h-4.42a16,16,0,0,1-3.47,3.79l-.36-.27a15.77,15.77,0,0,0,4.11-4.91,14.55,14.55,0,0,0,.7-1.43l.42.18a16.33,16.33,0,0,1-1.13,2.2h4.71Z"/><path d="M254.26,189.31c.15.19.3.34.46.54a2.59,2.59,0,0,1,.45,2.89c-.34.58-1,.48-1.65.46l-.23-.46c.52-.05,1.3.22,1.57-.38a1.65,1.65,0,0,0,.06-1,3.51,3.51,0,0,0-1.22-1.9l1.29-3h-2v9.85h-.5V186h3.18Zm4.43,2.93a6,6,0,0,1-2.54,2.7l-.42-.32a5.71,5.71,0,0,0,2.47-2.37h-1.35a5.74,5.74,0,0,1-1.46,1.32l-.43-.34a4.8,4.8,0,0,0,2.19-2.41h-1.44v-.45h6.84v.45h-4.89a4.38,4.38,0,0,1-.48,1H262a26.49,26.49,0,0,1-.32,3.79.92.92,0,0,1-.57.63,5,5,0,0,1-1.34,0l-.17-.48c.4,0,.72.1,1.13.11.59,0,.53-.69.61-1.22a16.78,16.78,0,0,0,.17-2.35h-1.12a6.84,6.84,0,0,1-3.36,4l-.44-.32a6.74,6.74,0,0,0,3.34-3.69ZM261.3,186v3.44h-4.52V186Zm-4,1.88V189h3.52v-1.11Zm0-1.45v1h3.52v-1Z"/><path d="M267.6,196.33a14,14,0,0,0,.9-2.72l.46.09a11.89,11.89,0,0,1-.86,2.77Zm1-3.54L268,193l-.24-.38a25.87,25.87,0,0,0,2.21-3.16c-.67.13-1.36.17-2,.36l-.19-.43a20.05,20.05,0,0,0,2-3.77l.44.18a20.27,20.27,0,0,1-1.81,3.45c.64-.06,1.27-.18,1.91-.27.31-.49.56-1,.83-1.54l.45.19a28.87,28.87,0,0,1-3,4.72l2.73-.55a7,7,0,0,0-.57-.93l.42-.21a12.05,12.05,0,0,1,1.26,2.13c-.16.07-.32.17-.48.23a4.56,4.56,0,0,0-.39-.8Zm1.47.71c.18.73.34,1.47.45,2.23l-.52.15a16.23,16.23,0,0,0-.38-2.3Zm1.53,1.32a16.64,16.64,0,0,0-.79-1.51l.42-.18a14.92,14.92,0,0,1,.79,1.48Zm.6-7.22v-.46h5.66v.46H275.3v7.52h3c0,.16,0,.3,0,.46H271.9v-.46h2.88v-7.51Z"/><path d="M23,208.13a1.5,1.5,0,1,1,1.5,1.5A1.5,1.5,0,0,1,23,208.13Zm2.59,0a1.09,1.09,0,1,0-1.09,1.1A1.09,1.09,0,0,0,25.59,208.13Z"/><path d="M36.53,212.45v1.07H36v-8.84h2.62a10.52,10.52,0,0,0,1.06-2.19l.47.15a12.07,12.07,0,0,1-1,2.05h4.67v8.83h-.53v-1.06ZM43.32,208v-2.88H36.53V208Zm-6.8.46V212h6.79v-3.49Z"/><path d="M60.76,213.59a24.17,24.17,0,0,1-4.57-1.29,19.14,19.14,0,0,1-5.08,1.33l-.19-.48A18.8,18.8,0,0,0,55.74,212a6.94,6.94,0,0,1-2.05-1.5,10,10,0,0,1-3.33,2.05l-.29-.39a9.8,9.8,0,0,0,3.79-2.47H50.32v-.43h3.82a3.2,3.2,0,0,0,.56-.92l.38.21a7.28,7.28,0,0,1-.41.71h6.15v.43H54.4l-.41.51a6.72,6.72,0,0,0,2.15,1.56,6.35,6.35,0,0,0,2-1.68l.37.24A6,6,0,0,1,56.6,212,19.91,19.91,0,0,0,61,213.17Zm-8-6.87a7.82,7.82,0,0,1-1.35,1.19l3.26-.3a5.64,5.64,0,0,0-.79-.51l.25-.26a7.79,7.79,0,0,1,1.73,1.32l-.3.29-.51-.5c-1.43.11-2.63.22-4.13.38l-.12-.38a9.68,9.68,0,0,0,1.47-1.23H50.16l0-.4h1.33v-3h4.21v.42H52v.55h3.22v.42H52v.58h3.2v.41H52v.66h4v.41Zm3.47-2-.26-.37a16.22,16.22,0,0,0,3.59-1.66l.34.28A15.45,15.45,0,0,1,56.26,204.76Zm.13,3.53-.23-.37a17.63,17.63,0,0,0,4.3-2l.3.33A17.06,17.06,0,0,1,56.39,208.29Zm.29-1.95-.29-.38a18.5,18.5,0,0,0,3.53-1.63l.24.31A19,19,0,0,1,56.68,206.34Zm1.79,2.84a5.2,5.2,0,0,0-1.09-.84l.3-.3a8.82,8.82,0,0,1,1.11.81Z"/><path d="M67.51,207.7a12.74,12.74,0,0,0-1.8-1.71l.3-.29a11.26,11.26,0,0,1,1.84,1.68Zm-1.44,5.68-.36-.32a23.7,23.7,0,0,0,2.46-4.36l.34.27A22.47,22.47,0,0,1,66.07,213.38Zm2.16-8.1a21,21,0,0,0-1.81-2l.31-.28A16.71,16.71,0,0,1,68.57,205Zm0,8.23-.37-.31a8.66,8.66,0,0,0,1.46-2.34l.38.21A8.77,8.77,0,0,1,68.24,213.51Zm1.43-3.19v-4.15c-.38.44-.74.84-1.12,1.26l-.36-.34a17.64,17.64,0,0,0,3.26-4.46l.41.2c-.17.35-.37.7-.55,1h2.9v.42a12.45,12.45,0,0,1-1,1.43H75.4v4.61Zm1.37-6c-.32.47-.67,1-1,1.4H72.5a9,9,0,0,0,1.15-1.4Zm1.25,3.91H70.12v1.67h2.17Zm0-2.05H70.13v1.59h2.16Zm-1,7.17a13.05,13.05,0,0,0-.51-2.18l.44-.11a17.48,17.48,0,0,1,.54,2.13Zm2.26-.06a22.14,22.14,0,0,0-.83-2.12l.4-.18A19.89,19.89,0,0,1,74,213.1Zm1.37-7.11H72.77v1.59h2.14Zm0,2.05H72.77v1.67h2.14Zm1.17,5.18a16.09,16.09,0,0,0-1.4-2.3l.35-.29a19.41,19.41,0,0,1,1.44,2.28Z"/><path d="M83.44,205.51v8H83v-6.22a17.53,17.53,0,0,1-1.39,3.36c-.12-.1-.33-.22-.44-.33A16,16,0,0,0,83,205.51H81.22v-.43H83v-2.53h.46v2.53h1.44v.43Zm1.27,3.24A10.08,10.08,0,0,0,83.54,207l.3-.22a12.55,12.55,0,0,1,1.25,1.73Zm-.28,4.69-.45-.23a7.42,7.42,0,0,0,1.59-2.3,3.72,3.72,0,0,1,.39.21A8.81,8.81,0,0,1,84.43,213.44Zm1.76-3v.39h-.48v-5.21a11.94,11.94,0,0,1-1,1.42l-.4-.32a13.28,13.28,0,0,0,2.41-4.11l.42.15a17.9,17.9,0,0,1-.83,1.78H91.6V205H88.72v1.34h2.4v.42h-2.4v1.4h2.4v.44h-2.4V210h3v.45ZM88.28,205h-2v1.32h2Zm0,1.75h-2v1.39h2Zm0,1.81h-2V210h2Zm-1,4.65a7.76,7.76,0,0,0-.47-2.11l.44-.07a9.6,9.6,0,0,1,.46,2.06Zm1.42-8.8a6.2,6.2,0,0,0-1.08-1.46,1.31,1.31,0,0,1,.35-.27,9.92,9.92,0,0,1,1.08,1.45A3.07,3.07,0,0,1,88.74,204.38Zm.6,8.82a11.21,11.21,0,0,0-.78-2.12,1.23,1.23,0,0,1,.39-.16,11.44,11.44,0,0,1,.82,2.13Zm2.29.21a10.9,10.9,0,0,0-1.38-2.29,2.64,2.64,0,0,1,.35-.23,9.21,9.21,0,0,1,1.45,2.32C91.91,213.27,91.78,213.36,91.63,213.41Z"/><path d="M98.26,211.59l-1.06,1.95-.42-.28a28.54,28.54,0,0,0,2.29-4.8l.39.26A16,16,0,0,1,98.26,211.59Zm.51-4.09c-.53-.47-1.47-1.28-1.91-1.57l.34-.36a16.47,16.47,0,0,1,1.89,1.56Zm.4-2.56a11.75,11.75,0,0,0-1.7-1.61l.36-.35a13.31,13.31,0,0,1,1.73,1.63Zm.23,7.4v-.45h3.66v-7.07h-3v-.45h6.68v.45h-3.14v7.07h3.75v.45Z"/><path d="M115,208.88a27.51,27.51,0,0,1-2.33,4.45c-.14-.06-.24-.25-.36-.34a23.35,23.35,0,0,0,2.32-4.39C114.77,208.66,114.89,208.81,115,208.88Zm-1-1.18c-.5-.55-1.1-1.2-1.71-1.76l.32-.34a17.2,17.2,0,0,1,1.71,1.8Zm.82-2.5a11.5,11.5,0,0,0-1.73-1.92l.34-.34a15.29,15.29,0,0,1,1.71,2Zm2.78,8.36h-.46v-4.67a21.92,21.92,0,0,1-2,1.28,2.68,2.68,0,0,1-.29-.36,26.39,26.39,0,0,0,4.27-3.09h-3.92v-.43h3.24v-1.68h-2.39v-.44h2.39v-1.54H119v1.53h1.91v.44H119v1.68h.63a24,24,0,0,0,2.54-3.13.92.92,0,0,1,.35.24,22.53,22.53,0,0,1-2.22,2.9H123v.43h-3.2a13.42,13.42,0,0,1-1.7,1.43l3.55,0v5.37h-.48v-.93h-3.56Zm0-4.95v1.49h3.58l0-1.49Zm3.58,1.95h-3.58v1.63h3.58Z"/><path d="M137.57,207.14v.45H133v5.15h5.52v.46H127.93v-.47h4.5V203h.5v4.1Z"/><path d="M149.28,207a2.29,2.29,0,0,1-.74,2.24l-.33-.31a1.4,1.4,0,0,0,.58-.9h-.63v-1Z"/><path d="M160.17,205.35a16.71,16.71,0,0,1-1,2.71,1.47,1.47,0,0,1-.41-.15,20.16,20.16,0,0,0,1-2.71Zm.4,8.22v-11H161v11Zm2-6.68a1.83,1.83,0,0,1-.38.23c-.23-.44-.64-1.18-1-1.7a3.18,3.18,0,0,1,.41-.25C161.84,205.68,162.25,206.35,162.52,206.89Zm-.75,6.33a14.37,14.37,0,0,0,3-1.25,3.19,3.19,0,0,1,.33.31,20.87,20.87,0,0,1-3,1.31Zm6.78-10-.25,1.35h1.23V205h-1.3l-.29,1.48h-4.89c.13-.48.22-1,.31-1.48h-1.43v-.44h1.49c.06-.4.14-.84.22-1.35Zm-5.5,8.47v-4.37h5.28v4.37Zm.47-2.67v.79h4.33V209Zm0,1.26v1h4.33v-1Zm4.34-2.51h-4.33v.78h4.33ZM165.53,205h-1.69l-.2,1h1.65Zm.07-.45.23-.89H164l-.16.89Zm2.15.45H166l-.22,1h1.75Zm.23-1.34h-1.66l-.19.87h1.69ZM166.61,212a24.41,24.41,0,0,1,2.66,1.18,3.91,3.91,0,0,1-.3.41,13,13,0,0,0-2.62-1.21Z"/><path d="M174.72,209.81a13.68,13.68,0,0,0,3.53-3h-3.46v-.45h3.76a6,6,0,0,0,.54-1.07h-3.44v-.43h3.59a8.63,8.63,0,0,0,.32-1.21c-1.1,0-2.59.11-4,.13l-.28-.47a52.47,52.47,0,0,0,8.4-.62l.31.43c-1.54.19-2.61.35-3.9.48-.07.4-.18.85-.28,1.24h4.27v.46h-4.43a10.9,10.9,0,0,1-.48,1.06h5.75v.44h-6.06a8.94,8.94,0,0,1-.89,1.08h5.19v5.62h-.51v-.9H178v.92l-.51,0v-5.17a22.55,22.55,0,0,1-2.39,1.77Zm3.31-1.46,0,.92h4.59v-.91Zm4.57,1.37H178v1h4.59Zm0,1.45H178v1h4.59Z"/><path d="M192,207.89a18.34,18.34,0,0,1-1.61,3.19,5.15,5.15,0,0,1-.41-.32,14.26,14.26,0,0,0,2-4.22v-.31h-1.84v-.43h1.82v-2.11a10.68,10.68,0,0,1-1.41.15l-.26-.35a18.4,18.4,0,0,0,3.41-.57c.1.12.23.21.32.33-.52.12-1.06.26-1.59.36v2.2h1.86v.43H192.4v7.39H192Zm.63-.37a3.64,3.64,0,0,1,.39-.23c.48.58.93,1.17,1.36,1.78a4.2,4.2,0,0,1-.38.24C193.51,208.7,193.07,208.1,192.58,207.52Zm1.06,5.74a9.73,9.73,0,0,0,3.14-5.4,13.3,13.3,0,0,0,.2-3.16v-2.13h.47v3.25c0,.52,0,1.07-.13,1.58.66,2,1.51,4.25,3.3,5.69l-.34.32c-1.21-.75-2.71-3.4-3.14-4.94a10.82,10.82,0,0,1-3.13,5.12Zm.9-5.45a27.44,27.44,0,0,0,.51-3.12h.45c-.09,1.08-.38,2.25-.52,3.18Zm4.17-.25a21,21,0,0,0,.94-3l.43.12a21.14,21.14,0,0,1-.9,3Z"/><path d="M212.44,212.86a7.25,7.25,0,0,0,1.09,0,.34.34,0,0,0,.23-.35V209h-4.63a6.37,6.37,0,0,1-2.65,4.3l-.37-.35a6.54,6.54,0,0,0,2.17-2.69,5,5,0,0,0,.35-1.87V203h5.66v9.71a.47.47,0,0,1-.3.5,3.62,3.62,0,0,1-1.27.11Zm1.33-9.4h-4.63v2.23h4.63Zm-4.63,2.68v2.44h4.63v-2.45Z"/><path d="M221.11,210a19.35,19.35,0,0,0,2.94-2.5h-2.71v-.45h3.09a7.75,7.75,0,0,0,.92-1.31h-2.74l0-.44h3a7.62,7.62,0,0,0,.38-1.14h-4v-.45H226a8.61,8.61,0,0,0,.13-1.15h.49a7.25,7.25,0,0,1-.14,1.14H231v.46h-4.57c-.1.38-.2.75-.34,1.13h4.3v.44h-4.52a8.89,8.89,0,0,1-.81,1.31h6.57v.44h-3.08a14.52,14.52,0,0,0,3.29,2.53l-.27.34-.1,0a15.35,15.35,0,0,1-3.49-2.86h-3.26a25.46,25.46,0,0,1-3.24,2.86Zm2.73,3.55V208.7h5.3v4.86h-.5v-.76h-4.29v.77Zm.49-4.42v1.34h4.31v-1.34Zm0,1.77,0,1.42h4.29v-1.41Z"/><path d="M246.88,210.57l.45.23a17.35,17.35,0,0,1-.39,2.5c-.09.15-.33.32-.51.08a8.28,8.28,0,0,1-1.35-5.1v-4.57H238v4a12.42,12.42,0,0,1-1.09,5.66l-.44-.2a12.32,12.32,0,0,0,1-5.45v-4.48h8.07v4.89a8.07,8.07,0,0,0,1,4.45A9.86,9.86,0,0,0,246.88,210.57Zm-8.41,1.4a23.41,23.41,0,0,0,2.82-.29v-2.07h-2.11v-2.86h2.11v-1.37H238.7V205h5.73v.43h-2.64v1.37h2.09v2.86h-2.09v2c.63-.07,1.27-.14,1.89-.25l-.48-.91a4.27,4.27,0,0,1,.43-.18c.41.72.77,1.45,1.12,2.19l-.41.24-.46-.9c-.79.05-1.56.17-2.36.28l-2.83.38Zm1.21-4.78v2h1.61v-2Zm3.7,2v-2h-1.59v2Z"/><path d="M255.92,208.13a1.5,1.5,0,1,1,1.5,1.5A1.5,1.5,0,0,1,255.92,208.13Zm2.59,0a1.09,1.09,0,1,0-1.09,1.1A1.09,1.09,0,0,0,258.51,208.13Z"/><path d="M268,207.79l0-.48h10v.48Z"/><path d="M22.82,228.17H20.71l0-2.34h2.09v-1.45h-2.7v1.14h-.51v-1.58h9.76v1.54h-.5v-1.1H26v1.39h2.23v2.36H26v1.61h3.65v.44H19.24v-.45h3.58Zm-3.42-6.92v-.45h4.78v-1.06h.48v1H29.4v.46H24.66v1.14h3.83v.44H20.38v-.43H24.2l0-1.15Zm8.26,5H25.43v-1.85H23.29v1.89h-2.1v1.44h2.12v2h2.15v-2h2.2Z"/><path d="M35.19,230.1a2.88,2.88,0,0,1-.39-.3,23.18,23.18,0,0,0,1.83-4,3,3,0,0,1,.38.23A27.85,27.85,0,0,1,35.19,230.1Zm0-7.72c.57.55,1.12,1.15,1.65,1.76l-.31.37c-.44-.56-1-1.13-1.47-1.63l-.2-.2Zm.57-2.46a21.3,21.3,0,0,1,1.6,1.69l-.34.33a18.3,18.3,0,0,0-1.65-1.77l.31-.31Zm1.2,5.78a9.67,9.67,0,0,0,2.59-2.92H38v-2.63h6.55v2.63H40a7,7,0,0,1-.58,1h5.46v.68l-.06,2.29-.13,2c-.13.53,0,1.22-.53,1.56s-1.14,0-1.7.06l-.18-.49,1.29.13a.65.65,0,0,0,.42-.19,1.65,1.65,0,0,0,.2-.76l.13-1.69.06-2.24v-.84H39.07a13.53,13.53,0,0,1-1.82,1.81Zm4.67,2.09.31-.24a14.29,14.29,0,0,1,1.62,1.75l-.34.25-.55-.67-.51,0-3.22.31-1.31.12-.15-.48a23.21,23.21,0,0,0,2.8-.2v-1.3h-2v-2.12h2v-.78h.47v.78h2.2v2.12H40.72v1.25c.5,0,1-.14,1.52-.18Zm-3.16-7.23v1.79H40v-1.79Zm.22,5.14V227h1.58v-1.27Zm1.79-3.36H42v-1.78H40.46Zm2,3.37H40.73V227h1.73Zm1.62-5.15H42.5v1.78h1.58Z"/><path d="M52.43,225.72a26.43,26.43,0,0,1-2,4.66l-.43-.27a26.59,26.59,0,0,0,2-4.63Zm-.63-1.34a16.14,16.14,0,0,0-1.68-1.63l.37-.27a21.51,21.51,0,0,1,1.69,1.61ZM51,219.83c.54.5,1.15,1,1.64,1.54l-.37.3c-.51-.54-1-1-1.59-1.51Zm2.5,10.61v-8.2h2.08v-1.68H52.94v-.44h7.81v.44H58v1.69h2.08v8.21h-.51v-.76H54.07l0,.75Zm4.37-4.6c-.22,0-.38-.29-.38-.53v-2.62H56.14A4.6,4.6,0,0,1,55,226.07a1.38,1.38,0,0,1-.49.35l-.38-.34c1.21-.74,1.45-2.06,1.46-3.39H54.07l0,4.41h5.56v-1.26Zm1.71,1.72H54.07v1.66h5.54Zm-2.09-7H56.14v1.67h1.38Zm2.09,2.13H58.05V225c0,.28.12.4.34.4h1.23Z"/><path d="M69.41,226.44a8.11,8.11,0,0,0-.73-1.07l.35-.22a8.92,8.92,0,0,1,.78,1l-.34.22,2.58,0a8.62,8.62,0,0,0,.75-1.32l.43.17a13.13,13.13,0,0,1-.66,1.15h3.6v.43H65.86v-.42Zm5.34-4.5v.44l-7.47,0v-.42h3.47v-1H66.22v-.43h4.53v-1h.52v1h4.6l0,.43H71.26v1Zm-7.22,8.57v-2.75h7v2.76H74v-.61H68v.6Zm.18-5.46v-1.91h6.6v1.91Zm.32,3.13v1.3h6v-1.3Zm5.77-4.6H68.2v1h5.6Z"/><path d="M83.5,222.51v-2.74H84v2.74h1.82V223H84v1.67l.38-.23a9.73,9.73,0,0,1,1.4,2.12l-.38.29a10.81,10.81,0,0,0-1.4-2.12v6H83.5v-5.55h0a10.67,10.67,0,0,1-1.81,3.45l-.36-.42a9.44,9.44,0,0,0,2.09-4.64l.07-.61H81.51v-.43ZM87,229.82v.88h-.52l0-10.19h5v10.08H91v-.77ZM87,221v2.28h4V221Zm0,2.73v2.45h4v-2.45Zm0,2.91v2.79h4v-2.81Z"/><path d="M96.73,230.22a6.72,6.72,0,0,0,2.3-3.95H97.18v-.33a14.36,14.36,0,0,0,1.6-2.38l-1.78,0v-.44h2.43a13.62,13.62,0,0,1-1.64,2.7h1.77a9.62,9.62,0,0,1-.71,2.38,3.72,3.72,0,0,0,2.83,1.51h4.63l1.08-.07-.23.5h-5.5a4.35,4.35,0,0,1-3-1.58,8.26,8.26,0,0,1-1.62,1.92Zm1.19-10.11c.33.56.65,1.14.94,1.71l-.37.2a19.21,19.21,0,0,0-.95-1.72Zm1.7,3.9a18.86,18.86,0,0,0,3.27-1.38,8.15,8.15,0,0,1-1.39-1.09c-.17.24-.49.56-1,1.08l-.36-.23a12.7,12.7,0,0,0,2-2.7c.13.05.25.13.39.2a7.29,7.29,0,0,1-.42.78h3.39v.43a7.72,7.72,0,0,1-1.76,1.53,20.87,20.87,0,0,0,3.42,1.27l-.24.4a20.87,20.87,0,0,1-3.59-1.4c-.82.37-2,1-3.5,1.54Zm6.5.57V225h-2.56v1h2.08v.43h-2.08v1.09h3.07V228h-3.07v1.33h-.48V228h-3v-.45h3v-1.08H101V226h2.1v-1h-2.53v-.42h2.53v-.92h.48v.92Zm-4.31-3.49-.07.12a6.33,6.33,0,0,0,1.57,1.15,6.27,6.27,0,0,0,1.61-1.27Z"/><path d="M118.23,224a2.32,2.32,0,0,1-.75,2.24l-.33-.31a1.46,1.46,0,0,0,.59-.9h-.64v-1Z"/><path d="M138.11,222.27v.45h-4.77v2.74h3.16v5H136v-.88h-5.8v.87h-.51v-5h3.14l0-2.72-4.68,0v-.45h4.66l0-2.78h.49v2.79Zm-2.1,3.64h-5.8v3.21H136Z"/><path d="M153.94,224.74a15.63,15.63,0,0,1-5.3-4.22,19.58,19.58,0,0,1-5,4.51l-.37-.38a17.85,17.85,0,0,0,5.45-5.12l.44.22a2.53,2.53,0,0,1-.25.35,14.42,14.42,0,0,0,5.3,4.25Zm-4.78,5.61,2.16-3.92h-5.91V226h6.64c-.92,1.7-1.69,3.31-2.44,4.61Zm-3-6.09v-.44h5.15v.43Z"/><path d="M159.62,226l-.35-.36a24.06,24.06,0,0,0,3.92-1.83,17,17,0,0,0-1.4-1.14l.37-.35c.51.37,1,.79,1.49,1.2a9.35,9.35,0,0,0,1.35-1,12.65,12.65,0,0,0,1.34-1.19h-4.05A20.67,20.67,0,0,1,160,222.9l-.39-.34a14.31,14.31,0,0,0,3.88-3l.42.22a6.92,6.92,0,0,1-1.06,1.17l4.26,0v.36A18.48,18.48,0,0,1,159.62,226Zm0,4.48-.3-.46a15,15,0,0,0,6-1.84c-.47-.45-1-.93-1.47-1.33l.36-.33c.53.43,1.11.85,1.6,1.33a12.51,12.51,0,0,0,2.77-2.71h-3.49a21.74,21.74,0,0,1-3.7,2.27,2.6,2.6,0,0,1-.38-.36,15.87,15.87,0,0,0,5.05-3.58l.47.22a9.54,9.54,0,0,1-.91,1h3.58v.46C166.89,228.31,164.72,229.81,159.61,230.5Z"/><path d="M183.25,225.27a2.41,2.41,0,0,1,.39.26,15,15,0,0,1-1.87,1.87,17.71,17.71,0,0,1-6.52,3.36l-.46-.38a16.65,16.65,0,0,0,8-4.61Zm-5.54-2.88a22.08,22.08,0,0,1-2.17,3.33l-.51-.19a19.42,19.42,0,0,0,2.26-3.44Zm2.53,4a.63.63,0,0,1-.39.56,4.48,4.48,0,0,1-1.57.07l-.17-.5a3.65,3.65,0,0,0,1.32,0c.29-.06.31-.28.29-.49v-6.18h.52Zm4.57-1.38a24.33,24.33,0,0,0-2.62-2.75l.36-.29a22.88,22.88,0,0,1,2.62,2.68Z"/><path d="M195.54,220.73h4.73v.45h-4.71v.92H199V224h-3.39l0,1h3.59v1.36h1.43v.44h-1.42v2h-.51v-.57h-3.09v1.85a.57.57,0,0,1-.44.54,6.31,6.31,0,0,1-1.15.1l-.22-.46a4.43,4.43,0,0,0,1.11,0,.22.22,0,0,0,.21-.24V228.2h-3.58v-.43H195v-1h-4.78v-.44H195v-.91h-3.58V225H195v-1h-3.31v-1.85H195v-.93h-4.48v-.45h4.48v-1.15h.5Zm-3.29,1.84v1H195v-1Zm3.29,1h2.9v-1h-2.89Zm0,1.88v.9h3.07v-.91Zm3.07,1.34h-3.07v1h3.07Z"/><path d="M211.4,224a2.32,2.32,0,0,1-.75,2.24l-.33-.31a1.4,1.4,0,0,0,.58-.9h-.63v-1Z"/><path d="M221.14,226.53a20.75,20.75,0,0,0,3.47-2.68h-3.27v-.45h2.74V221.7h-2.17v-.45h2.17v-1.65h.51v1.64h1.7v.43h-1.7v1.71h.49a17.38,17.38,0,0,0,2.32-2.83c.15.06.28.17.42.22a14.76,14.76,0,0,1-2,2.6h2v.45h-2.49a17.53,17.53,0,0,1-1.53,1.36l3,0v5.07h-.51v-.82h-3v1.08l-.5,0,0-4.54-1.27.86Zm2.22-.86v1.43h3v-1.43Zm0,1.88V229h3v-1.47Zm7-3.69a4.7,4.7,0,0,1,1.47,3.06,1.52,1.52,0,0,1-.81,1.31,2.55,2.55,0,0,1-1.33.21c-.12-.19-.21-.43-.31-.63a1.86,1.86,0,0,0,1.58-.18,1.56,1.56,0,0,0,.15-1.73,6.23,6.23,0,0,0-1.32-2l1.17-3.3h-2.12v9.91l-.51,0V220.19l3.37,0Z"/><path d="M238.38,222.65a16.73,16.73,0,0,1-1.53,2.46l-.38-.26a23.6,23.6,0,0,0,2.74-5.42l.38.38-.71,1.7v9h-.5Zm5.19,7.39a6.46,6.46,0,0,0,1,0c.15,0,.37-.11.37-.29v-6.63h-5v-.48h5v-3.07h.5v3.07h1.66v.48h-1.66v6.77a.57.57,0,0,1-.32.56,5.71,5.71,0,0,1-1.26.07Zm-.61-2.69a16.44,16.44,0,0,0-2-2.32l.35-.29a14.46,14.46,0,0,1,2,2.29Z"/><path d="M252.19,222.46a13.49,13.49,0,0,0,2.25-2.94,1.93,1.93,0,0,1,.37.23l-.69,1.09h3.74v.41h-2.39l.77,1.21a1.75,1.75,0,0,1-.44.2c-.25-.49-.54-.93-.83-1.41h-1.16a16.82,16.82,0,0,1-1.33,1.52Zm.05,7.56c3-1.2,4.06-2.1,4.79-3.52h-4.64v-.4h4.8a9.57,9.57,0,0,0,.15-2c-1,.08-2.49.21-3.52.24l-.33-.43a42.22,42.22,0,0,0,7.28-.78l.36.36c-1,.23-2.32.43-3.31.55a8.66,8.66,0,0,1-.17,2.06h5v.41H258a7.58,7.58,0,0,0,4.77,3.62l-.25.41a8.22,8.22,0,0,1-5-3.85c-1,1.86-2.51,2.71-4.89,3.7Zm4.79-7.51a11.27,11.27,0,0,0,2.26-3.13l.41.2c-.23.41-.45.84-.71,1.24h3.5v.42h-1.93c.27.38.54.79.79,1.17-.17.05-.3.16-.47.21a12,12,0,0,0-.8-1.38h-1.35a17.09,17.09,0,0,1-1.3,1.52Z"/><path d="M271.73,222.09h-4.21v-.45h4.21ZM268.11,225v-.46h3.07V225Zm0-1.48,0-.44h3.05v.44Zm2.86,2.7V230h-.48v-.59h-1.83l0,1.1h-.48v-4.22Zm-2.31.47,0,2.22h1.82v-2.23Zm.53-7.07a14,14,0,0,1,1,1.6l-.39.23a5.64,5.64,0,0,1-.31-.53c-.24-.36-.44-.71-.7-1.06Zm8.85,10.95c-1.26-.69-3-2.1-3.31-3.77-.2,1.73-1.95,3.1-3.41,3.81-.1-.11-.21-.25-.3-.37a6,6,0,0,0,3.07-2.81,9.45,9.45,0,0,0,.58-3.14l.45.07c0,.55-.11,1.12-.18,1.68a6.23,6.23,0,0,0,3.38,4.15Zm-2.83-11a.49.49,0,0,1,0,.24,8.66,8.66,0,0,1-.36,2.65l.06.06a17.81,17.81,0,0,1,3.09,2.25l-.27.37-.05,0a15.37,15.37,0,0,0-3-2.22,6.25,6.25,0,0,1-2.73,2.47H272l-.29-.35a5.22,5.22,0,0,0,2.86-2.9,9.08,9.08,0,0,0,.28-2.55Zm-3.56,8.15a15.12,15.12,0,0,0,1.15-2.18l.39.19a15.44,15.44,0,0,1-1.14,2.26Zm.27-5.06a9.66,9.66,0,0,0,1.11-2.17l.38.18a8.73,8.73,0,0,1-1.08,2.24Zm4.2-.08c.39-.69.76-1.39,1.08-2.11a2.87,2.87,0,0,1,.4.18c-.3.72-.66,1.41-1,2.1Zm0,5a19.28,19.28,0,0,0,1.09-2.12l.4.19c-.34.74-.7,1.45-1.09,2.17Z"/><path d="M23.79,243.19H20.33l0,1h-.57V239h4v-2.45h.56V239h4.14V244H27.9v-.79H24.35v4.48h-.56Zm-3.46-3.62,0,3.09h3.44v-3.1Zm4,0v3.09h3.56v-3.1Z"/><path d="M38.53,242.13a1.5,1.5,0,1,1,1.49,1.5A1.49,1.49,0,0,1,38.53,242.13Zm2.59,0a1.1,1.1,0,1,0-1.1,1.1A1.1,1.1,0,0,0,41.12,242.13Z"/><path d="M24.74,256.11h3.65v.43H24.74v1.16h4.78v.43h-10v-.44h4.72v-1.16H20.62v-.43h3.61v-1H20v-.44h4.24v-1.16h.5v1.16H29l0,.43H24.75ZM25.86,264a6.94,6.94,0,0,0,1.1,0,.36.36,0,0,0,.36-.34v-1.34l-5.51,0v2.13h-.49V259h6.51v5a.56.56,0,0,1-.48.56c-.4.06-.86,0-1.24,0Zm-4.06-4.65v1.1h5.52v-1.12ZM27.32,262v-1.05H21.81V262Z"/><path d="M43.67,262.61V256.2h.55v8.24h-.55V263.1H36v1.34h-.52V256.2H36v6.41h3.55v-8.49h.54v8.49Z"/><path d="M50.12,259.64a3.49,3.49,0,0,1,.28-.48l.93-1.67.53-1.07.78-1.89.27-.77a3.12,3.12,0,0,1,.42.18l-1,2.58v8.18h-.51v-7.27a1.11,1.11,0,0,1-.14.35l-.89,1.64-.31.48Zm10.45,4.93a12.56,12.56,0,0,1-3.47-5.35c-.2-.82-.36-1.67-.52-2.5a9.07,9.07,0,0,1-1.41,2.49v4.09h.07l2.3-1.08v.48c-.53.24-1.08.51-1.58.75l-2,1a2,2,0,0,1-.23-.44l1-.42v-3.76a22.28,22.28,0,0,1-1.75,1.66l-.29-.35a10.56,10.56,0,0,0,3.46-4.48H53v-.46h7.91v.46H57a16.27,16.27,0,0,0,.73,3.17,15.68,15.68,0,0,0,2.3-1.58l.31.35a22.84,22.84,0,0,1-2.44,1.67,12.13,12.13,0,0,0,3,4Zm-4.65-10.83a15.93,15.93,0,0,1,1.46,1.77l-.38.29A13.68,13.68,0,0,0,55.59,254Z"/><path d="M76,260.06v.42H68v.31h-.48v-3.37s0,0,0,0c-.34.37-.67.71-1,1l-.46-.29a9.62,9.62,0,0,0,2.31-2.7l.42.22a6.1,6.1,0,0,1-.39.72h2.86a5.36,5.36,0,0,0-.45-1l.41-.16c.2.37.39.76.55,1.14h3.74v.43H71.68v.75h3.25V258H71.67v.79h3.25v.43H71.68v.83Zm-7.25-6.54h.5v1h1.65v.43H69.2v.69h-.49v-.69h-2.3v-.42h2.29Zm5.93,10v-.84h-3v-.43h3v-.73H71.56v-.43h3.57v3.33h-.48v-.46H67.81v.47h-.5v-3.07a9.73,9.73,0,0,0,3.22-.68L71,261a14.84,14.84,0,0,1-3.19.73v.48h2.93v.42H67.79v.85ZM68,257.58h3.22v-.75H68Zm3.22,1.21V258H68v.79ZM68,260h3.22v-.82H68Zm5.71-6.53v1l2.39,0v.43H73.7l0,.8h-.49v-.8h-1.7v-.43h1.7v-1Z"/><path d="M83.92,263.67v.91h-.5V259a25.37,25.37,0,0,1-1.87,2.16l-.4-.31a15,15,0,0,0,3.5-5H81.58v-.45h3.28c.26-.63.47-1.25.69-1.89.16,0,.29.1.44.14a17.69,17.69,0,0,1-.63,1.76h6.25v.44H85.19a20.74,20.74,0,0,1-1.28,2.42v4.93h3.6v-3.51H84.68v-.46h2.83v-2.44H88v2.44h3.14v.46H88v3.52h3.9v.45Z"/><path d="M102.7,258a2.31,2.31,0,0,1-.74,2.24l-.34-.31a1.42,1.42,0,0,0,.59-.9h-.64v-1Z"/><path d="M117.9,253.61c0,.67-.07,1.43-.06,2.15l0,1.82a15.93,15.93,0,0,0,.26,2.47h4.65v.45h-4.5a4.84,4.84,0,0,0,.84,1.74,15,15,0,0,0,2.55-1.45l.34.3a18.4,18.4,0,0,1-2.56,1.5,6.5,6.5,0,0,0,2.62,1.52c.14.05.25,0,.29-.19a6.93,6.93,0,0,0,.38-1.49l.43.2a9.56,9.56,0,0,1-.39,1.51.73.73,0,0,1-.4.41,1.7,1.7,0,0,1-1.12-.26,6.35,6.35,0,0,1-2.26-1.47,23.19,23.19,0,0,1-3.66,1.34l-.26-.37a21.43,21.43,0,0,0,3.61-1.33,6.6,6.6,0,0,1-.9-1.94h-3.16l-.06.46a14.06,14.06,0,0,1,2.1,1.38l-.31.37a12.17,12.17,0,0,0-1.81-1.25,6.84,6.84,0,0,1-1.86,3.09l-.32-.36a5.88,5.88,0,0,0,1.75-3.17l.08-.52h-1.55v-.47h1.57c0-.34,0-.69,0-1h.43l0,1h3a31.8,31.8,0,0,1-.27-4.4c0-.71,0-1.35.06-2Zm-1.71,3.28a14.91,14.91,0,0,1,1,2.17,1.69,1.69,0,0,1-.38.19l-.29-.7-2.54.31-.89.14-.09-.5a23.7,23.7,0,0,0,2.06-2,15.44,15.44,0,0,0-1.85.14l-.08-.47a18,18,0,0,0,1.85-2.33l.3.31a21.42,21.42,0,0,1-1.46,1.87,2.07,2.07,0,0,1-.24.17c.59-.12,1.28-.09,1.9-.18l.92-1.1.34.25a24.26,24.26,0,0,1-2.84,3.07l-.39.23a2.78,2.78,0,0,0,.55-.1l2.25-.27-.52-1Zm6,1.61-1.81.19c-.56.06-1.1.16-1.64.24l0-.5a26.35,26.35,0,0,0,1.92-1.89c-.64,0-1.28.06-1.91.16l0-.55a10,10,0,0,0,1.82-2.32l.38.3a8.88,8.88,0,0,1-1.75,2.14c.61-.12,1.27-.11,1.9-.18.35-.41.71-.82,1-1.23a3.75,3.75,0,0,1,.36.24,23.37,23.37,0,0,1-2.88,3.18l-.27.15c.13,0,.25-.08.4-.08l2.35-.26v0l-.52-.86.36-.2a16.23,16.23,0,0,1,1.14,2.08l-.41.17Zm-.75,1.38c-.26-.15-.48-.33-.73-.46l-.58-.31.22-.32a8.89,8.89,0,0,1,1.29.76Z"/><path d="M129.42,255.24v4.84a7.19,7.19,0,0,1-1.31,4.48l-.41-.34a6.35,6.35,0,0,0,1.23-3.75v-5.69h4.7a5.71,5.71,0,0,0-.68-1.08l.41-.24a6.28,6.28,0,0,1,.76,1.23l-.28.08h4.33v.46Zm1.27,4.91H137a8.73,8.73,0,0,1-2.5,2.53,13.71,13.71,0,0,0,3.68,1.48l-.4.43A18.32,18.32,0,0,1,134,263a9.89,9.89,0,0,1-3.68,1.59l-.31-.45a9,9,0,0,0,3.55-1.4,8.19,8.19,0,0,1-2.38-2.13h-.52Zm-.63-3.35h1.69v-1.08h.5v1.09h3.45v-1.09h.48v1.08h1.71v.45h-1.71v2h-4.44v-2h-1.68Zm1.73,3.79a7.1,7.1,0,0,0,2.23,1.82,9.42,9.42,0,0,0,2-1.81Zm3.91-3.33h-3.45v1.53h3.45Z"/><path d="M153,256.54a16.59,16.59,0,0,1-4.71,6,15.82,15.82,0,0,1-4.3,2l-.33-.41a13,13,0,0,0,5.45-3,21.17,21.17,0,0,0-2.44-2.2l.31-.35a22.15,22.15,0,0,1,2.49,2.21,14.48,14.48,0,0,0,1.4-1.66,17.71,17.71,0,0,0,1.58-2.69H148a15.82,15.82,0,0,1-3.47,3.79l-.36-.27a15.67,15.67,0,0,0,4.12-4.91c.23-.47.5-.93.69-1.43l.42.18a16.33,16.33,0,0,1-1.13,2.2H153Z"/><path d="M161.09,257.31c.15.19.3.34.46.54a2.62,2.62,0,0,1,.46,2.89c-.35.58-1,.48-1.66.46l-.23-.46c.52-.05,1.3.22,1.57-.38a1.65,1.65,0,0,0,.06-1,3.51,3.51,0,0,0-1.22-1.9l1.3-3h-2v9.85h-.5V254h3.18Zm4.43,2.93a6,6,0,0,1-2.54,2.7l-.42-.32a5.71,5.71,0,0,0,2.47-2.37h-1.34a6,6,0,0,1-1.47,1.32l-.43-.34a4.8,4.8,0,0,0,2.19-2.41h-1.43v-.45h6.83v.45h-4.89a4.38,4.38,0,0,1-.48,1h4.77a25.09,25.09,0,0,1-.32,3.79.92.92,0,0,1-.57.63,5,5,0,0,1-1.34,0l-.17-.48c.4,0,.72.1,1.13.11.59,0,.53-.69.61-1.22a16.78,16.78,0,0,0,.17-2.35h-1.12a6.82,6.82,0,0,1-3.35,4l-.45-.32a6.7,6.7,0,0,0,3.34-3.69Zm2.61-6.25v3.44h-4.52V254Zm-4,1.88,0,1.11h3.51v-1.11Zm0-1.45v1h3.51v-1Z"/><path d="M174.43,264.33a13.35,13.35,0,0,0,.9-2.72l.46.09a11.89,11.89,0,0,1-.86,2.77Zm1-3.54-.68.22-.24-.38a27.14,27.14,0,0,0,2.22-3.16c-.68.13-1.37.17-2,.36l-.19-.43a19.49,19.49,0,0,0,2-3.77l.45.18a21,21,0,0,1-1.81,3.45c.63-.06,1.27-.18,1.9-.27.31-.49.57-1,.83-1.54l.46.19a29.61,29.61,0,0,1-3,4.72l2.74-.55a8.4,8.4,0,0,0-.58-.93l.42-.21a12.05,12.05,0,0,1,1.26,2.13c-.16.07-.31.17-.48.23a5.34,5.34,0,0,0-.38-.8Zm1.48.71c.18.73.33,1.47.44,2.23l-.52.15a16.23,16.23,0,0,0-.38-2.3Zm1.52,1.32a14.45,14.45,0,0,0-.79-1.51l.42-.18a13.09,13.09,0,0,1,.79,1.48Zm.6-7.22v-.46h5.66v.46h-2.59v7.52h3c0,.16,0,.3,0,.46h-6.35v-.46h2.88v-7.51Z"/><path d="M193.81,259.13a1.5,1.5,0,1,1,1.49,1.5A1.49,1.49,0,0,1,193.81,259.13Zm2.59,0a1.1,1.1,0,1,0-1.1,1.1A1.1,1.1,0,0,0,196.4,259.13Z"/><path d="M206.75,256.35a15,15,0,0,1-1,2.71,1.31,1.31,0,0,1-.4-.15,21.51,21.51,0,0,0,1-2.71Zm.4,8.22v-11h.47v11Zm2-6.68a1.9,1.9,0,0,1-.39.23c-.23-.44-.63-1.18-1-1.7a4.06,4.06,0,0,1,.41-.25C208.42,256.68,208.83,257.35,209.11,257.89Zm-.76,6.33a14.45,14.45,0,0,0,3-1.25c.12.07.21.22.32.31a20.75,20.75,0,0,1-3,1.31Zm6.79-10-.25,1.35h1.22V256h-1.3l-.28,1.48h-4.9c.14-.48.22-1,.32-1.48h-1.43v-.44H210c.06-.4.15-.84.22-1.35Zm-5.51,8.47v-4.37h5.28v4.37Zm.47-2.67v.79h4.33V260Zm0,1.26v1h4.33v-1Zm4.34-2.51h-4.33v.78h4.33ZM212.12,256h-1.7l-.2,1h1.66Zm.07-.45.23-.89h-1.79l-.17.89Zm2.14.45h-1.72l-.23,1h1.75Zm.23-1.34h-1.65l-.19.87h1.69ZM213.2,263a26.25,26.25,0,0,1,2.66,1.18c-.09.14-.21.28-.3.41a13.28,13.28,0,0,0-2.63-1.21Z"/><path d="M221.3,260.81a13.72,13.72,0,0,0,3.54-3h-3.47v-.45h3.77a7.65,7.65,0,0,0,.54-1.07h-3.45v-.43h3.59a8.63,8.63,0,0,0,.32-1.21c-1.1,0-2.59.11-4,.13l-.28-.47a52.43,52.43,0,0,0,8.39-.62l.32.43c-1.55.19-2.62.35-3.9.48-.07.4-.18.85-.29,1.24h4.27v.46h-4.42c-.17.41-.27.64-.48,1.06h5.74v.44h-6.06a8.85,8.85,0,0,1-.88,1.08h5.19v5.62h-.52v-.9H224.6v.92l-.52,0v-5.17a23.74,23.74,0,0,1-2.38,1.77Zm3.31-1.46v.92h4.58v-.91Zm4.57,1.37H224.6v1h4.58Zm0,1.45H224.6v1h4.58Z"/><path d="M238.53,258.89a17.67,17.67,0,0,1-1.61,3.19,3.74,3.74,0,0,1-.4-.32,14.49,14.49,0,0,0,2-4.22v-.31H236.7v-.43h1.82v-2.11a10.83,10.83,0,0,1-1.42.15l-.26-.35a18.51,18.51,0,0,0,3.42-.57c.09.12.23.21.31.33-.52.12-1.06.26-1.58.36v2.2h1.86v.43H239v7.39h-.46Zm.64-.37c.13-.06.24-.18.38-.23.48.58.94,1.17,1.37,1.78a4.44,4.44,0,0,1-.39.24C240.09,259.7,239.66,259.1,239.17,258.52Zm1.05,5.74a9.67,9.67,0,0,0,3.14-5.4,13.39,13.39,0,0,0,.21-3.16v-2.13H244v3.25c-.05.52-.05,1.07-.13,1.58.66,2,1.51,4.25,3.29,5.69l-.33.32c-1.21-.75-2.71-3.4-3.14-4.94a10.9,10.9,0,0,1-3.13,5.12Zm.9-5.45a27.43,27.43,0,0,0,.52-3.12h.44c-.08,1.08-.37,2.25-.52,3.18Zm4.17-.25a19.82,19.82,0,0,0,.94-3l.43.12a21.14,21.14,0,0,1-.9,3Z"/><path d="M259,263.86a7.43,7.43,0,0,0,1.1,0,.34.34,0,0,0,.22-.35V260h-4.63a6.33,6.33,0,0,1-2.65,4.3l-.37-.35a6.38,6.38,0,0,0,2.17-2.69,5,5,0,0,0,.35-1.87V254h5.66v9.71a.46.46,0,0,1-.3.5,3.6,3.6,0,0,1-1.27.11Zm1.33-9.4h-4.62v2.23h4.62Zm-4.62,2.68v2.44h4.62v-2.45Z"/><path d="M267.69,261a18.88,18.88,0,0,0,2.94-2.5h-2.71v-.45H271a8.43,8.43,0,0,0,.93-1.31h-2.75v-.44h3a7.66,7.66,0,0,0,.39-1.14h-4v-.45h4.06a8.61,8.61,0,0,0,.13-1.15h.49a7.25,7.25,0,0,1-.14,1.14h4.5v.46H273c-.11.38-.21.75-.35,1.13H277v.44h-4.53a8.12,8.12,0,0,1-.81,1.31h6.57v.44h-3.08a14.57,14.57,0,0,0,3.3,2.53l-.28.34-.09,0a15.13,15.13,0,0,1-3.49-2.86h-3.27a26.14,26.14,0,0,1-3.23,2.86Zm2.74,3.55V259.7h5.3v4.86h-.51v-.76h-4.29v.77Zm.49-4.42v1.34h4.3v-1.34Zm0,1.77v1.42h4.29v-1.41Z"/><path d="M29.49,278.57l.45.23a17.35,17.35,0,0,1-.39,2.5c-.09.15-.33.32-.51.08a8.28,8.28,0,0,1-1.35-5.1v-4.57H20.62v4.05a12.42,12.42,0,0,1-1.09,5.66l-.44-.2a12.32,12.32,0,0,0,1-5.45v-4.48h8.07v4.89a8,8,0,0,0,1,4.45A9.86,9.86,0,0,0,29.49,278.57ZM21.08,280a23.62,23.62,0,0,0,2.82-.29v-2.07H21.79v-2.86H23.9v-1.37H21.31V273H27v.43H24.4v1.37h2.09v2.86H24.4v2c.62-.07,1.27-.14,1.88-.25l-.48-.91c.15-.06.28-.13.44-.18.4.72.76,1.45,1.12,2.19l-.42.24-.45-.9c-.79,0-1.56.17-2.37.28l-2.83.38Zm1.21-4.78v2H23.9v-2Zm3.69,2v-2H24.4v2Z"/><path d="M38.53,276.13a1.5,1.5,0,1,1,1.49,1.5A1.49,1.49,0,0,1,38.53,276.13Zm2.59,0a1.1,1.1,0,1,0-1.1,1.1A1.1,1.1,0,0,0,41.12,276.13Z"/></g></g></svg>