<svg xmlns="http://www.w3.org/2000/svg" viewBox="0 0 33.08 23.77"><defs><style>.cls-1{fill:#fff;}</style></defs><title>play_icon</title><g id="圖層_2" data-name="圖層 2"><g id="圖層_1-2" data-name="圖層 1"><path class="cls-1" d="M16.54,23.77c-.41,0-10,0-12.52-.69A4.75,4.75,0,0,1,.69,19.72,41.44,41.44,0,0,1,0,11.88,41.41,41.41,0,0,1,.69,4.05,4.73,4.73,0,0,1,4,.69C6.55,0,16.13,0,16.54,0s10,0,12.52.69a4.73,4.73,0,0,1,3.33,3.36h0a41.41,41.41,0,0,1,.69,7.83,41.44,41.44,0,0,1-.69,7.84,4.74,4.74,0,0,1-3.34,3.36C26.53,23.76,17,23.77,16.54,23.77Zm0-22.21c-2.71,0-10.18.12-12.11.64A3.15,3.15,0,0,0,2.2,4.45a40.78,40.78,0,0,0-.64,7.43,40.87,40.87,0,0,0,.64,7.44,3.19,3.19,0,0,0,2.23,2.25c1.93.52,9.4.63,12.11.63s10.17-.11,12.11-.63a3.19,3.19,0,0,0,2.23-2.25,40.56,40.56,0,0,0,.63-7.44,40.47,40.47,0,0,0-.63-7.43h0A3.15,3.15,0,0,0,28.65,2.2C26.71,1.68,19.25,1.56,16.54,1.56Zm-4,16.35V5.85l10.6,6ZM14.1,8.54v6.68L20,11.88Z"/></g></g></svg>