<?xml version="1.0" encoding="utf-8"?>
<!-- Generator: Adobe Illustrator 21.1.0, SVG Export Plug-In . SVG Version: 6.00 Build 0)  -->
<svg version="1.1" id="圖層_1" xmlns="http://www.w3.org/2000/svg" xmlns:xlink="http://www.w3.org/1999/xlink" x="0px" y="0px"
	 viewBox="0 0 24 24" style="enable-background:new 0 0 24 24;" xml:space="preserve">
<style type="text/css">
	.st0{fill:none;}
	.st1{fill:#FFFFFF;}
</style>
<path class="st0" d="M0,0h24v24H0V0z"/>
<g>
	<title>share</title>
	<g id="圖層_2">
		<g id="圖層_1-2">
			<path class="st1" d="M16.6,16.2H4.8V8h2.3c0.6-0.7,1.3-1.3,2-1.8H3.9C3.4,6.2,3,6.6,3,7.1v10C3,17.6,3.4,18,3.9,18h13.6
				c0.5,0,0.9-0.4,0.9-0.9c0,0,0,0,0,0v-3.4l-1.8,1.5V16.2z M15.1,9.9v3.2l6-4.7l-6-4.5v2.8c-7.3,0-7.3,7.2-7.3,7.2
				C9.9,10.5,11.2,9.9,15.1,9.9z"/>
		</g>
	</g>
</g>
</svg>
