<svg xmlns="http://www.w3.org/2000/svg" viewBox="0 0 120.26 21.08"><defs><style>.cls-1{fill:#ccc;}</style></defs><title>title</title><g id="圖層_2" data-name="圖層 2"><g id="圖層_1-2" data-name="圖層 1"><path class="cls-1" d="M14.35,9.38a9.73,9.73,0,0,1-4.11,7.72C8.43,18.5,6.35,19.94,3.84,20a.82.82,0,0,0-.27,0c-.47.36-1,1.07-1.58,1.08a1.11,1.11,0,0,1-.71-.29A5.09,5.09,0,0,1,.61,19a1.27,1.27,0,0,1,.11-.56l.55-.71c.46-3.81,1.22-7.6,1.17-11.55,0-.71,0-1.45-.11-2.18-.8-.26-2,.23-2.34-.89,0-.59.4-.95.84-1.34.41-.06.89,0,1.23-.46A.92.92,0,0,1,2,1.07c0-.38.41-.59.58-1A.65.65,0,0,1,3,0c.68,0,1.1.93,1.46,1.4,3.9.08,7.78,1.83,9.5,5.42l0,0a7.79,7.79,0,0,1,.47,2.53ZM11.58,7l0,0A7.77,7.77,0,0,0,5.17,3.7H4.58c0,.44,0,.86,0,1.27,0,4.46-.76,8.6-1.13,12.88a.8.8,0,0,0,.27,0A6.28,6.28,0,0,0,5,17.57h.09A3.65,3.65,0,0,0,7.4,16.48a7.08,7.08,0,0,0,2.93-2.33A7.25,7.25,0,0,0,12.17,9.4,5,5,0,0,0,11.58,7Z"/><path class="cls-1" d="M24.24,15.06A18,18,0,0,1,24,18.4a1.44,1.44,0,0,1-1.32.75,2.19,2.19,0,0,1-.77-.14,7.62,7.62,0,0,1-2.94.92,2.54,2.54,0,0,1-1.48-.43c-.77-.17-1.19-1-1.67-1.64a4,4,0,0,1-.16-1,3.46,3.46,0,0,1,1-2.52,4.28,4.28,0,0,1,3.05-1.54h.18a.11.11,0,0,1,.09,0c.53,0,.83.49,1.3.49a2,2,0,0,0,.38-.06,2.83,2.83,0,0,0,.17-1,4.86,4.86,0,0,0-1.27-2.73.37.37,0,0,0-.18,0c-.71,0-1.53.78-2.12.79-.32,0-.59-.2-.75-.88,0-1.18,1.1-1.6,2-2.06,1.33,0,2.78.15,3.41,1.53a15.28,15.28,0,0,1,1.28,6.18Zm-3.44.75V15.6c-.18-.41-.42-.56-.71-.55-.56,0-1.23.72-1.64,1.08,0,.29-.29.62-.29.92a.44.44,0,0,0,.3.41,3.2,3.2,0,0,0,1,.17,1.44,1.44,0,0,0,1-.33.68.68,0,0,0,.46-.71C20.86,16.33,20.79,16.07,20.79,15.8Z"/><path class="cls-1" d="M33.42,12.72a2.82,2.82,0,0,0-1.6-.54,2,2,0,0,0-.68.13c-2.38,1.06-1.46,4-1.82,6.13-.35.15-.7.6-1.09.6a.62.62,0,0,1-.44-.2c-1.77-2.61-2.13-5.82-2.61-9V9.59a.78.78,0,0,1,.43-.8,1.49,1.49,0,0,1,.47-.09c.89,0,1.1,1,1.46,1.7a.91.91,0,0,1,0,.29c0,.21,0,.44,0,.65a.85.85,0,0,0,.3.73,9.81,9.81,0,0,1,3.4-2,3.23,3.23,0,0,0,.53,0,2.38,2.38,0,0,1,2.31,1l0,.06v.27A1.3,1.3,0,0,1,33.42,12.72Z"/><path class="cls-1" d="M40.81,19.43a2.67,2.67,0,0,1-1.24.28A12.16,12.16,0,0,1,36.64,19a4.26,4.26,0,0,1-2-4,15.36,15.36,0,0,1,.13-2,11,11,0,0,1,1.5-3.2c.76-1,1.94-1.05,3.09-1.07a2.82,2.82,0,0,1,.68.08c.8.46,1.93,1.07,2.24,2.16,0,.09.22.85.22.94A2.43,2.43,0,0,1,41,14a28.46,28.46,0,0,1-4.39.9,1.77,1.77,0,0,0,.31,1.47,3.7,3.7,0,0,0,2.52,1.18,2,2,0,0,0,1.65-.64.82.82,0,0,1,.27,0,1.38,1.38,0,0,1,1,.61,1.32,1.32,0,0,1,0,.32C42.42,18.64,41.3,19,40.81,19.43ZM40,12.09c.41-.45-.13-1.06-.51-1.06s-1.21.07-1.53.52a5,5,0,0,0-.61,1.19A6.33,6.33,0,0,0,40,12.09Z"/><path class="cls-1" d="M65.63,3.84a8.31,8.31,0,0,0-2.45-.27c-.68,0-1.36,0-2.07.05a8.65,8.65,0,0,1-.89,0l-.29.3c0,3.1-1,7.6-.92,10.75a12,12,0,0,0,.35,2.86c-.2.56-.07,1.33-.81,1.54a.82.82,0,0,1-.27,0,1.31,1.31,0,0,1-1.19-.73,16.11,16.11,0,0,1-.24-2.65c0-3.25.71-7.86.68-11V3.9a4.89,4.89,0,0,1-2,.32h-.68a6.89,6.89,0,0,0-1.56.17c-.68-.29-1.68.08-2-.83V3.32c0-.8.49-1,1.17-1s1.15.11,1.68.1A1.72,1.72,0,0,0,55,2.27a57.58,57.58,0,0,1,8.49-.53l1.95,0,.9,1.14a.37.37,0,0,1,0,.18C66.37,3.45,65.84,3.69,65.63,3.84Z"/><path class="cls-1" d="M70.88,14.32l0,0a9,9,0,0,1-2.7,3.9,4,4,0,0,1-2,.58,3.19,3.19,0,0,1-1.63-.42c-.81-.79-2-.86-2.56-2a14.53,14.53,0,0,1-.2-2,4.1,4.1,0,0,1,.33-1.86c1.26-1,2.51-2.8,4.25-2.94A2.89,2.89,0,0,1,67,9.38a3.58,3.58,0,0,1,2.64,1.3A4.13,4.13,0,0,1,71,13.46,2.72,2.72,0,0,1,70.88,14.32Zm-2.22-.92a3.26,3.26,0,0,0-.06-.53,1.88,1.88,0,0,0-1.43-1.14,1.4,1.4,0,0,0-.35.06,3.85,3.85,0,0,0-2.49,2.15.83.83,0,0,0-.17.53,1.46,1.46,0,0,0,.54,1.12,1.33,1.33,0,0,0,1.16.7,4.18,4.18,0,0,0,1.7-.7,3.23,3.23,0,0,0,1.1-2.17Z"/><path class="cls-1" d="M93,16.5c-3.68.48-6.56,1.78-10.25,2.06h-.21a3.34,3.34,0,0,1-2.79-1.62,7.2,7.2,0,0,1-.23-1.74c0-2.24.87-4.41,1.11-6.62a34.57,34.57,0,0,0,.4-4,6.61,6.61,0,0,0-.32-2,1.26,1.26,0,0,1,.67-.86h.09a1.55,1.55,0,0,1,1.37,1.11c.07.65.1,1.27.11,1.89a44.64,44.64,0,0,1-1.11,9.4c0,.44,0,.83,0,1.24a1,1,0,0,0,.3.82c.18,0,.68.14.86.14a5.63,5.63,0,0,0,1.24-.07c2-.37,4.86-1.26,7.15-1.58a.88.88,0,0,0,.88-.45.84.84,0,0,1,.26-.06c.53,0,.83.73,1.16.9C93.49,15.56,93.62,16.32,93,16.5Z"/><path class="cls-1" d="M103.48,14l0,0a9,9,0,0,1-2.7,3.9,4,4,0,0,1-2,.58A3.21,3.21,0,0,1,97.15,18c-.8-.79-2-.86-2.56-2a14.53,14.53,0,0,1-.2-2,4.11,4.11,0,0,1,.33-1.86C96,11,97.23,9.26,99,9.12a2.85,2.85,0,0,1,.68-.1,3.58,3.58,0,0,1,2.64,1.3,4.13,4.13,0,0,1,1.3,2.79A2.74,2.74,0,0,1,103.48,14Zm-2.22-.92a3.25,3.25,0,0,0-.06-.53,1.88,1.88,0,0,0-1.43-1.14,1.44,1.44,0,0,0-.35.06,3.85,3.85,0,0,0-2.49,2.15.83.83,0,0,0-.17.53,1.46,1.46,0,0,0,.54,1.12,1.33,1.33,0,0,0,1.16.7,4.17,4.17,0,0,0,1.7-.7,3.23,3.23,0,0,0,1.1-2.17Z"/><path class="cls-1" d="M110.72,12.39a27.6,27.6,0,0,1-1.37,4.41c-.35.24-.73.63-1.14.63a.86.86,0,0,1-.47-.17,8.25,8.25,0,0,1-1.62-2.37c-.63-1.32-1-2.76-1.58-4.12,0-.5-.45-.94-.46-1.44a1.19,1.19,0,0,1,.14-.5,1,1,0,0,1,.76-.36c.71,0,1.34.84,1.49,1.55A20.17,20.17,0,0,0,108,13.69h.12a22.32,22.32,0,0,0,.82-3,6.65,6.65,0,0,1,1.3-3,.83.83,0,0,1,.83,0,1.89,1.89,0,0,1,.54.91h0C111.37,9.61,111.06,11,110.72,12.39Z"/><path class="cls-1" d="M118.57,18.59a2.68,2.68,0,0,1-1.24.28,12.16,12.16,0,0,1-2.93-.71,4.26,4.26,0,0,1-2-4,15.34,15.34,0,0,1,.13-2A10.94,10.94,0,0,1,114,8.9c.76-1,1.94-1.05,3.09-1.07a2.82,2.82,0,0,1,.68.08c.8.46,1.93,1.07,2.24,2.16,0,.09.22.85.22.94a2.43,2.43,0,0,1-1.51,2.11,28.71,28.71,0,0,1-4.39.9,1.77,1.77,0,0,0,.31,1.47,3.7,3.7,0,0,0,2.52,1.18,2,2,0,0,0,1.65-.64.82.82,0,0,1,.27,0,1.38,1.38,0,0,1,1,.61,1.32,1.32,0,0,1,0,.32C120.19,17.81,119.07,18.14,118.57,18.59Zm-.82-7.34c.41-.45-.13-1.06-.51-1.06s-1.21.07-1.53.52a5,5,0,0,0-.61,1.19A6.31,6.31,0,0,0,117.76,11.25Z"/></g></g></svg>