<?xml version="1.0" encoding="utf-8"?>
<!-- Generator: Adobe Illustrator 22.0.1, SVG Export Plug-In . SVG Version: 6.00 Build 0)  -->
<svg version="1.1" id="圖層_1" xmlns="http://www.w3.org/2000/svg" xmlns:xlink="http://www.w3.org/1999/xlink" x="0px" y="0px"
	 viewBox="0 0 97.1 21.1" style="enable-background:new 0 0 97.1 21.1;" xml:space="preserve">
<style type="text/css">
	.st0{fill:#B3B3B3;}
</style>
<title>title</title>
<g>
	<g>
		<g>
			<g>
				<path class="st0" d="M87.9,16.9v-6.1c0-0.2,0-0.4-0.1-0.5c-0.1-0.4-0.5-0.5-1-0.5h-0.7V5.6l-1,0.3l-1.3,0.4v0.2
					c0.3,0.1,0.4,0.2,0.4,0.4V10c-0.2,0-0.4,0.1-0.5,0.2V9.7L82.9,10l-1.1,0.4v0.1c0.2,0,0.3,0.2,0.3,0.4v7.2h0.8h0.8v-7.2
					c0.3-0.2,0.8-0.4,1.4-0.5c0.2,0,0.4,0,0.7,0c0.5,0,0.7,0,0.7,0.5v6.3c0,0.2,0,0.3-0.2,0.3c-0.2,0-0.4-0.1-0.6-0.3l-0.1,0.1
					c0.4,0.4,0.9,0.6,1.4,0.6c0.5,0,0.7-0.2,0.9-0.5C87.9,17.3,87.9,17.2,87.9,16.9z"/>
				<path class="st0" d="M86.4,9.5l0.2,0.1c0.6-0.4,1-1.1,1.3-1.8c0.2-0.5,0.2-1.1,0.2-1.7c0,0,0-0.1,0-0.2l-0.2,0.1l-1.5,0.5v0.1
					c0.2,0,0.3,0.1,0.3,0.3c0,0.3,0,0.4,0,0.6C86.6,8.4,86.5,9,86.4,9.5z"/>
				<path class="st0" d="M86.1,11.7c0-0.4-0.2-0.5-0.5-0.5c-0.2,0-0.4,0-0.5,0.1c0,0-0.1,0.1-0.2,0.1v-0.3l-1.1,0.4v0.1
					c0.1,0,0.2,0.1,0.2,0.3v4.8h1h1.1V11.7z M85.2,16.2H85h-0.2v-4.2c0.1,0,0.1-0.1,0.2-0.1c0,0,0,0,0.1,0c0,0,0.1,0,0.1,0.1V16.2z"
					/>
				<path class="st0" d="M82.9,9.7C82.9,9.7,82.9,9.7,82.9,9.7c0.6,0,0.9-0.2,0.9-0.7c0-0.5-0.2-1-0.5-1.7C83.1,7.2,83,7,82.9,6.8
					c-0.2-0.3-0.5-0.6-0.7-0.8l-0.1,0.1c0.1,0.5,0.2,1.5,0.2,3.1C82.3,9.5,82.5,9.7,82.9,9.7z"/>
				<path class="st0" d="M91.1,4.9h-3.2V3.7h0L85,4.2h0v0.2c0,0,0,0,0,0c0.2,0,0.3,0.1,0.3,0.3v0.3H85h-2.2h-1.3V4.2L78.9,5v0.1
					c0.2,0,0.3,0.1,0.3,0.4v11.4c0,0.1,0,0.2-0.2,0.2c-0.1,0-0.3-0.1-0.5-0.3l-0.2,0.1c0.4,0.8,1,1.1,1.8,1.1c0.9,0,1.4-0.5,1.4-1.4
					V5.5h1.3H85h2.8h4.8l-0.7-1C91.6,4.8,91.2,4.9,91.1,4.9z"/>
				<path class="st0" d="M92.3,10V7.3h0.4l-0.6-0.8c-0.4,0.3-0.7,0.4-0.8,0.4h-0.9c0.1-0.3,0.1-0.8,0.2-1.3l-2.3,0.8v0.2
					c0.2,0.1,0.3,0.2,0.3,0.5c0,1.1-0.2,1.8-0.6,2.4c0,0,0,0,0,0.1l0,0l0.1,0.1c1-0.5,1.8-1.2,2.3-2.3h0.4v3c0,1-0.1,2-0.3,3
					C90,12,89.8,10.6,89.7,9l-1.9,1v0v0.1l0,0.1c0.2,0,0.3,0.1,0.3,0.4c0.3,1.9,0.7,3.6,1.2,4.7c-0.3,1-0.9,1.9-1.6,2.6
					c0,0,0,0-0.1,0.1l0.1,0.1l0,0c0.8-0.4,1.6-1,2.3-1.8c0.6,0.8,1.4,1.4,2.4,1.8l0.1-0.2c0-0.1-0.2-0.3-0.3-0.5
					c-0.6-0.7-1-1.4-1.4-2.1c0.3-0.5,0.6-1.2,0.9-2.3C92.2,11.9,92.3,10.9,92.3,10z"/>
			</g>
			<g>
				<path class="st0" d="M63.7,13.9c-0.7,0.9-1.2,1.3-1.5,1.3c-0.1,0-0.2,0-0.4-0.1l-0.1,0.2l1.5,2.8c0.6-0.5,1.1-1.4,1.6-2.5
					c0.4-1.2,0.6-2.4,0.6-3.5c0-0.2,0-0.4,0-0.6L65,11.2C64.9,12.1,64.4,13,63.7,13.9z"/>
				<path class="st0" d="M64.3,8.5c-0.7-0.5-1.5-0.9-2.2-1.1l-0.2,0.3C62.6,8.3,63,9,63.3,9.8c0.3,0.8,0.7,1.2,1.1,1.2
					c0.2,0,0.5-0.1,0.6-0.3c0.2-0.1,0.3-0.3,0.3-0.5V10V9.9C65.3,9.4,64.9,8.9,64.3,8.5z"/>
				<path class="st0" d="M72.9,4.7H76l-0.7-1c-0.7,0.3-1.1,0.4-1.2,0.4h-1.2H71h-2h-3.6v0l0.7,1c0.7-0.3,1.1-0.4,1.3-0.4H69h0.3v1.2
					c-0.1,0-0.2,0-0.3,0.1c-0.1,0-0.2,0-0.4,0.1V5.4l-2.7,0.7v0.2c0.2,0.1,0.4,0.2,0.4,0.5v11.2H69h2h1.9h2.7V7.4
					c0-1-0.5-1.5-1.6-1.5h-1.1h-0.3V4.7H72.9z M70.7,4.7H71h0.2v1.1H71h-0.3V4.7z M68.6,6.9c0.1,0,0.2-0.1,0.4-0.1
					c0.1,0,0.2,0,0.3,0v4.1c0,1-0.1,1.9-0.3,2.5c-0.1,0.3-0.2,0.5-0.4,0.7V6.9z M73.2,17.2h-0.3H71h-2h-0.4v-1.3H69h2h1.9h0.3V17.2z
					 M73.2,15.2h-0.3H71h-2h-0.4v-0.7c0.1-0.1,0.2-0.2,0.4-0.3c1.1-1,1.7-2.4,1.7-4.4V6.5H71h0.2V13c0,0.8,0.5,1.2,1.3,1.2h0.4h0.3
					V15.2z M72.8,6.5c0,0,0.1,0,0.1,0c0.2,0,0.3,0.2,0.3,0.5v6.6h-0.3c-0.2,0-0.3-0.1-0.3-0.4V6.5H72.8z"/>
				<path class="st0" d="M64.4,5c-0.7-0.5-1.5-0.8-2.3-1l-0.2,0.2c0.5,0.4,0.9,1,1.4,1.9c0.4,0.9,0.9,1.4,1.3,1.4
					c0.5,0,0.8-0.2,0.9-0.6c0-0.1,0-0.2,0-0.3c0,0,0-0.1,0-0.2C65.3,5.9,64.9,5.4,64.4,5z"/>
			</g>
			<g>
				<path class="st0" d="M56.9,4c-0.4,0-0.7,0-1,0.1c-0.3,0-0.6,0.2-0.8,0.3V3.7l-2.8,0.8v0.2c0.3,0,0.4,0.1,0.4,0.4v4.7h3.2h0.8
					v6.6c0,0.5-0.1,0.8-0.5,0.8c-0.1,0-0.2,0-0.4,0c-0.2-0.1-0.5-0.2-0.7-0.5l-0.3,0.4c0.3,0.3,0.6,0.5,1,0.6
					c0.4,0.2,0.8,0.3,1.3,0.3c1.4,0,2.1-0.5,2.1-1.6V5.4C59.1,4.4,58.4,4,56.9,4z M56.6,9.2h-0.8H55V7.4h0.8h0.8V9.2z M56.6,6.7
					h-0.8H55V5c0.3-0.2,0.5-0.4,0.8-0.4c0.1,0,0.2,0,0.4,0c0.3,0,0.5,0.1,0.5,0.3V6.7z"/>
				<path class="st0" d="M49.6,4c-0.4,0-0.8,0-1.1,0.1c-0.3,0.1-0.5,0.2-0.7,0.3V3.7l-2.9,0.8v0.2c0.3,0.1,0.5,0.2,0.5,0.4v12.9h2.5
					V9.9h0.7h3.2V5.3C51.7,4.4,51,4,49.6,4z M49.2,9.2h-0.7h-0.7V7.4h0.7h0.7V9.2z M49.2,6.7h-0.7h-0.7V5c0.2-0.2,0.5-0.3,0.7-0.4
					c0.1,0,0.2,0,0.4,0c0.2,0,0.4,0.1,0.4,0.3V6.7z"/>
			</g>
			<g>
				<path class="st0" d="M40.4,16.9h-0.6h-3v-4.7h3h2.7l-1-1.1c-0.5,0.3-0.9,0.5-1.1,0.5h-0.5h-3V9.3h3H42l-0.9-1.1
					c-0.7,0.3-1,0.5-1.2,0.5h-0.3h-8.6h-2.5l0.7,1.1c0.8-0.3,1.3-0.5,1.5-0.5h0.3H34v2.2h-2.9h-2.8l0.7,1.1c0.7-0.3,1.1-0.4,1.3-0.4
					h0.9H34v4.7h-2.9h-2.9l0.8,1.2c0.6-0.4,1.1-0.5,1.4-0.5h0.8h8.6h2.8l-0.8-1.2C41,16.7,40.5,16.9,40.4,16.9z"/>
				<path class="st0" d="M31.6,16.6c0.8,0,1.1-0.4,1.1-1c0-0.5-0.4-1.1-1-1.7c-0.2-0.2-0.4-0.4-0.6-0.5c-0.5-0.4-0.9-0.6-1.4-0.8
					l-0.2,0.2c0.5,0.7,0.9,1.5,1,2.4c0.1,0.6,0.3,1,0.6,1.3C31.3,16.5,31.4,16.6,31.6,16.6z"/>
				<path class="st0" d="M37.7,16.4l0.2,0.2c0.7-0.2,1.3-0.5,1.8-0.9c0.4-0.3,0.7-0.6,1-1c0.6-0.8,0.9-1.5,1-2.1l-2,0.6l-1.3,0.4
					v0.3c0.2,0.1,0.4,0.2,0.4,0.5c0,0,0,0,0,0C38.8,15,38.4,15.7,37.7,16.4z"/>
				<path class="st0" d="M42,7c-0.4,0-0.8-0.4-1.2-1.3c-0.4-0.7-0.7-1.1-1.1-1.4c0,0-0.1-0.1-0.2-0.1c-0.4-0.2-1-0.3-1.9-0.3
					c-0.1,0-0.3,0-0.5,0c-2,0-3.6,0.4-4.5,1C32.9,4.4,33,4,33,3.7l-1.8,0.6l-1.8,0.6v0.3c0.3,0,0.5,0.1,0.5,0.4c0,1-0.5,1.9-1.6,2.6
					l0.2,0.2c1.1-0.3,2-0.7,2.7-1.2c0.6-0.5,1-0.9,1.4-1.6c1-0.8,2.3-1.2,3.6-1.2c0.8,0,1.4,0.5,1.9,1.5c0.5,1,1.1,1.7,1.7,2
					C40,8,40.3,8.1,40.6,8.1c1.1,0,1.8-0.3,1.9-1l-0.3-0.2C42.2,7,42.1,7,42,7z"/>
			</g>
		</g>
	</g>
	<g>
		<g>
			<path class="st0" d="M8.7,3.3c1.2-0.7,2.6-1.1,4.1-1.1c1.5,0,2.9,0.4,4.1,1.1c-1.4,0.3-2.8,0.8-4.1,1.4
				C11.5,4.1,10.1,3.6,8.7,3.3z"/>
			<path class="st0" d="M7.7,3.9c1.8,0.3,3.5,0.9,5,1.7c1.6-0.8,3.3-1.4,5-1.7c0.4,0.3,0.8,0.6,1.1,1c-2.1,0.2-4.4,1-6.2,2
				c-1.8-1-4-1.8-6.2-2C6.9,4.5,7.3,4.2,7.7,3.9z"/>
			<path class="st0" d="M12.8,9.2c2.1-1.4,4.9-2.4,7.5-2.4c-0.2-0.4-0.4-0.8-0.7-1.1c-2.4,0.1-4.8,1-6.8,2.2c-2-1.2-4.4-2.1-6.8-2.2
				C5.7,6.1,5.5,6.4,5.3,6.8C7.9,6.8,10.6,7.8,12.8,9.2z"/>
			<path class="st0" d="M13.6,17.5c3.5-0.4,6.2-3.4,6.2-6.9c0-0.5,0-1-0.2-1.5c-2.5,0.2-5,1.3-6.8,2.9c-1.9-1.6-4.3-2.7-6.8-2.9
				c-0.1,0.5-0.2,1-0.2,1.5c0,3.5,2.7,6.5,6.1,6.9v1.4c-4.2-0.4-7.5-4.1-7.5-8.4c0-1,0.2-2,0.5-2.9c0.1,0,0.3,0,0.4,0
				c2.6,0,5.4,1,7.5,2.6c2.1-1.5,4.9-2.6,7.5-2.6c0.1,0,0.2,0,0.4,0c0.3,0.9,0.5,1.9,0.5,2.9c0,4.3-3.3,7.9-7.5,8.4V17.5z"/>
		</g>
		<path class="st0" d="M23.4,4.3c0-0.3-0.1-0.4-0.2-0.4c0.2-0.1,0.3-0.2,0.3-0.4c0-0.2-0.1-0.5-0.6-0.5H22v1.8h0.4V4h0.4
			c0.3,0,0.3,0.1,0.3,0.3c0,0.2,0,0.3,0,0.4h0.4v0C23.4,4.6,23.4,4.5,23.4,4.3z M22.8,3.7h-0.4V3.2h0.5c0.2,0,0.3,0.1,0.3,0.2
			C23.1,3.6,23,3.7,22.8,3.7z"/>
		<path class="st0" d="M22.8,2.1c-0.9,0-1.7,0.7-1.7,1.7c0,0.9,0.7,1.7,1.7,1.7c0.9,0,1.7-0.7,1.7-1.7C24.4,2.9,23.7,2.1,22.8,2.1z
			 M22.8,5.2c-0.8,0-1.4-0.6-1.4-1.4c0-0.8,0.6-1.4,1.4-1.4c0.8,0,1.4,0.6,1.4,1.4C24.2,4.6,23.6,5.2,22.8,5.2z"/>
	</g>
</g>
</svg>
