<?xml version="1.0" encoding="utf-8"?>
<!-- Generator: Adobe Illustrator 22.0.1, SVG Export Plug-In . SVG Version: 6.00 Build 0)  -->
<svg version="1.1" id="圖層_1" xmlns="http://www.w3.org/2000/svg" xmlns:xlink="http://www.w3.org/1999/xlink" x="0px" y="0px"
	 viewBox="0 0 88.3 16.8" style="enable-background:new 0 0 88.3 16.8;" xml:space="preserve">
<style type="text/css">
	.st0{fill:#FFFFFF;}
</style>
<title>title</title>
<g>
	<g>
		<g>
			<g>
				<path class="st0" d="M83.5,14.8V8.7c0-0.2,0-0.4-0.1-0.5c-0.1-0.4-0.5-0.5-1-0.5h-0.7V3.5l-1,0.3l-1.3,0.4v0.2
					c0.3,0.1,0.4,0.2,0.4,0.4v3.1c-0.2,0-0.4,0.1-0.5,0.2V7.6l-0.8,0.3l-1.1,0.4v0.1c0.2,0,0.3,0.2,0.3,0.4V16h0.8h0.8V8.8
					c0.3-0.2,0.8-0.4,1.4-0.5c0.2,0,0.4,0,0.7,0c0.5,0,0.7,0,0.7,0.5v6.3c0,0.2,0,0.3-0.2,0.3s-0.4-0.1-0.6-0.3l-0.1,0.1
					c0.4,0.4,0.9,0.6,1.4,0.6s0.7-0.2,0.9-0.5C83.5,15.2,83.5,15.1,83.5,14.8z"/>
				<path class="st0" d="M82,7.4l0.2,0.1c0.6-0.4,1-1.1,1.3-1.8c0.2-0.5,0.2-1.1,0.2-1.7c0,0,0-0.1,0-0.2l-0.2,0.1L82,4.4v0.1
					c0.2,0,0.3,0.1,0.3,0.3c0,0.3,0,0.4,0,0.6C82.2,6.3,82.1,6.9,82,7.4z"/>
				<path class="st0" d="M81.7,9.6c0-0.4-0.2-0.5-0.5-0.5c-0.2,0-0.4,0-0.5,0.1c0,0-0.1,0.1-0.2,0.1V9l-1.1,0.4v0.1
					c0.1,0,0.2,0.1,0.2,0.3v4.8h1h1.1V9.6z M80.8,14.1h-0.2h-0.2V9.9c0.1,0,0.1-0.1,0.2-0.1c0,0,0,0,0.1,0c0,0,0.1,0,0.1,0.1V14.1z"
					/>
				<path class="st0" d="M78.5,7.6L78.5,7.6c0.6,0,0.9-0.2,0.9-0.7s-0.2-1-0.5-1.7c-0.2-0.1-0.3-0.3-0.4-0.5
					c-0.2-0.3-0.5-0.6-0.7-0.8L77.7,4c0.1,0.5,0.2,1.5,0.2,3.1C77.9,7.4,78.1,7.6,78.5,7.6z"/>
				<path class="st0" d="M86.7,2.8h-3.2V1.6l0,0l-2.9,0.5l0,0v0.2l0,0c0.2,0,0.3,0.1,0.3,0.3v0.3h-0.3h-2.2h-1.3V2.1l-2.6,0.8V3
					c0.2,0,0.3,0.1,0.3,0.4v11.4c0,0.1,0,0.2-0.2,0.2c-0.1,0-0.3-0.1-0.5-0.3l-0.2,0.1c0.4,0.8,1,1.1,1.8,1.1c0.9,0,1.4-0.5,1.4-1.4
					V3.4h1.3h2.2h2.8h4.8l-0.7-1C87.2,2.7,86.8,2.8,86.7,2.8z"/>
				<path class="st0" d="M87.9,7.9V5.2h0.4l-0.6-0.8c-0.4,0.3-0.7,0.4-0.8,0.4H86c0.1-0.3,0.1-0.8,0.2-1.3l-2.3,0.8v0.2
					c0.2,0.1,0.3,0.2,0.3,0.5c0,1.1-0.2,1.8-0.6,2.4c0,0,0,0,0,0.1l0,0l0.1,0.1c1-0.5,1.8-1.2,2.3-2.3h0.4v3c0,1-0.1,2-0.3,3
					c-0.5-1.4-0.7-2.8-0.8-4.4l-1.9,1l0,0V8v0.1c0.2,0,0.3,0.1,0.3,0.4c0.3,1.9,0.7,3.6,1.2,4.7c-0.3,1-0.9,1.9-1.6,2.6
					c0,0,0,0-0.1,0.1l0.1,0.1l0,0c0.8-0.4,1.6-1,2.3-1.8C86.2,15,87,15.6,88,16l0.1-0.2c0-0.1-0.2-0.3-0.3-0.5
					c-0.6-0.7-1-1.4-1.4-2.1c0.3-0.5,0.6-1.2,0.9-2.3C87.8,9.8,87.9,8.8,87.9,7.9z"/>
			</g>
			<g>
				<path class="st0" d="M59.3,11.8c-0.7,0.9-1.2,1.3-1.5,1.3c-0.1,0-0.2,0-0.4-0.1l-0.1,0.2l1.5,2.8c0.6-0.5,1.1-1.4,1.6-2.5
					c0.4-1.2,0.6-2.4,0.6-3.5c0-0.2,0-0.4,0-0.6l-0.4-0.3C60.5,10,60,10.9,59.3,11.8z"/>
				<path class="st0" d="M59.9,6.4c-0.7-0.5-1.5-0.9-2.2-1.1l-0.2,0.3c0.7,0.6,1.1,1.3,1.4,2.1c0.3,0.8,0.7,1.2,1.1,1.2
					c0.2,0,0.5-0.1,0.6-0.3c0.2-0.1,0.3-0.3,0.3-0.5V7.9V7.8C60.9,7.3,60.5,6.8,59.9,6.4z"/>
				<path class="st0" d="M68.5,2.6h3.1l-0.7-1C70.2,1.9,69.8,2,69.7,2h-1.2h-1.9h-2H61l0,0l0.7,1c0.7-0.3,1.1-0.4,1.3-0.4h1.6h0.3
					v1.2c-0.1,0-0.2,0-0.3,0.1c-0.1,0-0.2,0-0.4,0.1V3.3L61.5,4v0.2c0.2,0.1,0.4,0.2,0.4,0.5v11.2h2.7h2h1.9h2.7V5.3
					c0-1-0.5-1.5-1.6-1.5h-1.1h-0.3V2.6H68.5z M66.3,2.6h0.3h0.2v1.1h-0.2h-0.3V2.6z M64.2,4.8c0.1,0,0.2-0.1,0.4-0.1
					c0.1,0,0.2,0,0.3,0v4.1c0,1-0.1,1.9-0.3,2.5c-0.1,0.3-0.2,0.5-0.4,0.7V4.8z M68.8,15.1h-0.3h-1.9h-2h-0.4v-1.3h0.4h2h1.9h0.3
					C68.8,13.8,68.8,15.1,68.8,15.1z M68.8,13.1h-0.3h-1.9h-2h-0.4v-0.7c0.1-0.1,0.2-0.2,0.4-0.3c1.1-1,1.7-2.4,1.7-4.4V4.4h0.3h0.2
					v6.5c0,0.8,0.5,1.2,1.3,1.2h0.4h0.3C68.8,12.1,68.8,13.1,68.8,13.1z M68.4,4.4L68.4,4.4c0.3,0,0.4,0.2,0.4,0.5v6.6h-0.3
					c-0.2,0-0.3-0.1-0.3-0.4V4.4H68.4z"/>
				<path class="st0" d="M60,2.9c-0.7-0.5-1.5-0.8-2.3-1l-0.2,0.2c0.5,0.4,0.9,1,1.4,1.9c0.4,0.9,0.9,1.4,1.3,1.4
					c0.5,0,0.8-0.2,0.9-0.6c0-0.1,0-0.2,0-0.3c0,0,0-0.1,0-0.2C60.9,3.8,60.5,3.3,60,2.9z"/>
			</g>
			<g>
				<path class="st0" d="M52.5,1.9c-0.4,0-0.7,0-1,0.1c-0.3,0-0.6,0.2-0.8,0.3V1.6l-2.8,0.8v0.2c0.3,0,0.4,0.1,0.4,0.4v4.7h3.2h0.8
					v6.6c0,0.5-0.1,0.8-0.5,0.8c-0.1,0-0.2,0-0.4,0c-0.2-0.1-0.5-0.2-0.7-0.5L50.4,15c0.3,0.3,0.6,0.5,1,0.6
					c0.4,0.2,0.8,0.3,1.3,0.3c1.4,0,2.1-0.5,2.1-1.6v-11C54.7,2.3,54,1.9,52.5,1.9z M52.2,7.1h-0.8h-0.8V5.3h0.8h0.8V7.1z M52.2,4.6
					h-0.8h-0.8V2.9c0.3-0.2,0.5-0.4,0.8-0.4c0.1,0,0.2,0,0.4,0c0.3,0,0.5,0.1,0.5,0.3v1.8H52.2z"/>
				<path class="st0" d="M45.2,1.9c-0.4,0-0.8,0-1.1,0.1c-0.3,0.1-0.5,0.2-0.7,0.3V1.6l-2.9,0.8v0.2C40.8,2.7,41,2.8,41,3v12.9h2.5
					V7.8h0.7h3.2V3.2C47.3,2.3,46.6,1.9,45.2,1.9z M44.8,7.1h-0.7h-0.7V5.3h0.7h0.7V7.1z M44.8,4.6h-0.7h-0.7V2.9
					c0.2-0.2,0.5-0.3,0.7-0.4c0.1,0,0.2,0,0.4,0c0.2,0,0.4,0.1,0.4,0.3L44.8,4.6L44.8,4.6z"/>
			</g>
			<g>
				<path class="st0" d="M36,14.8h-0.6h-3v-4.7h3h2.7l-1-1.1c-0.5,0.3-0.9,0.5-1.1,0.5h-0.5h-3V7.2h3h2.1l-0.9-1.1
					c-0.7,0.3-1,0.5-1.2,0.5h-0.3h-8.6h-2.5l0.7,1.1c0.8-0.3,1.3-0.5,1.5-0.5h0.3h3v2.2h-2.9h-2.8l0.7,1.1c0.7-0.3,1.1-0.4,1.3-0.4
					h0.9h2.8v4.7h-2.9h-2.9l0.8,1.2c0.6-0.4,1.1-0.5,1.4-0.5h0.8h8.6h2.8l-0.8-1.2C36.6,14.6,36.1,14.8,36,14.8z"/>
				<path class="st0" d="M27.2,14.5c0.8,0,1.1-0.4,1.1-1c0-0.5-0.4-1.1-1-1.7c-0.2-0.2-0.4-0.4-0.6-0.5c-0.5-0.4-0.9-0.6-1.4-0.8
					l-0.2,0.2c0.5,0.7,0.9,1.5,1,2.4c0.1,0.6,0.3,1,0.6,1.3C26.9,14.4,27,14.5,27.2,14.5z"/>
				<path class="st0" d="M33.3,14.3l0.2,0.2c0.7-0.2,1.3-0.5,1.8-0.9c0.4-0.3,0.7-0.6,1-1c0.6-0.8,0.9-1.5,1-2.1l-2,0.6L34,11.5v0.3
					c0.2,0.1,0.4,0.2,0.4,0.5l0,0C34.4,12.9,34,13.6,33.3,14.3z"/>
				<path class="st0" d="M37.6,4.9c-0.4,0-0.8-0.4-1.2-1.3c-0.4-0.7-0.7-1.1-1.1-1.4c0,0-0.1-0.1-0.2-0.1c-0.4-0.2-1-0.3-1.9-0.3
					c-0.1,0-0.3,0-0.5,0c-2,0-3.6,0.4-4.5,1c0.3-0.5,0.4-0.9,0.4-1.2l-1.8,0.6L25,2.8v0.3c0.3,0,0.5,0.1,0.5,0.4
					c0,1-0.5,1.9-1.6,2.6l0.2,0.2c1.1-0.3,2-0.7,2.7-1.2c0.6-0.5,1-0.9,1.4-1.6c1-0.8,2.3-1.2,3.6-1.2c0.8,0,1.4,0.5,1.9,1.5
					s1.1,1.7,1.7,2C35.6,5.9,35.9,6,36.2,6c1.1,0,1.8-0.3,1.9-1l-0.3-0.2C37.8,4.9,37.7,4.9,37.6,4.9z"/>
			</g>
		</g>
	</g>
	<g>
		<g>
			<path class="st0" d="M4.3,1.2c1.2-0.7,2.6-1.1,4.1-1.1s2.9,0.4,4.1,1.1C11.1,1.5,9.7,2,8.4,2.6C7.1,2,5.7,1.5,4.3,1.2z"/>
			<path class="st0" d="M3.3,1.8c1.8,0.3,3.5,0.9,5,1.7c1.6-0.8,3.3-1.4,5-1.7c0.4,0.3,0.8,0.6,1.1,1c-2.1,0.2-4.4,1-6.2,2
				c-1.8-1-4-1.8-6.2-2C2.5,2.4,2.9,2.1,3.3,1.8z"/>
			<path class="st0" d="M8.4,7.1c2.1-1.4,4.9-2.4,7.5-2.4c-0.2-0.4-0.4-0.8-0.7-1.1c-2.4,0.1-4.8,1-6.8,2.2C6.4,4.6,4,3.7,1.6,3.6
				C1.3,4,1.1,4.3,0.9,4.7C3.5,4.7,6.2,5.7,8.4,7.1z"/>
			<path class="st0" d="M9.2,15.4c3.5-0.4,6.2-3.4,6.2-6.9c0-0.5,0-1-0.2-1.5c-2.5,0.2-5,1.3-6.8,2.9C6.5,8.3,4.1,7.2,1.6,7
				C1.5,7.5,1.4,8,1.4,8.5c0,3.5,2.7,6.5,6.1,6.9v1.4C3.3,16.4,0,12.7,0,8.4c0-1,0.2-2,0.5-2.9c0.1,0,0.3,0,0.4,0
				c2.6,0,5.4,1,7.5,2.6c2.1-1.5,4.9-2.6,7.5-2.6c0.1,0,0.2,0,0.4,0c0.3,0.9,0.5,1.9,0.5,2.9c0,4.3-3.3,7.9-7.5,8.4L9.2,15.4
				L9.2,15.4z"/>
		</g>
		<path class="st0" d="M19,2.2c0-0.3-0.1-0.4-0.2-0.4c0.2-0.1,0.3-0.2,0.3-0.4S19,0.9,18.5,0.9h-0.9v1.8H18V1.9h0.4
			c0.3,0,0.3,0.1,0.3,0.3c0,0.2,0,0.3,0,0.4h0.4l0,0C19,2.5,19,2.4,19,2.2z M18.4,1.6H18V1.1h0.5c0.2,0,0.3,0.1,0.3,0.2
			C18.7,1.5,18.6,1.6,18.4,1.6z"/>
		<path class="st0" d="M18.4,0c-0.9,0-1.7,0.7-1.7,1.7c0,0.9,0.7,1.7,1.7,1.7c0.9,0,1.7-0.7,1.7-1.7C20,0.8,19.3,0,18.4,0z
			 M18.4,3.1c-0.8,0-1.4-0.6-1.4-1.4s0.6-1.4,1.4-1.4s1.4,0.6,1.4,1.4C19.8,2.5,19.2,3.1,18.4,3.1z"/>
	</g>
</g>
</svg>
