<svg xmlns="http://www.w3.org/2000/svg" viewBox="0 0 215 425"><defs><style>.cls-1,.cls-2{fill:none;}.cls-2{stroke:#666;stroke-miterlimit:10;stroke-width:0.37px;}.cls-3{fill:#fff;}</style></defs><title>資產 2</title><g id="圖層_2" data-name="圖層 2"><g id="圖層_1-2" data-name="圖層 1"><rect class="cls-1" width="215" height="425"/><path d="M110.26,28.8a.77.77,0,0,1-.64-.13.44.44,0,0,1,0-.63,6.76,6.76,0,0,0,2.53-4.19c0-.35.1-.83-.19-1.08a2.52,2.52,0,0,0-2.37-.38,3.22,3.22,0,0,0-1.44,1.3,6.34,6.34,0,0,0-.64,3.71c-.22.32-.67.26-.86-.16a24.91,24.91,0,0,1-1.69-6.31,16.63,16.63,0,0,0-2.72.89,17.4,17.4,0,0,1-2.56,6.28,3.58,3.58,0,0,0,2,.41,1.93,1.93,0,0,0,1.25-.47,5,5,0,0,0,1.6-2.07c.09-.09.32,0,.29.23a4,4,0,0,1-.55,1.33,3.55,3.55,0,0,1-3.29,1.78A4.07,4.07,0,0,1,99,28.77a4.58,4.58,0,0,1-4.83.35A5.79,5.79,0,0,1,91,26,1.26,1.26,0,0,1,91.78,25c1.44-.7,2.72-1,4.22-1.68a33.63,33.63,0,0,1,.09-7.17,2.11,2.11,0,0,1,.32-.7.47.47,0,0,1,.55.32A41.46,41.46,0,0,0,96.83,23c1.41-.44,2.62-.92,4.54-1.58a4.89,4.89,0,0,1,1-2.13,2.17,2.17,0,0,1,1.38-.79c.28,0,.28.16.16.31s-.68.48-.93.83a3.86,3.86,0,0,0-.64,1.43c.7-.29,1-.32,2-.73.74-.35.52-.35,1.15-.29.58.54.32,1.46.52,2.19a18.15,18.15,0,0,0,.8,2.95,5.32,5.32,0,0,1,.89-2.25,3.28,3.28,0,0,1,1.92-1.4,2.72,2.72,0,0,1,3.1.86,1.88,1.88,0,0,1,.16,1.81,14.66,14.66,0,0,1-.64,1.84A14.13,14.13,0,0,1,115,24.26c.12,0,.35,0,.35.16C113.29,26,112.24,27.05,110.26,28.8Zm-14.2-4.67c-.35.16-2.17.77-3,1.18-.54.28-1.25.41-1,1.17a5,5,0,0,0,2.46,1.94c1.24.41,2.59.73,3.64-.16A6.19,6.19,0,0,1,96.06,24.13Zm.9-.31c.06.44.25,1.3.35,1.71a4.59,4.59,0,0,0,1.6,2.06,13.21,13.21,0,0,0,2.14-5.36C99.71,22.77,98.3,23.21,97,23.82Z"/><path d="M111.92,69.44a2.22,2.22,0,0,1-2.21-.25A63.1,63.1,0,0,1,104,64.75a2.6,2.6,0,0,1-.58-.32c-.09,1.24-.06,2.54-.09,3.81a9.39,9.39,0,0,1-1,4.44,2.29,2.29,0,0,1-1.89,1.14c-.57-.09-1.21-.25-1.43-.86a4.93,4.93,0,0,1-.26-2.18c0-.26.38-.32.48,0a5.12,5.12,0,0,0,.22,1.56,1.3,1.3,0,0,0,.71.73c.35,0,.76.09,1-.19a5.27,5.27,0,0,0,1.15-3c.16-1.88.16-4,.19-5.84a21.89,21.89,0,0,1-3.29,4.15,9.09,9.09,0,0,1-3.07,1.94c-.16,0-.42.1-.64.1a.32.32,0,0,1-.35-.35,10.53,10.53,0,0,0,3.52-2.29,20.59,20.59,0,0,0,3.83-5.2,1.81,1.81,0,0,0,0-.57c-1.85.73-3.74,1.62-5.72,2.22a1.09,1.09,0,0,1-.64-.13c-.1-.19-.32-.38-.1-.57,2.15-1.9,4-3.55,6.14-5.33.07-.16.35-.38.26-.54a9.54,9.54,0,0,1-1.95.45c-.26-.16-.39-.38,0-.51a9.62,9.62,0,0,0,1.95-1,6.67,6.67,0,0,1-3.2-.39c0,.23.16.58.16.86a.49.49,0,0,1-.29.48c-.19,0-.35-.16-.41-.29a30.13,30.13,0,0,1-1.47-7.17c.06-.57-.07-1.27.38-1.68.29-.06.45.16.54.38a9.21,9.21,0,0,0,0,2.29A5.89,5.89,0,0,1,101.37,49a9.75,9.75,0,0,1,4.47.19,5.87,5.87,0,0,1,2.47,1.37,1.94,1.94,0,0,1,.6,2,6.87,6.87,0,0,1-2,2.29,8.36,8.36,0,0,1-3.55,1.52c0,.13,0,.41-.06.54a8.72,8.72,0,0,0,.9,0,.67.67,0,0,1,.54.29.9.9,0,0,1-.54.57l-.84.47a12.92,12.92,0,0,0,.07,2.26,39.12,39.12,0,0,0,4.35-2.61.75.75,0,0,0,.12-1c-.12-.22.07-.5.26-.38a1.88,1.88,0,0,1,.64.76,1.1,1.1,0,0,1-.51,1.15,45.86,45.86,0,0,1-4.93,3V63.7a7,7,0,0,1,1.12.45,57.5,57.5,0,0,0,5.69,4.31c.61.6,1.57.22,2.21,0,.22.06.19.35.1.51A1.82,1.82,0,0,1,111.92,69.44Zm-9.37-10.56c-1.66,1.27-3.35,2.57-4.86,4a51.51,51.51,0,0,0,4.86-2C102.52,60.31,102.52,59.36,102.55,58.88Zm-3-8.28a3.23,3.23,0,0,0-.9,1.11,1.36,1.36,0,0,0-.22,1c.06.45.22.89.26,1.3a10.13,10.13,0,0,1,3.83-1.2c0-.83,0-2.41,0-3.11A5.85,5.85,0,0,0,99.58,50.6Zm2.91,3.08a18.65,18.65,0,0,0-2.11.47c-.42.19-.93.29-1.18.7a.35.35,0,0,0,.06.41,5.73,5.73,0,0,0,3.23.38C102.52,55,102.52,54.28,102.49,53.68Zm2.2,0a8.83,8.83,0,0,0-1.28-.07,14.6,14.6,0,0,1,0,1.88c.36-.1,1-.29,1.25-.39s.54-.41.64-.69S105,53.77,104.69,53.68Zm2.56-3a7.68,7.68,0,0,0-3.74-1c0,1-.06,2.06,0,3.08a10.07,10.07,0,0,1,1.31.09,2.38,2.38,0,0,1,1.21.64,1.34,1.34,0,0,1,.07.85c.73-.6,1.92-1.27,2-2.34A2,2,0,0,0,107.25,50.73Z"/><path d="M113.58,106.41a6.26,6.26,0,0,1-2.21,2.38,9.45,9.45,0,0,1-3.26,1.3,2.86,2.86,0,0,1-3-1.2,6.81,6.81,0,0,1-.35-3,9.81,9.81,0,0,1,1.34-3.94c.8-1.36,1.54-2.73,2.21-4.15a7.26,7.26,0,0,1-2.24.47,2,2,0,0,1-1.34-.35,1.79,1.79,0,0,1-.61-1.36c0-.44,0-1.68,0-2.28a68.73,68.73,0,0,0-4.92,7.2,43.06,43.06,0,0,1-.71,8.31,1.44,1.44,0,0,1-.7.92,1.35,1.35,0,0,1-1.37-.35,13.67,13.67,0,0,1-1.92-2c-.1.22-.07.51-.23.67a.93.93,0,0,1-.6-.79,6.38,6.38,0,0,1-.1-1.15,5.71,5.71,0,0,1-.86-1.33.22.22,0,0,1,.32-.13c.13.16.38.38.48.51,0-1,0-3,0-4.38-.19,0-.42.38-.61.13-.13-.44.39-.73.67-1a8.58,8.58,0,0,1,.74-4.18,4.87,4.87,0,0,1,2.52-2.41,7,7,0,0,0,2.72-2.8c.16-.47.29-.92-.13-1.26a20.8,20.8,0,0,1-6.2,3,1.24,1.24,0,0,1-1.34-.63c0-1.21,1.09-2.07,1.76-3s1.69-1.55,2-2.63a.36.36,0,0,1,.54.28,1.42,1.42,0,0,1-.51,1.4,23.36,23.36,0,0,0-2.75,3.43.31.31,0,0,0,.32.35,21.81,21.81,0,0,0,6.07-3,1.44,1.44,0,0,1,.87,0,1.66,1.66,0,0,1,.41,1.75,4.23,4.23,0,0,1-1.4,2.19c-.84.73-1.89,1.26-2.79,2a4.5,4.5,0,0,0-1.5,2,11.24,11.24,0,0,0-.45,3.27,4.58,4.58,0,0,1,1.73,0,2,2,0,0,1,1.41.86,2.05,2.05,0,0,1,.28.76,5.09,5.09,0,0,0,.45-.64,30.08,30.08,0,0,0-.22-4.76c-.19-.41-.55,0-.77,0s-.29,0-.25-.1c.28-.29.41-.73.76-.92a.63.63,0,0,1,.87.19,2.4,2.4,0,0,1,.41,1.65c0,.79,0,1.62.13,2.41.86-1.33,2.62-3.93,3.45-5.17a14.6,14.6,0,0,1,1.57-2c.48-.06.61.42.77.76a10.72,10.72,0,0,0,.19,3.4c.57.51,1.44.28,2.14.16a3.47,3.47,0,0,0,1.37-.57,5.13,5.13,0,0,0,.48-2.41c-.09-.29-.44-.32-.67-.45a7.09,7.09,0,0,0-2.3.35c-.29-.06-.35-.16-.51-.41s.38-.38.64-.51a12.26,12.26,0,0,1,2.14-.32,1.68,1.68,0,0,1,1,.42,1.36,1.36,0,0,1,.48,1,10,10,0,0,1-.29,1.78c.35-.26.61-.58.93-.86.1,0,.16.09.19.22-.19.73-.93,1.21-1.5,1.68-.7,2-2.08,3.81-2.94,5.81a8.58,8.58,0,0,0-.74,3.2c0,.86-.09,2,.67,2.63a2.82,2.82,0,0,0,2.5.26,8.91,8.91,0,0,0,3.35-1.84,3,3,0,0,0,1.06-1.52c.13-.16.35,0,.38.22S113.58,106.26,113.58,106.41Zm-16.88-.66a.73.73,0,0,1-.8-.67c.26-.57.71-1,1-1.62a2,2,0,0,0,.23-1.23,1.5,1.5,0,0,0-.77-.64,3.58,3.58,0,0,0-1.89-.16c-.09,1.84-.09,3.91,0,5.81a25.24,25.24,0,0,0,2.05,2.09,1.41,1.41,0,0,0,.93.45c.38-.32.28-.86.44-1.3.2-1.72.32-3.62.36-5.33C97.72,104,97.25,104.89,96.7,105.75Zm16.91-2.64a7.07,7.07,0,0,0-2.49,1c-1.15.66-2.17,1.58-3.29,2.31-.23.1-.39-.06-.58-.15s0-.29,0-.45c1.15-.79,2.27-1.74,3.49-2.41a6.33,6.33,0,0,1,2.3-.82,1.29,1.29,0,0,1,1.08.31C114.12,103.08,113.77,103.11,113.61,103.11Z"/><path d="M110.38,134.54a20.33,20.33,0,0,1-4.5,2.76c-.2,0-.42-.13-.42-.32a12.14,12.14,0,0,0,0-5.87.28.28,0,0,1,.19-.35c.42,0,.58.42.77.67a10.66,10.66,0,0,1,.16,2.25,5.25,5.25,0,0,0,3.13-2.25,1.34,1.34,0,0,0,.26-1c-.32-1.08-1.54-1.24-2.53-1.27a9.43,9.43,0,0,0-4.47,1.14,23,23,0,0,0-6.08,5.08c0,1.71.36,3.87,0,5.71a4,4,0,0,1-2.11,3.1,2,2,0,0,1-2.27-.31,2.5,2.5,0,0,1-.35-2.86,19.16,19.16,0,0,1,3.9-5.77c0-.67-.06-2.1-.09-2.76-1.41.32-2.78,1.05-4.32,1.11a1,1,0,0,1-.77-.41c0-.26.2-.29.39-.32a29.3,29.3,0,0,0,4.7-1.27c.12-.86-.2-1.93.35-2.63a.51.51,0,0,1,.48.16,12.2,12.2,0,0,1,0,2.09,12.39,12.39,0,0,1,2.46-.67c.12.1.28.16.32.29,0,.38-.39.38-.61.54l-2.14.76a16.06,16.06,0,0,0,0,2.22,31.65,31.65,0,0,1,5.91-4.66,9.64,9.64,0,0,1,5.53-1.24,2.8,2.8,0,0,1,2.4,1.43,2,2,0,0,1-.35,2.12,6.75,6.75,0,0,1-3.8,2.35c0,.44-.07,1.33-.1,1.78a14.09,14.09,0,0,0,3.29-2.07c0-.28-.29-.28-.35-.47a1.37,1.37,0,0,1,1.31.28A.6.6,0,0,1,110.38,134.54Zm-15.5,3.36a13,13,0,0,0-2.17,4.44,1.33,1.33,0,0,0,.86,1.14A1.65,1.65,0,0,0,95,143.1a4.25,4.25,0,0,0,1-2c.38-1.53.06-3.27.09-4.79C95.84,136.66,95.26,137.43,94.88,137.9Zm19.66,4.32a11.09,11.09,0,0,1-4.09,2.41,18.23,18.23,0,0,1-5,1.11,3.48,3.48,0,0,1-3.2-1.78,12.82,12.82,0,0,1-.48-4.19,66,66,0,0,1,.1-6.63,1.19,1.19,0,0,1,.54-1,1.71,1.71,0,0,1,1.53,0c-.35.26-.89.35-1.15.79a45,45,0,0,0,.07,10.12,2.81,2.81,0,0,0,1.34,1.59,6.23,6.23,0,0,0,2.88,0c2.59-.51,4.54-1,6.58-2.76a2.56,2.56,0,0,0,.9-1.87,13.28,13.28,0,0,0-.64-3.58c.54.38.77,1.14,1.12,1.71a5.75,5.75,0,0,1,.35,2.31A2.52,2.52,0,0,1,114.54,142.22Z"/><path d="M98.62,176.1A11.12,11.12,0,0,1,96,181.61c-.29.2-.61.45-1,.32a1.09,1.09,0,0,1-.45-1c0-1.94.1-3.91.29-5.81a2.06,2.06,0,0,0-.58.44,3.28,3.28,0,0,1-2.08.89,1,1,0,0,1-.67-.79,1.57,1.57,0,0,1,.07-1.05,18,18,0,0,1,5.53-6.18.44.44,0,0,1,.45.25c-.13.92-1.16,1.08-1.67,1.78a20.16,20.16,0,0,0-3.58,4.79.45.45,0,0,0,.19.41,2.56,2.56,0,0,0,1.54-.67c.45-.35.8-.85,1.25-1.14.25,0,.35.16.47.32a49.31,49.31,0,0,0-.31,6.53c.09.07.22.13.31.07,1.6-1.62,2.18-3.68,3-5.59A3.74,3.74,0,0,1,98.62,176.1Zm2.85,6.82c-.16,0-.32,0-.39-.16.26-1,1.12-1.78,1.6-2.67,1.28-2.12,2.17-4.31,3.39-6.44.19,0,.09.32.09.45C105.27,177.3,104.15,180.44,101.47,182.92Zm12.11-2.7c-.41-.32-.45-.92-.8-1.33a12.24,12.24,0,0,0-4.12-3.08c0,3.27.22,6.76,0,9.93a2.06,2.06,0,0,1-1.19,1.74,3.2,3.2,0,0,1-2.84-.31,2.58,2.58,0,0,1-1-1.24.13.13,0,0,1,.23-.1,3.06,3.06,0,0,0,1.6,1,2.13,2.13,0,0,0,1.76-.25,2.18,2.18,0,0,0,.67-1.84c0-1.21,0-3.49,0-4.54,0-3.08-.09-9.49-.12-12.25a7.34,7.34,0,0,0,4.06-2.06,1.26,1.26,0,0,0,.19-.95,1.16,1.16,0,0,0-1.09-.76,7.37,7.37,0,0,0-4.47,1.55,13.92,13.92,0,0,0-3.78,4.32.45.45,0,0,1-.51,0,1.75,1.75,0,0,1-.54-1.46,12.06,12.06,0,0,1,.89-5.59c.07-.16.23-.19.39-.25a.36.36,0,0,1,.38.35c-.48,1.84-1.18,3.77-.7,5.8a13.76,13.76,0,0,1,3.42-3.8,8.17,8.17,0,0,1,4.86-1.75,1.93,1.93,0,0,1,1.72.83,1.88,1.88,0,0,1,.07,1.84,5.7,5.7,0,0,1-4,2.38c0,1.68.06,5,.1,6.69a10.76,10.76,0,0,1,5.17,3.78c.1.38.42.82.13,1.23A.24.24,0,0,1,113.58,180.22Z"/><path d="M106.8,211.72a10.34,10.34,0,0,1-5.43,2.22,3,3,0,0,1-.74-.13A11.41,11.41,0,0,0,99,214.89a15.9,15.9,0,0,0-3.55,3.84,8.52,8.52,0,0,0-1.38,4.19,1.46,1.46,0,0,1-.73.63.38.38,0,0,1-.42-.16,11.39,11.39,0,0,1,2.11-5.55,13.42,13.42,0,0,1,5-4.31,2.51,2.51,0,0,1-.87-2.32,6,6,0,0,1,3.1-4.44A48.12,48.12,0,0,0,94.53,209a.62.62,0,0,1-.42-.32c0-.57.64-.51.93-.76a37.37,37.37,0,0,1,9-2.22c.51,0,1,0,1.31.38a.24.24,0,0,1-.19.38,6.78,6.78,0,0,0-3,1.33,5.22,5.22,0,0,0-2,2.83c-.1.73-.32,1.65.32,2.19s1.4.25,2.07.15a14.15,14.15,0,0,0,4.22-2.15c.16-.16.36.06.45.16C107.35,211.28,107,211.5,106.8,211.72Zm-2.71-7.49c-1.6-1.27-3.65-1.36-5.57-1.77a.37.37,0,0,1-.16-.54c.1-.23.29-.26.52-.32,2,.38,4.15.54,5.69,2.13.06.15.19.31.09.5A.67.67,0,0,1,104.09,204.23ZM115,222.6c-.29.19-.67-.13-1-.16-1.79-1-2.27-2-4.06-3a3.55,3.55,0,0,0-1.86.32,5.21,5.21,0,0,1-2,.47,2.07,2.07,0,0,1,.77,1.9,3,3,0,0,1-.71,1,9.71,9.71,0,0,1-3.7,2,2.69,2.69,0,0,1-2.21-.32A3.22,3.22,0,0,1,98.91,223a11.25,11.25,0,0,1-.16-3.49c0-.51-.55-1.24.13-1.55a1,1,0,0,1,.76.92c.1.66-.16,1.55-.06,2.22a6.05,6.05,0,0,0,.13,1.52,2.26,2.26,0,0,0,1.08,1.62,2.87,2.87,0,0,0,1.92,0,10.07,10.07,0,0,0,2.88-1.71,1.38,1.38,0,0,0,.54-.86,1.84,1.84,0,0,0-1-1.33,7.93,7.93,0,0,1-2-1.34,2.44,2.44,0,0,1-.7-.82c-.07-.32.19-.76.57-.54a5,5,0,0,0,2.18,1.74,2.23,2.23,0,0,0,1.21.07,11.21,11.21,0,0,0,2.49-.76,3,3,0,0,1,2.43.6,37.91,37.91,0,0,0,3.68,2.79A.33.33,0,0,1,115,222.6Z"/><path d="M97.72,246.6c-.28,0-.54-.13-.83-.13a51.3,51.3,0,0,0-6.17,1.62.46.46,0,0,1-.51-.64,32.79,32.79,0,0,1,6.84-1.8,1,1,0,0,1,.87.44A.39.39,0,0,1,97.72,246.6Zm17.94,8.31a30.92,30.92,0,0,1-10.61,6.66,1.82,1.82,0,0,1-1.63-.16,1.37,1.37,0,0,1-.58-1.17,11.22,11.22,0,0,1,1.28-3.17,48.44,48.44,0,0,1,2.72-4.35.21.21,0,0,0-.13-.32,14.07,14.07,0,0,0-3.26.16c-.23,0-.35-.25-.42-.41-.13-.32.19-.51.42-.6a11.45,11.45,0,0,0,5-4.41c.16-.38-.23-.61-.45-.76a15,15,0,0,0-3.61-1.34,1.11,1.11,0,0,0-.8.13,5.93,5.93,0,0,0-1.28,1.46,91.81,91.81,0,0,0-6.59,10.44,2.92,2.92,0,0,1,2.08.06,1,1,0,0,1,.35.86c-.41,1.46-1.56,3.23-3.19,3.61a1.34,1.34,0,0,1-1.47-.51,1.63,1.63,0,0,1,.09-1.23c.16-.41.42-.8.58-1.18A12.34,12.34,0,0,0,92.26,260c-.26,0-.48-.13-.51-.42a21.93,21.93,0,0,1,1.31-1.93c.45-.83.86-1.52,1.31-2.48,0-.12-.07-.31-.19-.31-.87.12-1.67.38-2.56.54-.54,0-.74-.32-.64-.67,1.41-1.36,3.8-3.62,4.6-4.6-1.15.1-2.17.86-3.35.86a.67.67,0,0,1-.67-.32c-.1-.35.28-.48.51-.6a25.77,25.77,0,0,0,3.77-2.19c.09,0,.25.06.19.16a3.68,3.68,0,0,1-1.41,1.17,8.31,8.31,0,0,0-1,.7c.63-.1,1.24-.41,1.91-.54.32,0,.77-.29,1.09,0a.61.61,0,0,1,.16.6,58.5,58.5,0,0,0-4.67,4.5c.9-.06,1.79-.53,2.75-.28.19.19.35.44.26.67a12.29,12.29,0,0,1-1.89,3.58c.58-.51,1.41-.63,1.76-1.33a109.74,109.74,0,0,1,7.83-12.18,1.87,1.87,0,0,1,1.31-.73,12,12,0,0,1,4.83,1.87,1.23,1.23,0,0,1,.32,1.39,13.43,13.43,0,0,1-4.73,4.32,20.58,20.58,0,0,1,2.11-.13,1.47,1.47,0,0,1,1.08.48.63.63,0,0,1,.1.66,36.44,36.44,0,0,0-4.12,7,.88.88,0,0,0,0,.76.71.71,0,0,0,.83.25,31.67,31.67,0,0,0,10.2-6.28,1.16,1.16,0,0,0,.19-1.24c-.29-.76-.67-1.49-1-2.25,0-.16.29-.25.38-.16a8.09,8.09,0,0,1,1.47,2.41A1.91,1.91,0,0,1,115.66,254.91ZM97,244.06a5.34,5.34,0,0,0-1.69-1.36,29.6,29.6,0,0,0-3.14-1.34c-.22-.16-.38-.44-.22-.66s.48-.13.67-.07a16.58,16.58,0,0,1,3.23,1.49,2.76,2.76,0,0,1,1.47,1.69C97.31,244,97.18,244.19,97,244.06Zm-.29,13.67a4.6,4.6,0,0,0-1.53.51c-.23.48-.67,1.49-1,2.06-.1.38.09.67.61.6a2.59,2.59,0,0,0,.83-.5,5.43,5.43,0,0,0,1.53-2.19C97.34,257.8,97,257.73,96.7,257.73Z"/><path d="M45.45,73.47c-.74.32-1.63.73-2.18,1-.47,1.78-.83,3.56-1.34,5.3a14.47,14.47,0,0,1-2.62,5.43c-.06.06-.22-.07-.22-.19a32.42,32.42,0,0,0,2.2-5.87c.39-1.4.71-2.79,1-4.13a7.93,7.93,0,0,0-2.3,1.4,2.54,2.54,0,0,0-.89,1.71,15.88,15.88,0,0,0-.29,3.49.74.74,0,0,1-.35.35c-.64,0-1-.63-1.51-.89s-1.37-1-2.3-.73c-.25,1.72.13,3.62-.32,5.27a1.84,1.84,0,0,1-1.44,1.11,2.53,2.53,0,0,1-1.31-.44c-.25-.23-.48-.51-.38-.73.32,0,.51.25.77.41a1.37,1.37,0,0,0,1.34-.29c.45-.47.25-1.17.41-1.77a21,21,0,0,1,.52-6.22.16.16,0,0,0-.2-.22c-.79.41-1.34.92-2.07,1.3-.23,0-.42-.29-.32-.54.19-.45.86-.6,1-1A15.46,15.46,0,0,0,35.86,74c.06-.1-.07-.22-.19-.19a13.8,13.8,0,0,0-3.81,1.42c-.25.77-.25,1.53-.54,2.26s-.8,1.84-1.76,2.09c-.06-.44.38-.67.48-1a8.09,8.09,0,0,0,.83-2.63,2.61,2.61,0,0,0-1,.73c-.19,0-.1-.35-.06-.48a3.87,3.87,0,0,1,.64-.85,7.55,7.55,0,0,1,.64-.57,12.62,12.62,0,0,1,.6-3.18c-1.24.23-2.43,1-3.8,1.18-.48.06-.55-.32-.42-.57,1.35-.61,2.69-1.18,4-1.91a13.48,13.48,0,0,0,2.78-2.12.54.54,0,0,0,0-.57c-1-.86-2.46-1-3.8-1.14a.68.68,0,0,1-.39-.39c0-.22.19-.34.35-.44,1.67.06,3.65.38,4.67,1.9a1.56,1.56,0,0,1-.77,1.65c-.41.32-1.5.89-2.17,1.37A14.49,14.49,0,0,1,37.39,70c.13.07.32.13.39.29a.32.32,0,0,1-.26.41,19.48,19.48,0,0,0-4.73.48,9.93,9.93,0,0,0-.83,3.1A9.32,9.32,0,0,1,36.18,73a1,1,0,0,1,.61.51,1.4,1.4,0,0,1-.55,1.33c-.64.64-1.28,1.3-1.92,1.91.39.06.74,0,1,.28a20.64,20.64,0,0,0-.6,2.76c1.27-.35,2.3.45,3.29,1a11.75,11.75,0,0,1,.73-3.68,4.61,4.61,0,0,1,2.11-2.35c.39-.19,1.22-.63,1.63-.85.45-1.69.8-3.43,2.24-4.67.9-.22,1.6.35,2.3.83s1.67,1.23,1.28,2.09A13.46,13.46,0,0,1,45.45,73.47ZM29.56,85.21a1.31,1.31,0,0,1-1,.25c-.29-.06-.45-.38-.61-.6-.16-1.65.45-3,.23-4.54,0-.06.09-.22.22-.22.29,0,.39.32.48.51.39,1.27-.29,2.44-.16,3.74a.33.33,0,0,0,.45.13,21.66,21.66,0,0,1,2.84-2.6c.1-.07.23.12.16.25C31.26,83.15,30.58,84.29,29.56,85.21Zm20.72.7a12.27,12.27,0,0,1-4.61,1.58A1.57,1.57,0,0,1,44,86.7,6.24,6.24,0,0,1,43.72,84c-.06-1.34.16-2.76.16-4.1a7.87,7.87,0,0,0-.41-1c.16-.19.51-.1.7,0a1.54,1.54,0,0,1,.61,1.33,13.33,13.33,0,0,0-.19,2.54,13.29,13.29,0,0,0,.22,3.42.87.87,0,0,0,.86.42,14.64,14.64,0,0,0,7-3.27A1.23,1.23,0,0,0,53.15,82c-.13-.66-.6-1.39-.7-2.06-1-2.47-2-5-2.85-7.45,0-.16.2-.26.32-.19,1.15,2.82,2.27,5.58,3.55,8.31.29,1,1,2,.26,3A18.45,18.45,0,0,1,50.28,85.91Zm-4.61-15.8a1,1,0,0,0-.83.09,8.08,8.08,0,0,0-1.28,3.18c.67-.29,2-.92,2.75-1.24.32-.16,1-.1,1-.64A5.07,5.07,0,0,0,45.67,70.11ZM52.32,67a1,1,0,0,1-.77.13c-1.31-.48-2.59-1-3.83-1.59a1.09,1.09,0,0,0-.93.22c-.25.16-.29.45-.45.64a.92.92,0,0,1-.22-.89,1.28,1.28,0,0,1,1.69-.82,25.61,25.61,0,0,0,4.7,1.84C52.71,66.68,52.45,66.94,52.32,67Z"/><path d="M49.19,120.05c-.58.13-1.18-.31-1.73-.53-1.63-1-3.58-2.32-6.14-3.87,0,1.77-.06,5.26-.09,7.42a7.83,7.83,0,0,1-.22,2.09,1.78,1.78,0,0,1-.9,1.11c-.16,0-.32.1-.42,0a4.28,4.28,0,0,0,.64-2.6c0-2.22,0-6.47,0-8.57-.48-.41-1.28-.69-1.89-1.11a53.44,53.44,0,0,1-3.84,5.33,2.44,2.44,0,0,1-1.12.76c-.22,0-.51,0-.47-.31a43.35,43.35,0,0,0,4.73-6.16A4.16,4.16,0,0,0,36,113c-.12-.06-.12-.22-.12-.35.28-.31.8-.22,1.18-.19a3.86,3.86,0,0,1,1.21.42,12.4,12.4,0,0,1,2.4-2.89,8.11,8.11,0,0,1,1.15-3.9c-2.59,1.05-5.5,2-7.8,3.68-.09,0-.29.06-.32-.07-.19-.06-.13-.28-.09-.44.09-.44.64-.7,1-1A49.62,49.62,0,0,1,44,104.48a.73.73,0,0,1,.7.32c0,.09.07.25,0,.31a8.37,8.37,0,0,0-1.88,1.11,2.65,2.65,0,0,0-.93,1.46,38.64,38.64,0,0,0-.55,7c3,1.68,5.15,3.24,8.16,4.86C49.67,119.77,49.6,120,49.19,120.05ZM39,113.3c.35.19,1,.6,1.41.82,0-.76.09-2.12.13-2.82A10.72,10.72,0,0,0,39,113.3Z"/><path d="M50.37,144.94a37.93,37.93,0,0,1-9.17-5.05,2.78,2.78,0,0,0-1.79.07c-1.44.57-2.56,2.28-3.81,3.33A36.66,36.66,0,0,0,31,150.14c-.19.38-.19.89-.57,1.17-.29,0-.36-.28-.32-.47.25-2,1.69-3.53,2.68-5.24a22.25,22.25,0,0,1,5.72-6.09.59.59,0,0,1,.52.1,2,2,0,0,1,2.11-.57A23.83,23.83,0,0,1,44.23,141a39.27,39.27,0,0,0,6.94,3.36c.19.1.29.38.06.51A1.84,1.84,0,0,1,50.37,144.94Zm-7.48.19a24.51,24.51,0,0,0-6.52,3,1.71,1.71,0,0,0-.48,1,9.46,9.46,0,0,0,.74,5.33c0,.13.09.42-.1.42a1.45,1.45,0,0,1-1-.8,9,9,0,0,1-.29-5.64,2.34,2.34,0,0,1,1.22-1.18,38.28,38.28,0,0,1,5.27-2.44c.1,0,0-.16-.06-.16a13.13,13.13,0,0,0-5.47.41c-.25.13-.32-.28-.13-.57A1.87,1.87,0,0,1,37,144a19.23,19.23,0,0,1,4.86-.09,2.19,2.19,0,0,1,1.24.57C43.27,144.65,43.15,145.09,42.89,145.13Zm.58,15.35c-.2,1.81-.13,3.74-1.28,5.14a2.37,2.37,0,0,1-2.3.79,4.26,4.26,0,0,1-2.37-2.5,1.33,1.33,0,0,1,.58-1c.32-.28.7-.5,1-.76.06-2.19-.13-4.54.8-6.34A4.61,4.61,0,0,1,41.68,154a16.92,16.92,0,0,0-2.78.79.49.49,0,0,1-.29-.64,3.38,3.38,0,0,1,.83-.41c.38-.16.73-.35.8-.86s.19-.92.22-1.42a5.38,5.38,0,0,1-2,.63,2,2,0,0,1-1.31-.35c-.16-.12-.35-.38-.13-.54.7-.22,1.37.29,2.14,0a10.83,10.83,0,0,0,1.38-.51,5.55,5.55,0,0,0-.07-2.19,12.54,12.54,0,0,0-1.72.54,2.5,2.5,0,0,0-1.19.92.27.27,0,0,1-.38-.22,1.83,1.83,0,0,1,1-1.27,15,15,0,0,1,7.13-1.3,2.07,2.07,0,0,1,1.86,1.2,2.09,2.09,0,0,1-.07,1.52c-.54,1.31-2.49,3.34-3.9,3.62-.22.41-.73.35-1.05.67a4,4,0,0,0-1.5,1.65c-.84,1.61-.64,3.74-.74,5.71.86-.45,1.73-1.05,2.62-1.53a6.72,6.72,0,0,0-.48-2.85c-.19-.25-.51,0-.67-.29a.74.74,0,0,1,.42-.69.65.65,0,0,1,.8.34c.76.83.57,2.07.76,3.11a23.18,23.18,0,0,1,3.77-1.27c.45,0,.64.35.48.61A14.73,14.73,0,0,0,43.47,160.48Zm-3.39,2V164c-.07.22-.35.22-.58,0a1.7,1.7,0,0,1-.32-.79c-.16.16-.44.32-.64.51a.63.63,0,0,0-.16.54,3.05,3.05,0,0,0,1.6,1.36,1.87,1.87,0,0,0,1.79-.79,8.09,8.09,0,0,0,.77-3.87A19.88,19.88,0,0,0,40.08,162.51Zm3.19-12.37c-.63.28-1.31.54-2,.85a11.33,11.33,0,0,1-.44,1.91,24.38,24.38,0,0,0,2.55-2.54C43.53,150.27,43.37,150.11,43.27,150.14ZM45.35,148a12.85,12.85,0,0,0-4.18.35,3,3,0,0,1,.25,1.9c.9-.35,1.66-1,2.69-.89a.63.63,0,0,1,.41.64,4.22,4.22,0,0,1-1.09,1.55c-.57.57-1.27,1.08-1.85,1.59.45-.06,1-.32,1.44-.13a7.57,7.57,0,0,0,3.2-3.14,1.15,1.15,0,0,0,.09-1.2A1.46,1.46,0,0,0,45.35,148Z"/><path d="M46.22,218.66c-.9.54-1.89,1-2.85,1.55a10.56,10.56,0,0,1,3.58.16.63.63,0,0,1,.26.63,14.41,14.41,0,0,1-2.91,1.46,8.92,8.92,0,0,0-3,2.51,5.61,5.61,0,0,0-1.12,3.08,27.52,27.52,0,0,0-.12,4.53.27.27,0,0,1-.45.19,1.67,1.67,0,0,1-.38-1.27,13.13,13.13,0,0,1,.57-5.29A6.28,6.28,0,0,1,42,223.29,19.87,19.87,0,0,1,45.9,221a12.17,12.17,0,0,0-3.87.19.6.6,0,0,1-.45-.38c0-.6.74-.54,1.15-.79,1-.67,2.18-1.11,3.13-1.9.16-.13.13-.29-.09-.35a16.12,16.12,0,0,0-4.13-.26c-.79,0-1.37.8-1.82,1.37-.83,1.11-2.55,3.36-3.45,4.6-.38,3.64-.54,7.42-2.08,10.59a12.66,12.66,0,0,1-1.21,1.56,2,2,0,0,1-1.76.63,2.27,2.27,0,0,1-1.18-.86,8.38,8.38,0,0,1-1-2.5c0-.13.28-.16.35-.1.51.73.64,1.62,1.37,2.29a1.17,1.17,0,0,0,1,.35,3.57,3.57,0,0,0,1.6-1.46,8.54,8.54,0,0,0,1-2.73,44.44,44.44,0,0,0,.93-6.5,26,26,0,0,0-2.94,3.74c-.16.16-.35.09-.51,0a.66.66,0,0,1-.26-.7,7.91,7.91,0,0,0,1.38-4.09c-.26-.35-.71-.09-1-.09a10.24,10.24,0,0,0-3,1.84c-.13,0-.26-.2-.26-.35a1.8,1.8,0,0,1,.77-1.11,9.91,9.91,0,0,1,2.24-1.15,1.92,1.92,0,0,1,1.5.07,1.44,1.44,0,0,1,.45.7,12.85,12.85,0,0,1-.48,2.5c.64-.7,1.66-1.9,2.3-2.7a14.63,14.63,0,0,1,2.27-6.63c-1.54.54-3,1.37-4.54,2a.93.93,0,0,1-.54-.29c0-.44.51-.54.8-.76,1.66-.73,3.32-1.49,5-2.13a49.65,49.65,0,0,0,4.09-2.82.53.53,0,0,0-.19-.86,13.52,13.52,0,0,0-5-.89c-.16-.12-.35-.22-.42-.38a.45.45,0,0,1,.35-.38,8.38,8.38,0,0,1,2.69.1,11.43,11.43,0,0,1,2.88.89,1.83,1.83,0,0,1,.92.92c0,.47-.38.79-.7,1-.86.64-1.79,1.21-2.69,1.78a9.91,9.91,0,0,0,1.79-.54,3.06,3.06,0,0,1,1.67-.1.4.4,0,0,1-.23.57,33.84,33.84,0,0,0-4.7,1.37,12.39,12.39,0,0,0-2.43,5.77c1.44-1.55,2.53-3.49,4.1-5a4.67,4.67,0,0,1,1.91-.41,16.76,16.76,0,0,1,3.3.31,2.31,2.31,0,0,1,1.34.61C47.18,218.12,46.7,218.4,46.22,218.66Zm3.51,16.14a10,10,0,0,1-3.61,1.08,9.59,9.59,0,0,1-.35,1.24c-.1.25-.45.19-.45,0s0-.86,0-1.21a4.41,4.41,0,0,1-2.39-.85,6.72,6.72,0,0,1-1.51-1.59c-.09-.16.13-.47.39-.19a4.9,4.9,0,0,0,1.63,1.33,4.63,4.63,0,0,0,1.91.51v-3.87c-.67.22-1.5.73-2,.89-.32.13-1,.28-1.15-.06.06-.58.77-.39,1.09-.67l2.07-1.08c0-.86.1-1.78.16-2.63a19.34,19.34,0,0,0-3.83,2,.2.2,0,0,1-.23-.26,2.57,2.57,0,0,1,1.06-1.17,23.39,23.39,0,0,1,3.1-1.52c.13-.67.13-1.46.7-1.91a.45.45,0,0,1,.45.19,4.13,4.13,0,0,0-.29,1.34c.42-.07.93-.29,1.44-.42a2.36,2.36,0,0,1,1.5.16c.1.07.07.32,0,.35a10.48,10.48,0,0,0-3,.8,21.08,21.08,0,0,0-.16,2.53,29.28,29.28,0,0,0,4-2.66c.13,0,.26.22.13.44-.86,1.4-2.81,2.29-4.12,3.14,0,1,0,2.92-.07,4.35a9.46,9.46,0,0,0,5-2.29,2.22,2.22,0,0,0,.51-1.71,21.07,21.07,0,0,1-.13-2.47c0-1.91.1-3.75,0-5.52a1.07,1.07,0,0,0-1-.48,13.15,13.15,0,0,0-5.85,1.91c-.29.12-.32.47-.61.53-.25-.47.19-.85.45-1.23a8.92,8.92,0,0,1,2.62-1.34,11,11,0,0,1,4-.57,1.61,1.61,0,0,1,1.12.73,5.27,5.27,0,0,1,.13,2.35,59.83,59.83,0,0,0,.12,6.82C52.32,233.22,50.85,234.23,49.73,234.8Z"/><path d="M49.19,273.09a1.5,1.5,0,0,0-.16-.92.82.82,0,0,0-.93-.32,9.1,9.1,0,0,0-1.63.7,10.19,10.19,0,0,1-.77,4.22,3.27,3.27,0,0,1-1.88,1.58,3,3,0,0,1-2.75-.16,8.33,8.33,0,0,1-.22.86c-.1.28-.48.22-.58-.13a29.28,29.28,0,0,1,.13-9.83c-1.63,1.52-3.3,3.17-5,4.63a20.61,20.61,0,0,1-3.93,2.66.27.27,0,0,1-.42-.22,49.6,49.6,0,0,0,6.36-5.36c2.4-2.28,4.77-4.66,7.29-6.76a81.6,81.6,0,0,0-10.45,5.24c-.26,0-.61-.13-.58-.45s.64-.63,1.06-.85c.89-.51,2.68-1.46,3.58-1.91A11.35,11.35,0,0,0,40,262.49c-1.69.57-3.39,1.4-5.08,2.13a.3.3,0,0,1-.35-.26,1,1,0,0,1,.64-.89l5.08-2.06c.35-.63.38-1.68.83-2.31a1,1,0,0,1,.83-.51,5,5,0,0,1,.67,0,18.14,18.14,0,0,0,1-3.59h-.16a12.2,12.2,0,0,1-3.39,3.84,1.59,1.59,0,0,1-1.31.13,1.85,1.85,0,0,1-.71-1.21c-.12-.5-.12-1.08-.25-1.61a37.81,37.81,0,0,0-3.68,1.23c-.22-.06-.48-.06-.57-.31s.12-.45.28-.48a28.42,28.42,0,0,1,4-1.33c.1-.48.07-1.15.13-1.65a1.61,1.61,0,0,1,.86-1.34.89.89,0,0,1,.93.42c.1.44-.61.25-.77.7a5.92,5.92,0,0,0-.22,1.55c1.44-.25,2.88-.57,4.41-.76a2.91,2.91,0,0,0,.45-1.18,1.49,1.49,0,0,1,.7-1,.63.63,0,0,1,.48.16,7.08,7.08,0,0,1-.22,1.84c.51,0,1.34-.19,1.63-.22a3.38,3.38,0,0,1,1.37.09c.42.16.13.61,0,.67-1,.06-2.3.22-3.1.28a21.77,21.77,0,0,1-1.34,3.84,13.46,13.46,0,0,1,1.44.7.83.83,0,0,1,.35.73,1,1,0,0,1-.64.73c-1.09.35-2.14.73-3.2,1.14-.35.67-.45,1.37-.73,2a15.18,15.18,0,0,1-.68,1.4c2.47-1.05,4.9-2.32,7.45-3.18.45-.09.64.23.58.58a58.5,58.5,0,0,0-6.36,5.45,21.53,21.53,0,0,0-.32,2.51,4.79,4.79,0,0,1,2.36-1.14,3.81,3.81,0,0,1,2.37.25,2.11,2.11,0,0,1,.67,1.68c.54-.09,1.18-.44,1.82-.51a1.55,1.55,0,0,1,1.25.32.9.9,0,0,1,.22.89A1.4,1.4,0,0,1,49.19,273.09ZM38.8,255.89a4.07,4.07,0,0,0,.41,2.16,1,1,0,0,0,.58,0,9.67,9.67,0,0,0,2.85-2.92A38.91,38.91,0,0,0,38.8,255.89Zm6.58,15a1.09,1.09,0,0,0-.92-.54,4.94,4.94,0,0,0-2.56.73,2.58,2.58,0,0,0-1,1c-.09,1.24-.06,2.7,0,4a12,12,0,0,1,4.63-4.1A3.64,3.64,0,0,0,45.38,270.93Zm-1.5-11.2a3.78,3.78,0,0,0-1.44-.44c-.8.12-.83,1-1.08,1.68l2.52-.92C44,260,44,259.79,43.88,259.73Zm-2.17,16.65a1,1,0,0,0-.13,1.18,2.31,2.31,0,0,0,2.05-.1,2.5,2.5,0,0,0,1.5-1.52,9.92,9.92,0,0,0,.41-2.95A11.32,11.32,0,0,0,41.71,276.38Z"/><path d="M52.07,358.66a23.49,23.49,0,0,0-2.69-1.37,4.9,4.9,0,0,0-1.82-.28,9.81,9.81,0,0,0-3.87,1.3c1,.09,2.17.32,2.62,1.36a2.69,2.69,0,0,1-.83,2.26,13.53,13.53,0,0,1-5.4,2.79,3.42,3.42,0,0,1-2.72-.38,3.07,3.07,0,0,1-1.28-2c-.19-1-.13-2.09-.22-3.14-1.06.95-3.13,2.85-4.19,3.81-.35.15-.67.44-1.09.31s-.09-.41.07-.57c2.43-2.19,4.54-4.19,6.81-6.09,1.88-1.58,4-3.08,6.17-4.63a10.23,10.23,0,0,0-2.66.38,2.88,2.88,0,0,0-.06.73.37.37,0,0,1-.32.35c-.29,0-.38-.29-.45-.51-.13-3.27,0-7.29.16-9.86a71.22,71.22,0,0,1-5.4,6.34c-.06,1,0,2.13-.06,3.2a4.72,4.72,0,0,1-.9,2.7c-.13,0-.29,0-.26-.19a16.44,16.44,0,0,0,.32-4.79,21.82,21.82,0,0,1-3.58,2.95.9.9,0,0,1-.7,0c-.41-.25-.32-.76-.26-1.14A17.39,17.39,0,0,1,34,345.18v-1.75a8.81,8.81,0,0,0-1.82.6,5,5,0,0,1-2.17.42c-.23-.13-.55-.16-.67-.45a.41.41,0,0,1,.35-.38c.25,0,.61.1.86,0,1.18-.32,2.3-.73,3.45-1.08a16,16,0,0,1,.45-2.85.3.3,0,0,1,.48-.16,1.06,1.06,0,0,1,.19.92c-.06.6-.09,1.17-.16,1.77,1-.19,2-.5,3.1-.6a.52.52,0,0,1,.45.32c0,.28-.35.28-.51.44a21.74,21.74,0,0,0-3.07.73c0,1.24,0,4.54,0,5.46,1.85-1.94,3.61-4,5.21-6.06.26-.57.19-1.33.67-1.78a.42.42,0,0,1,.51.26c0,1-.19,2-.22,3.07a5.56,5.56,0,0,1,2.08-.47A1,1,0,0,1,44,344a.79.79,0,0,1,0,.67,22.9,22.9,0,0,0-2.88,3.23c.71-.09,1.38-.38,2.08-.54a3.29,3.29,0,0,1,1.34-.06c0-1.4.07-3.81.1-5.62a2.25,2.25,0,0,0-1.09-1.9c-.09-.19.19-.35.55-.35a1.28,1.28,0,0,1,1,.73,4.54,4.54,0,0,1,.35,2.29c-.16,3.3,0,6.94-.13,10.34a.39.39,0,0,1-.73.06c0-.22-.06-.44-.1-.7a98.19,98.19,0,0,0-8,6.47c.38,1.12.19,2.57.54,3.72A2.16,2.16,0,0,0,38.67,364a7.1,7.1,0,0,0,2-.29,13.57,13.57,0,0,0,4.09-2.25,1.85,1.85,0,0,0,.67-1.49,1.33,1.33,0,0,0-.86-.8c-.55-.19-1.19-.15-1.7-.34a7.48,7.48,0,0,1-1.88.57,3.58,3.58,0,0,1-1.92-.29.54.54,0,0,1-.13-.54c.54-.28,1.21.1,1.82-.06a9.41,9.41,0,0,0,3.93-1.4,6.79,6.79,0,0,1,2.14-.73,5.57,5.57,0,0,1,2.37,0,7.24,7.24,0,0,1,2.05.8c.41.28,1,.63,1,1.17A.35.35,0,0,1,52.07,358.66ZM32.18,348.54a12.27,12.27,0,0,0-1.63,3.74A26.79,26.79,0,0,0,34,349.43a30.92,30.92,0,0,0,0-3.18A14.52,14.52,0,0,0,32.18,348.54Zm8.76.22c0,.48,0,1.87,0,2.48.45-.7,2.24-2.32,2.81-3.05A21.87,21.87,0,0,0,40.94,348.76Zm2.14-4.31a6.07,6.07,0,0,0-2,.44l-.1,2.35c.67-.92,1.47-1.71,2.21-2.6C43.24,344.54,43.15,344.41,43.08,344.45Zm1.44,3.93c-1.05,1.05-2,2-3,3.11a18.66,18.66,0,0,1,1.85-.35,3.89,3.89,0,0,1,1.18,0C44.55,350.28,44.55,349.11,44.52,348.38Z"/><path d="M36.31,394.51A11.12,11.12,0,0,1,33.69,400a1.19,1.19,0,0,1-1,.32,1.13,1.13,0,0,1-.44-1.05c0-1.93.09-3.9.28-5.8a2,2,0,0,0-.57.44,3.33,3.33,0,0,1-2.08.89,1,1,0,0,1-.67-.8,1.47,1.47,0,0,1,.06-1,18,18,0,0,1,5.53-6.19.45.45,0,0,1,.45.26c-.13.92-1.15,1.07-1.66,1.77A20.09,20.09,0,0,0,30,393.62a.42.42,0,0,0,.19.41,2.52,2.52,0,0,0,1.54-.66A16.23,16.23,0,0,1,33,392.23c.26,0,.35.16.48.31a51.15,51.15,0,0,0-.32,6.54c.1.06.23.13.32.06,1.6-1.62,2.17-3.68,3-5.58A3.22,3.22,0,0,1,36.31,394.51Zm2.84,6.82c-.16,0-.32,0-.38-.16.25-1,1.12-1.77,1.6-2.66,1.27-2.13,2.17-4.32,3.38-6.44.2,0,.1.32.1.44C43,395.72,41.84,398.86,39.15,401.33Zm12.12-2.7c-.42-.31-.45-.92-.8-1.33a12.25,12.25,0,0,0-4.13-3.07c0,3.26.23,6.75,0,9.92a2.08,2.08,0,0,1-1.18,1.75,3.22,3.22,0,0,1-2.85-.32,2.61,2.61,0,0,1-1-1.24.13.13,0,0,1,.23-.09,3,3,0,0,0,1.59,1,2.13,2.13,0,0,0,1.76-.25,2.16,2.16,0,0,0,.67-1.84c0-1.2,0-3.49,0-4.54,0-3.07-.1-9.48-.13-12.24a7.3,7.3,0,0,0,4.06-2.06,1.19,1.19,0,0,0,.19-.95,1.15,1.15,0,0,0-1.08-.77A7.4,7.4,0,0,0,44,384.17a14.09,14.09,0,0,0-3.77,4.31.42.42,0,0,1-.51,0,1.75,1.75,0,0,1-.54-1.46,11.87,11.87,0,0,1,.89-5.58c.06-.16.22-.19.38-.25a.35.35,0,0,1,.39.34c-.48,1.84-1.19,3.78-.71,5.81a14.13,14.13,0,0,1,3.42-3.81,8.23,8.23,0,0,1,4.86-1.74,2,2,0,0,1,1.73.82,1.88,1.88,0,0,1,.06,1.84,5.64,5.64,0,0,1-4,2.38c0,1.68.06,5.05.09,6.7a10.83,10.83,0,0,1,5.18,3.77c.1.38.42.83.13,1.24C51.55,398.63,51.39,398.73,51.27,398.63Z"/><rect class="cls-2" x="20.32" y="201.67" width="41.85" height="41.53"/><rect class="cls-2" x="20.32" y="243.2" width="41.85" height="41.53"/><rect class="cls-2" x="20.32" y="330.7" width="41.85" height="41.53"/><rect class="cls-2" x="20.32" y="372.23" width="41.85" height="41.53"/><rect x="161.38" y="102.29" width="44.83" height="145.35"/><path class="cls-3" d="M183.26,132.81c-1.26,2.35-4.93,4.05-8.43,4.67l-.85-1.69c3-.43,5.53-1.18,7.21-3H176l1.06-5h6.34v-1.7h-7.22v-1.57h15.6v4.82l-6.61,0,0,1.81,7.55,0a11.64,11.64,0,0,1-.92,4.47,2,2,0,0,1-2.08,1,11.16,11.16,0,0,1-2.58-.44l-.2-1.74a8.57,8.57,0,0,0,2.91.65c.32,0,.52-.43.63-.76a8,8,0,0,0,.43-1.62l-5.72,0v5.54h-1.77v-5.56ZM174,124a11.72,11.72,0,0,0,3.75-5.61l1.59.43a6.71,6.71,0,0,1-.61,1.58h5.58l0,1.58h-3.07a9.55,9.55,0,0,1,1.19,1.67l-1.5.84a8.91,8.91,0,0,0-1.66-2.51h-1.33a14.08,14.08,0,0,1-2.44,2.87Zm9.33,5.38h-4.89l-.4,1.81h5.29Zm6.12-5.07A7,7,0,0,0,188,122h-1.37a16.6,16.6,0,0,1-2,2.51l-1.51-.89a10.68,10.68,0,0,0,3.19-5.14l1.59.56a11.46,11.46,0,0,1-.4,1.38l6,0V122H190a7.38,7.38,0,0,1,1.14,1.65Zm-4.33,1.8v1.67l4.91,0v-1.7Z"/><path class="cls-3" d="M175.3,156.15h17.37V158l-17.37,0Z"/><path class="cls-3" d="M180.32,183.55a9.28,9.28,0,0,1,2.62,2.81l-1.32,1a6.37,6.37,0,0,0-1.75-2.11v10.92h-1.75v-9.3a12.89,12.89,0,0,1-3.13,4.32l-1.48-1.11a14,14,0,0,0,4.5-7.86l-3.36,0v-1.6h3.52l0-4.38h1.72v4.36l2.87,0,0,1.6h-2.85V184Zm5.6,2.19A21.23,21.23,0,0,1,182.2,190l-1.45-1.15a17.32,17.32,0,0,0,4.43-5.23,17.63,17.63,0,0,0,1.6-4.45h-5.61v-1.65h12.38v1.65l-5.05,0a19.4,19.4,0,0,1-1.28,4.11h.45v13h-1.75Zm3.41-2.45a14.16,14.16,0,0,1,4.75,5.69l-1.45,1.12a13.5,13.5,0,0,0-4.62-5.72Z"/><path class="cls-3" d="M177.43,215a7.78,7.78,0,0,0-3.79-3.12l1.12-1.15a5.89,5.89,0,0,1,2.33,1.36,13.06,13.06,0,0,1,1.64,1.77Zm-3.77,8.9a15.6,15.6,0,0,0,3.59-7.9l1.48.62a16.69,16.69,0,0,1-3.61,8.12Zm4.58-13.77a7.59,7.59,0,0,0-3.64-2.72l1.13-1.2a8.64,8.64,0,0,1,3.74,2.76Zm12.23,15,0-1.44h-8.86l0,1.47h-1.68v-15h3.63v-2.31h-4.91v-1.62h15.07l0,1.62h-5.06l0,2.31h3.57v15Zm-8.85-7.63v1.32l8.88,0,0-1.87-1.47,0a2.13,2.13,0,0,1-2.07-2l0-3.09h-1.64a9.22,9.22,0,0,1-2.28,6.69ZM190.5,222V220.4h-8.88l0,1.64Zm-8.86-4.78a7.25,7.25,0,0,0,1.93-5.47h-1.93Zm5.29-7.1v-2.31h-1.66v2.31Zm3.54,5,0-3.4h-1.89v2.93c0,.29.21.45.52.45Z"/></g></g></svg>