<?xml version="1.0" encoding="utf-8"?>
<!-- Generator: Adobe Illustrator 22.0.1, SVG Export Plug-In . SVG Version: 6.00 Build 0)  -->
<svg version="1.1" id="_x30_00" xmlns="http://www.w3.org/2000/svg" xmlns:xlink="http://www.w3.org/1999/xlink" x="0px" y="0px"
	 viewBox="0 0 215 425" style="enable-background:new 0 0 215 425;" xml:space="preserve">
<style type="text/css">
	.st0{fill:none;stroke:#666666;stroke-width:0.37;stroke-miterlimit:10;}
	.st1{fill:#FFFFFF;}
</style>
<title>資產 2</title>
<g id="圖層_2_1_">
	<g id="圖層_1-2">
		<path d="M109.9,52.7c-0.2,0-0.4,0-0.6-0.1c-0.2-0.1-0.2-0.4,0-0.5c0,0,0,0,0,0c1.2-0.9,1.9-2.2,2.2-3.6c0-0.3,0.1-0.7-0.2-0.9
			c-0.6-0.5-1.4-0.6-2.1-0.3c-0.5,0.2-1,0.6-1.3,1.1c-0.5,1-0.7,2.1-0.6,3.2c-0.2,0.3-0.6,0.2-0.7-0.1c-0.7-1.8-1.2-3.6-1.5-5.5
			c-0.8,0.2-1.6,0.4-2.4,0.8c-0.4,2-1.1,3.8-2.2,5.5c0.5,0.3,1.1,0.4,1.7,0.4c0.4,0,0.8-0.1,1.1-0.4c0.6-0.5,1.1-1.1,1.4-1.8
			c0.1-0.1,0.3,0,0.3,0.2c-0.1,0.4-0.3,0.8-0.5,1.2c-0.6,1-1.7,1.6-2.9,1.5c-0.6,0-1.2-0.2-1.7-0.5c-1.2,0.9-2.9,1-4.2,0.3
			c-1.2-0.5-2.2-1.5-2.8-2.7c0.1-0.4,0.3-0.7,0.7-0.9c1.3-0.6,2.4-0.9,3.7-1.5c-0.2-2.1-0.2-4.2,0.1-6.2c0.1-0.2,0.1-0.4,0.3-0.6
			c0.2,0,0.4,0.1,0.5,0.3c-0.2,2.1-0.3,4.2-0.1,6.3c1.2-0.4,2.3-0.8,4-1.4c0.1-0.7,0.4-1.3,0.9-1.9c0.3-0.4,0.7-0.6,1.2-0.7
			c0.2,0,0.2,0.1,0.1,0.3s-0.6,0.4-0.8,0.7c-0.3,0.4-0.5,0.8-0.6,1.2c0.6-0.3,0.9-0.3,1.7-0.6c0.6-0.3,0.5-0.3,1-0.3
			c0.5,0.5,0.3,1.3,0.5,1.9c0.2,0.9,0.4,1.7,0.7,2.6c0.1-0.7,0.4-1.4,0.8-2c0.4-0.6,1-1,1.7-1.2c1-0.4,2.1-0.1,2.7,0.7
			c0.3,0.5,0.4,1.1,0.1,1.6c-0.1,0.5-0.3,1.1-0.6,1.6c0.7-0.6,1.5-1.1,2.4-1.6c0.1,0,0.3,0,0.3,0.1
			C112.5,50.2,111.6,51.1,109.9,52.7z M97.5,48.6c-0.3,0.1-1.9,0.7-2.6,1c-0.5,0.2-1.1,0.4-0.9,1c0.5,0.8,1.3,1.4,2.1,1.7
			c1.1,0.4,2.3,0.6,3.2-0.1C98.3,51.3,97.7,50,97.5,48.6z M98.3,48.3c0.1,0.4,0.2,1.1,0.3,1.5c0.3,0.7,0.8,1.3,1.4,1.8
			c1-1.4,1.6-3,1.9-4.7C100.7,47.4,99.5,47.8,98.3,48.3L98.3,48.3z"/>
		<path d="M111.3,88c-0.6,0.3-1.4,0.2-1.9-0.2c-1.7-1.2-3.4-2.5-5-3.9c-0.2-0.1-0.3-0.2-0.5-0.3c-0.1,1.1-0.1,2.2-0.1,3.3
			c0,1.3-0.3,2.7-0.9,3.9c-0.3,0.6-1,1-1.6,1c-0.5-0.1-1.1-0.2-1.2-0.7c-0.2-0.6-0.3-1.3-0.2-1.9c0-0.2,0.3-0.3,0.4,0
			c0,0.5,0.1,0.9,0.2,1.4c0.1,0.3,0.3,0.5,0.6,0.6c0.3,0,0.7,0.1,0.9-0.2c0.6-0.7,0.9-1.7,1-2.6c0.1-1.6,0.1-3.5,0.2-5.1
			c-0.8,1.3-1.8,2.5-2.9,3.6c-0.8,0.7-1.7,1.3-2.7,1.7c-0.1,0-0.4,0.1-0.6,0.1c-0.2,0-0.3-0.1-0.3-0.2c0,0,0,0,0-0.1
			c1.1-0.5,2.2-1.1,3.1-2c1.3-1.3,2.5-2.9,3.3-4.5c0-0.2,0-0.3,0-0.5c-1.6,0.6-3.3,1.4-5,1.9c-0.2,0-0.4,0-0.6-0.1
			c-0.1-0.2-0.3-0.3-0.1-0.5c1.9-1.7,3.5-3.1,5.3-4.6c0.1-0.1,0.3-0.3,0.2-0.5c-0.6,0.2-1.1,0.3-1.7,0.4c-0.2-0.1-0.3-0.3,0-0.4
			c0.6-0.2,1.2-0.5,1.7-0.9c-0.9,0.1-1.9,0-2.8-0.3c0,0.2,0.1,0.5,0.1,0.7c0,0.2-0.1,0.3-0.3,0.4c-0.2,0-0.3-0.1-0.4-0.3
			c-0.7-2-1.1-4.1-1.3-6.2c0.1-0.5-0.1-1.1,0.3-1.5c0.3-0.1,0.4,0.1,0.5,0.3c-0.1,0.7-0.1,1.3,0,2c0.7-0.8,1.7-1.4,2.8-1.6
			c1.3-0.2,2.6-0.2,3.9,0.2c0.8,0.2,1.5,0.6,2.1,1.2c0.5,0.4,0.7,1.1,0.5,1.7c-0.4,0.8-1,1.5-1.7,2c-0.9,0.7-2,1.1-3.1,1.3
			c0,0.1,0,0.4-0.1,0.5c0.3,0,0.5,0,0.8,0c0.2,0,0.4,0.1,0.5,0.3c-0.1,0.2-0.2,0.4-0.5,0.5l-0.7,0.4c0,0.7,0,1.3,0.1,2
			c1.3-0.7,2.6-1.4,3.8-2.3c0.3-0.2,0.3-0.6,0.1-0.9c-0.1-0.2,0.1-0.4,0.2-0.3c0.2,0.2,0.4,0.4,0.6,0.7c0.1,0.4-0.1,0.8-0.4,1
			c-1.4,1-2.8,1.8-4.3,2.6v2c0.3,0.1,0.7,0.2,1,0.4c1.6,1.4,3.2,2.6,5,3.8c0.5,0.5,1.4,0.2,1.9,0c0.2,0.1,0.2,0.3,0.1,0.4
			C111.7,87.8,111.5,87.9,111.3,88z M103.2,78.8c-1.4,1.1-2.9,2.2-4.2,3.5c1.4-0.5,2.8-1.1,4.2-1.7
			C103.2,80.1,103.2,79.2,103.2,78.8z M100.6,71.6c-0.3,0.3-0.6,0.6-0.8,1c-0.2,0.3-0.2,0.6-0.2,0.9c0.1,0.4,0.2,0.8,0.2,1.1
			c1-0.6,2.2-0.9,3.3-1c0-0.7,0-2.1,0-2.7C102.3,70.9,101.4,71.1,100.6,71.6L100.6,71.6z M103.1,74.3c-0.6,0.1-1.2,0.2-1.8,0.4
			c-0.4,0.2-0.8,0.3-1,0.6c-0.1,0.1,0,0.3,0.1,0.4c0.9,0.4,1.9,0.5,2.8,0.3C103.2,75.4,103.2,74.8,103.1,74.3L103.1,74.3z M105,74.3
			c-0.4,0-0.7-0.1-1.1-0.1c0,0.5,0,1.1,0,1.6c0.3-0.1,0.9-0.3,1.1-0.3c0.2-0.1,0.5-0.4,0.6-0.6C105.6,74.7,105.3,74.4,105,74.3
			L105,74.3z M107.3,71.7c-1-0.6-2.1-0.9-3.3-0.9c0,0.9-0.1,1.8,0,2.7c0.4,0,0.8,0,1.1,0.1c0.4,0.1,0.8,0.3,1.1,0.6
			c0.1,0.2,0.1,0.5,0.1,0.7c0.6-0.5,1.7-1.1,1.7-2C107.9,72.4,107.7,72,107.3,71.7L107.3,71.7z"/>
		<path d="M112.8,120.2c-0.4,0.8-1.1,1.6-1.9,2.1c-0.9,0.6-1.8,0.9-2.8,1.1c-1,0.2-2-0.2-2.6-1c-0.3-0.8-0.4-1.7-0.3-2.6
			c0.1-1.2,0.5-2.4,1.2-3.4c0.7-1.2,1.3-2.4,1.9-3.6c-0.6,0.2-1.3,0.4-1.9,0.4c-0.4,0-0.8-0.1-1.2-0.3c-0.3-0.3-0.5-0.7-0.5-1.2
			c0-0.4,0-1.5,0-2c-1.6,2-3,4.1-4.3,6.3c0,2.4-0.2,4.8-0.6,7.2c-0.1,0.3-0.3,0.6-0.6,0.8c-0.4,0.1-0.9,0-1.2-0.3
			c-0.6-0.5-1.2-1.1-1.7-1.7c-0.1,0.2-0.1,0.4-0.2,0.6c-0.3-0.1-0.5-0.4-0.5-0.7c-0.1-0.3-0.1-0.7-0.1-1c-0.3-0.3-0.6-0.7-0.7-1.2
			c0-0.1,0.1-0.2,0.2-0.1c0,0,0,0,0,0c0.1,0.1,0.3,0.3,0.4,0.4c0-0.9,0-2.6,0-3.8c-0.2,0-0.4,0.3-0.5,0.1c-0.1-0.4,0.3-0.6,0.6-0.9
			c-0.1-1.2,0.1-2.5,0.6-3.6c0.4-0.9,1.2-1.7,2.2-2.1c1-0.6,1.8-1.4,2.4-2.4c0.1-0.4,0.3-0.8-0.1-1.1c-1.6,1.2-3.5,2-5.4,2.6
			c-0.5,0.1-0.9-0.1-1.2-0.5c0-1.1,0.9-1.8,1.5-2.6c0.6-0.8,1.5-1.3,1.7-2.3c0.1-0.1,0.3,0,0.4,0.1c0,0,0,0.1,0,0.1
			c0.1,0.5-0.1,0.9-0.4,1.2c-0.9,0.9-1.7,1.9-2.4,3c0,0.1,0.1,0.3,0.2,0.3c0,0,0,0,0,0c1.9-0.6,3.7-1.5,5.3-2.6
			c0.2-0.1,0.5-0.1,0.8,0c0.4,0.4,0.5,1,0.4,1.5c-0.2,0.7-0.6,1.4-1.2,1.9c-0.7,0.6-1.6,1.1-2.4,1.7c-0.6,0.4-1,1-1.3,1.7
			c-0.3,0.9-0.4,1.9-0.4,2.8c0.5-0.1,1-0.1,1.5,0c0.5,0.1,0.9,0.3,1.2,0.7c0.1,0.2,0.2,0.4,0.2,0.7c0.1-0.2,0.3-0.4,0.4-0.6
			c0-1.4,0-2.8-0.2-4.1c-0.2-0.4-0.5,0-0.7,0c-0.2,0-0.3,0-0.2-0.1c0.2-0.3,0.4-0.6,0.7-0.8c0.3-0.2,0.6-0.1,0.8,0.2
			c0.3,0.4,0.4,0.9,0.4,1.4c0,0.7,0,1.4,0.1,2.1c0.7-1.2,2.3-3.4,3-4.5c0.4-0.6,0.9-1.2,1.4-1.7c0.4-0.1,0.5,0.4,0.7,0.7
			c-0.1,1,0,2,0.2,3c0.5,0.4,1.3,0.2,1.9,0.1c0.4-0.1,0.8-0.2,1.2-0.5c0.3-0.7,0.5-1.4,0.4-2.1c-0.1-0.3-0.4-0.3-0.6-0.4
			c-0.7,0-1.4,0.1-2,0.3c-0.3-0.1-0.3-0.1-0.4-0.4c-0.1-0.2,0.3-0.3,0.6-0.4c0.6-0.1,1.2-0.2,1.9-0.3c0.3,0,0.6,0.2,0.9,0.4
			c0.3,0.2,0.4,0.5,0.4,0.9c0,0.5-0.1,1-0.3,1.5c0.3-0.2,0.5-0.5,0.8-0.7c0.1,0,0.1,0.1,0.2,0.2c-0.2,0.6-0.8,1.1-1.3,1.5
			c-0.6,1.7-1.8,3.3-2.6,5.1c-0.4,0.9-0.6,1.8-0.6,2.8c0,0.7-0.1,1.7,0.6,2.3c0.6,0.4,1.5,0.5,2.2,0.2c1.1-0.3,2.1-0.9,2.9-1.6
			c0.4-0.3,0.8-0.8,0.9-1.3c0.1-0.1,0.3,0,0.3,0.2C112.8,120,112.8,120.1,112.8,120.2z M98.1,119.6c-0.3,0-0.7-0.2-0.7-0.6
			c0,0,0,0,0,0c0.2-0.5,0.6-0.9,0.9-1.4c0.2-0.3,0.2-0.7,0.2-1.1c-0.2-0.3-0.4-0.5-0.7-0.6c-0.5-0.2-1.1-0.2-1.6-0.1
			c-0.1,1.6-0.1,3.4,0,5.1c0.6,0.6,1.2,1.2,1.8,1.8c0.2,0.2,0.5,0.4,0.8,0.4c0.3-0.3,0.2-0.7,0.4-1.1c0.2-1.5,0.3-3.2,0.3-4.6
			C99,118.1,98.6,118.9,98.1,119.6z M112.8,117.3c-0.8,0.1-1.5,0.4-2.2,0.9c-1,0.6-1.9,1.4-2.9,2c-0.2,0.1-0.3-0.1-0.5-0.1
			c-0.2-0.1,0-0.3,0-0.4c1-0.7,2-1.5,3-2.1c0.6-0.4,1.3-0.6,2-0.7c0.3-0.1,0.7,0,0.9,0.3C113.3,117.3,113,117.3,112.8,117.3z"/>
		<path d="M110,144.7c-1.2,1-2.5,1.8-3.9,2.4c-0.2,0-0.4-0.1-0.4-0.3c0.4-1.7,0.4-3.4,0-5.1c0-0.1,0-0.3,0.2-0.3c0,0,0,0,0,0
			c0.4,0,0.5,0.4,0.7,0.6c0.1,0.6,0.2,1.3,0.1,2c1.1-0.3,2.1-1,2.7-2c0.2-0.2,0.3-0.6,0.2-0.9c-0.3-0.9-1.3-1.1-2.2-1.1
			c-1.4,0-2.7,0.3-3.9,1c-2,1.2-3.8,2.7-5.3,4.4c0,1.5,0.3,3.4,0,5c-0.1,1.1-0.8,2.2-1.8,2.7c-0.6,0.3-1.4,0.2-2-0.3
			c-0.6-0.7-0.7-1.7-0.3-2.5c0.8-1.9,2-3.6,3.4-5c0-0.6-0.1-1.8-0.1-2.4c-1.2,0.3-2.4,0.9-3.8,1c-0.3,0-0.5-0.1-0.7-0.4
			c0-0.2,0.2-0.3,0.3-0.3c1.4-0.3,2.8-0.6,4.1-1.1c0.1-0.7-0.2-1.7,0.3-2.3c0.2,0,0.3,0,0.4,0.1c0.1,0.6,0.1,1.2,0,1.8
			c0.7-0.3,1.4-0.5,2.1-0.6c0.1,0.1,0.2,0.1,0.3,0.3c0,0.3-0.3,0.3-0.5,0.5l-1.9,0.7c0,0.6,0,1.3,0,1.9c1.5-1.6,3.3-2.9,5.1-4.1
			c1.5-0.8,3.1-1.2,4.8-1.1c0.9,0,1.7,0.5,2.1,1.2c0.3,0.6,0.1,1.3-0.3,1.8c-0.8,1-2,1.8-3.3,2c0,0.4-0.1,1.2-0.1,1.5
			c1-0.5,2-1.1,2.9-1.8c0-0.2-0.3-0.2-0.3-0.4c0.4-0.1,0.8,0,1.1,0.2C110.3,144.3,110.2,144.5,110,144.7z M96.5,147.6
			c-0.9,1.2-1.5,2.5-1.9,3.9c0,0.4,0.3,0.8,0.7,1c0.4,0.1,0.9,0,1.2-0.3c0.4-0.5,0.7-1.1,0.9-1.7c0.3-1.3,0.1-2.8,0.1-4.2
			C97.4,146.5,96.8,147.2,96.5,147.6z M113.6,151.3c-1,0.9-2.2,1.7-3.6,2.1c-1.4,0.5-2.9,0.9-4.4,1c-1.1,0.1-2.2-0.5-2.8-1.5
			c-0.3-1.2-0.5-2.4-0.4-3.6c-0.1-1.9,0-3.8,0.1-5.8c0-0.4,0.2-0.7,0.5-0.9c0.4-0.2,0.9-0.2,1.3,0c-0.3,0.2-0.8,0.3-1,0.7
			c-0.3,2.9-0.3,5.9,0.1,8.8c0.2,0.6,0.6,1.1,1.2,1.4c0.8,0.2,1.7,0.2,2.5,0c2.3-0.4,4-0.9,5.7-2.4c0.5-0.4,0.8-1,0.8-1.6
			c0-1.1-0.2-2.1-0.6-3.1c0.5,0.3,0.7,1,1,1.5c0.2,0.6,0.3,1.3,0.3,2C114.3,150.4,114.1,151,113.6,151.3z"/>
		<path d="M99.8,180.8c-0.3,1.8-1.1,3.4-2.3,4.8c-0.3,0.2-0.5,0.4-0.9,0.3c-0.3-0.2-0.4-0.5-0.4-0.9c0-1.7,0.1-3.4,0.3-5.1
			c-0.2,0.1-0.4,0.2-0.5,0.4c-0.5,0.5-1.1,0.7-1.8,0.8c-0.3-0.1-0.5-0.4-0.6-0.7c-0.1-0.3-0.1-0.6,0.1-0.9c1.2-2.1,2.8-4,4.8-5.4
			c0.2,0,0.3,0.1,0.4,0.2c-0.1,0.8-1,0.9-1.5,1.5c-1.2,1.2-2.3,2.6-3.1,4.2c0,0.1,0.1,0.3,0.2,0.4c0.5,0,1-0.2,1.3-0.6
			c0.4-0.3,0.7-0.7,1.1-1c0.2,0,0.3,0.1,0.4,0.3c-0.2,1.9-0.3,3.8-0.3,5.7c0.1,0.1,0.2,0.1,0.3,0.1c1.4-1.4,1.9-3.2,2.6-4.9
			C99.9,180.3,99.8,180.6,99.8,180.8z M102.3,186.8c-0.1,0-0.3,0-0.3-0.1c0.2-0.9,1-1.5,1.4-2.3c1.1-1.8,1.9-3.8,2.9-5.6
			c0.2,0,0.1,0.3,0.1,0.4C105.6,181.9,104.6,184.6,102.3,186.8L102.3,186.8z M112.8,184.4c-0.4-0.3-0.4-0.8-0.7-1.2
			c-1-1.1-2.2-2.1-3.6-2.7c0,2.8,0.2,5.9,0,8.6c0,0.7-0.4,1.2-1,1.5c-0.8,0.3-1.7,0.2-2.5-0.3c-0.4-0.3-0.7-0.6-0.9-1.1
			c0-0.1,0-0.1,0.1-0.1c0,0,0.1,0,0.1,0c0.4,0.4,0.8,0.7,1.4,0.9c0.5,0.2,1.1,0.1,1.5-0.2c0.4-0.4,0.7-1,0.6-1.6c0-1.1,0-3,0-4
			c0-2.7-0.1-8.3-0.1-10.7c1.3-0.2,2.6-0.8,3.5-1.8c0.2-0.2,0.2-0.5,0.2-0.8c-0.1-0.4-0.5-0.7-0.9-0.7c-1.4,0-2.8,0.5-3.9,1.3
			c-1.3,1-2.5,2.3-3.3,3.8c-0.1,0.1-0.3,0.1-0.4,0c-0.3-0.3-0.5-0.8-0.5-1.3c-0.1-1.7,0.1-3.3,0.8-4.9c0.1-0.1,0.2-0.2,0.3-0.2
			c0.2,0,0.3,0.1,0.3,0.3c0,0,0,0,0,0c-0.4,1.6-1,3.3-0.6,5c0.8-1.3,1.8-2.4,3-3.3c1.2-1,2.7-1.5,4.2-1.5c0.6,0,1.2,0.2,1.5,0.7
			c0.3,0.5,0.3,1.1,0.1,1.6c-0.8,1.2-2.1,1.9-3.5,2.1c0,1.5,0.1,4.4,0.1,5.8c1.8,0.6,3.4,1.8,4.5,3.3c0.1,0.3,0.4,0.7,0.1,1.1
			c0,0.1,0,0.2-0.2,0.3C112.9,184.6,112.8,184.5,112.8,184.4L112.8,184.4z"/>
		<path d="M106.9,211.8c-1.4,1.1-3,1.8-4.7,1.9c-0.2,0-0.4,0-0.6-0.1c-0.5,0.3-1,0.6-1.4,0.9c-1.2,0.9-2.3,2.1-3.1,3.3
			c-0.7,1.1-1.1,2.3-1.2,3.6c-0.1,0.2-0.4,0.4-0.6,0.5c-0.1,0-0.3,0-0.4-0.1c0.2-1.7,0.8-3.4,1.8-4.8c1.1-1.6,2.6-2.9,4.4-3.8
			c-0.6-0.5-0.9-1.3-0.8-2c0.2-1.6,1.2-3.1,2.7-3.9c-2.3,0.5-4.5,1.1-6.7,1.9c-0.2,0-0.3-0.1-0.4-0.3c0-0.5,0.6-0.4,0.8-0.7
			c2.5-1,5.2-1.6,7.8-1.9c0.4,0,0.9,0,1.1,0.3c0.1,0.1,0,0.2,0,0.3c0,0-0.1,0-0.1,0c-1,0.2-1.8,0.6-2.6,1.2
			c-0.8,0.6-1.5,1.5-1.7,2.5c-0.1,0.6-0.3,1.4,0.3,1.9c0.6,0.5,1.2,0.2,1.8,0.1c1.3-0.4,2.6-1,3.7-1.9c0.1-0.1,0.3,0.1,0.4,0.1
			C107.4,211.4,107.1,211.6,106.9,211.8z M104.5,205.3c-1.4-1.1-3.2-1.2-4.8-1.5c-0.2-0.1-0.2-0.3-0.2-0.4c0,0,0,0,0,0
			c0.1-0.2,0.3-0.2,0.5-0.3c1.7,0.3,3.6,0.5,5,1.9c0.1,0.1,0.2,0.3,0.1,0.4C104.9,205.4,104.7,205.4,104.5,205.3z M114,221.3
			c-0.3,0.2-0.6-0.1-0.9-0.1c-1.6-0.9-2-1.7-3.5-2.6c-0.6-0.1-1.1,0-1.6,0.3c-0.5,0.3-1.1,0.4-1.7,0.4c0.5,0.4,0.8,1,0.7,1.7
			c-0.1,0.3-0.4,0.6-0.6,0.9c-0.9,0.8-2,1.4-3.2,1.7c-0.7,0.2-1.4,0.1-1.9-0.3c-0.6-0.4-1-0.9-1.1-1.6c-0.2-1-0.3-2-0.1-3
			c0-0.4-0.5-1.1,0.1-1.3c0.4,0.1,0.6,0.4,0.7,0.8c0.1,0.6-0.1,1.3-0.1,1.9c0,0.4,0,0.9,0.1,1.3c0.1,0.6,0.4,1.1,0.9,1.4
			c0.5,0.2,1.1,0.2,1.7,0c0.9-0.4,1.8-0.9,2.5-1.5c0.2-0.2,0.4-0.4,0.5-0.7c-0.1-0.5-0.4-0.9-0.9-1.2c-0.6-0.3-1.2-0.7-1.7-1.2
			c-0.3-0.2-0.5-0.4-0.6-0.7c-0.1-0.3,0.2-0.7,0.5-0.5c0.5,0.7,1.1,1.2,1.9,1.5c0.3,0.1,0.7,0.1,1.1,0.1c0.7-0.1,1.5-0.4,2.2-0.7
			c0.7-0.1,1.5,0,2.1,0.5c1,0.9,2.1,1.7,3.2,2.4C114.1,220.9,114.2,221.1,114,221.3C114.1,221.3,114,221.3,114,221.3z"/>
		<path d="M99,242.2c-0.2,0-0.5-0.1-0.7-0.1c-1.8,0.4-3.6,0.8-5.4,1.4c-0.2,0-0.4-0.1-0.5-0.3c0-0.1,0-0.2,0-0.2
			c1.9-0.7,3.9-1.3,6-1.6c0.3,0,0.6,0.1,0.8,0.4C99.2,241.9,99.2,242.1,99,242.2z M114.6,249.4c-2.6,2.5-5.8,4.5-9.2,5.8
			c-0.5,0.2-1,0.1-1.4-0.1c-0.3-0.2-0.5-0.6-0.5-1c0.2-1,0.6-1.9,1.1-2.8c0.7-1.3,1.5-2.6,2.4-3.8c0.1-0.1,0-0.2-0.1-0.3
			c0,0,0,0-0.1,0c-0.9-0.1-1.9,0-2.8,0.1c-0.2,0-0.3-0.2-0.4-0.4c-0.1-0.3,0.2-0.4,0.4-0.5c1.8-0.8,3.3-2.2,4.4-3.8
			c0.1-0.3-0.2-0.5-0.4-0.7c-1-0.5-2-0.9-3.1-1.2c-0.2-0.1-0.5,0-0.7,0.1c-0.4,0.4-0.8,0.8-1.1,1.3c-2.1,2.9-4,5.9-5.7,9.1
			c0.6-0.2,1.2-0.2,1.8,0.1c0.2,0.2,0.3,0.5,0.3,0.7c-0.4,1.3-1.4,2.8-2.8,3.1c-0.5,0.1-1,0-1.3-0.4c-0.1-0.4-0.1-0.7,0.1-1.1
			c0.1-0.4,0.4-0.7,0.5-1c-0.6,0.3-1.1,0.7-1.7,1.1c-0.2,0-0.4-0.1-0.4-0.4c0.3-0.6,0.7-1.1,1.1-1.7c0.4-0.7,0.7-1.3,1.1-2.2
			c0-0.1-0.1-0.3-0.2-0.3c-0.8,0.1-1.5,0.3-2.2,0.5c-0.5,0-0.6-0.3-0.6-0.6c1.2-1.2,3.3-3.1,4-4c-1,0.1-1.9,0.7-2.9,0.7
			c-0.2,0-0.5-0.1-0.6-0.3c-0.1-0.3,0.2-0.4,0.4-0.5c1.1-0.5,2.2-1.2,3.3-1.9c0.1,0,0.2,0.1,0.2,0.1c-0.3,0.4-0.7,0.8-1.2,1
			c-0.3,0.2-0.6,0.4-0.9,0.6c0.5-0.1,1.1-0.4,1.7-0.5c0.3,0,0.7-0.3,0.9,0c0.1,0.1,0.2,0.3,0.1,0.5c-1.4,1.2-2.8,2.5-4.1,3.9
			c0.8-0.1,1.6-0.5,2.4-0.2c0.2,0.2,0.3,0.4,0.2,0.6c-0.4,1.1-0.9,2.2-1.6,3.1c0.5-0.4,1.2-0.5,1.5-1.2c2-3.7,4.3-7.2,6.8-10.6
			c0.3-0.4,0.7-0.6,1.1-0.6c1.5,0.2,2.9,0.8,4.2,1.6c0.3,0.3,0.5,0.8,0.3,1.2c-1,1.6-2.5,2.9-4.1,3.8c0.6-0.1,1.2-0.1,1.8-0.1
			c0.4,0,0.7,0.2,0.9,0.4c0.1,0.2,0.2,0.4,0.1,0.6c-1.4,1.9-2.6,3.9-3.6,6.1c-0.1,0.2-0.1,0.5,0,0.7c0.2,0.2,0.5,0.3,0.7,0.2
			c3.3-1.2,6.3-3.1,8.9-5.5c0.3-0.3,0.3-0.7,0.2-1.1c-0.3-0.7-0.6-1.3-0.9-2c0-0.1,0.3-0.2,0.3-0.1c0.5,0.6,1,1.3,1.3,2.1
			C114.9,248.5,114.8,249,114.6,249.4z M98.4,240c-0.4-0.5-0.9-0.9-1.5-1.2c-0.9-0.4-1.8-0.8-2.7-1.2c-0.2-0.1-0.3-0.4-0.2-0.6
			c0.1-0.2,0.4-0.1,0.6-0.1c1,0.3,1.9,0.8,2.8,1.3c0.6,0.3,1.1,0.8,1.3,1.5C98.6,239.9,98.5,240.1,98.4,240z M98.1,251.9
			c-0.5,0.1-0.9,0.2-1.3,0.4c-0.2,0.4-0.6,1.3-0.9,1.8c-0.1,0.3,0.1,0.6,0.5,0.5c0.3-0.1,0.5-0.2,0.7-0.4c0.6-0.5,1.1-1.2,1.3-1.9
			C98.7,251.9,98.4,251.9,98.1,251.9L98.1,251.9z"/>
		<path d="M53.5,91.5c-0.6,0.3-1.4,0.6-1.9,0.9c-0.4,1.5-0.7,3.1-1.2,4.6c-0.4,1.7-1.2,3.3-2.3,4.7c-0.1,0.1-0.2-0.1-0.2-0.2
			c0.8-1.6,1.4-3.3,1.9-5.1c0.3-1.2,0.6-2.4,0.9-3.6c-0.7,0.3-1.4,0.7-2,1.2C48.3,94.5,48,95,48,95.6c-0.2,1-0.3,2-0.3,3
			c-0.1,0.1-0.2,0.2-0.3,0.3c-0.6,0-0.9-0.5-1.3-0.8c-0.4-0.2-1.2-0.9-2-0.6c-0.2,1.5,0.1,3.1-0.3,4.6c-0.2,0.5-0.7,0.9-1.3,1
			c-0.4,0-0.8-0.2-1.1-0.4c-0.2-0.2-0.4-0.4-0.3-0.6c0.3,0,0.4,0.2,0.7,0.4c0.4,0.1,0.9,0,1.2-0.3c0.4-0.4,0.2-1,0.4-1.5
			c-0.1-1.8,0-3.6,0.5-5.4c0-0.1,0-0.2-0.1-0.2c0,0-0.1,0-0.1,0c-0.7,0.4-1.2,0.8-1.8,1.1c-0.2,0-0.4-0.3-0.3-0.5
			c0.2-0.4,0.7-0.5,0.9-0.9c1.1-0.8,2-1.7,2.8-2.8c0.1-0.1-0.1-0.2-0.2-0.2c-1.2,0.2-2.3,0.7-3.3,1.2c-0.2,0.7-0.2,1.3-0.5,2
			s-0.7,1.6-1.5,1.8c-0.1-0.4,0.3-0.6,0.4-0.9c0.4-0.7,0.6-1.5,0.7-2.3c-0.3,0.1-0.6,0.4-0.9,0.6c-0.2,0-0.1-0.3-0.1-0.4
			c0.2-0.3,0.3-0.5,0.6-0.7c0.2-0.2,0.4-0.3,0.6-0.5c0.1-0.9,0.2-1.9,0.5-2.8c-1.1,0.2-2.1,0.9-3.3,1c-0.4,0.1-0.5-0.3-0.4-0.5
			c1.2-0.5,2.3-1,3.5-1.7c0.9-0.5,1.7-1.1,2.4-1.8c0.1-0.2,0.1-0.3,0-0.5c-0.9-0.7-2.1-0.9-3.3-1c-0.2-0.1-0.3-0.2-0.3-0.3
			c0-0.2,0.2-0.3,0.3-0.4c1.5,0.1,3.2,0.3,4.1,1.7c0.1,0.6-0.2,1.2-0.7,1.4c-0.4,0.3-1.3,0.8-1.9,1.2c1.5-0.4,3-0.6,4.6-0.5
			c0.1,0.1,0.3,0.1,0.3,0.3c0,0.1,0,0.3-0.2,0.3c0,0,0,0,0,0c-1.4,0-2.8,0.1-4.1,0.4c-0.4,0.9-0.6,1.8-0.7,2.7
			c1.1-0.7,2.4-1,3.7-1.1c0.2,0.1,0.4,0.2,0.5,0.4c0.1,0.4-0.1,0.9-0.5,1.2c-0.6,0.6-1.1,1.1-1.7,1.7c0.3,0.1,0.6,0,0.9,0.2
			c-0.2,0.8-0.4,1.6-0.5,2.4c1.1-0.3,2,0.4,2.9,0.9c0-1.1,0.3-2.2,0.6-3.2c0.4-0.9,1-1.6,1.8-2c0.3-0.2,1.1-0.5,1.4-0.7
			c0.4-1.5,0.7-3,1.9-4.1c0.8-0.2,1.4,0.3,2,0.7s1.5,1.1,1.1,1.8C55.2,90.9,54.4,91.2,53.5,91.5z M39.7,101.7
			c-0.2,0.2-0.6,0.3-0.9,0.2c-0.3-0.1-0.4-0.3-0.5-0.5c-0.1-1.4,0.4-2.6,0.2-4c0-0.1,0.1-0.2,0.2-0.2c0.3,0,0.3,0.3,0.4,0.4
			c0.3,1.1-0.3,2.1-0.1,3.3c0.1,0.1,0.3,0.2,0.4,0.1c0,0,0,0,0,0c0.8-0.8,1.6-1.6,2.5-2.3c0.1-0.1,0.2,0.1,0.1,0.2
			C41.2,99.9,40.6,100.9,39.7,101.7z M57.7,102.3c-1.2,0.7-2.6,1.2-4,1.4c-0.6,0.1-1.2-0.2-1.5-0.7c-0.3-0.8-0.3-1.6-0.2-2.3
			c-0.1-1.2,0.1-2.4,0.1-3.6c-0.1-0.3-0.2-0.6-0.4-0.9c0.1-0.2,0.4-0.1,0.6,0c0.4,0.3,0.6,0.7,0.5,1.2c-0.1,0.7-0.2,1.5-0.2,2.2
			c-0.1,1,0,2,0.2,3c0.2,0.3,0.4,0.4,0.7,0.4c2.2-0.4,4.4-1.4,6.1-2.8c0.4-0.3,0.5-0.7,0.4-1.2c-0.1-0.6-0.5-1.2-0.6-1.8
			c-0.9-2.1-1.7-4.4-2.5-6.5c0-0.1,0.2-0.2,0.3-0.2c1,2.5,2,4.9,3.1,7.2c0.3,0.9,0.9,1.7,0.2,2.6C59.8,101.1,58.8,101.8,57.7,102.3z
			 M53.7,88.6c-0.2-0.1-0.5-0.1-0.7,0.1c-0.6,0.8-0.9,1.8-1.1,2.8c0.6-0.3,1.7-0.8,2.4-1.1c0.3-0.1,0.9-0.1,0.9-0.6
			C54.7,89.3,54.3,88.9,53.7,88.6z M59.5,85.9C59.3,86,59,86.1,58.8,86c-1.1-0.4-2.3-0.9-3.3-1.4c-0.3-0.1-0.6,0-0.8,0.2
			c-0.2,0.1-0.3,0.4-0.4,0.6c-0.2-0.2-0.3-0.5-0.2-0.8c0.2-0.6,0.8-0.9,1.4-0.7c0,0,0.1,0,0.1,0c1.3,0.7,2.7,1.2,4.1,1.6
			C59.8,85.6,59.6,85.8,59.5,85.9z"/>
		<path d="M56.8,132.1c-0.5,0.1-1-0.3-1.5-0.5c-1.4-0.9-3.1-2-5.3-3.4c0,1.5-0.1,4.6-0.1,6.5c0,0.6,0,1.2-0.2,1.8
			c-0.1,0.4-0.4,0.8-0.8,1c-0.1,0-0.3,0.1-0.4,0c0.4-0.7,0.6-1.5,0.6-2.3c0-1.9,0-5.6,0-7.5c-0.4-0.4-1.1-0.6-1.6-1
			c-1,1.6-2.1,3.2-3.3,4.6c-0.3,0.3-0.6,0.5-1,0.7c-0.2,0-0.4,0-0.4-0.3c1.5-1.7,2.9-3.5,4.1-5.4c-0.5-0.3-1-0.5-1.5-0.5
			c-0.1-0.1-0.1-0.2-0.1-0.3c0.2-0.3,0.7-0.2,1-0.2c0.4,0.1,0.7,0.2,1.1,0.4c0.6-0.9,1.3-1.8,2.1-2.5c0-1.2,0.4-2.4,1-3.4
			c-2.3,0.9-4.8,1.7-6.8,3.2c-0.1,0-0.3,0.1-0.3-0.1c-0.2-0.1-0.1-0.2-0.1-0.4c0.1-0.4,0.6-0.6,0.9-0.9c2.6-1.4,5.3-2.5,8.2-3.3
			c0.2,0,0.5,0.1,0.6,0.3c0,0.1,0.1,0.2,0,0.3c-0.6,0.2-1.1,0.6-1.6,1c-0.4,0.3-0.7,0.8-0.8,1.3c-0.3,2-0.5,4.1-0.5,6.1
			c2.6,1.5,4.5,2.8,7.1,4.2C57.2,131.8,57.1,132,56.8,132.1z M47.9,126.2c0.3,0.2,0.9,0.5,1.2,0.7c0-0.7,0.1-1.8,0.1-2.5
			C48.7,125,48.3,125.5,47.9,126.2z"/>
		<path d="M57.8,153.7c-2.9-1.1-5.5-2.6-8-4.4c-0.5-0.2-1.1-0.1-1.6,0.1c-1.3,0.5-2.2,2-3.3,2.9c-1.6,1.8-2.9,3.8-4,6
			c-0.2,0.3-0.2,0.8-0.5,1c-0.3,0-0.3-0.2-0.3-0.4c0.2-1.7,1.5-3.1,2.3-4.6c1.3-2.1,3-3.9,5-5.3c0.2,0,0.3,0,0.5,0.1
			c0.5-0.5,1.2-0.7,1.8-0.5c0.9,0.5,1.8,1.1,2.7,1.7c1.9,1.2,3.9,2.1,6,2.9c0.2,0.1,0.3,0.3,0.1,0.4C58.3,153.7,58,153.8,57.8,153.7
			z M51.3,153.9c-2,0.6-3.9,1.5-5.7,2.6c-0.2,0.2-0.4,0.5-0.4,0.9c-0.2,1.6,0,3.2,0.6,4.6c0,0.1,0.1,0.4-0.1,0.4
			c-0.4-0.1-0.7-0.3-0.9-0.7c-0.6-1.6-0.7-3.3-0.3-4.9c0.2-0.5,0.6-0.8,1.1-1c1.5-0.8,3-1.5,4.6-2.1c0.1,0,0-0.1-0.1-0.1
			c-1.6-0.2-3.2-0.1-4.8,0.4c-0.2,0.1-0.3-0.2-0.1-0.5c0.2-0.2,0.5-0.4,0.8-0.4c1.4-0.2,2.8-0.2,4.2-0.1c0.4,0,0.8,0.2,1.1,0.5
			C51.6,153.5,51.5,153.8,51.3,153.9z M51.8,167.2c-0.2,1.6-0.1,3.3-1.1,4.5c-0.5,0.6-1.3,0.8-2,0.7c-1-0.4-1.7-1.2-2.1-2.2
			c0-0.4,0.2-0.7,0.5-0.9c0.3-0.2,0.6-0.4,0.9-0.7c0.1-1.9-0.1-4,0.7-5.5c0.4-0.7,0.9-1.2,1.5-1.6c-0.8,0.2-1.6,0.4-2.4,0.7
			c-0.2-0.1-0.3-0.3-0.3-0.5c0,0,0,0,0,0c0.2-0.2,0.5-0.3,0.7-0.4c0.3-0.1,0.6-0.3,0.7-0.7c0.1-0.4,0.2-0.8,0.2-1.2
			c-0.5,0.3-1.1,0.5-1.7,0.5c-0.4,0-0.8-0.1-1.1-0.3c-0.1-0.1-0.3-0.3-0.1-0.5c0.6-0.2,1.2,0.3,1.9,0c0.4-0.1,0.8-0.3,1.2-0.4
			c0.1-0.6,0.1-1.3-0.1-1.9c-0.5,0.1-1,0.3-1.5,0.5c-0.4,0.2-0.8,0.4-1,0.8c-0.1,0.1-0.3,0-0.3-0.1c0,0,0,0,0-0.1
			c0.1-0.5,0.4-0.9,0.9-1.1c1.9-0.9,4.1-1.3,6.2-1.1c0.7,0,1.3,0.4,1.6,1c0.1,0.4,0.1,0.9-0.1,1.3c-0.5,1.1-2.2,2.9-3.4,3.1
			c-0.2,0.4-0.6,0.3-0.9,0.6c-0.6,0.3-1,0.8-1.3,1.4c-0.7,1.4-0.6,3.3-0.6,5c0.7-0.4,1.5-0.9,2.3-1.3c0-0.8-0.1-1.7-0.4-2.5
			c-0.2-0.2-0.4,0-0.6-0.3c0-0.3,0.1-0.5,0.4-0.6c0.3-0.1,0.6,0,0.7,0.3c0.7,0.7,0.5,1.8,0.7,2.7c1.1-0.5,2.2-0.8,3.3-1.1
			c0.4,0,0.6,0.3,0.4,0.5C54.1,166.2,52.9,166.6,51.8,167.2L51.8,167.2z M48.8,169v1.3c-0.1,0.2-0.3,0.2-0.5,0
			c-0.1-0.2-0.2-0.4-0.3-0.7c-0.1,0.1-0.4,0.3-0.6,0.4c-0.1,0.1-0.2,0.3-0.1,0.5c0.3,0.5,0.8,1,1.4,1.2c0.6,0.1,1.2-0.2,1.6-0.7
			c0.5-1.1,0.7-2.2,0.7-3.4C50.2,168,49.5,168.5,48.8,169L48.8,169z M51.6,158.2c-0.5,0.2-1.1,0.5-1.7,0.7c-0.1,0.6-0.2,1.1-0.4,1.7
			c0.8-0.7,1.5-1.4,2.2-2.2C51.8,158.3,51.7,158.2,51.6,158.2L51.6,158.2z M53.4,156.4c-1.2-0.1-2.4,0-3.6,0.3
			c0.3,0.5,0.3,1.1,0.2,1.7c0.8-0.3,1.4-0.9,2.3-0.8c0.2,0.1,0.4,0.3,0.4,0.6c-0.2,0.5-0.5,1-0.9,1.3c-0.5,0.5-1.1,0.9-1.6,1.4
			c0.4-0.1,0.9-0.3,1.3-0.1c1.2-0.6,2.2-1.6,2.8-2.7c0.2-0.3,0.3-0.7,0.1-1C54.1,156.7,53.8,156.4,53.4,156.4z"/>
		<path d="M54.2,217.9c-0.8,0.5-1.6,0.9-2.5,1.3c1-0.1,2.1-0.1,3.1,0.1c0.2,0.1,0.3,0.3,0.2,0.5c-0.8,0.5-1.6,0.9-2.5,1.3
			c-1,0.5-1.9,1.3-2.6,2.2c-0.6,0.8-0.9,1.7-1,2.7c-0.1,1.3-0.2,2.6-0.1,3.9c0,0.1-0.1,0.2-0.2,0.2c-0.1,0-0.1,0-0.1-0.1
			c-0.3-0.3-0.4-0.7-0.3-1.1c-0.2-1.6,0-3.1,0.5-4.6c0.4-1,1-1.9,1.9-2.5c1.1-0.8,2.2-1.5,3.4-2c-1.1-0.1-2.3-0.1-3.4,0.2
			c-0.2,0-0.3-0.2-0.4-0.3c0-0.5,0.6-0.5,1-0.7c0.9-0.6,1.9-1,2.7-1.7c0.1-0.1,0.1-0.3-0.1-0.3c-1.2-0.2-2.4-0.3-3.6-0.2
			c-0.7,0-1.2,0.7-1.6,1.2c-0.7,1-2.2,2.9-3,4c-0.3,3.2-0.5,6.5-1.8,9.2c-0.3,0.5-0.7,0.9-1.1,1.4c-0.4,0.4-1,0.6-1.5,0.5
			c-0.4-0.1-0.8-0.4-1-0.7c-0.4-0.7-0.7-1.4-0.9-2.2c0-0.1,0.2-0.1,0.3-0.1c0.4,0.6,0.6,1.4,1.2,2c0.2,0.2,0.5,0.3,0.9,0.3
			c0.6-0.3,1.1-0.7,1.4-1.3c0.4-0.7,0.7-1.5,0.9-2.4c0.4-1.9,0.7-3.8,0.8-5.7c-1,1-1.8,2.1-2.6,3.3c-0.1,0.1-0.3,0.1-0.4,0
			c-0.2-0.1-0.3-0.4-0.2-0.6c0.7-1.1,1.1-2.3,1.2-3.6c-0.2-0.3-0.6-0.1-0.9-0.1c-1,0.4-1.8,0.9-2.6,1.6c-0.1,0-0.2-0.2-0.2-0.3
			c0.1-0.4,0.3-0.7,0.7-1c0.6-0.4,1.3-0.8,1.9-1c0.4-0.2,0.9-0.1,1.3,0.1c0.2,0.2,0.3,0.4,0.4,0.6c-0.1,0.7-0.2,1.5-0.4,2.2
			c0.6-0.6,1.4-1.7,2-2.3c0.2-2.1,0.9-4,2-5.8c-1.3,0.5-2.6,1.2-4,1.7c-0.2,0-0.3-0.1-0.5-0.3c0-0.4,0.4-0.5,0.7-0.7
			c1.4-0.6,2.9-1.3,4.4-1.9c1.2-0.8,2.4-1.6,3.6-2.5c0.2-0.2,0.2-0.5,0-0.7c0,0-0.1-0.1-0.2-0.1c-1.4-0.5-2.9-0.8-4.4-0.8
			c-0.1-0.1-0.3-0.2-0.4-0.3c0-0.2,0.1-0.3,0.3-0.3c0.8-0.1,1.6-0.1,2.3,0.1c0.9,0.1,1.7,0.4,2.5,0.8c0.4,0.2,0.6,0.4,0.8,0.8
			c0,0.4-0.3,0.7-0.6,0.9c-0.7,0.6-1.6,1.1-2.3,1.5c0.5-0.1,1.1-0.3,1.6-0.5c0.5-0.2,1-0.2,1.5-0.1c0.1,0.2,0,0.4-0.1,0.5
			c0,0,0,0-0.1,0c-1.4,0.3-2.8,0.7-4.1,1.2c-1.1,1.5-1.9,3.2-2.1,5c1.3-1.3,2.2-3,3.6-4.4c0.5-0.2,1.1-0.4,1.7-0.4
			c1,0,1.9,0.1,2.9,0.3c0.4,0,0.8,0.2,1.2,0.5C55,217.4,54.6,217.6,54.2,217.9z M57.2,231.9c-1,0.5-2,0.8-3.1,0.9
			c-0.1,0.4-0.2,0.7-0.3,1.1c-0.1,0.2-0.4,0.2-0.4,0c0-0.2,0-0.7,0-1.1c-0.8,0-1.5-0.3-2.1-0.7c-0.5-0.4-1-0.9-1.3-1.4
			c-0.1-0.1,0.1-0.4,0.3-0.2c0.4,0.5,0.9,0.9,1.4,1.2c0.5,0.3,1.1,0.4,1.7,0.4v-3.4c-0.6,0.2-1.3,0.6-1.7,0.8
			c-0.3,0.1-0.9,0.2-1-0.1c0.1-0.5,0.7-0.3,0.9-0.6l1.8-0.9c0-0.7,0.1-1.5,0.1-2.3c-1.2,0.5-2.3,1-3.3,1.7c-0.1,0-0.2,0-0.2-0.1
			c0,0,0-0.1,0-0.1c0.2-0.4,0.5-0.8,0.9-1c0.9-0.5,1.8-0.9,2.7-1.3c0.1-0.6,0.1-1.3,0.6-1.7c0.2,0,0.3,0,0.4,0.2
			c-0.1,0.4-0.2,0.8-0.3,1.2c0.4-0.1,0.8-0.3,1.3-0.4c0.4-0.1,0.9,0,1.3,0.1c0.1,0.1,0.1,0.3,0,0.3c-0.9,0.1-1.8,0.3-2.6,0.7
			c-0.1,0.7-0.1,1.5-0.1,2.2c1.2-0.7,2.4-1.4,3.5-2.3c0.1,0,0.2,0.2,0.1,0.4c-0.7,1.2-2.4,2-3.6,2.7c0,0.9,0,2.5-0.1,3.8
			c1.6-0.2,3.1-0.9,4.4-2c0.3-0.4,0.5-1,0.4-1.5c-0.1-0.7-0.1-1.4-0.1-2.1c0-1.7,0.1-3.3,0-4.8c-0.2-0.3-0.5-0.5-0.9-0.4
			c-1.8,0.1-3.5,0.7-5.1,1.7c-0.3,0.1-0.3,0.4-0.5,0.5c-0.2-0.4,0.2-0.7,0.4-1.1c0.7-0.5,1.5-0.9,2.3-1.2c1.1-0.4,2.3-0.5,3.5-0.5
			c0.4,0.1,0.8,0.3,1,0.6c0.2,0.7,0.2,1.4,0.1,2c-0.1,2,0,4,0.1,5.9C59.5,230.5,58.2,231.4,57.2,231.9z"/>
		<path d="M56.8,265.2c0-0.3,0-0.6-0.1-0.8c-0.2-0.3-0.5-0.4-0.8-0.3c-0.5,0.2-1,0.4-1.4,0.6c0,1.3-0.2,2.5-0.7,3.7
			c-0.3,0.7-0.9,1.1-1.6,1.4c-0.8,0.3-1.7,0.3-2.4-0.1c-0.1,0.3-0.1,0.5-0.2,0.7c-0.1,0.2-0.4,0.2-0.5-0.1c-0.4-2.8-0.4-5.7,0.1-8.6
			c-1.4,1.3-2.9,2.8-4.4,4c-1,0.9-2.2,1.7-3.4,2.3c-0.1,0.1-0.3,0-0.3-0.1c0,0,0-0.1,0-0.1c2-1.4,3.8-3,5.5-4.7
			c2.1-2,4.2-4.1,6.3-5.9c-3.1,1.3-6.2,2.8-9.1,4.6c-0.2,0-0.5-0.1-0.5-0.4c0-0.3,0.6-0.5,0.9-0.7c0.8-0.4,2.3-1.3,3.1-1.7
			c0.7-0.9,1.2-2,1.5-3.1c-1.5,0.5-2.9,1.2-4.4,1.9c-0.1,0-0.3-0.1-0.3-0.2c0,0,0,0,0,0c0-0.3,0.2-0.7,0.6-0.8l4.4-1.8
			c0.3-0.5,0.3-1.5,0.7-2c0.1-0.3,0.4-0.4,0.7-0.4c0.2,0,0.4,0,0.6,0c0.4-1,0.7-2.1,0.9-3.1h-0.1c-0.7,1.3-1.7,2.4-2.9,3.3
			c-0.3,0.2-0.8,0.2-1.1,0.1c-0.3-0.3-0.6-0.6-0.6-1.1c-0.1-0.4-0.1-0.9-0.2-1.4c-1.1,0.3-2.2,0.7-3.2,1.1c-0.2-0.1-0.4-0.1-0.5-0.3
			s0.1-0.4,0.2-0.4c1.1-0.5,2.3-0.9,3.5-1.2c0.1-0.4,0.1-1,0.1-1.4c0-0.5,0.3-0.9,0.7-1.2c0.3-0.1,0.6,0.1,0.8,0.4
			c0.1,0.4-0.5,0.2-0.7,0.6c-0.1,0.4-0.2,0.9-0.2,1.3c1.3-0.2,2.5-0.5,3.8-0.7c0.2-0.3,0.3-0.7,0.4-1c0.1-0.4,0.3-0.7,0.6-0.9
			c0.2,0,0.3,0,0.4,0.1c0,0.5-0.1,1.1-0.2,1.6c0.4,0,1.2-0.2,1.4-0.2c0.4-0.1,0.8,0,1.2,0.1c0.4,0.1,0.1,0.5,0,0.6
			c-0.9,0.1-2,0.2-2.7,0.2c-0.3,1.1-0.7,2.3-1.2,3.3c0.4,0.2,0.8,0.4,1.3,0.6c0.2,0.1,0.3,0.4,0.3,0.6c-0.1,0.3-0.3,0.5-0.6,0.6
			c-0.9,0.3-1.9,0.6-2.8,1c-0.3,0.6-0.4,1.2-0.6,1.7c-0.2,0.4-0.4,0.8-0.6,1.2c2.1-0.9,4.3-2,6.5-2.8c0.4-0.1,0.6,0.2,0.5,0.5
			c-2,1.4-3.8,3-5.5,4.7c-0.1,0.7-0.2,1.5-0.3,2.2c0.6-0.5,1.3-0.9,2.1-1c0.7-0.1,1.4-0.1,2.1,0.2c0.4,0.4,0.6,0.9,0.6,1.5
			c0.5-0.1,1-0.4,1.6-0.4c0.4-0.1,0.8,0,1.1,0.3c0.2,0.2,0.3,0.5,0.2,0.8C57.2,264.8,57,265,56.8,265.2z M47.7,250.3
			c-0.1,0.6,0.1,1.3,0.4,1.9c0.2,0,0.3,0,0.5,0c1-0.7,1.8-1.5,2.5-2.5C49.9,249.8,48.8,250,47.7,250.3z M53.4,263.3
			c-0.2-0.3-0.5-0.5-0.8-0.5c-0.8,0-1.6,0.2-2.2,0.6c-0.4,0.2-0.7,0.5-0.9,0.9c-0.1,1.1-0.1,2.3,0,3.5c1-1.5,2.4-2.8,4-3.6
			C53.6,263.9,53.5,263.6,53.4,263.3L53.4,263.3z M52.1,253.6c-0.4-0.2-0.8-0.3-1.3-0.4c-0.7,0.1-0.7,0.9-0.9,1.5l2.2-0.8
			C52.2,253.8,52.2,253.7,52.1,253.6L52.1,253.6z M50.3,268.1c-0.3,0.3-0.3,0.7-0.1,1c0.6,0.3,1.2,0.2,1.8-0.1
			c0.6-0.2,1.1-0.7,1.3-1.3c0.2-0.8,0.4-1.7,0.4-2.6C52.3,265.8,51.1,266.8,50.3,268.1L50.3,268.1z"/>
		<path d="M59.3,339.7c-0.8-0.4-1.5-0.8-2.3-1.2c-0.5-0.2-1-0.3-1.6-0.2c-1.2,0.1-2.3,0.5-3.4,1.1c0.9,0.1,1.9,0.3,2.3,1.2
			c0.1,0.7-0.2,1.5-0.7,2c-1.4,1.2-3,2-4.7,2.4c-0.8,0.2-1.7,0.1-2.4-0.3c-0.6-0.4-1-1-1.1-1.7c-0.2-0.9-0.1-1.8-0.2-2.7
			c-0.9,0.8-2.7,2.5-3.6,3.3c-0.3,0.1-0.6,0.4-0.9,0.3c-0.4-0.1-0.1-0.4,0.1-0.5c2.1-1.9,4-3.6,5.9-5.3c1.6-1.4,3.5-2.7,5.4-4
			c-0.8,0-1.6,0.1-2.3,0.3c0,0.2-0.1,0.4-0.1,0.6c0,0.2-0.1,0.3-0.3,0.3c-0.3,0-0.3-0.3-0.4-0.4c-0.1-2.8,0-6.3,0.1-8.6
			c-1.5,1.9-3,3.8-4.7,5.5c-0.1,0.9,0,1.9-0.1,2.8c0,0.8-0.3,1.7-0.8,2.3c-0.1,0-0.3,0-0.2-0.2c0.3-1.4,0.4-2.8,0.3-4.2
			c-0.9,1-2,1.8-3.1,2.6c-0.2,0.1-0.4,0.1-0.6,0c-0.4-0.2-0.3-0.7-0.2-1c0.8-2.3,2.2-4.4,4-6.1v-1.5c-0.5,0.1-1.1,0.3-1.6,0.5
			c-0.6,0.3-1.2,0.4-1.9,0.4c-0.2-0.1-0.5-0.1-0.6-0.4c0-0.2,0.1-0.3,0.3-0.3c0.2,0,0.5,0.1,0.7,0c1-0.3,2-0.6,3-0.9
			c0.1-0.8,0.2-1.7,0.4-2.5c0-0.1,0.2-0.2,0.3-0.2c0,0,0.1,0,0.1,0.1c0.2,0.2,0.2,0.5,0.2,0.8c-0.1,0.5-0.1,1-0.1,1.5
			c0.9-0.2,1.7-0.4,2.7-0.5c0.2,0,0.3,0.1,0.4,0.3c0,0.2-0.3,0.2-0.4,0.4c-0.9,0.1-1.8,0.4-2.7,0.6c0,1.1,0,4,0,4.8
			c1.6-1.7,3.1-3.5,4.5-5.3c0.2-0.5,0.2-1.2,0.6-1.5c0.2-0.1,0.4,0,0.4,0.2c0,0.9-0.2,1.7-0.2,2.7c0.6-0.3,1.2-0.4,1.8-0.4
			c0.3,0,0.5,0.1,0.7,0.4c0.1,0.2,0.1,0.4,0,0.6c-0.9,0.9-1.8,1.8-2.5,2.8c0.6-0.1,1.2-0.3,1.8-0.5c0.4-0.1,0.8-0.1,1.2-0.1
			c0-1.2,0.1-3.3,0.1-4.9c0-0.7-0.4-1.3-0.9-1.7c-0.1-0.2,0.2-0.3,0.5-0.3c0.4,0,0.7,0.3,0.9,0.6c0.3,0.6,0.4,1.3,0.3,2
			c-0.1,2.9,0,6-0.1,9c0,0.2-0.2,0.3-0.4,0.2c-0.1,0-0.2-0.1-0.2-0.2c0-0.2-0.1-0.4-0.1-0.6c-2.4,1.8-4.7,3.6-7,5.6
			c0.3,1,0.2,2.2,0.5,3.2c0.2,0.7,0.7,1.3,1.4,1.4c0.6,0,1.2-0.1,1.7-0.3c1.3-0.4,2.5-1.1,3.6-2c0.4-0.3,0.6-0.8,0.6-1.3
			c-0.1-0.3-0.4-0.6-0.7-0.7c-0.5-0.2-1-0.1-1.5-0.3c-0.5,0.2-1.1,0.4-1.6,0.5c-0.6,0.1-1.1,0-1.7-0.3c-0.1-0.1-0.2-0.3-0.1-0.5
			c0.5-0.2,1.1,0.1,1.6-0.1c1.2-0.1,2.4-0.6,3.4-1.2c0.6-0.3,1.2-0.5,1.9-0.6c0.7-0.1,1.4-0.1,2.1,0c0.6,0.1,1.2,0.4,1.8,0.7
			c0.4,0.2,0.9,0.5,0.9,1C59.4,339.5,59.4,339.6,59.3,339.7z M42,330.9c-0.7,1-1.1,2.1-1.4,3.3c1.1-0.7,2.1-1.6,3-2.5
			c0-0.9,0-1.8,0-2.8C42.9,329.5,42.4,330.2,42,330.9z M49.6,331.1c0,0.4,0,1.6,0,2.2c0.4-0.6,1.9-2,2.4-2.7
			C51.2,330.7,50.4,330.9,49.6,331.1z M51.4,327.3c-0.6,0-1.2,0.2-1.7,0.4l-0.1,2c0.6-0.8,1.3-1.5,1.9-2.3
			C51.6,327.4,51.5,327.3,51.4,327.3z M52.7,330.7c-0.9,0.9-1.7,1.7-2.6,2.7c0.5-0.1,1.1-0.2,1.6-0.3c0.3-0.1,0.7-0.1,1,0
			C52.7,332.4,52.7,331.4,52.7,330.7z"/>
		<path d="M45.6,370.9c-0.3,1.8-1.1,3.4-2.3,4.8c-0.2,0.2-0.6,0.3-0.9,0.3c-0.3-0.2-0.4-0.6-0.4-0.9c0-1.7,0.1-3.4,0.2-5
			c-0.2,0.1-0.4,0.2-0.5,0.4c-0.5,0.5-1.1,0.7-1.8,0.8c-0.3-0.1-0.5-0.4-0.6-0.7c-0.1-0.3-0.1-0.6,0.1-0.9c1.2-2.1,2.8-4,4.8-5.4
			c0.2,0,0.3,0.1,0.4,0.2c-0.1,0.8-1,0.9-1.4,1.5c-1.2,1.2-2.3,2.6-3.1,4.2c0,0.1,0,0.3,0.2,0.4c0.5,0,1-0.2,1.3-0.6
			c0.4-0.3,0.7-0.7,1.1-1c0.2,0,0.3,0.1,0.4,0.3c-0.2,1.9-0.3,3.8-0.3,5.7c0.1,0.1,0.2,0.1,0.3,0.1c1.4-1.4,1.9-3.2,2.6-4.9
			C45.7,370.3,45.6,370.6,45.6,370.9z M48,376.8c-0.1,0-0.3,0-0.3-0.1c0.2-0.9,1-1.5,1.4-2.3c1.1-1.9,1.9-3.8,2.9-5.6
			c0.2,0,0.1,0.3,0.1,0.4C51.4,371.9,50.4,374.7,48,376.8L48,376.8z M58.6,374.5c-0.4-0.3-0.4-0.8-0.7-1.2c-1-1.1-2.2-2-3.6-2.7
			c0,2.8,0.2,5.9,0,8.6c0,0.7-0.4,1.2-1,1.5c-0.8,0.3-1.7,0.2-2.5-0.3c-0.4-0.3-0.7-0.6-0.9-1.1c0-0.1,0-0.1,0.1-0.1
			c0,0,0.1,0,0.1,0c0.4,0.4,0.8,0.7,1.4,0.9c0.5,0.2,1.1,0.1,1.5-0.2c0.4-0.4,0.7-1,0.6-1.6c0-1,0-3,0-4c0-2.7-0.1-8.2-0.1-10.7
			c1.3-0.2,2.6-0.8,3.5-1.8c0.2-0.2,0.2-0.5,0.2-0.8c-0.1-0.4-0.5-0.7-0.9-0.7c-1.5,0-2.9,0.5-4,1.4c-1.3,1-2.5,2.3-3.3,3.8
			c-0.1,0.1-0.3,0.1-0.4,0c-0.3-0.3-0.5-0.8-0.5-1.3c-0.1-1.7,0.1-3.3,0.8-4.9c0.1-0.1,0.2-0.2,0.3-0.2c0.2,0,0.3,0.1,0.3,0.3
			c0,0,0,0,0,0c-0.4,1.6-1,3.3-0.6,5.1c0.8-1.3,1.8-2.4,3-3.3c1.2-0.9,2.7-1.5,4.2-1.5c0.6,0,1.2,0.2,1.5,0.7
			c0.3,0.5,0.3,1.1,0.1,1.6c-0.8,1.2-2.1,1.9-3.5,2.1c0,1.5,0.1,4.4,0.1,5.8c1.8,0.6,3.4,1.8,4.5,3.3c0.1,0.3,0.4,0.7,0.1,1.1
			C58.8,374.5,58.7,374.6,58.6,374.5z"/>
		<rect x="31.6" y="203.1" class="st0" width="36.4" height="36.1"/>
		<rect x="31.6" y="239.2" class="st0" width="36.4" height="36.1"/>
		<rect x="31.6" y="315.4" class="st0" width="36.4" height="36.1"/>
		<rect x="31.6" y="351.5" class="st0" width="36.4" height="36.1"/>
		<rect x="154.4" y="116.6" width="39" height="126.5"/>
		<path class="st1" d="M173.4,143.2c-1.1,2-4.3,3.5-7.3,4.1l-0.7-1.5c2.6-0.4,4.8-1,6.3-2.6h-4.5l0.9-4.4h5.5v-1.5h-6.3v-1.4h13.6
			v4.2h-5.8v1.6h6.6c0,1.3-0.3,2.7-0.8,3.9c-0.4,0.6-1.1,1-1.8,0.9c-0.8,0-1.5-0.2-2.2-0.4l-0.2-1.5c0.8,0.3,1.7,0.5,2.5,0.6
			c0.3,0,0.5-0.4,0.5-0.7c0.2-0.5,0.3-0.9,0.4-1.4h-5v4.8h-1.5v-4.8L173.4,143.2z M165.4,135.5c1.5-1.3,2.7-3,3.3-4.9l1.4,0.4
			c-0.1,0.5-0.3,0.9-0.5,1.4h4.9v1.4h-2.7c0.4,0.4,0.7,0.9,1,1.5l-1.3,0.7c-0.4-0.8-0.8-1.5-1.4-2.2h-1.2c-0.6,0.9-1.3,1.8-2.1,2.5
			L165.4,135.5z M173.5,140.2h-4.3l-0.3,1.6h4.6V140.2z M178.8,135.8c-0.3-0.7-0.7-1.4-1.3-2h-1.2c-0.5,0.8-1.1,1.5-1.7,2.2
			l-1.3-0.8c1.3-1.2,2.3-2.7,2.8-4.5l1.4,0.5c-0.1,0.4-0.2,0.8-0.3,1.2h5.2v1.4h-3c0.4,0.4,0.7,0.9,1,1.4L178.8,135.8z M175,137.3
			v1.5h4.3v-1.5L175,137.3z"/>
		<path class="st1" d="M166.5,163.5h15.1v1.6h-15.1V163.5z"/>
		<path class="st1" d="M170.9,187.3c0.9,0.6,1.7,1.5,2.3,2.4l-1.1,0.9c-0.4-0.7-0.9-1.3-1.5-1.8v9.5H169v-8.1
			c-0.6,1.4-1.6,2.7-2.7,3.8l-1.3-1c2-1.8,3.4-4.2,3.9-6.8h-2.9v-1.4h3.1v-3.8h1.5v3.8h2.5v1.4h-2.5v1.6L170.9,187.3z M175.7,189.2
			c-0.9,1.4-2,2.6-3.2,3.7l-1.3-1c1.6-1.2,2.9-2.8,3.9-4.6c0.6-1.2,1.1-2.5,1.4-3.9h-4.9v-1.4h10.8v1.4H178
			c-0.2,1.2-0.6,2.4-1.1,3.6h0.4v11.3h-1.5L175.7,189.2z M178.7,187.1c1.8,1.3,3.2,3,4.1,5l-1.3,1c-0.9-2-2.2-3.7-4-5L178.7,187.1z"
			/>
		<path class="st1" d="M168.4,214.7c-0.8-1.2-1.9-2.2-3.3-2.7l1-1c0.8,0.2,1.5,0.6,2,1.2c0.5,0.5,1,1,1.4,1.5L168.4,214.7z
			 M165.1,222.4c1.7-1.9,2.8-4.3,3.1-6.9l1.3,0.5c-0.4,2.6-1.5,5-3.1,7.1L165.1,222.4z M169.1,210.4c-0.8-1.1-1.9-1.9-3.2-2.4l1-1
			c1.3,0.5,2.4,1.3,3.3,2.4L169.1,210.4z M179.7,223.5v-1.3H172v1.3h-1.5v-13.1h3.2v-2h-4.3V207h13.1v1.4h-4.4v2h3.1v13.1
			L179.7,223.5z M172,216.9v1.1h7.7v-1.6h-1.3c-1,0-1.7-0.8-1.8-1.7v-2.7h-1.4c0.1,2.1-0.6,4.2-2,5.8L172,216.9z M179.7,220.8v-1.4
			H172v1.4L179.7,220.8z M172,216.6c1.2-1.3,1.8-3,1.7-4.8H172V216.6z M176.6,210.4v-2h-1.4v2H176.6z M179.7,214.8v-3h-1.6v2.5
			c0,0.3,0.2,0.4,0.5,0.4L179.7,214.8z"/>
	</g>
</g>
</svg>
